<?xml version="1.0" encoding="UTF-8"?>
<svg xmlns="http://www.w3.org/2000/svg" width="23" height="23" viewBox="0 0 23 23" fill="none">
  <g clip-path="url(#clip0_837_7419)">
    <path d="M20.6375 18.143C21.0012 17.7078 21.2206 17.148 21.2206 16.5378C21.2206 15.1555 20.0961 14.031 18.7139 14.031C17.3317 14.031 16.2071 15.1555 16.2071 16.5378C16.2071 17.148 16.4265 17.7078 16.7902 18.143C16.103 18.4896 15.5211 19.0157 15.1069 19.6594C14.6926 19.0156 14.1108 18.4895 13.4236 18.143C13.7873 17.7078 14.0067 17.148 14.0067 16.5378C14.0067 15.1555 12.8821 14.031 11.4999 14.031C10.1177 14.031 8.99314 15.1555 8.99314 16.5378C8.99314 17.148 9.21253 17.7078 9.57627 18.143C8.88901 18.4896 8.30718 19.0157 7.89291 19.6594C7.47864 19.0157 6.89681 18.4896 6.2096 18.143C6.57333 17.7078 6.79277 17.148 6.79277 16.5378C6.79277 15.1556 5.6682 14.0311 4.28595 14.0311C2.90375 14.0311 1.77918 15.1556 1.77918 16.5378C1.77918 17.148 1.99857 17.7078 2.36231 18.143C0.962496 18.8491 0 20.3003 0 21.9724C0 22.3474 0.304076 22.6515 0.679129 22.6515H7.89304H15.107H22.3209C22.696 22.6515 23 22.3474 23 21.9724C23 20.3003 22.0375 18.8491 20.6375 18.143ZM4.28604 15.3893C4.91935 15.3893 5.4346 15.9045 5.4346 16.5378C5.4346 17.171 4.91935 17.6863 4.28604 17.6863C3.65278 17.6863 3.13752 17.171 3.13752 16.5378C3.13757 15.9045 3.65278 15.3893 4.28604 15.3893ZM1.43777 21.2933C1.74486 20.0053 2.90537 19.0446 4.28604 19.0446C5.66672 19.0446 6.82727 20.0053 7.13436 21.2933H1.43777ZM11.5 15.3893C12.1333 15.3893 12.6485 15.9045 12.6485 16.5378C12.6485 17.171 12.1333 17.6863 11.5 17.6863C10.8667 17.6863 10.3515 17.171 10.3515 16.5378C10.3515 15.9045 10.8667 15.3893 11.5 15.3893ZM8.65168 21.2933C8.95877 20.0053 10.1193 19.0446 11.5 19.0446C12.8807 19.0446 14.0412 20.0053 14.3483 21.2933H8.65168ZM18.7139 15.3893C19.3472 15.3893 19.8624 15.9045 19.8624 16.5378C19.8624 17.171 19.3472 17.6863 18.7139 17.6863C18.0807 17.6863 17.5654 17.171 17.5654 16.5378C17.5654 15.9045 18.0806 15.3893 18.7139 15.3893ZM15.8656 21.2933C16.1726 20.0053 17.3332 19.0446 18.7139 19.0446C20.0945 19.0446 21.2551 20.0053 21.5622 21.2933H15.8656Z" fill="#80838D"></path>
    <path d="M17.2002 6.50747H12.2044V2.66732L13.0362 3.49914C13.1688 3.63175 13.3426 3.6981 13.5164 3.6981C13.6901 3.6981 13.864 3.63175 13.9966 3.49914C14.2618 3.23396 14.2618 2.80393 13.9966 2.53871L12.0056 0.547682C11.9899 0.531959 11.9734 0.51709 11.9562 0.502939C11.9521 0.499525 11.9477 0.496695 11.9434 0.493371C11.9302 0.482949 11.9168 0.472662 11.9028 0.463273C11.8988 0.460668 11.8947 0.458467 11.8907 0.455951C11.876 0.446518 11.8611 0.437309 11.8457 0.428998C11.8429 0.427471 11.8398 0.426303 11.8369 0.424775C11.8201 0.416061 11.8031 0.407795 11.7855 0.400518C11.7837 0.399709 11.7816 0.39917 11.7797 0.398406C11.7612 0.390949 11.7424 0.384031 11.7231 0.378102C11.721 0.377428 11.7187 0.377068 11.7165 0.376439C11.6976 0.370869 11.6785 0.365838 11.659 0.36193C11.6534 0.360852 11.6478 0.360357 11.6422 0.359414C11.626 0.356584 11.6097 0.353709 11.5931 0.352092C11.5706 0.349846 11.548 0.348633 11.5253 0.348633C11.5025 0.348633 11.4799 0.349801 11.4575 0.352092C11.4408 0.353709 11.4246 0.356584 11.4083 0.359414C11.4028 0.360357 11.3971 0.360852 11.3916 0.36193C11.372 0.365838 11.3529 0.370869 11.334 0.376439C11.3318 0.377068 11.3295 0.377473 11.3274 0.378102C11.3081 0.383941 11.2893 0.390859 11.2708 0.398406C11.2689 0.39917 11.2669 0.399754 11.265 0.400518C11.2474 0.407795 11.2304 0.416105 11.2136 0.424775C11.2107 0.426258 11.2077 0.427426 11.2048 0.428998C11.1893 0.437264 11.1745 0.446518 11.1598 0.455951C11.1558 0.458467 11.1517 0.460668 11.1477 0.463273C11.1337 0.472707 11.1203 0.482949 11.107 0.493371C11.1029 0.49665 11.0984 0.499525 11.0943 0.502939C11.0771 0.51709 11.0606 0.531959 11.0449 0.547682L9.05385 2.53871C8.78863 2.80388 8.78863 3.23392 9.05385 3.49914C9.31897 3.76436 9.74901 3.76436 10.0143 3.49914L10.8461 2.66732V6.50751H5.85271C4.6144 6.50751 3.60693 7.51489 3.60693 8.75325V11.8515C3.60689 12.2265 3.91097 12.5305 4.28602 12.5305C4.66107 12.5305 4.96515 12.2265 4.96515 11.8514V8.7532C4.96515 8.26387 5.36324 7.86577 5.85262 7.86577H10.846V11.8514C10.846 12.2265 11.1501 12.5305 11.5252 12.5305C11.9002 12.5305 12.2043 12.2265 12.2043 11.8514V7.86577H17.2001C17.6894 7.86577 18.0875 8.26387 18.0875 8.7532V11.8724C18.0875 12.2474 18.3916 12.5515 18.7667 12.5515C19.1417 12.5515 19.4458 12.2474 19.4458 11.8724V8.7532C19.4459 7.51488 18.4385 6.50747 17.2002 6.50747Z" fill="#80838D"></path>
  </g>
  <defs>
    <clipPath id="clip0_837_7419">
      <rect width="23" height="23" fill="white"></rect>
    </clipPath>
  </defs>
</svg>
