<?xml version="1.0" encoding="UTF-8"?>
<svg xmlns="http://www.w3.org/2000/svg" width="45" height="45" viewBox="0 0 45 45" fill="none">
  <path d="M30.4099 14.3011L31.0948 13.6162C31.1975 13.5092 31.2541 13.3663 31.2525 13.218C31.251 13.0698 31.1914 12.9281 31.0866 12.8232C30.9818 12.7184 30.84 12.6589 30.6918 12.6573C30.5436 12.6558 30.4006 12.7125 30.2937 12.8151L28.655 14.4538C28.6023 14.5064 28.5606 14.5688 28.5321 14.6376C28.5036 14.7063 28.489 14.78 28.489 14.8544C28.489 14.9288 28.5036 15.0024 28.5321 15.0712C28.5606 15.1399 28.6023 15.2023 28.655 15.2549L30.2937 16.8937C30.3462 16.9464 30.4087 16.9881 30.4774 17.0166C30.5462 17.0451 30.6198 17.0597 30.6942 17.0597C30.8055 17.0579 30.9137 17.0236 31.0057 16.961C31.0977 16.8985 31.1694 16.8104 31.212 16.7076C31.2545 16.6048 31.2661 16.4918 31.2453 16.3826C31.2245 16.2733 31.1722 16.1725 31.0948 16.0926L30.4378 15.4356C32.2626 15.5109 33.9878 16.2881 35.2533 17.6048C36.5188 18.9216 37.2269 20.6762 37.2299 22.5026C36.8395 31.8991 23.4538 31.8933 23.0665 22.5025C23.064 20.3246 22.1977 18.2366 20.6577 16.6966C19.1177 15.1566 17.0297 14.2903 14.8518 14.2878C4.11918 14.7073 3.88224 29.9521 14.5901 30.7041L13.9052 31.389C13.8524 31.4416 13.8105 31.504 13.7819 31.5728C13.7533 31.6416 13.7386 31.7153 13.7385 31.7898C13.7384 31.8642 13.753 31.938 13.7815 32.0068C13.81 32.0757 13.8517 32.1382 13.9044 32.1909C13.9571 32.2435 14.0196 32.2853 14.0884 32.3137C14.1573 32.3422 14.231 32.3568 14.3055 32.3568C14.38 32.3567 14.4537 32.3419 14.5225 32.3133C14.5912 32.2847 14.6537 32.2429 14.7063 32.1901L16.345 30.5513C16.3976 30.4987 16.4394 30.4363 16.4679 30.3676C16.4963 30.2988 16.511 30.2252 16.511 30.1508C16.511 30.0764 16.4963 30.0027 16.4679 29.934C16.4394 29.8653 16.3976 29.8028 16.345 29.7502L14.7063 28.1115C14.5993 28.0088 14.4564 27.9521 14.3081 27.9536C14.1598 27.9551 14.018 28.0147 13.9132 28.1195C13.8083 28.2244 13.7488 28.3662 13.7473 28.5144C13.7458 28.6627 13.8025 28.8057 13.9052 28.9126L14.5622 29.5696C5.38329 28.8493 5.63297 15.7788 14.8518 15.4208C16.7294 15.423 18.5294 16.1698 19.857 17.4974C21.1846 18.825 21.9313 20.625 21.9335 22.5026C21.936 24.6805 22.8022 26.7685 24.3423 28.3085C25.8823 29.8485 27.9703 30.7148 30.1482 30.7173C40.8807 30.2978 41.1178 15.0531 30.4099 14.3011Z" fill="#364153"></path>
  <path d="M26.6102 24.8644C26.7171 24.9672 26.8601 25.024 27.0084 25.0225C27.1568 25.0211 27.2986 24.9615 27.4035 24.8566C27.5084 24.7517 27.568 24.6098 27.5695 24.4615C27.5709 24.3132 27.5141 24.1702 27.4113 24.0632L25.8506 22.5025L27.4113 20.9419C27.5174 20.8356 27.577 20.6916 27.5769 20.5414C27.5769 20.3912 27.5172 20.2472 27.411 20.141C27.3048 20.0348 27.1608 19.9752 27.0107 19.9751C26.8605 19.975 26.7164 20.0346 26.6102 20.1407L24.6489 22.102C24.5963 22.1546 24.5545 22.217 24.526 22.2858C24.4976 22.3545 24.4829 22.4282 24.4829 22.5026C24.4829 22.577 24.4976 22.6506 24.526 22.7194C24.5545 22.7881 24.5963 22.8505 24.6489 22.9031L26.6102 24.8644Z" fill="#364153"></path>
  <path d="M32.8852 24.8644C32.9378 24.917 33.0003 24.9588 33.069 24.9872C33.1377 25.0157 33.2114 25.0304 33.2858 25.0304C33.3602 25.0304 33.4338 25.0157 33.5026 24.9872C33.5713 24.9588 33.6337 24.917 33.6863 24.8644L35.6476 22.9031C35.7003 22.8505 35.742 22.7881 35.7705 22.7194C35.7989 22.6506 35.8136 22.577 35.8136 22.5026C35.8136 22.4282 35.7989 22.3545 35.7705 22.2858C35.742 22.2171 35.7003 22.1546 35.6476 22.102L33.6863 20.1407C33.5801 20.0345 33.436 19.9748 33.2857 19.9748C33.1355 19.9748 32.9914 20.0345 32.8852 20.1407C32.779 20.247 32.7193 20.3911 32.7193 20.5413C32.7193 20.6916 32.779 20.8356 32.8852 20.9419L34.446 22.5026L32.8852 24.0633C32.8326 24.1159 32.7909 24.1783 32.7624 24.247C32.7339 24.3158 32.7192 24.3894 32.7192 24.4638C32.7192 24.5382 32.7339 24.6119 32.7624 24.6806C32.7909 24.7494 32.8326 24.8118 32.8852 24.8644Z" fill="#364153"></path>
  <path d="M29.9623 25.5814L31.4328 19.6981C31.466 19.5535 31.4412 19.4017 31.3636 19.2752C31.2861 19.1487 31.162 19.0577 31.0181 19.0218C30.8741 18.9858 30.7218 19.0078 30.5939 19.083C30.466 19.1581 30.3727 19.2805 30.334 19.4237L28.8635 25.307C28.8303 25.4516 28.8552 25.6034 28.9327 25.7298C29.0103 25.8563 29.1344 25.9472 29.2783 25.9832C29.4222 26.0191 29.5745 25.9972 29.7023 25.922C29.8302 25.8469 29.9236 25.7246 29.9623 25.5814Z" fill="#364153"></path>
  <path d="M22.5002 1.40588C18.3282 1.40582 14.2498 2.6429 10.7809 4.96071C7.31192 7.27852 4.60818 10.5729 3.01157 14.4274C1.41495 18.2818 0.997165 22.5231 1.81104 26.615C2.62492 30.7069 4.63391 34.4655 7.58396 37.4156C10.534 40.3657 14.2926 42.3748 18.3845 43.1887C22.4763 44.0027 26.7177 43.585 30.5721 41.9884C34.4266 40.3919 37.7211 37.6882 40.0389 34.2193C42.3568 30.7504 43.594 26.672 43.594 22.5C43.5877 16.9075 41.3633 11.5458 37.4088 7.59128C33.4544 3.63673 28.0927 1.41226 22.5002 1.40588ZM22.5002 42.3926C18.5658 42.3925 14.7198 41.2258 11.4486 39.0399C8.17729 36.8541 5.62766 33.7472 4.12209 30.1123C2.61652 26.4774 2.22263 22.4777 2.99024 18.6189C3.75784 14.7601 5.65246 11.2157 8.4345 8.43366C11.2166 5.65167 14.7611 3.75712 18.6199 2.98959C22.4786 2.22206 26.4784 2.61602 30.1132 4.12166C33.7481 5.62729 36.8549 8.17698 39.0407 11.4483C41.2265 14.7196 42.3932 18.5656 42.3932 22.5C42.3871 27.774 40.2893 32.8303 36.5599 36.5596C32.8306 40.2889 27.7743 42.3866 22.5002 42.3926Z" fill="#364153"></path>
  <g clip-path="url(#clip0_198_7252)">
    <path d="M14.2227 16.959C14.8187 16.8677 15.4424 16.8825 16.0312 17.0049C16.3963 17.0793 16.6421 17.4071 16.6152 17.7812C16.5954 18.0438 16.7113 18.2996 16.915 18.46L17.0078 18.5225V18.5234C17.269 18.6752 17.6006 18.6619 17.8506 18.4893L17.9658 18.4238C18.2447 18.2973 18.5806 18.3581 18.791 18.5889L18.792 18.5898C19.2713 19.1225 19.6271 19.7373 19.8496 20.417C19.9603 20.7573 19.7887 21.1306 19.46 21.2891C19.1854 21.4226 19.0146 21.6952 19.0146 22C19.0148 22.3004 19.19 22.5792 19.46 22.71C19.7883 22.8688 19.9609 23.2415 19.8496 23.582C19.6276 24.2614 19.2714 24.8759 18.792 25.4092V25.4102C18.582 25.641 18.2451 25.7016 17.9658 25.5762L17.8506 25.5107C17.6006 25.338 17.2704 25.3247 17.0078 25.4756C16.7428 25.6289 16.5925 25.9132 16.6152 26.2178L16.6133 26.3555C16.5791 26.6695 16.3515 26.9289 16.0322 26.9951C15.6951 27.0651 15.3479 27.0996 15 27.0996C14.6519 27.0996 14.3052 27.065 13.9688 26.9951C13.6032 26.9201 13.3585 26.5921 13.3848 26.2188V26.1045C13.3679 25.8439 13.2244 25.6096 12.9922 25.4756C12.7303 25.3248 12.4 25.3389 12.1504 25.5107C11.8537 25.7156 11.4489 25.6735 11.209 25.4102H11.208C10.7881 24.9432 10.4636 24.4139 10.2402 23.834L10.1504 23.582C10.0397 23.2417 10.2115 22.8689 10.54 22.71C10.81 22.5792 10.9852 22.3004 10.9854 22C10.9854 21.6951 10.8143 21.4226 10.5391 21.2891C10.211 21.1305 10.0398 20.7571 10.1504 20.417C10.3729 19.7372 10.7286 19.122 11.208 18.5898C11.4477 18.324 11.8526 18.2844 12.1504 18.4893C12.3985 18.6608 12.7299 18.674 12.9922 18.5234L13.085 18.4609C13.2889 18.3002 13.4042 18.0439 13.3848 17.7812C13.3573 17.4075 13.6032 17.0788 13.9697 17.0039L14.2227 16.959ZM15.8594 17.7422C15.2981 17.6284 14.6999 17.6292 14.1406 17.7422C14.1766 18.3248 13.877 18.8878 13.3711 19.1797C12.8663 19.4713 12.2298 19.4507 11.7432 19.1279C11.3576 19.5636 11.0681 20.063 10.8828 20.6143C11.4128 20.8776 11.7422 21.4077 11.7422 22C11.7421 22.5843 11.405 23.1244 10.8828 23.3838C11.068 23.9345 11.3575 24.4342 11.7441 24.8711C12.0011 24.7006 12.3003 24.6143 12.5996 24.6143C12.8657 24.6143 13.1328 24.6823 13.3711 24.8203L13.4648 24.8789C13.9145 25.1841 14.1745 25.7121 14.1396 26.2568C14.6982 26.37 15.2964 26.3698 15.8594 26.2568C15.8218 25.6669 16.1157 25.117 16.6289 24.8203C17.1342 24.5279 17.7696 24.5496 18.2549 24.8711C18.6414 24.4345 18.9308 23.9348 19.1162 23.3838C18.5944 23.1242 18.2579 22.584 18.2578 22C18.2578 21.4078 18.587 20.8776 19.1162 20.6143C18.9309 20.0631 18.6414 19.5641 18.2559 19.1279C17.7999 19.4295 17.2139 19.4673 16.7266 19.2305L16.6289 19.1787C16.1226 18.8868 15.8224 18.3248 15.8594 17.7422ZM10.8262 23.3018L10.8672 23.3896H10.8682L10.8262 23.3018Z" fill="#364153" stroke="#364153" stroke-width="0.2"></path>
    <path d="M15 20.1288C16.032 20.1288 16.8711 20.9679 16.8711 21.9999C16.871 23.0318 16.0319 23.871 15 23.871C13.9683 23.8708 13.129 23.0317 13.1289 21.9999C13.1289 20.9679 13.9682 20.129 15 20.1288ZM15 20.8856C14.3855 20.8858 13.8857 21.3859 13.8857 21.9999C13.8859 22.6137 14.3856 23.114 15 23.1141C15.614 23.1141 16.1141 22.6139 16.1143 21.9999C16.1143 21.3858 15.6141 20.8856 15 20.8856Z" fill="#364153" stroke="#364153" stroke-width="0.2"></path>
  </g>
  <defs>
    <clipPath id="clip0_198_7252">
      <rect width="10" height="10" fill="white" transform="translate(10 17)"></rect>
    </clipPath>
  </defs>
</svg>
