<?xml version="1.0" encoding="UTF-8"?>
<svg xmlns="http://www.w3.org/2000/svg" width="23" height="23" viewBox="0 0 23 23" fill="none">
  <g clip-path="url(#clip0_837_7461)">
    <path d="M17.25 22.2812H5.75C5.35253 22.2812 5.03125 21.96 5.03125 21.5625C5.03125 21.165 5.35253 20.8438 5.75 20.8438H17.25C17.6475 20.8438 17.9688 21.165 17.9688 21.5625C17.9688 21.96 17.6475 22.2812 17.25 22.2812Z" fill="#80838D"></path>
    <path d="M13.6562 22.2812H9.34375V18.6875C9.34375 17.8947 9.98847 17.25 10.7812 17.25H12.2188C13.0115 17.25 13.6562 17.8947 13.6562 18.6875V22.2812ZM10.7812 20.8438H12.2188V18.6875H10.7812V20.8438Z" fill="#80838D"></path>
    <path d="M18.7436 10.7812C18.3461 10.7812 18.0248 10.46 18.0248 10.0625C18.0248 9.66503 18.3461 9.34375 18.7436 9.34375C19.9015 9.34375 20.8438 8.37631 20.8438 7.1875C20.8438 5.99869 19.9015 5.03125 18.7436 5.03125H17.25C16.8525 5.03125 16.5312 4.70997 16.5312 4.3125C16.5312 3.91503 16.8525 3.59375 17.25 3.59375H18.7436C20.6942 3.59375 22.2812 5.20591 22.2812 7.1875C22.2812 9.16909 20.6942 10.7812 18.7436 10.7812Z" fill="#80838D"></path>
    <path d="M4.25644 10.7812C2.30575 10.7812 0.71875 9.16909 0.71875 7.1875C0.71875 5.20591 2.30575 3.59375 4.25644 3.59375H5.75C6.14747 3.59375 6.46875 3.91503 6.46875 4.3125C6.46875 4.70997 6.14747 5.03125 5.75 5.03125H4.25644C3.09853 5.03125 2.15625 5.99869 2.15625 7.1875C2.15625 8.37631 3.09853 9.34375 4.25644 9.34375C4.65391 9.34375 4.97519 9.66503 4.97519 10.0625C4.97519 10.46 4.65391 10.7812 4.25644 10.7812Z" fill="#80838D"></path>
    <path d="M17.2498 5.03125C16.9365 5.03125 16.649 4.82569 16.5584 4.50944C16.2278 3.35297 14.2455 2.15625 11.4998 2.15625C8.75421 2.15625 6.7719 3.35297 6.44128 4.50944C6.33203 4.89109 5.93456 5.10887 5.5529 5.00394C5.17052 4.89469 4.94987 4.4965 5.0584 4.11556C5.63053 2.11528 8.27912 0.71875 11.4998 0.71875C14.7206 0.71875 17.3692 2.11528 17.9413 4.11556C18.0498 4.4965 17.8292 4.89469 17.4468 5.00394C17.3814 5.02191 17.3152 5.03125 17.2498 5.03125Z" fill="#80838D"></path>
    <path d="M16.5312 22.2812H6.46875V11.5C6.46875 10.7072 7.11347 10.0625 7.90625 10.0625H15.0938C15.8865 10.0625 16.5312 10.7072 16.5312 11.5V22.2812ZM7.90625 20.8438H15.0938V11.5022L7.90625 11.5V20.8438Z" fill="#80838D"></path>
    <path d="M17.9688 13.6562H15.0938V11.5H7.90625V13.6562H5.03125C4.23847 13.6562 3.59375 13.0115 3.59375 12.2188V7.90625C3.59375 7.11347 4.23847 6.46875 5.03125 6.46875H17.9688C18.7615 6.46875 19.4062 7.11347 19.4062 7.90625V12.2188C19.4062 13.0115 18.7615 13.6562 17.9688 13.6562ZM16.5312 12.2188H17.9688V7.90841L5.03125 7.90625V12.2188H6.46875V11.5C6.46875 10.7072 7.11347 10.0625 7.90625 10.0625H15.0938C15.8865 10.0625 16.5312 10.7072 16.5312 11.5V12.2188Z" fill="#80838D"></path>
  </g>
  <defs>
    <clipPath id="clip0_837_7461">
      <rect width="23" height="23" fill="white"></rect>
    </clipPath>
  </defs>
</svg>
