<svg width="88" height="50" viewBox="0 0 88 50" fill="none" xmlns="http://www.w3.org/2000/svg">
<g opacity="0.9">
<g opacity="0.5">
<rect x="0.799805" y="0.799805" width="85.556" height="47.6331" rx="1.83211" fill="#CDCED6"/>
<rect x="0.400018" y="0.400018" width="86.3555" height="48.4326" rx="2.2319" stroke="white" stroke-opacity="0.3" stroke-width="0.799573"/>
</g>
</g>
<path d="M21.7111 14.5169C19.4286 14.2325 14.8162 15.939 12.7953 16.8278C10.9408 27.0669 17.9665 33.0635 21.7111 34.7818C30.2702 31.511 31.2212 21.6867 30.6268 17.1834C27.4172 15.228 24.5641 14.8725 21.7111 14.5169Z" fill="#61BE7D"/>
<path d="M30.6277 17.183C27.418 15.2277 24.565 14.8721 21.7119 14.5166V34.7815C30.2711 31.5107 31.2221 21.6864 30.6277 17.183Z" fill="#56AA6F"/>
<path d="M23.4921 33.8927L17.0728 27.4932L20.4607 20.916H25.9885L30.2681 23.938C29.1269 30.1952 25.2753 33.1816 23.4921 33.8927Z" fill="#4C9964"/>
<path d="M21.9546 18.7949C23.0628 18.9075 23.9387 19.8008 24.0269 20.916H24.8384C25.773 20.916 26.5307 21.6738 26.5308 22.6084V26.334C26.5306 27.2685 25.7729 28.0264 24.8384 28.0264H18.5942C17.6597 28.0263 16.902 27.2685 16.9019 26.334V22.6084C16.9019 21.6738 17.6596 20.916 18.5942 20.916H19.4087C19.5032 19.7224 20.5004 18.7832 21.7183 18.7832L21.9546 18.7949ZM21.896 23.7598C21.5022 23.7598 21.1824 24.0782 21.1821 24.4707C21.1821 24.8634 21.5021 25.1826 21.896 25.1826C22.2897 25.1824 22.6089 24.8633 22.6089 24.4707C22.6086 24.0784 22.2896 23.76 21.896 23.7598ZM21.7183 19.9111C21.1242 19.9111 20.6326 20.3469 20.5435 20.916H22.8911C22.8021 20.3471 22.312 19.9115 21.7183 19.9111Z" fill="white"/>
<path d="M34.2892 17.8991C34.7029 17.8991 35.0188 17.9893 35.237 18.1699C35.4589 18.3466 35.5698 18.6193 35.5698 18.9878V21.0413H34.9831L34.8195 20.6238H34.797C34.7105 20.7329 34.6202 20.8231 34.5262 20.8946C34.4359 20.966 34.3306 21.0168 34.2103 21.0469C34.0937 21.0808 33.9489 21.0977 33.7759 21.0977C33.5954 21.0977 33.4318 21.0638 33.2851 20.9961C33.1422 20.9247 33.0294 20.8175 32.9466 20.6746C32.8639 20.5279 32.8225 20.3436 32.8225 20.1217C32.8225 19.7945 32.9372 19.5539 33.1666 19.3997C33.396 19.2417 33.7402 19.1552 34.199 19.1402L34.7349 19.1232V18.9878C34.7349 18.8261 34.6916 18.7077 34.6051 18.6324C34.5224 18.5572 34.4058 18.5196 34.2554 18.5196C34.105 18.5196 33.9583 18.5422 33.8154 18.5873C33.6725 18.6287 33.5295 18.6813 33.3866 18.7453L33.1102 18.1755C33.2757 18.089 33.4581 18.0213 33.6574 17.9724C33.8605 17.9235 34.0711 17.8991 34.2892 17.8991ZM34.4077 19.6253C34.1369 19.6328 33.9489 19.6817 33.8436 19.772C33.7383 19.8622 33.6856 19.9807 33.6856 20.1274C33.6856 20.2553 33.7232 20.3474 33.7984 20.4038C33.8737 20.4565 33.9714 20.4828 34.0918 20.4828C34.2723 20.4828 34.4246 20.4301 34.5487 20.3248C34.6728 20.2158 34.7349 20.0634 34.7349 19.8679V19.614L34.4077 19.6253Z" fill="#60646C"/>
<path d="M38.1845 17.9047C38.5154 17.9047 38.7806 17.995 38.9799 18.1755C39.1792 18.3523 39.2789 18.6381 39.2789 19.033V21.0413H38.4383V19.2417C38.4383 19.0198 38.3989 18.8543 38.3199 18.7453C38.2409 18.6324 38.1149 18.576 37.9419 18.576C37.6862 18.576 37.5113 18.6644 37.4173 18.8412C37.3233 19.0142 37.2762 19.2643 37.2762 19.5915V21.0413H36.4357V17.9611H37.0788L37.1916 18.356H37.2368C37.3044 18.2507 37.3872 18.1661 37.485 18.1022C37.5828 18.0345 37.6918 17.9856 37.8122 17.9555C37.9325 17.9216 38.0566 17.9047 38.1845 17.9047Z" fill="#60646C"/>
<path d="M41.1192 21.0977C40.777 21.0977 40.4968 20.9642 40.2787 20.6971C40.0643 20.4264 39.9571 20.0296 39.9571 19.5068C39.9571 18.9803 40.0662 18.5817 40.2843 18.3109C40.5024 18.0401 40.7883 17.9047 41.1418 17.9047C41.2885 17.9047 41.4182 17.9254 41.531 17.9668C41.6439 18.0044 41.7398 18.057 41.8187 18.1247C41.9015 18.1924 41.9711 18.2695 42.0275 18.356H42.0557C42.0444 18.2959 42.0312 18.2094 42.0162 18.0965C42.0011 17.9799 41.9936 17.8615 41.9936 17.7411V16.7539H42.8342V21.0413H42.1911L42.0275 20.6407H41.9936C41.941 20.7235 41.8733 20.8006 41.7905 20.872C41.7116 20.9397 41.6175 20.9943 41.5085 21.0356C41.3994 21.077 41.2697 21.0977 41.1192 21.0977ZM41.4126 20.4264C41.6457 20.4264 41.8093 20.3587 41.9034 20.2233C41.9974 20.0841 42.0463 19.8773 42.05 19.6027V19.5125C42.05 19.2116 42.003 18.9822 41.909 18.8243C41.8187 18.6663 41.6495 18.5873 41.4013 18.5873C41.217 18.5873 41.0722 18.6682 40.9669 18.8299C40.8616 18.9878 40.809 19.2173 40.809 19.5181C40.809 19.819 40.8616 20.0465 40.9669 20.2007C41.0722 20.3512 41.2208 20.4264 41.4126 20.4264Z" fill="#60646C"/>
<path d="M45.4337 17.9047C45.4751 17.9047 45.524 17.9066 45.5804 17.9104C45.6368 17.9141 45.6819 17.9198 45.7158 17.9273L45.6537 18.7171C45.6274 18.7095 45.5879 18.7039 45.5353 18.7001C45.4864 18.6926 45.4431 18.6889 45.4055 18.6889C45.2965 18.6889 45.1912 18.7039 45.0896 18.734C44.9881 18.7603 44.8959 18.8036 44.8132 18.8637C44.7342 18.9239 44.6703 19.0048 44.6214 19.1063C44.5763 19.2041 44.5537 19.3263 44.5537 19.473V21.0413H43.7131V17.9611H44.3506L44.4747 18.4801H44.5142C44.5744 18.3748 44.6496 18.2789 44.7399 18.1924C44.8301 18.1059 44.9335 18.0364 45.0501 17.9837C45.1705 17.931 45.2983 17.9047 45.4337 17.9047Z" fill="#60646C"/>
<path d="M48.9627 19.4956C48.9627 19.7513 48.927 19.9788 48.8556 20.1782C48.7879 20.3775 48.6882 20.5467 48.5566 20.6859C48.4287 20.8213 48.2726 20.9247 48.0883 20.9961C47.9041 21.0638 47.6953 21.0977 47.4622 21.0977C47.2478 21.0977 47.0485 21.0638 46.8642 20.9961C46.6837 20.9247 46.5276 20.8213 46.396 20.6859C46.2643 20.5467 46.1609 20.3775 46.0857 20.1782C46.0142 19.9788 45.9785 19.7513 45.9785 19.4956C45.9785 19.1533 46.0387 18.8656 46.159 18.6324C46.2794 18.3955 46.4524 18.215 46.678 18.0909C46.9037 17.9668 47.1707 17.9047 47.4791 17.9047C47.7687 17.9047 48.0244 17.9668 48.2463 18.0909C48.4682 18.215 48.6431 18.3955 48.7709 18.6324C48.8988 18.8656 48.9627 19.1533 48.9627 19.4956ZM46.836 19.4956C46.836 19.6986 46.8567 19.8698 46.898 20.0089C46.9432 20.1443 47.0127 20.2477 47.1068 20.3192C47.2008 20.3869 47.323 20.4207 47.4734 20.4207C47.6239 20.4207 47.7442 20.3869 47.8345 20.3192C47.9285 20.2477 47.9962 20.1443 48.0376 20.0089C48.0827 19.8698 48.1053 19.6986 48.1053 19.4956C48.1053 19.2925 48.0827 19.1232 48.0376 18.9878C47.9962 18.8525 47.9285 18.7509 47.8345 18.6832C47.7405 18.6155 47.6182 18.5817 47.4678 18.5817C47.2459 18.5817 47.0842 18.6588 46.9827 18.813C46.8849 18.9634 46.836 19.1909 46.836 19.4956Z" fill="#60646C"/>
<path d="M50.498 17.9611V21.0413H49.6574V17.9611H50.498ZM50.0805 16.7539C50.2046 16.7539 50.3118 16.784 50.4021 16.8442C50.4923 16.9006 50.5374 17.0078 50.5374 17.1657C50.5374 17.3199 50.4923 17.4271 50.4021 17.4873C50.3118 17.5474 50.2046 17.5775 50.0805 17.5775C49.9526 17.5775 49.8436 17.5474 49.7533 17.4873C49.6668 17.4271 49.6236 17.3199 49.6236 17.1657C49.6236 17.0078 49.6668 16.9006 49.7533 16.8442C49.8436 16.784 49.9526 16.7539 50.0805 16.7539Z" fill="#60646C"/>
<path d="M52.3522 21.0977C52.0099 21.0977 51.7297 20.9642 51.5116 20.6971C51.2973 20.4264 51.1901 20.0296 51.1901 19.5068C51.1901 18.9803 51.2991 18.5817 51.5173 18.3109C51.7354 18.0401 52.0212 17.9047 52.3747 17.9047C52.5214 17.9047 52.6512 17.9254 52.764 17.9668C52.8768 18.0044 52.9727 18.057 53.0517 18.1247C53.1344 18.1924 53.204 18.2695 53.2604 18.356H53.2886C53.2773 18.2959 53.2642 18.2094 53.2491 18.0965C53.2341 17.9799 53.2266 17.8615 53.2266 17.7411V16.7539H54.0671V21.0413H53.424L53.2604 20.6407H53.2266C53.1739 20.7235 53.1062 20.8006 53.0235 20.872C52.9445 20.9397 52.8505 20.9943 52.7414 21.0356C52.6324 21.077 52.5026 21.0977 52.3522 21.0977ZM52.6455 20.4264C52.8787 20.4264 53.0423 20.3587 53.1363 20.2233C53.2303 20.0841 53.2792 19.8773 53.283 19.6027V19.5125C53.283 19.2116 53.236 18.9822 53.1419 18.8243C53.0517 18.6663 52.8824 18.5873 52.6342 18.5873C52.4499 18.5873 52.3052 18.6682 52.1999 18.8299C52.0946 18.9878 52.0419 19.2173 52.0419 19.5181C52.0419 19.819 52.0946 20.0465 52.1999 20.2007C52.3052 20.3512 52.4537 20.4264 52.6455 20.4264Z" fill="#60646C"/>
<path d="M34.1508 23.9789C34.4366 23.9789 34.681 24.0334 34.8841 24.1425C35.091 24.2515 35.2508 24.4095 35.3636 24.6163C35.4765 24.8232 35.5329 25.077 35.5329 25.3779V25.7841H33.5471C33.5547 26.021 33.6242 26.2072 33.7559 26.3426C33.8913 26.478 34.0774 26.5456 34.3144 26.5456C34.5137 26.5456 34.6942 26.5268 34.8559 26.4892C35.0176 26.4479 35.185 26.3858 35.358 26.3031V26.9518C35.2076 27.027 35.0477 27.0816 34.8785 27.1154C34.713 27.153 34.5118 27.1718 34.2749 27.1718C33.9665 27.1718 33.6938 27.1154 33.4569 27.0026C33.22 26.886 33.0338 26.7111 32.8984 26.478C32.763 26.2448 32.6953 25.9514 32.6953 25.5979C32.6953 25.2369 32.7555 24.9379 32.8758 24.701C32.9999 24.4603 33.1711 24.2797 33.3892 24.1594C33.6073 24.039 33.8612 23.9789 34.1508 23.9789ZM34.1564 24.5768C33.9947 24.5768 33.8593 24.6295 33.7502 24.7348C33.6449 24.8401 33.5829 25.0037 33.5641 25.2256H34.7431C34.7431 25.1015 34.7205 24.9905 34.6754 24.8928C34.634 24.795 34.5701 24.7179 34.4836 24.6615C34.3971 24.6051 34.288 24.5768 34.1564 24.5768Z" fill="#60646C"/>
<path d="M37.9632 23.9789C38.2942 23.9789 38.5593 24.0691 38.7587 24.2497C38.958 24.4264 39.0576 24.7122 39.0576 25.1071V27.1154H38.2171V25.3159C38.2171 25.094 38.1776 24.9285 38.0986 24.8194C38.0197 24.7066 37.8937 24.6502 37.7207 24.6502C37.4649 24.6502 37.29 24.7386 37.196 24.9153C37.102 25.0883 37.055 25.3384 37.055 25.6656V27.1154H36.2144V24.0353H36.8576L36.9704 24.4302H37.0155C37.0832 24.3249 37.1659 24.2403 37.2637 24.1763C37.3615 24.1086 37.4706 24.0597 37.5909 24.0296C37.7113 23.9958 37.8354 23.9789 37.9632 23.9789Z" fill="#60646C"/>
<path d="M41.2195 26.5005C41.3135 26.5005 41.4038 26.4911 41.4903 26.4723C41.5768 26.4535 41.6633 26.4309 41.7498 26.4046V27.0308C41.6595 27.0684 41.5467 27.1004 41.4113 27.1267C41.2797 27.1568 41.1349 27.1718 40.977 27.1718C40.7927 27.1718 40.6272 27.1417 40.4805 27.0816C40.3376 27.0214 40.2229 26.918 40.1364 26.7713C40.0537 26.6209 40.0123 26.414 40.0123 26.1508V24.6671H39.6118V24.3117L40.0743 24.0296L40.3169 23.3809H40.8528V24.0353H41.716V24.6671H40.8528V26.1508C40.8528 26.2673 40.8867 26.3557 40.9544 26.4159C41.0221 26.4723 41.1105 26.5005 41.2195 26.5005Z" fill="#60646C"/>
<path d="M43.6373 23.9789C43.9232 23.9789 44.1676 24.0334 44.3707 24.1425C44.5775 24.2515 44.7374 24.4095 44.8502 24.6163C44.963 24.8232 45.0194 25.077 45.0194 25.3779V25.7841H43.0337C43.0412 26.021 43.1108 26.2072 43.2424 26.3426C43.3778 26.478 43.564 26.5456 43.8009 26.5456C44.0003 26.5456 44.1808 26.5268 44.3425 26.4892C44.5042 26.4479 44.6716 26.3858 44.8446 26.3031V26.9518C44.6941 27.027 44.5343 27.0816 44.3651 27.1154C44.1996 27.153 43.9984 27.1718 43.7614 27.1718C43.4531 27.1718 43.1804 27.1154 42.9435 27.0026C42.7065 26.886 42.5204 26.7111 42.385 26.478C42.2496 26.2448 42.1819 25.9514 42.1819 25.5979C42.1819 25.2369 42.2421 24.9379 42.3624 24.701C42.4865 24.4603 42.6576 24.2797 42.8758 24.1594C43.0939 24.039 43.3478 23.9789 43.6373 23.9789ZM43.643 24.5768C43.4813 24.5768 43.3459 24.6295 43.2368 24.7348C43.1315 24.8401 43.0694 25.0037 43.0506 25.2256H44.2297C44.2297 25.1015 44.2071 24.9905 44.162 24.8928C44.1206 24.795 44.0567 24.7179 43.9702 24.6615C43.8837 24.6051 43.7746 24.5768 43.643 24.5768Z" fill="#60646C"/>
<path d="M47.4216 23.9789C47.463 23.9789 47.5119 23.9808 47.5683 23.9845C47.6247 23.9883 47.6698 23.9939 47.7037 24.0014L47.6416 24.7912C47.6153 24.7837 47.5758 24.7781 47.5232 24.7743C47.4743 24.7668 47.431 24.763 47.3934 24.763C47.2843 24.763 47.179 24.7781 47.0775 24.8081C46.976 24.8345 46.8838 24.8777 46.8011 24.9379C46.7221 24.9981 46.6582 25.0789 46.6093 25.1805C46.5641 25.2782 46.5416 25.4005 46.5416 25.5471V27.1154H45.701V24.0353H46.3385L46.4626 24.5543H46.5021C46.5623 24.449 46.6375 24.3531 46.7277 24.2666C46.818 24.1801 46.9214 24.1105 47.038 24.0579C47.1584 24.0052 47.2862 23.9789 47.4216 23.9789Z" fill="#60646C"/>
<path d="M49.9777 23.9789C50.3237 23.9789 50.6039 24.1143 50.8182 24.385C51.0326 24.6521 51.1398 25.047 51.1398 25.5697C51.1398 25.9195 51.089 26.2147 50.9875 26.4554C50.8859 26.6923 50.7468 26.871 50.57 26.9913C50.3932 27.1117 50.1883 27.1718 49.9551 27.1718C49.8084 27.1718 49.6806 27.153 49.5715 27.1154C49.4662 27.0778 49.3759 27.0289 49.3007 26.9687C49.2255 26.9086 49.1597 26.8446 49.1033 26.7769H49.0581C49.0732 26.8484 49.0845 26.9236 49.092 27.0026C49.0995 27.0778 49.1033 27.153 49.1033 27.2282V28.4693H48.2627V24.0353H48.9453L49.0638 24.4358H49.1033C49.1597 24.3531 49.2274 24.2779 49.3064 24.2102C49.3853 24.1387 49.4794 24.0823 49.5884 24.0409C49.7013 23.9996 49.831 23.9789 49.9777 23.9789ZM49.7069 24.6502C49.5602 24.6502 49.4436 24.6803 49.3571 24.7404C49.2706 24.8006 49.2067 24.8928 49.1653 25.0169C49.1277 25.1372 49.107 25.2895 49.1033 25.4738V25.5641C49.1033 25.7634 49.1221 25.9326 49.1597 26.0718C49.1973 26.2072 49.2612 26.3106 49.3515 26.3821C49.4418 26.4535 49.564 26.4892 49.7182 26.4892C49.846 26.4892 49.9513 26.4535 50.0341 26.3821C50.1168 26.3106 50.1789 26.2053 50.2202 26.0661C50.2616 25.927 50.2823 25.7578 50.2823 25.5584C50.2823 25.2576 50.2353 25.0319 50.1413 24.8815C50.051 24.7273 49.9062 24.6502 49.7069 24.6502Z" fill="#60646C"/>
<path d="M53.5532 23.9789C53.5945 23.9789 53.6434 23.9808 53.6999 23.9845C53.7563 23.9883 53.8014 23.9939 53.8352 24.0014L53.7732 24.7912C53.7469 24.7837 53.7074 24.7781 53.6547 24.7743C53.6058 24.7668 53.5626 24.763 53.525 24.763C53.4159 24.763 53.3106 24.7781 53.2091 24.8081C53.1075 24.8345 53.0154 24.8777 52.9326 24.9379C52.8537 24.9981 52.7897 25.0789 52.7408 25.1805C52.6957 25.2782 52.6731 25.4005 52.6731 25.5471V27.1154H51.8326V24.0353H52.4701L52.5942 24.5543H52.6337C52.6938 24.449 52.769 24.3531 52.8593 24.2666C52.9496 24.1801 53.053 24.1105 53.1696 24.0579C53.2899 24.0052 53.4178 23.9789 53.5532 23.9789Z" fill="#60646C"/>
<path d="M55.2348 24.0353V27.1154H54.3943V24.0353H55.2348ZM54.8174 22.8281C54.9415 22.8281 55.0487 22.8581 55.1389 22.9183C55.2292 22.9747 55.2743 23.0819 55.2743 23.2399C55.2743 23.3941 55.2292 23.5012 55.1389 23.5614C55.0487 23.6216 54.9415 23.6517 54.8174 23.6517C54.6895 23.6517 54.5805 23.6216 54.4902 23.5614C54.4037 23.5012 54.3605 23.3941 54.3605 23.2399C54.3605 23.0819 54.4037 22.9747 54.4902 22.9183C54.5805 22.8581 54.6895 22.8281 54.8174 22.8281Z" fill="#60646C"/>
<path d="M58.2624 26.2015C58.2624 26.4084 58.2136 26.5851 58.1158 26.7318C58.018 26.8747 57.8713 26.9838 57.6758 27.059C57.4802 27.1342 57.2376 27.1718 56.948 27.1718C56.7337 27.1718 56.5494 27.1568 56.3952 27.1267C56.241 27.1004 56.0868 27.0552 55.9326 26.9913V26.2974C56.0981 26.3727 56.2767 26.4347 56.4685 26.4836C56.6603 26.5325 56.8296 26.5569 56.9762 26.5569C57.1417 26.5569 57.2583 26.5325 57.326 26.4836C57.3974 26.4347 57.4332 26.3708 57.4332 26.2918C57.4332 26.2391 57.4181 26.1921 57.388 26.1508C57.3617 26.1094 57.3015 26.0624 57.2075 26.0097C57.1135 25.9571 56.9668 25.8894 56.7675 25.8066C56.5757 25.7239 56.4177 25.643 56.2936 25.5641C56.1695 25.4813 56.0774 25.3835 56.0172 25.2707C55.957 25.1541 55.927 25.0093 55.927 24.8363C55.927 24.5505 56.0379 24.3362 56.2598 24.1932C56.4817 24.0503 56.7769 23.9789 57.1455 23.9789C57.3373 23.9789 57.5197 23.9977 57.6927 24.0353C57.8657 24.0729 58.0443 24.1349 58.2286 24.2214L57.9747 24.8251C57.8732 24.7799 57.7754 24.7404 57.6814 24.7066C57.5874 24.6727 57.4952 24.6464 57.405 24.6276C57.3185 24.6088 57.2282 24.5994 57.1342 24.5994C57.0101 24.5994 56.9161 24.6163 56.8521 24.6502C56.792 24.684 56.7619 24.7348 56.7619 24.8025C56.7619 24.8514 56.7769 24.8965 56.807 24.9379C56.8408 24.9755 56.9029 25.0169 56.9932 25.062C57.0872 25.1071 57.2244 25.1673 57.405 25.2425C57.5817 25.314 57.734 25.3892 57.8619 25.4682C57.9898 25.5434 58.0876 25.6393 58.1553 25.7559C58.2267 25.8687 58.2624 26.0173 58.2624 26.2015Z" fill="#60646C"/>
<path d="M60.1865 23.9789C60.4723 23.9789 60.7168 24.0334 60.9199 24.1425C61.1267 24.2515 61.2866 24.4095 61.3994 24.6163C61.5122 24.8232 61.5686 25.077 61.5686 25.3779V25.7841H59.5829C59.5904 26.021 59.66 26.2072 59.7916 26.3426C59.927 26.478 60.1132 26.5456 60.3501 26.5456C60.5494 26.5456 60.73 26.5268 60.8917 26.4892C61.0534 26.4479 61.2207 26.3858 61.3937 26.3031V26.9518C61.2433 27.027 61.0835 27.0816 60.9142 27.1154C60.7488 27.153 60.5476 27.1718 60.3106 27.1718C60.0022 27.1718 59.7296 27.1154 59.4926 27.0026C59.2557 26.886 59.0695 26.7111 58.9342 26.478C58.7988 26.2448 58.7311 25.9514 58.7311 25.5979C58.7311 25.2369 58.7912 24.9379 58.9116 24.701C59.0357 24.4603 59.2068 24.2797 59.4249 24.1594C59.6431 24.039 59.8969 23.9789 60.1865 23.9789ZM60.1922 24.5768C60.0304 24.5768 59.895 24.6295 59.786 24.7348C59.6807 24.8401 59.6186 25.0037 59.5998 25.2256H60.7788C60.7788 25.1015 60.7563 24.9905 60.7111 24.8928C60.6698 24.795 60.6058 24.7179 60.5193 24.6615C60.4328 24.6051 60.3238 24.5768 60.1922 24.5768Z" fill="#60646C"/>
<path d="M34.7413 30.0527C34.7826 30.0527 34.8315 30.0545 34.8879 30.0583C34.9443 30.0621 34.9895 30.0677 35.0233 30.0752L34.9613 30.865C34.9349 30.8575 34.8955 30.8518 34.8428 30.8481C34.7939 30.8406 34.7507 30.8368 34.7131 30.8368C34.604 30.8368 34.4987 30.8518 34.3971 30.8819C34.2956 30.9082 34.2035 30.9515 34.1207 31.0117C34.0417 31.0718 33.9778 31.1527 33.9289 31.2542C33.8838 31.352 33.8612 31.4743 33.8612 31.6209V33.1892H33.0207V30.1091H33.6581L33.7822 30.6281H33.8217C33.8819 30.5228 33.9571 30.4269 34.0474 30.3404C34.1376 30.2539 34.2411 30.1843 34.3577 30.1316C34.478 30.079 34.6059 30.0527 34.7413 30.0527Z" fill="#60646C"/>
<path d="M36.7415 30.0527C37.0273 30.0527 37.2718 30.1072 37.4749 30.2163C37.6817 30.3253 37.8415 30.4833 37.9544 30.6901C38.0672 30.897 38.1236 31.1508 38.1236 31.4517V31.8579H36.1379C36.1454 32.0948 36.215 32.281 36.3466 32.4163C36.482 32.5517 36.6682 32.6194 36.9051 32.6194C37.1044 32.6194 37.2849 32.6006 37.4466 32.563C37.6084 32.5216 37.7757 32.4596 37.9487 32.3769V33.0256C37.7983 33.1008 37.6384 33.1553 37.4692 33.1892C37.3037 33.2268 37.1025 33.2456 36.8656 33.2456C36.5572 33.2456 36.2845 33.1892 36.0476 33.0764C35.8107 32.9598 35.6245 32.7849 35.4891 32.5517C35.3537 32.3186 35.286 32.0252 35.286 31.6717C35.286 31.3107 35.3462 31.0117 35.4666 30.7747C35.5907 30.534 35.7618 30.3535 35.9799 30.2332C36.198 30.1128 36.4519 30.0527 36.7415 30.0527ZM36.7471 30.6506C36.5854 30.6506 36.45 30.7033 36.341 30.8086C36.2357 30.9139 36.1736 31.0775 36.1548 31.2994H37.3338C37.3338 31.1753 37.3113 31.0643 37.2661 30.9665C37.2248 30.8688 37.1608 30.7917 37.0743 30.7352C36.9878 30.6788 36.8788 30.6506 36.7471 30.6506Z" fill="#60646C"/>
<path d="M40.0575 33.2456C39.7529 33.2456 39.4934 33.1911 39.279 33.082C39.0647 32.9692 38.9011 32.7962 38.7883 32.563C38.6754 32.3298 38.619 32.0309 38.619 31.6661C38.619 31.29 38.6829 30.9835 38.8108 30.7465C38.9387 30.5096 39.1154 30.3347 39.3411 30.2219C39.5705 30.1091 39.8338 30.0527 40.1309 30.0527C40.3415 30.0527 40.5239 30.0733 40.6781 30.1147C40.836 30.1561 40.9733 30.205 41.0899 30.2614L40.8417 30.9101C40.71 30.8575 40.5859 30.8142 40.4693 30.7804C40.3565 30.7465 40.2437 30.7296 40.1309 30.7296C39.9842 30.7296 39.862 30.7653 39.7642 30.8368C39.6664 30.9045 39.5931 31.0079 39.5442 31.1471C39.4991 31.2825 39.4765 31.4536 39.4765 31.6604C39.4765 31.8635 39.5009 32.0327 39.5498 32.1681C39.6025 32.2998 39.6777 32.3994 39.7755 32.4671C39.8733 32.5311 39.9917 32.563 40.1309 32.563C40.3076 32.563 40.4637 32.5405 40.5991 32.4953C40.7345 32.4464 40.8661 32.3806 40.994 32.2979V33.0143C40.8661 33.0971 40.7307 33.1553 40.5878 33.1892C40.4487 33.2268 40.2719 33.2456 40.0575 33.2456Z" fill="#60646C"/>
<path d="M44.501 31.6435C44.501 31.8992 44.4653 32.1268 44.3938 32.3261C44.3261 32.5254 44.2265 32.6946 44.0948 32.8338C43.967 32.9692 43.8109 33.0726 43.6266 33.1441C43.4423 33.2118 43.2336 33.2456 43.0004 33.2456C42.7861 33.2456 42.5867 33.2118 42.4024 33.1441C42.2219 33.0726 42.0659 32.9692 41.9342 32.8338C41.8026 32.6946 41.6992 32.5254 41.624 32.3261C41.5525 32.1268 41.5168 31.8992 41.5168 31.6435C41.5168 31.3013 41.5769 31.0136 41.6973 30.7804C41.8176 30.5434 41.9906 30.3629 42.2163 30.2388C42.4419 30.1147 42.709 30.0527 43.0173 30.0527C43.3069 30.0527 43.5627 30.1147 43.7846 30.2388C44.0064 30.3629 44.1813 30.5434 44.3092 30.7804C44.4371 31.0136 44.501 31.3013 44.501 31.6435ZM42.3742 31.6435C42.3742 31.8466 42.3949 32.0177 42.4363 32.1568C42.4814 32.2922 42.551 32.3957 42.645 32.4671C42.739 32.5348 42.8613 32.5687 43.0117 32.5687C43.1621 32.5687 43.2825 32.5348 43.3727 32.4671C43.4668 32.3957 43.5345 32.2922 43.5758 32.1568C43.621 32.0177 43.6435 31.8466 43.6435 31.6435C43.6435 31.4404 43.621 31.2712 43.5758 31.1358C43.5345 31.0004 43.4668 30.8988 43.3727 30.8312C43.2787 30.7635 43.1565 30.7296 43.0061 30.7296C42.7842 30.7296 42.6225 30.8067 42.5209 30.9609C42.4231 31.1113 42.3742 31.3389 42.3742 31.6435Z" fill="#60646C"/>
<path d="M48.8117 30.0527C49.1615 30.0527 49.4247 30.1429 49.6015 30.3234C49.782 30.5002 49.8723 30.786 49.8723 31.1809V33.1892H49.0317V31.3896C49.0317 31.1677 48.9941 31.0023 48.9189 30.8932C48.8437 30.7804 48.7271 30.724 48.5691 30.724C48.3473 30.724 48.1893 30.8029 48.0953 30.9609C48.0013 31.1189 47.9542 31.3464 47.9542 31.6435V33.1892H47.1137V31.3896C47.1137 31.243 47.0968 31.1207 47.0629 31.023C47.0291 30.9252 46.9783 30.8518 46.9106 30.8029C46.8429 30.7503 46.7564 30.724 46.6511 30.724C46.4969 30.724 46.3747 30.7635 46.2844 30.8424C46.1942 30.9214 46.1302 31.0361 46.0926 31.1865C46.055 31.337 46.0362 31.5213 46.0362 31.7394V33.1892H45.1957V30.1091H45.8388L45.9516 30.504H45.9967C46.0607 30.3987 46.1396 30.314 46.2337 30.2501C46.3277 30.1824 46.4311 30.1335 46.5439 30.1034C46.6605 30.0696 46.7771 30.0527 46.8937 30.0527C47.1193 30.0527 47.3111 30.0903 47.4691 30.1655C47.6271 30.2369 47.7474 30.3498 47.8301 30.504H47.9035C47.9975 30.346 48.1272 30.2313 48.2927 30.1598C48.462 30.0884 48.635 30.0527 48.8117 30.0527Z" fill="#60646C"/>
<path d="M54.3538 30.0527C54.7036 30.0527 54.9668 30.1429 55.1436 30.3234C55.3241 30.5002 55.4144 30.786 55.4144 31.1809V33.1892H54.5738V31.3896C54.5738 31.1677 54.5362 31.0023 54.461 30.8932C54.3858 30.7804 54.2692 30.724 54.1112 30.724C53.8894 30.724 53.7314 30.8029 53.6374 30.9609C53.5434 31.1189 53.4963 31.3464 53.4963 31.6435V33.1892H52.6558V31.3896C52.6558 31.243 52.6389 31.1207 52.605 31.023C52.5712 30.9252 52.5204 30.8518 52.4527 30.8029C52.385 30.7503 52.2985 30.724 52.1932 30.724C52.039 30.724 51.9168 30.7635 51.8265 30.8424C51.7363 30.9214 51.6723 31.0361 51.6347 31.1865C51.5971 31.337 51.5783 31.5213 51.5783 31.7394V33.1892H50.7378V30.1091H51.3809L51.4937 30.504H51.5388C51.6028 30.3987 51.6817 30.314 51.7758 30.2501C51.8698 30.1824 51.9732 30.1335 52.086 30.1034C52.2026 30.0696 52.3192 30.0527 52.4358 30.0527C52.6614 30.0527 52.8532 30.0903 53.0112 30.1655C53.1692 30.2369 53.2895 30.3498 53.3722 30.504H53.4456C53.5396 30.346 53.6693 30.2313 53.8348 30.1598C54.0041 30.0884 54.1771 30.0527 54.3538 30.0527Z" fill="#60646C"/>
<path d="M57.5492 30.0527C57.835 30.0527 58.0794 30.1072 58.2825 30.2163C58.4894 30.3253 58.6492 30.4833 58.762 30.6901C58.8749 30.897 58.9313 31.1508 58.9313 31.4517V31.8579H56.9455C56.9531 32.0948 57.0226 32.281 57.1543 32.4163C57.2897 32.5517 57.4758 32.6194 57.7128 32.6194C57.9121 32.6194 58.0926 32.6006 58.2543 32.563C58.416 32.5216 58.5834 32.4596 58.7564 32.3769V33.0256C58.6059 33.1008 58.4461 33.1553 58.2769 33.1892C58.1114 33.2268 57.9102 33.2456 57.6733 33.2456C57.3649 33.2456 57.0922 33.1892 56.8553 33.0764C56.6183 32.9598 56.4322 32.7849 56.2968 32.5517C56.1614 32.3186 56.0937 32.0252 56.0937 31.6717C56.0937 31.3107 56.1539 31.0117 56.2742 30.7747C56.3983 30.534 56.5695 30.3535 56.7876 30.2332C57.0057 30.1128 57.2596 30.0527 57.5492 30.0527ZM57.5548 30.6506C57.3931 30.6506 57.2577 30.7033 57.1486 30.8086C57.0433 30.9139 56.9813 31.0775 56.9625 31.2994H58.1415C58.1415 31.1753 58.1189 31.0643 58.0738 30.9665C58.0324 30.8688 57.9685 30.7917 57.882 30.7352C57.7955 30.6788 57.6864 30.6506 57.5548 30.6506Z" fill="#60646C"/>
<path d="M61.3616 30.0527C61.6926 30.0527 61.9577 30.1429 62.1571 30.3234C62.3564 30.5002 62.456 30.786 62.456 31.1809V33.1892H61.6155V31.3896C61.6155 31.1677 61.576 31.0023 61.497 30.8932C61.418 30.7804 61.2921 30.724 61.1191 30.724C60.8633 30.724 60.6884 30.8123 60.5944 30.9891C60.5004 31.1621 60.4534 31.4122 60.4534 31.7394V33.1892H59.6128V30.1091H60.2559L60.3688 30.504H60.4139C60.4816 30.3987 60.5643 30.314 60.6621 30.2501C60.7599 30.1824 60.869 30.1335 60.9893 30.1034C61.1097 30.0696 61.2338 30.0527 61.3616 30.0527Z" fill="#60646C"/>
<path d="M64.2964 33.2456C63.9541 33.2456 63.674 33.1121 63.4558 32.8451C63.2415 32.5743 63.1343 32.1775 63.1343 31.6548C63.1343 31.1283 63.2433 30.7296 63.4615 30.4588C63.6796 30.188 63.9654 30.0527 64.3189 30.0527C64.4656 30.0527 64.5954 30.0733 64.7082 30.1147C64.821 30.1523 64.9169 30.205 64.9959 30.2727C65.0786 30.3404 65.1482 30.4175 65.2046 30.504H65.2328C65.2215 30.4438 65.2084 30.3573 65.1933 30.2445C65.1783 30.1279 65.1708 30.0094 65.1708 29.8891V28.9018H66.0113V33.1892H65.3682L65.2046 32.7887H65.1708C65.1181 32.8714 65.0504 32.9485 64.9677 33.02C64.8887 33.0877 64.7947 33.1422 64.6856 33.1836C64.5766 33.2249 64.4468 33.2456 64.2964 33.2456ZM64.5897 32.5743C64.8229 32.5743 64.9865 32.5066 65.0805 32.3712C65.1745 32.2321 65.2234 32.0252 65.2272 31.7507V31.6604C65.2272 31.3595 65.1802 31.1301 65.0861 30.9722C64.9959 30.8142 64.8266 30.7352 64.5784 30.7352C64.3942 30.7352 64.2494 30.8161 64.1441 30.9778C64.0388 31.1358 63.9861 31.3652 63.9861 31.6661C63.9861 31.9669 64.0388 32.1945 64.1441 32.3486C64.2494 32.4991 64.3979 32.5743 64.5897 32.5743Z" fill="#60646C"/>
<path d="M68.1596 30.0527C68.4454 30.0527 68.6899 30.1072 68.8929 30.2163C69.0998 30.3253 69.2596 30.4833 69.3724 30.6901C69.4853 30.897 69.5417 31.1508 69.5417 31.4517V31.8579H67.556C67.5635 32.0948 67.6331 32.281 67.7647 32.4163C67.9001 32.5517 68.0862 32.6194 68.3232 32.6194C68.5225 32.6194 68.703 32.6006 68.8647 32.563C69.0265 32.5216 69.1938 32.4596 69.3668 32.3769V33.0256C69.2164 33.1008 69.0565 33.1553 68.8873 33.1892C68.7218 33.2268 68.5206 33.2456 68.2837 33.2456C67.9753 33.2456 67.7026 33.1892 67.4657 33.0764C67.2288 32.9598 67.0426 32.7849 66.9072 32.5517C66.7718 32.3186 66.7041 32.0252 66.7041 31.6717C66.7041 31.3107 66.7643 31.0117 66.8847 30.7747C67.0088 30.534 67.1799 30.3535 67.398 30.2332C67.6161 30.1128 67.87 30.0527 68.1596 30.0527ZM68.1652 30.6506C68.0035 30.6506 67.8681 30.7033 67.759 30.8086C67.6537 30.9139 67.5917 31.0775 67.5729 31.2994H68.7519C68.7519 31.1753 68.7293 31.0643 68.6842 30.9665C68.6428 30.8688 68.5789 30.7917 68.4924 30.7352C68.4059 30.6788 68.2968 30.6506 68.1652 30.6506Z" fill="#60646C"/>
<path d="M71.1992 33.2456C70.857 33.2456 70.5768 33.1121 70.3587 32.8451C70.1443 32.5743 70.0371 32.1775 70.0371 31.6548C70.0371 31.1283 70.1462 30.7296 70.3643 30.4588C70.5824 30.188 70.8683 30.0527 71.2218 30.0527C71.3684 30.0527 71.4982 30.0733 71.611 30.1147C71.7238 30.1523 71.8197 30.205 71.8987 30.2727C71.9815 30.3404 72.051 30.4175 72.1075 30.504H72.1357C72.1244 30.4438 72.1112 30.3573 72.0962 30.2445C72.0811 30.1279 72.0736 30.0094 72.0736 29.8891V28.9018H72.9142V33.1892H72.271L72.1075 32.7887H72.0736C72.021 32.8714 71.9533 32.9485 71.8705 33.02C71.7915 33.0877 71.6975 33.1422 71.5885 33.1836C71.4794 33.2249 71.3496 33.2456 71.1992 33.2456ZM71.4926 32.5743C71.7257 32.5743 71.8893 32.5066 71.9833 32.3712C72.0774 32.2321 72.1263 32.0252 72.13 31.7507V31.6604C72.13 31.3595 72.083 31.1301 71.989 30.9722C71.8987 30.8142 71.7295 30.7352 71.4813 30.7352C71.297 30.7352 71.1522 30.8161 71.0469 30.9778C70.9416 31.1358 70.8889 31.3652 70.8889 31.6661C70.8889 31.9669 70.9416 32.1945 71.0469 32.3486C71.1522 32.4991 71.3008 32.5743 71.4926 32.5743Z" fill="#60646C"/>
</svg>
