<svg width="88" height="50" viewBox="0 0 88 50" fill="none" xmlns="http://www.w3.org/2000/svg">
<g opacity="0.9">
<g opacity="0.5">
<rect x="0.799805" y="0.799805" width="85.556" height="47.6331" rx="1.83211" fill="#CDCED6"/>
<rect x="0.400018" y="0.400018" width="86.3555" height="48.4326" rx="2.2319" stroke="white" stroke-opacity="0.3" stroke-width="0.799573"/>
</g>
</g>
<path d="M24.1012 14.7994L23.3237 11.8693H23.7215L24.1672 13.7901C24.2152 13.9913 24.2565 14.1911 24.2911 14.3897C24.3657 14.0766 24.4097 13.896 24.423 13.848L24.9807 11.8693H25.4484L25.8681 13.3524C25.9734 13.7201 26.0493 14.0659 26.096 14.3897C26.1333 14.2045 26.1819 13.9919 26.2419 13.7521L26.7016 11.8693H27.0913L26.2878 14.7994H25.9141L25.2965 12.5669C25.2445 12.3803 25.2139 12.2657 25.2045 12.2231C25.1739 12.3577 25.1452 12.4723 25.1186 12.5669L24.497 14.7994H24.1012Z" fill="#80838D"/>
<path d="M27.4111 12.283V11.8693H27.7709V12.283H27.4111ZM27.4111 14.7994V12.6768H27.7709V14.7994H27.4111Z" fill="#80838D"/>
<path d="M28.3205 14.7994V12.6768H28.6443V12.9786C28.8002 12.7454 29.0254 12.6288 29.3199 12.6288C29.4478 12.6288 29.5651 12.6521 29.6717 12.6988C29.7796 12.7441 29.8602 12.804 29.9135 12.8787C29.9668 12.9533 30.0041 13.0419 30.0254 13.1445C30.0388 13.2111 30.0454 13.3277 30.0454 13.4943V14.7994H29.6857V13.5083C29.6857 13.3617 29.6717 13.2524 29.6437 13.1805C29.6157 13.1072 29.5657 13.0492 29.4938 13.0066C29.4232 12.9626 29.3399 12.9406 29.2439 12.9406C29.0907 12.9406 28.9581 12.9893 28.8462 13.0865C28.7356 13.1838 28.6803 13.3683 28.6803 13.6402V14.7994H28.3205Z" fill="#80838D"/>
<path d="M30.5991 14.7994V12.6768H30.9229V12.9786C31.0788 12.7454 31.304 12.6288 31.5984 12.6288C31.7263 12.6288 31.8436 12.6521 31.9502 12.6988C32.0581 12.7441 32.1388 12.804 32.192 12.8787C32.2453 12.9533 32.2827 13.0419 32.304 13.1445C32.3173 13.2111 32.324 13.3277 32.324 13.4943V14.7994H31.9642V13.5083C31.9642 13.3617 31.9502 13.2524 31.9222 13.1805C31.8942 13.1072 31.8443 13.0492 31.7723 13.0066C31.7017 12.9626 31.6184 12.9406 31.5225 12.9406C31.3692 12.9406 31.2367 12.9893 31.1247 13.0865C31.0141 13.1838 30.9588 13.3683 30.9588 13.6402V14.7994H30.5991Z" fill="#80838D"/>
<path d="M34.3307 14.1159L34.7024 14.1618C34.6438 14.379 34.5352 14.5476 34.3767 14.6675C34.2181 14.7874 34.0155 14.8474 33.769 14.8474C33.4586 14.8474 33.2121 14.7521 33.0295 14.5616C32.8483 14.3697 32.7577 14.1012 32.7577 13.7561C32.7577 13.399 32.8496 13.1218 33.0335 12.9246C33.2174 12.7274 33.4559 12.6288 33.7491 12.6288C34.0329 12.6288 34.2647 12.7254 34.4446 12.9186C34.6245 13.1118 34.7144 13.3837 34.7144 13.7341C34.7144 13.7554 34.7138 13.7874 34.7124 13.83H33.1294C33.1428 14.0632 33.2087 14.2418 33.3273 14.3657C33.4459 14.4896 33.5938 14.5516 33.771 14.5516C33.903 14.5516 34.0155 14.5169 34.1088 14.4477C34.2021 14.3784 34.276 14.2678 34.3307 14.1159ZM33.1494 13.5342H34.3347C34.3187 13.3557 34.2734 13.2218 34.1988 13.1325C34.0842 12.9939 33.9356 12.9246 33.7531 12.9246C33.5878 12.9246 33.4486 12.9799 33.3353 13.0905C33.2234 13.2011 33.1614 13.349 33.1494 13.5342Z" fill="#80838D"/>
<path d="M35.1522 14.7994V12.6768H35.4759V12.9986C35.5586 12.848 35.6345 12.7487 35.7038 12.7008C35.7744 12.6528 35.8517 12.6288 35.9357 12.6288C36.0569 12.6288 36.1802 12.6675 36.3054 12.7447L36.1815 13.0785C36.0936 13.0266 36.0056 13.0006 35.9177 13.0006C35.839 13.0006 35.7684 13.0246 35.7058 13.0725C35.6432 13.1192 35.5985 13.1845 35.5719 13.2684C35.5319 13.3963 35.5119 13.5362 35.5119 13.6881V14.7994H35.1522Z" fill="#80838D"/>
<path d="M37.5246 13.7381C37.5246 13.345 37.6339 13.0539 37.8524 12.8647C38.035 12.7074 38.2575 12.6288 38.52 12.6288C38.8118 12.6288 39.0503 12.7248 39.2355 12.9166C39.4208 13.1072 39.5134 13.371 39.5134 13.7081C39.5134 13.9813 39.4721 14.1965 39.3894 14.3537C39.3082 14.5096 39.1889 14.6309 39.0317 14.7175C38.8758 14.8041 38.7052 14.8474 38.52 14.8474C38.2229 14.8474 37.9823 14.7521 37.7985 14.5616C37.6159 14.371 37.5246 14.0965 37.5246 13.7381ZM37.8944 13.7381C37.8944 14.0099 37.9537 14.2138 38.0723 14.3497C38.1909 14.4843 38.3401 14.5516 38.52 14.5516C38.6986 14.5516 38.8471 14.4836 38.9657 14.3477C39.0843 14.2118 39.1436 14.0046 39.1436 13.7261C39.1436 13.4636 39.0836 13.2651 38.9637 13.1305C38.8451 12.9946 38.6972 12.9266 38.52 12.9266C38.3401 12.9266 38.1909 12.9939 38.0723 13.1285C37.9537 13.2631 37.8944 13.4663 37.8944 13.7381Z" fill="#80838D"/>
<path d="M40.023 14.7994V12.9566H39.7052V12.6768H40.023V12.4509C40.023 12.3084 40.0357 12.2024 40.061 12.1331C40.0957 12.0399 40.1563 11.9646 40.2429 11.9073C40.3308 11.8487 40.4534 11.8193 40.6107 11.8193C40.7119 11.8193 40.8239 11.8313 40.9464 11.8553L40.8925 12.1691C40.8179 12.1558 40.7472 12.1491 40.6806 12.1491C40.5714 12.1491 40.4941 12.1724 40.4488 12.2191C40.4035 12.2657 40.3808 12.353 40.3808 12.4809V12.6768H40.7945V12.9566H40.3808V14.7994H40.023Z" fill="#80838D"/>
<path d="M23.9978 37.1348H23.4309L25.0706 32.6693H25.6288L27.2685 37.1348H26.7015L25.3671 33.3757H25.3322L23.9978 37.1348ZM24.2071 35.3904H26.4922V35.8701H24.2071V35.3904ZM28.2333 37.1348L27.2129 33.7856H27.7536L28.4775 36.3498H28.5124L29.2276 33.7856H29.777L30.4835 36.3411H30.5184L31.2423 33.7856H31.783L30.7626 37.1348H30.2567L29.5241 34.5619H29.4718L28.7392 37.1348H28.2333ZM33.4489 37.2133C33.2366 37.2133 33.044 37.1733 32.8711 37.0933C32.6981 37.0119 32.5607 36.8949 32.459 36.7423C32.3572 36.5882 32.3063 36.4021 32.3063 36.1841C32.3063 35.9922 32.3441 35.8367 32.4197 35.7175C32.4953 35.5968 32.5963 35.5024 32.7228 35.434C32.8492 35.3657 32.9888 35.3148 33.1414 35.2814C33.2955 35.2465 33.4503 35.2189 33.6059 35.1986C33.8094 35.1724 33.9743 35.1528 34.1008 35.1397C34.2287 35.1251 34.3218 35.1012 34.3799 35.0677C34.4395 35.0343 34.4693 34.9761 34.4693 34.8933V34.8758C34.4693 34.6607 34.4104 34.4935 34.2927 34.3744C34.1764 34.2552 33.9998 34.1956 33.7628 34.1956C33.5172 34.1956 33.3246 34.2493 33.185 34.3569C33.0455 34.4645 32.9474 34.5793 32.8907 34.7014L32.4023 34.527C32.4895 34.3235 32.6058 34.165 32.7511 34.0516C32.8979 33.9368 33.0578 33.8569 33.2308 33.8118C33.4053 33.7653 33.5768 33.742 33.7454 33.742C33.853 33.742 33.9765 33.7551 34.1161 33.7813C34.2571 33.806 34.393 33.8576 34.5238 33.9361C34.6561 34.0146 34.7658 34.1331 34.8531 34.2915C34.9403 34.4499 34.9839 34.6622 34.9839 34.9282V37.1348H34.4693V36.6812H34.4431C34.4083 36.7539 34.3501 36.8317 34.2687 36.9145C34.1873 36.9974 34.079 37.0679 33.9438 37.126C33.8086 37.1842 33.6437 37.2133 33.4489 37.2133ZM33.5274 36.751C33.7309 36.751 33.9024 36.711 34.0419 36.6311C34.1829 36.5511 34.2891 36.4479 34.3603 36.3215C34.433 36.195 34.4693 36.062 34.4693 35.9225V35.4515C34.4475 35.4776 34.3995 35.5016 34.3254 35.5234C34.2527 35.5438 34.1684 35.562 34.0725 35.5779C33.978 35.5925 33.8857 35.6056 33.7956 35.6172C33.7069 35.6274 33.6349 35.6361 33.5797 35.6434C33.446 35.6608 33.3209 35.6891 33.2047 35.7284C33.0898 35.7662 32.9968 35.8236 32.9256 35.9006C32.8558 35.9762 32.8209 36.0794 32.8209 36.2103C32.8209 36.3891 32.887 36.5242 33.0193 36.6158C33.1531 36.7059 33.3224 36.751 33.5274 36.751ZM35.9231 37.1348V33.7856H36.4202V34.2915H36.4551C36.5162 34.1258 36.6267 33.9913 36.7865 33.8881C36.9464 33.7849 37.1267 33.7333 37.3273 33.7333C37.3651 33.7333 37.4123 33.734 37.469 33.7355C37.5257 33.7369 37.5686 33.7391 37.5977 33.742V34.2653C37.5802 34.261 37.5402 34.2544 37.4777 34.2457C37.4167 34.2355 37.352 34.2304 37.2837 34.2304C37.1209 34.2304 36.9755 34.2646 36.8476 34.3329C36.7211 34.3998 36.6208 34.4928 36.5467 34.612C36.474 34.7298 36.4377 34.8642 36.4377 35.0154V37.1348H35.9231ZM39.3703 37.2045C39.0913 37.2045 38.8449 37.134 38.6312 36.993C38.4175 36.8506 38.2503 36.65 38.1297 36.3912C38.009 36.131 37.9487 35.8236 37.9487 35.4689C37.9487 35.1171 38.009 34.8119 38.1297 34.5531C38.2503 34.2944 38.4182 34.0945 38.6334 33.9535C38.8485 33.8125 39.0971 33.742 39.3791 33.742C39.5971 33.742 39.7694 33.7784 39.8958 33.851C40.0237 33.9223 40.1211 34.0037 40.188 34.0953C40.2563 34.1854 40.3094 34.2595 40.3472 34.3177H40.3908V32.6693H40.9054V37.1348H40.4082V36.6202H40.3472C40.3094 36.6812 40.2556 36.7583 40.1858 36.8513C40.1161 36.9429 40.0165 37.025 39.8871 37.0977C39.7577 37.1689 39.5855 37.2045 39.3703 37.2045ZM39.4401 36.7423C39.6465 36.7423 39.821 36.6885 39.9634 36.5809C40.1059 36.4719 40.2142 36.3215 40.2883 36.1296C40.3624 35.9363 40.3995 35.7131 40.3995 35.4602C40.3995 35.2102 40.3632 34.9914 40.2905 34.8039C40.2178 34.6149 40.1102 34.4681 39.9678 34.3634C39.8253 34.2573 39.6494 34.2043 39.4401 34.2043C39.2221 34.2043 39.0404 34.2602 38.895 34.3722C38.7511 34.4826 38.6428 34.6331 38.5701 34.8235C38.4989 35.0125 38.4633 35.2247 38.4633 35.4602C38.4633 35.6986 38.4996 35.9152 38.5723 36.11C38.6464 36.3033 38.7555 36.4574 38.8994 36.5722C39.0447 36.6856 39.225 36.7423 39.4401 36.7423ZM44.2916 34.5357L43.8293 34.6665C43.8002 34.5895 43.7574 34.5146 43.7007 34.4419C43.6454 34.3678 43.5698 34.3068 43.4739 34.2588C43.378 34.2108 43.2551 34.1868 43.1054 34.1868C42.9005 34.1868 42.7297 34.2341 42.593 34.3286C42.4578 34.4216 42.3902 34.5401 42.3902 34.684C42.3902 34.8119 42.4367 34.9129 42.5298 34.987C42.6228 35.0612 42.7682 35.123 42.9659 35.1724L43.463 35.2945C43.7624 35.3672 43.9856 35.4784 44.1324 35.6281C44.2792 35.7764 44.3526 35.9675 44.3526 36.2015C44.3526 36.3934 44.2974 36.5649 44.1869 36.7161C44.0779 36.8673 43.9252 36.9865 43.729 37.0737C43.5328 37.1609 43.3046 37.2045 43.0444 37.2045C42.7028 37.2045 42.42 37.1304 42.1962 36.9821C41.9723 36.8339 41.8306 36.6173 41.771 36.3324L42.2594 36.2103C42.3059 36.3905 42.3939 36.5257 42.5232 36.6158C42.6541 36.7059 42.8249 36.751 43.0356 36.751C43.2755 36.751 43.4659 36.7001 43.6069 36.5984C43.7494 36.4952 43.8206 36.3716 43.8206 36.2277C43.8206 36.1114 43.7799 36.014 43.6985 35.9355C43.6171 35.8556 43.4921 35.796 43.3235 35.7567L42.7653 35.6259C42.4586 35.5532 42.2332 35.4406 42.0893 35.2879C41.9469 35.1339 41.8757 34.9413 41.8757 34.7101C41.8757 34.5212 41.9287 34.354 42.0348 34.2086C42.1424 34.0633 42.2885 33.9492 42.4731 33.8663C42.6592 33.7835 42.8699 33.742 43.1054 33.742C43.4368 33.742 43.697 33.8147 43.886 33.9601C44.0764 34.1054 44.2116 34.2973 44.2916 34.5357ZM23.6359 44.1348V43.4545L25.2254 41.9827C25.3606 41.8519 25.474 41.7341 25.5655 41.6295C25.6586 41.5248 25.7291 41.4223 25.7771 41.322C25.825 41.2203 25.849 41.1105 25.849 40.9928C25.849 40.862 25.8192 40.7493 25.7596 40.6548C25.7 40.5589 25.6186 40.4855 25.5154 40.4346C25.4122 40.3823 25.2952 40.3561 25.1644 40.3561C25.0277 40.3561 24.9085 40.3837 24.8068 40.4389C24.705 40.4942 24.6265 40.5734 24.5713 40.6766C24.516 40.7798 24.4884 40.9027 24.4884 41.0451H23.5923C23.5923 40.7529 23.6584 40.4993 23.7907 40.2841C23.923 40.069 24.1083 39.9026 24.3467 39.7848C24.5851 39.6671 24.8598 39.6082 25.1709 39.6082C25.4907 39.6082 25.7691 39.6649 26.006 39.7783C26.2444 39.8902 26.4297 40.0457 26.562 40.2449C26.6943 40.444 26.7604 40.6723 26.7604 40.9295C26.7604 41.0982 26.727 41.2646 26.6601 41.4289C26.5947 41.5931 26.4777 41.7755 26.3091 41.9761C26.1405 42.1753 25.9028 42.4144 25.5961 42.6935L24.9441 43.3324V43.3629H26.8193V44.1348H23.6359ZM29.2543 44.2329C28.8792 44.2314 28.5565 44.1391 28.2862 43.956C28.0173 43.7728 27.8101 43.5075 27.6648 43.1601C27.5208 42.8127 27.4496 42.3948 27.4511 41.9064C27.4511 41.4194 27.523 41.0044 27.6669 40.6614C27.8123 40.3183 28.0194 40.0574 28.2884 39.8786C28.5587 39.6983 28.8807 39.6082 29.2543 39.6082C29.6279 39.6082 29.9491 39.6983 30.218 39.8786C30.4884 40.0588 30.6963 40.3205 30.8416 40.6635C30.987 41.0051 31.0589 41.4194 31.0575 41.9064C31.0575 42.3962 30.9848 42.8149 30.8394 43.1623C30.6955 43.5097 30.4891 43.775 30.2202 43.9582C29.9513 44.1413 29.6293 44.2329 29.2543 44.2329ZM29.2543 43.4501C29.5101 43.4501 29.7143 43.3215 29.867 43.0642C30.0196 42.8069 30.0952 42.421 30.0937 41.9064C30.0937 41.5677 30.0589 41.2857 29.9891 41.0604C29.9208 40.8351 29.8234 40.6657 29.6969 40.5523C29.5719 40.4389 29.4244 40.3823 29.2543 40.3823C28.9999 40.3823 28.7964 40.5095 28.6438 40.7638C28.4911 41.0182 28.4141 41.3991 28.4126 41.9064C28.4126 42.2494 28.4468 42.5358 28.5151 42.7655C28.5849 42.9937 28.683 43.1652 28.8095 43.28C28.9359 43.3934 29.0842 43.4501 29.2543 43.4501ZM33.6734 39.6693V44.1348H32.7293V40.5654H32.7032L31.6805 41.2065V40.3692L32.786 39.6693H33.6734ZM34.7348 44.1348V43.4545L36.3243 41.9827C36.4595 41.8519 36.5729 41.7341 36.6644 41.6295C36.7575 41.5248 36.828 41.4223 36.8759 41.322C36.9239 41.2203 36.9479 41.1105 36.9479 40.9928C36.9479 40.862 36.9181 40.7493 36.8585 40.6548C36.7989 40.5589 36.7175 40.4855 36.6143 40.4346C36.5111 40.3823 36.3941 40.3561 36.2632 40.3561C36.1266 40.3561 36.0074 40.3837 35.9057 40.4389C35.8039 40.4942 35.7254 40.5734 35.6702 40.6766C35.6149 40.7798 35.5873 40.9027 35.5873 41.0451H34.6912C34.6912 40.7529 34.7573 40.4993 34.8896 40.2841C35.0219 40.069 35.2072 39.9026 35.4456 39.7848C35.684 39.6671 35.9587 39.6082 36.2698 39.6082C36.5896 39.6082 36.8679 39.6649 37.1049 39.7783C37.3433 39.8902 37.5286 40.0457 37.6609 40.2449C37.7932 40.444 37.8593 40.6723 37.8593 40.9295C37.8593 41.0982 37.8259 41.2646 37.759 41.4289C37.6936 41.5931 37.5766 41.7755 37.408 41.9761C37.2393 42.1753 37.0017 42.4144 36.695 42.6935L36.043 43.3324V43.3629H37.9182V44.1348H34.7348Z" fill="#80838D"/>
<path d="M23.9453 16.6514H25.7602V22.5116H23.9453V16.6514Z" fill="#14D773"/>
<path d="M27.0753 16.6514H28.7662L30.9728 19.8933V16.6514H32.6797V22.5116H30.9728L28.7782 19.2937V22.5116H27.0753V16.6514Z" fill="#14D773"/>
<path d="M33.9069 16.6514H36.5972C37.1275 16.6514 37.5553 16.7233 37.8804 16.8672C38.2082 17.0111 38.4787 17.2177 38.6919 17.4868C38.9051 17.756 39.0596 18.0691 39.1556 18.4262C39.2515 18.7833 39.2995 19.1618 39.2995 19.5615C39.2995 20.1878 39.2275 20.6741 39.0836 21.0206C38.9424 21.3643 38.7452 21.6535 38.492 21.888C38.2388 22.1199 37.967 22.2744 37.6765 22.3517C37.2794 22.4583 36.9197 22.5116 36.5972 22.5116H33.9069V16.6514ZM35.7178 17.9785V21.1805H36.1615C36.5399 21.1805 36.8091 21.1392 36.969 21.0565C37.1289 20.9713 37.2541 20.8247 37.3447 20.6168C37.4353 20.4063 37.4806 20.0665 37.4806 19.5975C37.4806 18.9765 37.3794 18.5515 37.1768 18.3223C36.9743 18.0931 36.6385 17.9785 36.1695 17.9785H35.7178Z" fill="#14D773"/>
<path d="M40.3268 16.6514H42.1417V22.5116H40.3268V16.6514Z" fill="#14D773"/>
<path d="M47.0505 21.5442H44.9878L44.704 22.5116H42.8532L45.0558 16.6514H47.0305L49.2331 22.5116H47.3383L47.0505 21.5442ZM46.6708 20.277L46.0232 18.1704L45.3796 20.277H46.6708Z" fill="#14D773"/>
<path d="M49.8287 16.6514H51.5196L53.7262 19.8933V16.6514H55.4331V22.5116H53.7262L51.5316 19.2937V22.5116H49.8287V16.6514Z" fill="#14D773"/>
<path d="M32.086 31.3227V25.4624H35.1041C35.6637 25.4624 36.0915 25.5104 36.3873 25.6064C36.6831 25.7023 36.9216 25.8808 37.1028 26.142C37.284 26.4005 37.3746 26.7163 37.3746 27.0894C37.3746 27.4145 37.3053 27.6957 37.1668 27.9329C37.0282 28.1674 36.8377 28.3579 36.5951 28.5045C36.4406 28.5978 36.2287 28.6751 35.9595 28.7364C36.1754 28.8083 36.3326 28.8803 36.4312 28.9522C36.4979 29.0002 36.5938 29.1028 36.7191 29.26C36.847 29.4172 36.9323 29.5385 36.9749 29.6238L37.8503 31.3227H35.8036L34.8363 29.5318C34.7137 29.3 34.6044 29.1494 34.5085 29.0801C34.3779 28.9895 34.23 28.9442 34.0648 28.9442H33.9049V31.3227H32.086ZM33.9049 27.8369H34.6684C34.751 27.8369 34.9109 27.8103 35.1481 27.757C35.268 27.733 35.3653 27.6717 35.4399 27.5731C35.5172 27.4745 35.5558 27.3612 35.5558 27.2333C35.5558 27.0441 35.4958 26.8989 35.3759 26.7976C35.256 26.6963 35.0308 26.6457 34.7004 26.6457H33.9049V27.8369Z" fill="#60646C"/>
<path d="M38.43 25.4624H43.2829V26.7136H40.2448V27.6451H43.063V28.8403H40.2448V29.9955H43.3708V31.3227H38.43V25.4624Z" fill="#60646C"/>
<path d="M43.9384 25.4624H49.4429V26.9095H47.5961V31.3227H45.7853V26.9095H43.9384V25.4624Z" fill="#60646C"/>
<path d="M53.3204 30.3553H51.2577L50.9739 31.3227H49.1231L51.3257 25.4624H53.3004L55.503 31.3227H53.6082L53.3204 30.3553ZM52.9407 29.0881L52.2931 26.9815L51.6495 29.0881H52.9407Z" fill="#60646C"/>
<path d="M56.1586 25.4624H57.9734V31.3227H56.1586V25.4624Z" fill="#60646C"/>
<path d="M59.2766 25.4624H61.0875V29.8796H63.9136V31.3227H59.2766V25.4624Z" fill="#60646C"/>
<path d="M25.0509 31.0177C24.4105 31.0177 23.872 30.8649 23.4354 30.5592C23.0133 30.239 22.8022 29.7806 22.8022 29.1838C22.8022 28.5435 22.9551 27.9467 23.2607 27.3937C23.5663 26.8406 23.9739 26.3603 24.4833 25.9528C24.9927 25.5307 25.5457 25.2033 26.1424 24.9704C26.7537 24.7375 27.3577 24.6211 27.9544 24.6211C28.5512 24.6211 28.9951 24.7303 29.2862 24.9486C29.5772 25.1523 29.7228 25.407 29.7228 25.7127C29.7228 26.0037 29.5845 26.3167 29.308 26.6514C29.046 26.9716 28.6603 27.2554 28.1509 27.5028C27.8307 27.6484 27.4596 27.7794 27.0375 27.8958C26.63 27.9977 26.2734 28.0486 25.9678 28.0486C25.7349 28.0486 25.6185 28.0122 25.6185 27.9395C25.6185 27.8812 25.7204 27.8521 25.9241 27.8521C26.1133 27.8521 26.4044 27.8012 26.7974 27.6993C27.2049 27.5829 27.5979 27.4301 27.9763 27.2409C28.3983 27.008 28.6967 26.7751 28.8714 26.5423C29.046 26.3094 29.1333 26.0983 29.1333 25.9091C29.1333 25.7345 29.0606 25.589 28.915 25.4725C28.784 25.3561 28.5948 25.2979 28.3474 25.2979C28.1145 25.2979 27.8526 25.3634 27.5615 25.4943C27.1394 25.6836 26.7028 25.9965 26.2516 26.4331C25.815 26.8552 25.4511 27.3209 25.16 27.8303C24.8689 28.3397 24.7234 28.8273 24.7234 29.293C24.7234 29.6132 24.8107 29.8824 24.9854 30.1008C25.1746 30.3191 25.4511 30.4282 25.815 30.4282C26.1934 30.4282 26.63 30.3118 27.1249 30.0789C27.6197 29.8315 28.1218 29.5331 28.6312 29.1838C29.1406 28.82 29.6136 28.4561 30.0503 28.0923C30.4869 27.7284 30.8362 27.4228 31.0982 27.1754C31.1855 27.088 31.251 27.0444 31.2946 27.0444C31.3383 27.0444 31.3601 27.0808 31.3601 27.1535C31.3601 27.2554 31.3165 27.3427 31.2291 27.4155C30.6761 27.9249 30.0721 28.4561 29.4171 29.0092C28.7768 29.5623 28.0854 30.0353 27.3432 30.4282C26.6155 30.8066 25.8514 31.0031 25.0509 31.0177Z" fill="#60646C"/>
</svg>
