<svg width="87" height="50" viewBox="0 0 87 50" fill="none" xmlns="http://www.w3.org/2000/svg">
<g opacity="0.5">
<rect x="0.799805" y="0.799805" width="85.1931" height="47.6331" rx="1.83211" fill="#CDCED6"/>
<rect x="0.400018" y="0.400018" width="85.9927" height="48.4326" rx="2.2319" stroke="white" stroke-opacity="0.3" stroke-width="0.799573"/>
</g>
<path d="M31.5119 26.2973L29.3468 19.8351H29.3026C29.31 19.9824 29.321 20.1922 29.3357 20.4647C29.3505 20.7298 29.3615 21.0207 29.3689 21.3374C29.3836 21.6467 29.391 21.9376 29.391 22.2101V26.2973H28.1206V18.4101H30.0869L32.1637 24.6072H32.2079L34.373 18.4101H36.3393V26.2973H34.9916V22.1438C34.9916 21.8934 34.9953 21.6209 35.0027 21.3264C35.0174 21.0244 35.0284 20.7409 35.0358 20.4758C35.0505 20.2033 35.0616 19.9934 35.0689 19.8461H35.0247L32.7712 26.2973H31.5119Z" fill="#60646C"/>
<path d="M39.639 20.3101V26.2973H38.2472V20.3101H39.639ZM38.9431 18.0013C39.1493 18.0013 39.3297 18.0566 39.4844 18.167C39.639 18.2701 39.7164 18.4579 39.7164 18.7304C39.7164 18.9955 39.639 19.187 39.4844 19.3048C39.3297 19.4153 39.1493 19.4705 38.9431 19.4705C38.7295 19.4705 38.5454 19.4153 38.3908 19.3048C38.2435 19.187 38.1698 18.9955 38.1698 18.7304C38.1698 18.4579 38.2435 18.2701 38.3908 18.167C38.5454 18.0566 38.7295 18.0013 38.9431 18.0013Z" fill="#60646C"/>
<path d="M43.838 26.4078C43.2709 26.4078 42.7775 26.301 42.3577 26.0875C41.9453 25.8665 41.625 25.5314 41.3967 25.0822C41.1757 24.6256 41.0653 24.0438 41.0653 23.3369C41.0653 22.6004 41.1868 22.0039 41.4298 21.5473C41.6802 21.0833 42.0226 20.7446 42.4571 20.531C42.8916 20.3101 43.3887 20.1996 43.9484 20.1996C44.324 20.1996 44.6591 20.2364 44.9537 20.3101C45.2483 20.3837 45.4986 20.4721 45.7048 20.5752L45.2961 21.6688C45.0678 21.5804 44.8395 21.5068 44.6112 21.4479C44.3829 21.3816 44.162 21.3485 43.9484 21.3485C43.617 21.3485 43.3409 21.4221 43.1199 21.5694C42.9064 21.7167 42.748 21.9376 42.6449 22.2322C42.5418 22.5194 42.4903 22.8839 42.4903 23.3258C42.4903 23.7529 42.5418 24.1101 42.6449 24.3973C42.7554 24.6845 42.9174 24.9018 43.131 25.0491C43.3445 25.189 43.6097 25.259 43.9263 25.259C44.2651 25.259 44.5634 25.2185 44.8211 25.1375C45.0789 25.0564 45.3219 24.946 45.5502 24.8061V26.0101C45.3219 26.1501 45.0752 26.2495 44.8101 26.3084C44.5523 26.3747 44.2283 26.4078 43.838 26.4078Z" fill="#60646C"/>
<path d="M50.0901 20.1996C50.1785 20.1996 50.2816 20.2033 50.3994 20.2107C50.5172 20.218 50.6166 20.2328 50.6977 20.2548L50.5761 21.5473C50.5099 21.5326 50.4215 21.5215 50.311 21.5142C50.2079 21.4994 50.1159 21.4921 50.0349 21.4921C49.8139 21.4921 49.6004 21.5289 49.3942 21.6025C49.1953 21.6688 49.0149 21.7719 48.8529 21.9118C48.6982 22.0444 48.573 22.2175 48.4773 22.431C48.3889 22.6446 48.3447 22.8987 48.3447 23.1932V26.2973H46.9529V20.3101H48.0244L48.2232 21.3485H48.2895C48.4073 21.1349 48.5546 20.9434 48.7314 20.774C48.9081 20.5973 49.1106 20.4574 49.3389 20.3543C49.5746 20.2512 49.825 20.1996 50.0901 20.1996Z" fill="#60646C"/>
<path d="M56.9381 23.2927C56.9381 23.7934 56.8719 24.2353 56.7393 24.6183C56.6067 25.0012 56.4153 25.3289 56.1649 25.6014C55.9218 25.8665 55.6199 26.069 55.2591 26.209C54.9056 26.3415 54.5116 26.4078 54.0771 26.4078C53.6647 26.4078 53.2854 26.3415 52.9393 26.209C52.5931 26.069 52.2912 25.8665 52.0334 25.6014C51.783 25.3289 51.5879 25.0012 51.448 24.6183C51.308 24.2353 51.2381 23.7934 51.2381 23.2927C51.2381 22.6299 51.3522 22.0702 51.5805 21.6136C51.8088 21.1496 52.1365 20.7998 52.5637 20.5641C52.9982 20.3211 53.51 20.1996 54.0992 20.1996C54.6589 20.1996 55.1486 20.3211 55.5684 20.5641C55.9955 20.7998 56.3306 21.1496 56.5736 21.6136C56.8166 22.0702 56.9381 22.6299 56.9381 23.2927ZM52.6631 23.2927C52.6631 23.7124 52.711 24.0733 52.8067 24.3752C52.9098 24.6698 53.0645 24.8944 53.2707 25.0491C53.4842 25.2037 53.7567 25.2811 54.0881 25.2811C54.4269 25.2811 54.6994 25.2037 54.9056 25.0491C55.1191 24.8944 55.2738 24.6698 55.3695 24.3752C55.4653 24.0733 55.5131 23.7124 55.5131 23.2927C55.5131 22.8655 55.4616 22.5084 55.3585 22.2211C55.2627 21.9266 55.1081 21.7056 54.8945 21.5583C54.6883 21.4037 54.4195 21.3264 54.0881 21.3264C53.5873 21.3264 53.2228 21.4957 52.9945 21.8345C52.7736 22.1733 52.6631 22.6593 52.6631 23.2927Z" fill="#60646C"/>
<path d="M62.4533 24.563C62.4533 24.9607 62.3575 25.2995 62.166 25.5793C61.9746 25.8518 61.691 26.058 61.3154 26.1979C60.9472 26.3379 60.4943 26.4078 59.9567 26.4078C59.5369 26.4078 59.1761 26.3784 58.8741 26.3194C58.5722 26.2605 58.285 26.1685 58.0125 26.0433V24.8613C58.3071 25.0012 58.6348 25.119 58.9957 25.2148C59.3565 25.3105 59.6916 25.3584 60.0009 25.3584C60.3839 25.3584 60.66 25.2995 60.8294 25.1816C60.9988 25.0638 61.0835 24.9055 61.0835 24.7066C61.0835 24.5888 61.0503 24.482 60.9841 24.3863C60.9178 24.2905 60.7889 24.1911 60.5974 24.088C60.4059 23.9776 60.115 23.8413 59.7247 23.6793C59.3418 23.5246 59.0214 23.37 58.7637 23.2153C58.5133 23.0607 58.3218 22.8766 58.1893 22.663C58.0641 22.4421 58.0015 22.1659 58.0015 21.8345C58.0015 21.2969 58.215 20.8919 58.6422 20.6194C59.0693 20.3395 59.6327 20.1996 60.3323 20.1996C60.7005 20.1996 61.0466 20.2364 61.3707 20.3101C61.7021 20.3764 62.0335 20.4868 62.3649 20.6415L61.923 21.6688C61.7389 21.5878 61.5548 21.5178 61.3707 21.4589C61.1939 21.3926 61.0135 21.3411 60.8294 21.3043C60.6527 21.2675 60.4722 21.249 60.2881 21.249C59.9862 21.249 59.7579 21.2969 59.6032 21.3926C59.4486 21.481 59.3712 21.6062 59.3712 21.7682C59.3712 21.8934 59.4081 22.0039 59.4817 22.0996C59.5627 22.188 59.699 22.2801 59.8904 22.3758C60.0893 22.4642 60.3691 22.582 60.73 22.7293C61.0908 22.8692 61.3965 23.0165 61.6468 23.1712C61.9046 23.3184 62.1034 23.5026 62.2434 23.7235C62.3833 23.9444 62.4533 24.2243 62.4533 24.563Z" fill="#60646C"/>
<path d="M69.139 23.2927C69.139 23.7934 69.0728 24.2353 68.9402 24.6183C68.8076 25.0012 68.6162 25.3289 68.3658 25.6014C68.1228 25.8665 67.8208 26.069 67.46 26.209C67.1065 26.3415 66.7125 26.4078 66.278 26.4078C65.8656 26.4078 65.4863 26.3415 65.1402 26.209C64.794 26.069 64.4921 25.8665 64.2343 25.6014C63.984 25.3289 63.7888 25.0012 63.6489 24.6183C63.509 24.2353 63.439 23.7934 63.439 23.2927C63.439 22.6299 63.5531 22.0702 63.7814 21.6136C64.0097 21.1496 64.3374 20.7998 64.7646 20.5641C65.1991 20.3211 65.7109 20.1996 66.3001 20.1996C66.8598 20.1996 67.3495 20.3211 67.7693 20.5641C68.1964 20.7998 68.5315 21.1496 68.7745 21.6136C69.0175 22.0702 69.139 22.6299 69.139 23.2927ZM64.864 23.2927C64.864 23.7124 64.9119 24.0733 65.0076 24.3752C65.1107 24.6698 65.2654 24.8944 65.4716 25.0491C65.6851 25.2037 65.9576 25.2811 66.289 25.2811C66.6278 25.2811 66.9003 25.2037 67.1065 25.0491C67.32 24.8944 67.4747 24.6698 67.5704 24.3752C67.6662 24.0733 67.714 23.7124 67.714 23.2927C67.714 22.8655 67.6625 22.5084 67.5594 22.2211C67.4636 21.9266 67.309 21.7056 67.0954 21.5583C66.8892 21.4037 66.6204 21.3264 66.289 21.3264C65.7882 21.3264 65.4237 21.4957 65.1954 21.8345C64.9745 22.1733 64.864 22.6593 64.864 23.2927Z" fill="#60646C"/>
<path d="M73.6821 21.3595H72.235V26.2973H70.8431V21.3595H69.882V20.6967L70.8431 20.299V19.8903C70.8431 19.3748 70.9241 18.9698 71.0861 18.6752C71.2481 18.3806 71.4838 18.1707 71.7931 18.0455C72.1024 17.913 72.4669 17.8467 72.8867 17.8467C73.1813 17.8467 73.4464 17.8725 73.6821 17.924C73.9177 17.9682 74.1129 18.0197 74.2675 18.0787L73.914 19.117C73.7888 19.0802 73.6489 19.0471 73.4943 19.0176C73.347 18.9808 73.185 18.9624 73.0082 18.9624C72.7431 18.9624 72.5479 19.0471 72.4227 19.2165C72.2976 19.3858 72.235 19.6215 72.235 19.9234V20.3101H73.6821V21.3595Z" fill="#60646C"/>
<path d="M76.9971 25.2921C77.1738 25.2921 77.3432 25.2774 77.5052 25.2479C77.6672 25.2111 77.8182 25.1706 77.9581 25.1264V26.1648C77.8108 26.2311 77.6194 26.2863 77.3837 26.3305C77.1481 26.382 76.9013 26.4078 76.6436 26.4078C76.3048 26.4078 75.9955 26.3526 75.7157 26.2421C75.4432 26.1243 75.2223 25.9254 75.0529 25.6456C74.8909 25.3657 74.8098 24.9754 74.8098 24.4747V21.3595H74.0034V20.7519L74.8872 20.2659L75.329 18.9955H76.2017V20.3101H77.9029V21.3595H76.2017V24.4636C76.2017 24.7435 76.2754 24.9533 76.4227 25.0933C76.5699 25.2258 76.7614 25.2921 76.9971 25.2921Z" fill="#60646C"/>
<path d="M30.8485 32.3052C30.8485 32.6524 30.7644 32.9481 30.5962 33.1922C30.428 33.4363 30.1866 33.6262 29.872 33.7618C29.5573 33.892 29.183 33.9571 28.749 33.9571C28.5375 33.9571 28.334 33.9436 28.1387 33.9164C27.9434 33.8947 27.7617 33.8622 27.5935 33.8188C27.4254 33.7754 27.2762 33.7211 27.146 33.656V32.826C27.363 32.9237 27.618 33.0132 27.9109 33.0946C28.2038 33.1705 28.5022 33.2085 28.806 33.2085C29.0664 33.2085 29.2834 33.1732 29.457 33.1027C29.6306 33.0322 29.7608 32.9345 29.8476 32.8098C29.9344 32.685 29.9778 32.5385 29.9778 32.3703C29.9778 32.1913 29.9317 32.0421 29.8394 31.9228C29.7526 31.798 29.6143 31.6841 29.4244 31.581C29.24 31.4725 28.9904 31.3586 28.6758 31.2393C28.4588 31.1579 28.2608 31.0684 28.0818 30.9707C27.9082 30.8677 27.7536 30.7483 27.618 30.6127C27.4878 30.4771 27.3874 30.3197 27.3169 30.1407C27.2464 29.9617 27.2111 29.7529 27.2111 29.5142C27.2111 29.1941 27.2898 28.9201 27.4471 28.6923C27.6098 28.4644 27.8322 28.2909 28.1143 28.1715C28.3964 28.0467 28.7246 27.9843 29.0989 27.9843C29.4136 27.9843 29.7038 28.0169 29.9696 28.082C30.2409 28.1417 30.4986 28.2258 30.7427 28.3343L30.466 29.0585C30.2436 28.9662 30.0185 28.8903 29.7906 28.8306C29.5628 28.771 29.3241 28.7411 29.0745 28.7411C28.8575 28.7411 28.6758 28.7737 28.5293 28.8388C28.3829 28.9039 28.2717 28.9934 28.1957 29.1073C28.1252 29.2212 28.0899 29.3541 28.0899 29.506C28.0899 29.685 28.1306 29.8342 28.212 29.9536C28.2934 30.0729 28.4235 30.1841 28.6026 30.2872C28.7816 30.3848 29.0176 30.4933 29.3105 30.6127C29.636 30.7375 29.9127 30.8731 30.1405 31.0196C30.3738 31.166 30.5501 31.3423 30.6694 31.5485C30.7888 31.7492 30.8485 32.0015 30.8485 32.3052Z" fill="#80838D"/>
<path d="M32.751 29.4897V33.8757H31.8884V29.4897H32.751ZM32.3279 27.8216C32.4581 27.8216 32.572 27.8596 32.6696 27.9355C32.7673 28.0115 32.8161 28.139 32.8161 28.318C32.8161 28.4916 32.7673 28.6191 32.6696 28.7004C32.572 28.7764 32.4581 28.8144 32.3279 28.8144C32.1868 28.8144 32.0675 28.7764 31.9698 28.7004C31.8776 28.6191 31.8315 28.4916 31.8315 28.318C31.8315 28.139 31.8776 28.0115 31.9698 27.9355C32.0675 27.8596 32.1868 27.8216 32.3279 27.8216Z" fill="#80838D"/>
<path d="M34.9681 33.8757H34.1055V27.6914H34.9681V33.8757Z" fill="#80838D"/>
<path d="M37.3072 33.8757L35.6472 29.4897H36.5586L37.47 32.053C37.508 32.1615 37.5459 32.2835 37.5839 32.4192C37.6273 32.5548 37.6653 32.685 37.6978 32.8098C37.7304 32.9345 37.7521 33.043 37.7629 33.1352H37.7955C37.8117 33.043 37.8362 32.9345 37.8687 32.8098C37.9067 32.6796 37.9474 32.5494 37.9908 32.4192C38.0342 32.2835 38.0721 32.1615 38.1047 32.053L39.0161 29.4897H39.9274L38.2593 33.8757H37.3072Z" fill="#80838D"/>
<path d="M42.3309 29.4084C42.7161 29.4084 43.047 29.4897 43.3237 29.6525C43.6003 29.8098 43.8119 30.0377 43.9584 30.336C44.1103 30.6344 44.1862 30.987 44.1862 31.3939V31.8658H41.2405C41.2514 32.3161 41.368 32.6606 41.5904 32.8993C41.8183 33.138 42.1356 33.2573 42.5425 33.2573C42.8246 33.2573 43.0741 33.2329 43.2911 33.1841C43.5135 33.1298 43.7414 33.0512 43.9747 32.9481V33.6642C43.7577 33.7618 43.5352 33.8351 43.3074 33.8839C43.085 33.9327 42.8192 33.9571 42.5099 33.9571C42.0868 33.9571 41.7125 33.873 41.387 33.7049C41.0615 33.5367 40.8065 33.2871 40.6221 32.9562C40.4431 32.6199 40.3536 32.2076 40.3536 31.7194C40.3536 31.2257 40.4349 30.808 40.5977 30.4662C40.7659 30.1245 40.9964 29.8641 41.2894 29.685C41.5877 29.5006 41.9349 29.4084 42.3309 29.4084ZM42.3309 30.0756C42.0217 30.0756 41.7722 30.176 41.5823 30.3767C41.3978 30.5774 41.2894 30.8622 41.2568 31.2311H43.3237C43.3237 31.0033 43.2884 30.8026 43.2179 30.629C43.1474 30.4554 43.0389 30.3197 42.8924 30.2221C42.7459 30.1245 42.5588 30.0756 42.3309 30.0756Z" fill="#80838D"/>
<path d="M47.427 29.4084C47.503 29.4084 47.5871 29.4138 47.6793 29.4246C47.7715 29.4301 47.8475 29.4382 47.9071 29.4491L47.8176 30.2546C47.7579 30.2384 47.6874 30.2248 47.606 30.214C47.5247 30.2031 47.4487 30.1977 47.3782 30.1977C47.2155 30.1977 47.0581 30.2302 46.9062 30.2953C46.7598 30.355 46.6269 30.4445 46.5075 30.5639C46.3882 30.6778 46.2932 30.8188 46.2227 30.987C46.1576 31.1552 46.1251 31.3478 46.1251 31.5648V33.8757H45.2625V29.4897H45.946L46.06 30.2709H46.0925C46.1847 30.1136 46.2959 29.9698 46.4261 29.8396C46.5563 29.7095 46.7055 29.6064 46.8737 29.5304C47.0419 29.4491 47.2263 29.4084 47.427 29.4084Z" fill="#80838D"/>
<path d="M52.5582 28.0657C53.3176 28.0657 53.871 28.2203 54.2182 28.5295C54.5653 28.8333 54.7389 29.2592 54.7389 29.8071C54.7389 30.0512 54.6983 30.2845 54.6169 30.5069C54.5409 30.7293 54.4135 30.93 54.2344 31.1091C54.0554 31.2827 53.8167 31.421 53.5184 31.5241C53.2254 31.6217 52.8647 31.6705 52.4361 31.6705H51.8095V33.8757H50.9307V28.0657H52.5582ZM52.4931 28.8062H51.8095V30.93H52.3384C52.6694 30.93 52.946 30.8948 53.1684 30.8243C53.3909 30.7483 53.5563 30.6317 53.6648 30.4744C53.7787 30.3116 53.8357 30.1 53.8357 29.8396C53.8357 29.4925 53.7272 29.2348 53.5102 29.0666C53.2986 28.893 52.9596 28.8062 52.4931 28.8062Z" fill="#80838D"/>
<path d="M57.5162 29.4084C58.0696 29.4084 58.4819 29.5304 58.7531 29.7746C59.0243 30.0132 59.16 30.3903 59.16 30.9056V33.8757H58.5497L58.3788 33.2654H58.3462C58.2215 33.4228 58.0913 33.553 57.9556 33.656C57.8255 33.7591 57.6736 33.8351 57.5 33.8839C57.3318 33.9327 57.1256 33.9571 56.8815 33.9571C56.6211 33.9571 56.3852 33.911 56.1736 33.8188C55.9674 33.7211 55.8047 33.5747 55.6853 33.3794C55.566 33.1786 55.5063 32.9291 55.5063 32.6307C55.5063 32.1859 55.6745 31.8468 56.0108 31.6136C56.3526 31.3803 56.8707 31.2528 57.5651 31.2311L58.3137 31.2067V30.9626C58.3137 30.6371 58.2405 30.4093 58.094 30.2791C57.9475 30.1489 57.7414 30.0838 57.4755 30.0838C57.2477 30.0838 57.0307 30.1163 56.8246 30.1814C56.6184 30.2465 56.4231 30.3252 56.2387 30.4174L55.962 29.7908C56.1682 29.6823 56.4041 29.5928 56.67 29.5223C56.9412 29.4463 57.2233 29.4084 57.5162 29.4084ZM57.7197 31.7845C57.2206 31.8062 56.8734 31.8902 56.6781 32.0367C56.4882 32.1778 56.3933 32.3785 56.3933 32.6389C56.3933 32.8667 56.4611 33.0322 56.5967 33.1352C56.7378 33.2383 56.9141 33.2899 57.1256 33.2899C57.4674 33.2899 57.7495 33.1949 57.9719 33.0051C58.1943 32.8152 58.3056 32.5304 58.3056 32.1506V31.7682L57.7197 31.7845Z" fill="#80838D"/>
<path d="M62.6526 29.4084C62.7286 29.4084 62.8127 29.4138 62.9049 29.4246C62.9971 29.4301 63.0731 29.4382 63.1327 29.4491L63.0432 30.2546C62.9836 30.2384 62.913 30.2248 62.8317 30.214C62.7503 30.2031 62.6743 30.1977 62.6038 30.1977C62.4411 30.1977 62.2837 30.2302 62.1319 30.2953C61.9854 30.355 61.8525 30.4445 61.7331 30.5639C61.6138 30.6778 61.5188 30.8188 61.4483 30.987C61.3832 31.1552 61.3507 31.3478 61.3507 31.5648V33.8757H60.4881V29.4897H61.1716L61.2856 30.2709H61.3181C61.4103 30.1136 61.5216 29.9698 61.6518 29.8396C61.7819 29.7095 61.9311 29.6064 62.0993 29.5304C62.2675 29.4491 62.4519 29.4084 62.6526 29.4084Z" fill="#80838D"/>
<path d="M65.5235 33.2573C65.6374 33.2573 65.7541 33.2465 65.8734 33.2248C65.9928 33.2031 66.0958 33.1786 66.1826 33.1515V33.8025C66.0904 33.8459 65.9656 33.8812 65.8083 33.9083C65.651 33.9408 65.4937 33.9571 65.3363 33.9571C65.0977 33.9571 64.8779 33.9164 64.6772 33.8351C64.4819 33.7537 64.3246 33.6126 64.2053 33.4119C64.0859 33.2112 64.0262 32.9318 64.0262 32.5738V30.1489H63.416V29.7583L64.0588 29.4328L64.3599 28.5051H64.8888V29.4897H66.1419V30.1489H64.8888V32.5575C64.8888 32.7962 64.9458 32.9725 65.0597 33.0864C65.179 33.2003 65.3336 33.2573 65.5235 33.2573Z" fill="#80838D"/>
<path d="M69.2814 29.4084C69.7913 29.4084 70.1819 29.5359 70.4532 29.7908C70.7244 30.0458 70.86 30.4554 70.86 31.0196V33.8757H70.0056V31.1416C70.0056 30.7998 69.9324 30.5449 69.7859 30.3767C69.6449 30.2031 69.417 30.1163 69.1024 30.1163C68.6575 30.1163 68.3483 30.2492 68.1747 30.515C68.0066 30.7809 67.9225 31.1633 67.9225 31.6624V33.8757H67.0599V29.4897H67.7435L67.8655 30.0756H67.9143C68.012 29.9237 68.1313 29.799 68.2724 29.7013C68.4134 29.6037 68.5707 29.5304 68.7443 29.4816C68.9179 29.4328 69.097 29.4084 69.2814 29.4084Z" fill="#80838D"/>
<path d="M73.9106 29.4084C74.2957 29.4084 74.6266 29.4897 74.9033 29.6525C75.18 29.8098 75.3915 30.0377 75.538 30.336C75.6899 30.6344 75.7659 30.987 75.7659 31.3939V31.8658H72.8202C72.831 32.3161 72.9477 32.6606 73.1701 32.8993C73.3979 33.138 73.7153 33.2573 74.1221 33.2573C74.4042 33.2573 74.6538 33.2329 74.8708 33.1841C75.0932 33.1298 75.321 33.0512 75.5543 32.9481V33.6642C75.3373 33.7618 75.1149 33.8351 74.887 33.8839C74.6646 33.9327 74.3988 33.9571 74.0896 33.9571C73.6664 33.9571 73.2921 33.873 72.9666 33.7049C72.6411 33.5367 72.3862 33.2871 72.2017 32.9562C72.0227 32.6199 71.9332 32.2076 71.9332 31.7194C71.9332 31.2257 72.0146 30.808 72.1773 30.4662C72.3455 30.1245 72.576 29.8641 72.869 29.685C73.1674 29.5006 73.5145 29.4084 73.9106 29.4084ZM73.9106 30.0756C73.6013 30.0756 73.3518 30.176 73.1619 30.3767C72.9775 30.5774 72.869 30.8622 72.8364 31.2311H74.9033C74.9033 31.0033 74.868 30.8026 74.7975 30.629C74.727 30.4554 74.6185 30.3197 74.472 30.2221C74.3256 30.1245 74.1384 30.0756 73.9106 30.0756Z" fill="#80838D"/>
<path d="M79.0067 29.4084C79.0826 29.4084 79.1667 29.4138 79.2589 29.4246C79.3511 29.4301 79.4271 29.4382 79.4868 29.4491L79.3973 30.2546C79.3376 30.2384 79.2671 30.2248 79.1857 30.214C79.1043 30.2031 79.0284 30.1977 78.9578 30.1977C78.7951 30.1977 78.6378 30.2302 78.4859 30.2953C78.3394 30.355 78.2065 30.4445 78.0872 30.5639C77.9678 30.6778 77.8729 30.8188 77.8023 30.987C77.7372 31.1552 77.7047 31.3478 77.7047 31.5648V33.8757H76.8421V29.4897H77.5257L77.6396 30.2709H77.6721C77.7644 30.1136 77.8756 29.9698 78.0058 29.8396C78.136 29.7095 78.2852 29.6064 78.4533 29.5304C78.6215 29.4491 78.8059 29.4084 79.0067 29.4084Z" fill="#80838D"/>
<rect x="7.14502" y="16.9902" width="8.08182" height="8.08182" fill="#EB5321"/>
<rect x="16.5713" y="16.9902" width="8.08182" height="8.08182" fill="#7FBA00"/>
<rect x="16.5713" y="26.4189" width="8.08182" height="8.08182" fill="#FCBB01"/>
<rect x="7.14502" y="26.4189" width="8.08182" height="8.08182" fill="#08A1EF"/>
</svg>
