<svg width="88" height="50" viewBox="0 0 88 50" fill="none" xmlns="http://www.w3.org/2000/svg">
<g opacity="0.6">
<g opacity="0.5">
<rect x="0.799805" y="0.799805" width="85.5555" height="47.6331" rx="1.83211" fill="#CDCED6"/>
<rect x="0.400018" y="0.400018" width="86.355" height="48.4326" rx="2.2319" stroke="white" stroke-opacity="0.3" stroke-width="0.799573"/>
</g>
</g>
<path d="M0.799805 15.9932H86.3553V2.8679C86.3553 1.72575 85.4294 0.79986 84.2872 0.79986H2.86785C1.7257 0.79986 0.799805 1.72575 0.799805 2.8679V15.9932Z" fill="#4285F4"/>
<path d="M31.0918 6.13086C31.8327 6.13086 32.3711 6.28544 32.7069 6.59461C33.0481 6.90378 33.2186 7.33022 33.2186 7.87393C33.2186 8.11913 33.1813 8.35367 33.1067 8.57755C33.0321 8.7961 32.9068 8.99333 32.7309 9.16924C32.555 9.34514 32.3231 9.48374 32.0353 9.58502C31.7527 9.6863 31.4009 9.73694 30.9798 9.73694H30.4121V11.8398H29.3887V6.13086H31.0918ZM31.0278 6.97841H30.4121V8.88939H30.8759C31.1531 8.88939 31.3876 8.8574 31.5795 8.79344C31.7767 8.72414 31.926 8.61753 32.0273 8.47361C32.1285 8.32969 32.1792 8.14312 32.1792 7.91391C32.1792 7.59941 32.0859 7.36487 31.8993 7.21028C31.7128 7.0557 31.4223 6.97841 31.0278 6.97841Z" fill="white"/>
<path d="M35.9703 7.42617C36.53 7.42617 36.9538 7.54877 37.2416 7.79397C37.5348 8.03384 37.6814 8.41231 37.6814 8.92937V11.8398H36.9698L36.7699 11.2401H36.7379C36.6153 11.3947 36.4873 11.5253 36.3541 11.6319C36.2261 11.7332 36.0769 11.8052 35.9063 11.8478C35.7411 11.8958 35.5385 11.9198 35.2986 11.9198C35.0428 11.9198 34.8109 11.8718 34.603 11.7758C34.4005 11.6799 34.2405 11.5333 34.1233 11.3361C34.006 11.1335 33.9474 10.8803 33.9474 10.5765C33.9474 10.1287 34.1099 9.79291 34.4351 9.56903C34.7656 9.33981 35.264 9.21455 35.9303 9.19323L36.6819 9.16924V8.95335C36.6819 8.67617 36.6153 8.47894 36.482 8.36167C36.3488 8.2444 36.1622 8.18576 35.9223 8.18576C35.7038 8.18576 35.4932 8.21775 35.2906 8.28171C35.0881 8.34568 34.8909 8.4203 34.699 8.50559L34.3791 7.80197C34.5924 7.69003 34.8349 7.59941 35.1067 7.53011C35.3839 7.46082 35.6718 7.42617 35.9703 7.42617ZM36.1542 9.8089C35.7118 9.82489 35.4053 9.90218 35.2347 10.0408C35.0641 10.174 34.9788 10.3553 34.9788 10.5845C34.9788 10.787 35.0401 10.9336 35.1627 11.0242C35.2853 11.1149 35.4426 11.1602 35.6345 11.1602C35.9276 11.1602 36.1755 11.0776 36.3781 10.9123C36.5806 10.7417 36.6819 10.4912 36.6819 10.1607V9.79291L36.1542 9.8089Z" fill="white"/>
<path d="M41.2146 7.42617C41.2786 7.42617 41.3532 7.42883 41.4385 7.43416C41.5238 7.43949 41.5957 7.45016 41.6544 7.46615L41.5664 8.40165C41.5185 8.39099 41.4545 8.38299 41.3745 8.37766C41.2999 8.367 41.2333 8.36167 41.1746 8.36167C41.0147 8.36167 40.8601 8.38832 40.7109 8.44163C40.567 8.4896 40.4364 8.56423 40.3191 8.66551C40.2072 8.76146 40.1165 8.88672 40.0472 9.04131C39.9833 9.19589 39.9513 9.37979 39.9513 9.59301V11.8398H38.9438V7.50613H39.7194L39.8633 8.25773H39.9113C39.9966 8.10314 40.1032 7.96455 40.2311 7.84195C40.3591 7.71401 40.5057 7.61274 40.6709 7.53811C40.8415 7.46348 41.0227 7.42617 41.2146 7.42617Z" fill="white"/>
<path d="M44.1367 11.1122C44.2646 11.1122 44.3872 11.1015 44.5045 11.0802C44.6218 11.0536 44.731 11.0242 44.8323 10.9923V11.7439C44.7257 11.7918 44.5871 11.8318 44.4165 11.8638C44.246 11.9011 44.0674 11.9198 43.8808 11.9198C43.6356 11.9198 43.4117 11.8798 43.2092 11.7998C43.0119 11.7145 42.852 11.5706 42.7294 11.3681C42.6122 11.1655 42.5535 10.883 42.5535 10.5205V8.26572H41.9698V7.82596L42.6095 7.47414L42.9293 6.55463H43.561V7.50613H44.7923V8.26572H43.561V10.5125C43.561 10.7151 43.6143 10.867 43.7209 10.9683C43.8275 11.0642 43.9661 11.1122 44.1367 11.1122Z" fill="white"/>
<path d="M48.0246 7.42617C48.5097 7.42617 48.8881 7.55143 49.16 7.80197C49.4372 8.0525 49.5758 8.45762 49.5758 9.01732V11.8398H48.5683V9.21721C48.5683 8.89205 48.5043 8.64952 48.3764 8.4896C48.2485 8.32436 48.0459 8.24173 47.7687 8.24173C47.3636 8.24173 47.0864 8.36967 46.9372 8.62553C46.7879 8.87606 46.7133 9.2412 46.7133 9.72094V11.8398H45.7058V7.50613H46.4814L46.6254 8.07382H46.6813C46.7773 7.92457 46.8945 7.80197 47.0331 7.70602C47.1717 7.61007 47.3263 7.54077 47.4969 7.49813C47.6675 7.45016 47.8434 7.42617 48.0246 7.42617Z" fill="white"/>
<path d="M52.579 7.42617C52.9681 7.42617 53.3013 7.50613 53.5785 7.66604C53.861 7.82062 54.0795 8.04451 54.2341 8.33768C54.3887 8.62553 54.466 8.97734 54.466 9.39312V9.90485H51.6035C51.6142 10.2993 51.7234 10.6058 51.9313 10.8244C52.1392 11.0376 52.4271 11.1442 52.7949 11.1442C53.0774 11.1442 53.3279 11.1175 53.5465 11.0642C53.7704 11.0056 53.9996 10.923 54.2341 10.8164V11.6239C54.0209 11.7252 53.7997 11.7998 53.5705 11.8478C53.3412 11.8958 53.0667 11.9198 52.7469 11.9198C52.3258 11.9198 51.95 11.8398 51.6195 11.6799C51.2943 11.5147 51.0385 11.2668 50.8519 10.9363C50.6707 10.6058 50.5801 10.1954 50.5801 9.70495C50.5801 9.20922 50.6627 8.79344 50.8279 8.45762C50.9985 8.11647 51.233 7.8606 51.5315 7.69003C51.8301 7.51412 52.1792 7.42617 52.579 7.42617ZM52.579 8.16977C52.3125 8.16977 52.0939 8.25772 51.9233 8.43363C51.7581 8.60421 51.6595 8.86007 51.6275 9.20122H53.4905C53.4905 8.99866 53.4559 8.82009 53.3866 8.66551C53.3226 8.51092 53.224 8.39099 53.0907 8.3057C52.9575 8.21508 52.7869 8.16977 52.579 8.16977Z" fill="white"/>
<path d="M57.7527 7.42617C57.8166 7.42617 57.8913 7.42883 57.9765 7.43416C58.0618 7.43949 58.1338 7.45016 58.1924 7.46615L58.1045 8.40165C58.0565 8.39099 57.9925 8.38299 57.9126 8.37766C57.838 8.367 57.7713 8.36167 57.7127 8.36167C57.5528 8.36167 57.3982 8.38832 57.2489 8.44163C57.105 8.4896 56.9744 8.56423 56.8571 8.66551C56.7452 8.76146 56.6546 8.88672 56.5853 9.04131C56.5213 9.19589 56.4893 9.37979 56.4893 9.59301V11.8398H55.4819V7.50613H56.2575L56.4014 8.25773H56.4494C56.5346 8.10314 56.6413 7.96455 56.7692 7.84195C56.8971 7.71401 57.0437 7.61274 57.209 7.53811C57.3795 7.46348 57.5608 7.42617 57.7527 7.42617Z" fill="white"/>
<g clip-path="url(#clip0_275_8860)">
<path d="M52.8405 32.9014C52.329 32.9132 51.8205 32.8217 51.3459 32.6328C50.8714 32.4438 50.4408 32.1612 50.0805 31.8023C49.7202 31.4434 49.4377 31.0157 49.2503 30.5453C49.0629 30.0749 48.9746 29.5718 48.9906 29.0665C48.9774 28.5645 49.0676 28.0651 49.2557 27.5986C49.4438 27.1321 49.7258 26.7082 50.0848 26.3527C50.4425 25.9912 50.8719 25.7066 51.3461 25.5167C51.8203 25.3269 52.3291 25.2358 52.8405 25.2494C53.3527 25.2369 53.8612 25.3379 54.3288 25.545C54.7963 25.7521 55.2109 26.06 55.5422 26.4461L54.8803 27.1001C54.6375 26.7969 54.3271 26.5531 53.9733 26.388C53.6195 26.2229 53.2318 26.1407 52.8405 26.148C52.4592 26.1388 52.08 26.2067 51.7261 26.3475C51.3723 26.4882 51.0512 26.6989 50.7827 26.9666C50.5085 27.2429 50.2943 27.5718 50.1533 27.9329C50.0124 28.294 49.9477 28.6798 49.9632 29.0665C49.9465 29.4547 50.0106 29.8422 50.1515 30.2049C50.2925 30.5676 50.5073 30.8979 50.7827 31.1753C51.0506 31.4438 51.3715 31.6551 51.7255 31.7959C52.0795 31.9367 52.4591 32.0041 52.8405 31.9938C53.2733 31.9918 53.7002 31.894 54.0898 31.7077C54.4793 31.5214 54.8218 31.2513 55.0919 30.9172L55.7854 31.5846C55.4344 31.9991 54.9924 32.3293 54.4931 32.55C53.9748 32.7849 53.4107 32.9049 52.8405 32.9014ZM57.51 25.414V32.7413H56.5554V25.414H57.51ZM58.3295 30.2321C58.3191 29.8809 58.379 29.5311 58.5057 29.2029C58.6324 28.8746 58.8235 28.5742 59.0679 28.3191C59.3099 28.0714 59.6014 27.8762 59.9239 27.746C60.2464 27.6158 60.5928 27.5534 60.9411 27.5628C61.2881 27.553 61.6333 27.6152 61.9544 27.7455C62.2755 27.8758 62.5654 28.0712 62.8053 28.3191C63.0522 28.5727 63.2452 28.8727 63.3728 29.2013C63.5004 29.5298 63.56 29.8804 63.5482 30.2321C63.5613 30.584 63.5023 30.9348 63.3746 31.2636C63.2469 31.5924 63.0532 31.8922 62.8053 32.1451C62.5661 32.3939 62.2763 32.5899 61.9551 32.7203C61.6338 32.8506 61.2882 32.9123 60.9411 32.9014C60.5927 32.9119 60.2459 32.85 59.9233 32.7197C59.6006 32.5895 59.3092 32.3937 59.0679 32.1451C58.8235 31.8899 58.6324 31.5896 58.5057 31.2613C58.379 30.9331 58.3191 30.5833 58.3295 30.2321ZM59.2841 30.2321C59.2621 30.7132 59.4337 31.1834 59.7614 31.5401C59.9129 31.699 60.0957 31.8256 60.2986 31.9121C60.5015 31.9986 60.7201 32.0433 60.9411 32.0433C61.1621 32.0433 61.3807 31.9986 61.5836 31.9121C61.7865 31.8256 61.9693 31.699 62.1208 31.5401C62.4485 31.1834 62.6201 30.7132 62.5981 30.2321C62.6191 29.7538 62.4475 29.2867 62.1208 28.933C61.9707 28.7718 61.7883 28.6431 61.5853 28.555C61.3822 28.467 61.1629 28.4215 60.9411 28.4215C60.7193 28.4215 60.5 28.467 60.2969 28.555C60.0939 28.6431 59.9115 28.7718 59.7614 28.933C59.4347 29.2867 59.2631 29.7538 59.2841 30.2321ZM68.8165 32.7413H67.916V32.0428H67.8709C67.7099 32.3039 67.4794 32.5163 67.2045 32.6567C66.9189 32.8167 66.5963 32.901 66.2679 32.9014C66.0046 32.9183 65.7407 32.8802 65.4933 32.7898C65.2458 32.6994 65.0203 32.5585 64.8315 32.3765C64.4748 31.9595 64.2956 31.422 64.3317 30.8772V27.7318H65.2818V30.8193C65.262 30.9865 65.2809 31.1559 65.3372 31.3148C65.3936 31.4736 65.4858 31.6177 65.6069 31.736C65.728 31.8544 65.8748 31.9439 66.0361 31.9978C66.1975 32.0518 66.3692 32.0687 66.5381 32.0472C66.7205 32.0504 66.9011 32.0118 67.0659 31.9347C67.2307 31.8575 67.3752 31.7438 67.4882 31.6023C67.7451 31.2967 67.881 30.9095 67.8709 30.5124V27.7318H68.8255L68.8165 32.7413ZM72.0406 32.9014C71.7165 32.9013 71.3962 32.8321 71.1017 32.6985C70.8072 32.5649 70.5453 32.3701 70.334 32.1273C69.8609 31.6077 69.6037 30.9309 69.6135 30.2321C69.5981 29.5369 69.849 28.8616 70.316 28.3413C70.5257 28.0963 70.7871 27.8997 71.0819 27.7652C71.3768 27.6307 71.6978 27.5616 72.0225 27.5628C72.3777 27.5568 72.7289 27.6378 73.0447 27.7986C73.334 27.9395 73.5797 28.1546 73.7561 28.4214H73.7966L73.7741 27.7318V25.414H74.7242V32.7413H73.8237V32.0428H73.7831C73.6067 32.3096 73.361 32.5247 73.0717 32.6656C72.7532 32.8278 72.3988 32.9088 72.0406 32.9014ZM72.1982 32.0428C72.4155 32.0497 72.6316 32.0081 72.8304 31.9211C73.0292 31.834 73.2056 31.7038 73.3464 31.5401C73.6613 31.1776 73.8226 30.7091 73.7966 30.2321C73.8184 29.7584 73.6575 29.2941 73.3464 28.933C73.206 28.7682 73.03 28.6366 72.8312 28.548C72.6325 28.4595 72.4161 28.4162 72.1982 28.4214C71.9805 28.4181 71.7647 28.4622 71.5663 28.5506C71.3678 28.6391 71.1915 28.7696 71.0499 28.933C70.7388 29.2941 70.5779 29.7584 70.5997 30.2321C70.5747 30.7063 70.736 31.1717 71.0499 31.5312C71.1915 31.6946 71.3678 31.8251 71.5663 31.9135C71.7647 32.002 71.9805 32.0461 72.1982 32.0428Z" fill="#80838D"/>
<path d="M16.6965 32.9015C15.5761 32.9052 14.4992 32.4725 13.6994 31.6972C12.8996 30.922 12.4411 29.8665 12.4233 28.7596C12.4411 27.6527 12.8996 26.5973 13.6994 25.822C14.4992 25.0468 15.5761 24.6141 16.6965 24.6177C17.2304 24.609 17.7607 24.7056 18.2563 24.9019C18.752 25.0982 19.2029 25.3903 19.5828 25.7611L18.7678 26.5574C18.2121 26.0288 17.4679 25.7378 16.6965 25.7478C16.2971 25.7465 15.9015 25.8238 15.5326 25.9751C15.1637 26.1264 14.8289 26.3486 14.5478 26.6289C14.2666 26.9091 14.0447 27.2419 13.8948 27.6077C13.745 27.9735 13.6703 28.365 13.6751 28.7596C13.6703 29.1542 13.745 29.5458 13.8948 29.9116C14.0447 30.2774 14.2666 30.6101 14.5478 30.8904C14.8289 31.1707 15.1637 31.3929 15.5326 31.5442C15.9015 31.6955 16.2971 31.7727 16.6965 31.7715C17.09 31.7875 17.4824 31.7217 17.8485 31.5784C18.2146 31.4351 18.5462 31.2174 18.8218 30.9396C19.1893 30.548 19.4101 30.0441 19.4477 29.5115H16.6965V28.3859H20.5689C20.6112 28.6193 20.6308 28.8562 20.6275 29.0933C20.658 30.0696 20.299 31.0187 19.6279 31.7359C19.2502 32.1236 18.7937 32.4279 18.2885 32.6288C17.7832 32.8297 17.2407 32.9226 16.6965 32.9015Z" fill="#4285F4"/>
<path d="M26.6157 30.2315C26.6304 30.5874 26.5723 30.9425 26.4446 31.2756C26.317 31.6087 26.1225 31.9128 25.8729 32.1698C25.6233 32.4268 25.3237 32.6312 24.9921 32.7709C24.6605 32.9105 24.3037 32.9825 23.9432 32.9825C23.5827 32.9825 23.226 32.9105 22.8944 32.7709C22.5628 32.6312 22.2632 32.4268 22.0135 32.1698C21.7639 31.9128 21.5695 31.6087 21.4418 31.2756C21.3142 30.9425 21.256 30.5874 21.2708 30.2315C21.256 29.8756 21.3142 29.5205 21.4418 29.1874C21.5695 28.8543 21.7639 28.5502 22.0135 28.2932C22.2632 28.0362 22.5628 27.8318 22.8944 27.6921C23.226 27.5525 23.5827 27.4805 23.9432 27.4805C24.3037 27.4805 24.6605 27.5525 24.9921 27.6921C25.3237 27.8318 25.6233 28.0362 25.8729 28.2932C26.1225 28.5502 26.317 28.8543 26.4446 29.1874C26.5723 29.5205 26.6304 29.8756 26.6157 30.2315ZM25.4449 30.2315C25.4648 30.0248 25.4407 29.8163 25.3743 29.6194C25.3079 29.4225 25.2005 29.2414 25.0591 29.0878C24.9178 28.9342 24.7455 28.8115 24.5533 28.7276C24.3611 28.6436 24.1533 28.6003 23.9432 28.6003C23.7331 28.6003 23.5253 28.6436 23.3332 28.7276C23.141 28.8115 22.9687 28.9342 22.8273 29.0878C22.6859 29.2414 22.5786 29.4225 22.5122 29.6194C22.4457 29.8163 22.4217 30.0248 22.4415 30.2315C22.4217 30.4382 22.4457 30.6467 22.5122 30.8436C22.5786 31.0406 22.6859 31.2216 22.8273 31.3752C22.9687 31.5288 23.141 31.6515 23.3332 31.7354C23.5253 31.8194 23.7331 31.8628 23.9432 31.8628C24.1533 31.8628 24.3611 31.8194 24.5533 31.7354C24.7455 31.6515 24.9178 31.5288 25.0591 31.3752C25.2005 31.2216 25.3079 31.0406 25.3743 30.8436C25.4407 30.6467 25.4648 30.4382 25.4449 30.2315Z" fill="#EA4335"/>
<path d="M32.6127 30.2315C32.6275 30.5874 32.5693 30.9425 32.4417 31.2756C32.3141 31.6087 32.1196 31.9128 31.87 32.1698C31.6204 32.4268 31.3208 32.6312 30.9891 32.7709C30.6575 32.9105 30.3008 32.9825 29.9403 32.9825C29.5798 32.9825 29.2231 32.9105 28.8915 32.7709C28.5598 32.6312 28.2602 32.4268 28.0106 32.1698C27.761 31.9128 27.5665 31.6087 27.4389 31.2756C27.3113 30.9425 27.2531 30.5874 27.2679 30.2315C27.2531 29.8756 27.3113 29.5205 27.4389 29.1874C27.5665 28.8543 27.761 28.5502 28.0106 28.2932C28.2602 28.0362 28.5598 27.8318 28.8915 27.6921C29.2231 27.5525 29.5798 27.4805 29.9403 27.4805C30.3008 27.4805 30.6575 27.5525 30.9891 27.6921C31.3208 27.8318 31.6204 28.0362 31.87 28.2932C32.1196 28.5502 32.3141 28.8543 32.4417 29.1874C32.5693 29.5205 32.6275 29.8756 32.6127 30.2315ZM31.442 30.2315C31.458 30.0267 31.4311 29.8208 31.3628 29.6268C31.2945 29.4328 31.1863 29.2548 31.0451 29.1041C30.9039 28.9533 30.7326 28.833 30.5421 28.7508C30.3516 28.6685 30.146 28.6261 29.938 28.6261C29.7301 28.6261 29.5245 28.6685 29.334 28.7508C29.1435 28.833 28.9722 28.9533 28.831 29.1041C28.6898 29.2548 28.5816 29.4328 28.5133 29.6268C28.445 29.8208 28.4181 30.0267 28.4341 30.2315C28.4181 30.4363 28.445 30.6422 28.5133 30.8362C28.5816 31.0302 28.6898 31.2082 28.831 31.3589C28.9722 31.5097 29.1435 31.63 29.334 31.7122C29.5245 31.7945 29.7301 31.8369 29.938 31.8369C30.146 31.8369 30.3516 31.7945 30.5421 31.7122C30.7326 31.63 30.9039 31.5097 31.0451 31.3589C31.1863 31.2082 31.2945 31.0302 31.3628 30.8362C31.4311 30.6422 31.458 30.4363 31.442 30.2315Z" fill="#FBBC04"/>
<path d="M38.451 27.7309V32.5179C38.451 34.4843 37.2668 35.294 35.8709 35.294C35.3572 35.2968 34.8543 35.1485 34.4261 34.8681C33.9979 34.5876 33.6638 34.1877 33.4664 33.7191L34.5066 33.2742C34.6114 33.547 34.7956 33.783 35.036 33.9524C35.2764 34.1218 35.5622 34.2171 35.8574 34.2263C36.758 34.2263 37.3073 33.679 37.3073 32.6603V32.2776H37.2803C37.1002 32.4785 36.878 32.6382 36.6292 32.7457C36.3804 32.8533 36.1109 32.9061 35.8394 32.9005C35.1229 32.9005 34.4357 32.6193 33.929 32.1187C33.4223 31.6181 33.1377 30.9391 33.1377 30.2312C33.1377 29.5232 33.4223 28.8443 33.929 28.3437C34.4357 27.8431 35.1229 27.5618 35.8394 27.5618C36.11 27.5569 36.3785 27.6091 36.627 27.715C36.8755 27.8209 37.0982 27.978 37.2803 28.1758H37.3208V27.7309H38.451ZM37.4019 30.249C37.4184 30.0473 37.3937 29.8443 37.3292 29.6523C37.2647 29.4602 37.1617 29.2829 37.0264 29.131C36.8912 28.9791 36.7263 28.8556 36.5417 28.7679C36.3571 28.6802 36.1565 28.6302 35.952 28.6207C35.7441 28.6281 35.5399 28.6763 35.3511 28.7624C35.1624 28.8486 34.9928 28.971 34.8525 29.1226C34.7121 29.2741 34.6036 29.4518 34.5334 29.6451C34.4632 29.8385 34.4326 30.0438 34.4435 30.249C34.4339 30.4527 34.4654 30.6564 34.5363 30.848C34.6073 31.0395 34.7161 31.2152 34.8566 31.3648C34.997 31.5143 35.1662 31.6347 35.3543 31.7189C35.5424 31.803 35.7456 31.8493 35.952 31.855C36.1557 31.8479 36.3559 31.8 36.5404 31.7142C36.725 31.6285 36.89 31.5066 37.0255 31.3561C37.161 31.2056 37.2642 31.0295 37.3289 30.8384C37.3936 30.6473 37.4184 30.4453 37.4019 30.2445V30.249Z" fill="#4285F4"/>
<path d="M40.5359 24.9023V32.7413H39.3472V24.9023H40.5359Z" fill="#34A853"/>
<path d="M45.2187 31.1129L46.1463 31.7358C45.8986 32.1009 45.5635 32.4 45.1708 32.6065C44.778 32.8129 44.3397 32.9203 43.8948 32.9192C43.541 32.9242 43.1897 32.8582 42.8624 32.7252C42.535 32.5922 42.2384 32.3949 41.9905 32.1454C41.7426 31.8959 41.5484 31.5992 41.4199 31.2734C41.2914 30.9476 41.2311 30.5994 41.2427 30.2499C41.19 29.649 41.3629 29.05 41.7285 28.567C42.0941 28.0841 42.6267 27.7509 43.225 27.631C43.8232 27.5112 44.4452 27.613 44.9723 27.9171C45.4994 28.2212 45.8949 28.7063 46.0832 29.28L46.2048 29.587L42.6025 31.0596C42.7148 31.3088 42.9 31.5192 43.1344 31.6635C43.3687 31.8078 43.6414 31.8795 43.9174 31.8693C44.1816 31.8633 44.4398 31.7907 44.6676 31.6584C44.8954 31.526 45.0851 31.3382 45.2187 31.1129ZM42.3774 30.152L44.7999 29.1643C44.703 28.9872 44.5561 28.8416 44.377 28.7452C44.198 28.6489 43.9945 28.6059 43.7913 28.6216C43.5967 28.6301 43.4057 28.6766 43.2292 28.7581C43.0528 28.8397 42.8944 28.9549 42.7631 29.097C42.6317 29.2392 42.5301 29.4055 42.4639 29.5866C42.3977 29.7676 42.3683 29.9597 42.3774 30.152Z" fill="#EA4335"/>
</g>
<defs>
<clipPath id="clip0_275_8860">
<rect width="62.2977" height="10.6764" fill="white" transform="translate(12.4292 24.6172)"/>
</clipPath>
</defs>
</svg>
