<svg width="88" height="50" viewBox="0 0 88 50" fill="none" xmlns="http://www.w3.org/2000/svg">
<g opacity="0.5">
<path d="M0.799805 2.63191C0.799805 1.62007 1.62007 0.799805 2.63191 0.799805H84.5237C85.5355 0.799805 86.3558 1.62007 86.3558 2.63191V46.6008C86.3558 47.6126 85.5355 48.4329 84.5237 48.4329H2.63191C1.62007 48.4329 0.799805 47.6126 0.799805 46.6008V2.63191Z" fill="#CDCED6"/>
<path d="M84.5234 0.400391C85.756 0.400391 86.7558 1.39923 86.7559 2.63184V46.6006C86.7559 47.8332 85.7561 48.833 84.5234 48.833H2.63184C1.39923 48.833 0.400391 47.8332 0.400391 46.6006V2.63184C0.400432 1.39925 1.39926 0.400433 2.63184 0.400391H84.5234Z" stroke="white" stroke-opacity="0.3" stroke-width="0.799573"/>
</g>
<path d="M46.9289 14.0176H44.9414V15.5586H46.9289V14.0176Z" fill="#60646C"/>
<path d="M31.4169 17.1638C32.1276 17.1638 32.3356 17.8252 32.3356 18.1868H30.4288C30.4288 17.6665 30.7842 17.1638 31.4169 17.1638ZM33.4536 20.2062C33.2543 20.2768 33.0376 20.3385 32.8296 20.3826C32.5869 20.4355 32.3269 20.462 32.0669 20.462C31.2262 20.462 30.5675 20.1798 30.4635 19.5007H34.043C34.069 19.3685 34.121 19.0598 34.121 18.7247C34.121 17.1903 33.3669 15.7793 31.4515 15.7793C29.5881 15.7793 28.6001 17.2608 28.6001 18.9275C28.6001 20.8412 29.9175 21.9435 31.7635 21.9435C32.2316 21.9435 32.5696 21.8994 32.8556 21.8465C33.1503 21.7847 33.4709 21.6877 33.7396 21.5643L33.4536 20.2062Z" fill="#60646C"/>
<path d="M59.6054 17.1638C60.3445 17.1638 60.5699 17.8252 60.5699 18.1868H58.5778C58.5778 17.6665 58.9384 17.1638 59.6054 17.1638ZM61.7146 20.2062C61.5073 20.2768 61.291 20.3385 61.0656 20.3826C60.8132 20.4355 60.5428 20.462 60.2724 20.462C59.3981 20.462 58.7131 20.1798 58.6049 19.5007H62.3185C62.3456 19.3685 62.3906 19.0598 62.3906 18.7247C62.3906 17.1903 61.6064 15.7793 59.6144 15.7793C57.6765 15.7793 56.6489 17.2608 56.6489 18.9275C56.6489 20.8412 58.019 21.9435 59.9299 21.9435C60.4166 21.9435 60.7772 21.8994 61.0746 21.8465C61.3811 21.7847 61.7146 21.6877 62.003 21.5643L61.7146 20.2062Z" fill="#60646C"/>
<path d="M36.9909 14.0176H35.0034V21.943H36.9909V14.0176Z" fill="#60646C"/>
<path d="M40.9697 20.4863C40.322 20.4863 39.9051 19.8505 39.9051 18.8702C39.9051 18.0842 40.189 17.2541 40.9785 17.2541C41.7415 17.2541 42.0165 18.1196 42.0165 18.8614C42.0076 19.8417 41.5995 20.4863 40.9697 20.4863ZM40.943 21.9435C42.4867 21.9435 44.0569 20.972 44.0569 18.8084C44.0569 17.519 43.2851 15.7793 41.0318 15.7793C38.7074 15.7793 37.8735 17.4661 37.8735 18.9055C37.8824 20.7159 39.1421 21.9435 40.943 21.9435Z" fill="#60646C"/>
<path d="M46.9289 16H44.9414V21.944H46.9289V16Z" fill="#60646C"/>
<path d="M48.3599 14.4631V16.037H47.5938V17.4726H48.3599V19.8421C48.3599 21.1479 48.9746 21.9435 50.3732 21.9435C50.6404 21.9435 50.9344 21.9176 51.2106 21.8743C51.46 21.8397 51.6916 21.7878 51.7896 21.7619L51.7718 20.2399C51.7005 20.2658 51.2551 20.335 51.0858 20.335C50.9255 20.335 50.685 20.3177 50.5157 20.1448C50.391 20.0237 50.3019 19.8248 50.3019 19.5135V17.4639H51.5936V16.0284H50.3019V14.2383L48.3599 14.4631Z" fill="#60646C"/>
<path d="M52.9966 14.4631V16.037H52.2305V17.4726H52.9966V19.8421C52.9966 21.1479 53.6113 21.9435 55.0099 21.9435C55.2771 21.9435 55.5711 21.9176 55.8473 21.8743C56.0967 21.8397 56.3283 21.7878 56.4263 21.7619L56.4085 20.2399C56.3462 20.2658 55.8918 20.335 55.7226 20.335C55.5622 20.335 55.3217 20.3177 55.1524 20.1448C55.0277 20.0237 54.9386 19.8248 54.9386 19.5135V17.4639H56.2303V16.0284H54.9386V14.2383L52.9966 14.4631Z" fill="#60646C"/>
<path d="M63.2725 20.842C63.2725 20.2383 63.7711 19.7412 64.3766 19.7412C64.9821 19.7412 65.4808 20.2294 65.4808 20.842C65.4808 21.4545 64.9821 21.9427 64.3766 21.9427C63.7622 21.9427 63.2725 21.4456 63.2725 20.842Z" fill="#99CA4A"/>
<path d="M20.8726 21.9434H23.113C23.2636 21.9434 23.4495 21.9434 23.5912 21.9345C26.6641 21.7755 27.9393 19.9644 27.9393 17.8706C27.9393 15.2556 26.177 13.7979 23.1307 13.7979C22.3426 13.7979 21.6518 13.8244 20.8814 13.8862V21.9434H20.8726ZM23.7417 20.3443C23.662 20.3531 23.5381 20.3531 23.4584 20.3531H22.8296V15.4323C23.0422 15.4146 23.3255 15.3969 23.5115 15.3969C24.6627 15.3969 25.8936 16.139 25.8936 17.8618C25.8848 19.6729 24.7247 20.2736 23.7417 20.3443Z" fill="#60646C"/>
<path d="M23.7783 26.4163C23.8643 26.4163 23.9502 26.425 24.0362 26.4075C24.2511 26.3724 24.2081 26.127 24.3199 26.127C24.4059 26.127 24.4059 26.3286 24.4059 26.5828C24.4059 26.8721 24.3973 27.1878 24.2941 27.1878C24.1737 27.1878 24.1909 26.916 24.105 26.7932C24.0706 26.7319 23.8299 26.6179 23.2195 26.6179C22.9788 26.6179 22.9358 26.6354 22.9358 27.0124V29.5198C22.9358 29.8091 23.0218 29.8617 23.2883 29.8968C23.4516 29.9231 23.6063 29.9143 23.6063 30.0107C23.6063 30.0896 23.5118 30.0896 23.4774 30.0896C23.2883 30.0896 22.953 30.0633 22.6865 30.0633C22.4372 30.0633 22.1449 30.0896 21.8268 30.0896L21.7236 30.0283C21.7236 29.9318 21.9214 29.9231 22.0675 29.8968C22.3426 29.8354 22.4028 29.7477 22.4028 29.3795V26.8809C22.4028 26.6267 22.3598 26.6179 21.8612 26.6179C21.3024 26.6179 21.0789 27.2316 20.9499 27.2316L20.8726 27.1527C20.8726 27.0738 21.0531 26.5828 21.1219 26.3987C21.182 26.2322 21.2078 26.127 21.2938 26.127C21.4228 26.127 21.311 26.3374 21.5173 26.3724C21.8268 26.4075 22.1191 26.4163 22.42 26.4163H23.7783Z" fill="#60646C"/>
<path d="M23.8632 26.3V26.405H24.0196L24.1576 26.3963C24.314 26.37 24.3968 26.2563 24.4336 26.1863L24.4705 26.1075L24.4429 26.0813V26.1163L24.4705 26.1075L24.4429 26.0813V26.1163V26.0638L24.4152 26.1075L24.4429 26.1163V26.0638L24.4152 26.1075L24.4336 26.0813L24.406 26.0988L24.4152 26.1075L24.4336 26.0813L24.406 26.0988L24.4244 26.2125C24.4336 26.2825 24.4336 26.37 24.4336 26.4663C24.4336 26.6063 24.4336 26.7551 24.4152 26.8688L24.3876 26.9826V26.9913L24.406 27.0001L24.3968 26.9826L24.3876 26.9913L24.406 27.0001L24.3968 26.9826L24.4244 27.0263V26.9738L24.3968 26.9826L24.4244 27.0263V26.9738V27.0001L24.4429 26.9738L24.4244 26.9651V26.9913L24.4429 26.9651L24.3968 26.8251L24.3232 26.6063C24.2588 26.5276 24.176 26.5013 24.0104 26.4488C23.8448 26.4138 23.6147 26.3788 23.2743 26.3788C23.1546 26.3788 23.035 26.37 22.943 26.475C22.8602 26.5713 22.8694 26.6851 22.8602 26.8776V29.3803C22.8602 29.5378 22.8786 29.6516 22.9706 29.7391C23.0626 29.8266 23.1823 29.8441 23.3203 29.8616C23.4123 29.8703 23.5043 29.8791 23.5503 29.8878L23.5871 29.8966L23.6055 29.8703H23.5779L23.5963 29.8966L23.6147 29.8703H23.5779H23.6055L23.5779 29.8878L23.5687 29.9053H23.5963L23.5779 29.8878L23.6055 29.9053L23.5963 29.8791L23.5779 29.8878L23.6055 29.9053L23.5963 29.8791L23.5503 29.8878C23.3663 29.8878 22.9982 29.8616 22.7038 29.8616C22.4277 29.8616 22.1149 29.8878 21.7836 29.8878V29.9928L21.8388 29.9053L21.7284 29.8441L21.6732 29.9316H21.7836H21.7376L21.7744 29.9491V29.9316H21.7376L21.7744 29.9491L21.756 29.9403L21.7744 29.9578L21.7836 29.9491L21.7652 29.9403L21.7836 29.9578C21.7928 29.9403 21.9493 29.9141 22.0781 29.8966C22.2253 29.8616 22.3541 29.8178 22.4369 29.7128C22.5105 29.5991 22.5289 29.4678 22.5289 29.284V26.7901L22.5105 26.6063C22.4829 26.51 22.3817 26.4488 22.2805 26.44C22.1793 26.4225 22.0413 26.4225 21.8388 26.4225C21.4984 26.4225 21.2592 26.5976 21.1027 26.7638C21.0199 26.8426 20.9555 26.9213 20.9095 26.9826L20.8543 27.0351L20.8451 27.0438L20.8727 27.0876V27.0438L20.8451 27.0526L20.8727 27.0963V27.0526V27.1576L20.9463 27.0876L20.8727 27.0088L20.7899 27.0788H20.9003H20.8819H20.9003H20.8819H20.9003C20.9003 27.0526 20.9463 26.9038 21.0107 26.7551C21.0659 26.6063 21.1303 26.44 21.1671 26.3525C21.2039 26.265 21.2223 26.195 21.2407 26.1688L21.2592 26.1513L21.2499 26.1338V26.1513H21.2592L21.2499 26.1338V26.1513V26.125L21.2315 26.1513L21.2499 26.16V26.1338L21.2315 26.16L21.2592 26.125L21.2131 26.1513L21.2315 26.1688L21.2592 26.1338L21.2131 26.16L21.2592 26.2825C21.2868 26.3438 21.3696 26.405 21.4708 26.4138C21.802 26.4488 22.1333 26.4575 22.4461 26.4575H23.8908V26.3V26.195H22.4277C22.1057 26.195 21.7928 26.1863 21.4708 26.1513L21.4524 26.2475L21.4708 26.1513L21.4248 26.1338L21.3972 26.055L21.3512 25.9588L21.2223 25.9062C21.1211 25.9062 21.0475 25.9763 21.0199 26.0375C20.9831 26.0988 20.9647 26.1688 20.9371 26.2475C20.9003 26.335 20.8359 26.5101 20.7715 26.6676C20.7439 26.7463 20.7163 26.8251 20.6887 26.8863L20.6519 27.0438V27.0876L20.7531 27.1926L20.7899 27.2276H20.8359C20.9555 27.2101 20.9831 27.1489 21.0475 27.0963C21.2039 26.9126 21.434 26.6151 21.8112 26.6151C22.0781 26.6151 22.2253 26.6238 22.2529 26.6413L22.2713 26.6588L22.2805 26.7813V29.2753C22.2805 29.4503 22.2621 29.5465 22.2253 29.5903C22.1977 29.6341 22.1425 29.6603 22.0045 29.6866C21.9309 29.7041 21.8388 29.7128 21.7468 29.7303L21.618 29.7828L21.5352 29.9228V29.9841L21.7008 30.0716L21.7284 30.0891H21.756C22.0965 30.0891 22.4093 30.0628 22.6762 30.0628C22.9614 30.0628 23.3111 30.0891 23.5227 30.0891L23.6423 30.0716C23.6975 30.0541 23.7711 29.9841 23.7711 29.9053L23.6975 29.7653C23.5779 29.6866 23.4583 29.7041 23.3295 29.6866C23.1915 29.6691 23.1178 29.6428 23.0994 29.6253C23.0718 29.5991 23.0534 29.5553 23.0534 29.4153V26.9126C23.0534 26.7288 23.0718 26.6413 23.081 26.6413L23.1086 26.6326L23.2467 26.6238C23.5687 26.6238 23.7895 26.6501 23.9276 26.6851L24.0748 26.7376L24.1116 26.7551C24.1392 26.7813 24.1484 26.8776 24.176 26.9651L24.2312 27.1051L24.3968 27.2014C24.4889 27.2014 24.5441 27.1401 24.5625 27.0876C24.6269 26.9388 24.6269 26.7113 24.6269 26.4925C24.6269 26.3613 24.6269 26.2475 24.6177 26.1513L24.5717 26.02L24.4244 25.9325L24.268 26.02L24.1944 26.1513L24.1024 26.2125L24.1208 26.3175L24.1024 26.2125L23.992 26.2213H23.8356V26.3H23.8632Z" fill="#60646C"/>
<path d="M25.9475 28.1629C25.9475 27.9645 25.7341 27.8075 25.4558 27.8075C24.9825 27.8075 24.7042 28.2125 24.7042 28.3943C24.7042 28.4356 24.7227 28.4439 25.2795 28.4439C25.864 28.4522 25.9475 28.3778 25.9475 28.1629ZM24.6485 28.6257C24.6392 28.6588 24.6392 28.7332 24.6392 28.8324C24.6392 29.32 24.7877 29.8076 25.5949 29.8076C26.1053 29.8076 26.1146 29.5679 26.2259 29.5679L26.2816 29.6175C26.2816 29.6589 26.0032 30.0886 25.3259 30.0886C24.6021 30.0886 24.1846 29.6341 24.1846 28.8985C24.1846 28.3447 24.565 27.667 25.3815 27.667C26.1331 27.667 26.3929 28.2373 26.3929 28.4935C26.3929 28.6009 26.3744 28.6257 26.263 28.6257H24.6485Z" fill="#60646C"/>
<path d="M25.8462 28.0943H25.9575C25.9575 27.8063 25.6793 27.5993 25.364 27.5993C25.0858 27.5993 24.8726 27.7253 24.7335 27.8783C24.5851 28.0313 24.5109 28.2023 24.5017 28.3463L24.5573 28.4543C24.6222 28.4993 24.6593 28.4903 24.752 28.4993C24.8448 28.4993 24.9746 28.4993 25.1878 28.4993C25.4846 28.4993 25.6607 28.4813 25.7906 28.4183C25.9297 28.3463 25.9667 28.2023 25.9667 28.0853H25.8462H25.7349C25.7257 28.1933 25.7257 28.2023 25.67 28.2293C25.6051 28.2653 25.4475 28.2923 25.1693 28.2833C24.8911 28.2833 24.752 28.2833 24.6871 28.2743H24.6593L24.65 28.3013L24.6686 28.2743H24.6593L24.65 28.3013L24.6686 28.2743L24.6315 28.3463L24.7057 28.3193L24.6686 28.2833L24.6315 28.3553L24.7057 28.3283L24.65 28.3463H24.7149V28.3283L24.6593 28.3463H24.7242C24.7242 28.2923 24.7799 28.1393 24.9004 28.0223C25.0117 27.9053 25.1786 27.8063 25.3733 27.8063C25.6051 27.8063 25.7535 27.9413 25.7535 28.0853H25.8462V28.0943ZM24.548 28.5983L24.446 28.5713C24.4275 28.6433 24.4275 28.7153 24.4275 28.8233C24.4275 29.1023 24.4646 29.3813 24.6222 29.6152C24.7799 29.8492 25.0673 29.9932 25.4846 29.9932C25.7535 29.9932 25.9204 29.9212 26.0224 29.8402L26.1244 29.7412L26.1429 29.7322L26.1244 29.6962V29.7412L26.1429 29.7322L26.1244 29.6962V29.7412V29.6332L26.0502 29.7142L26.1058 29.7682L26.18 29.6872H26.0687H26.1336L26.0687 29.6602L26.0595 29.6872H26.1244L26.0595 29.6602C26.0502 29.6782 25.976 29.7952 25.8462 29.8942C25.7071 29.9932 25.5031 30.0922 25.2064 30.0922C24.8726 30.0922 24.6222 29.9842 24.4553 29.7862C24.2791 29.5882 24.1864 29.2913 24.1864 28.9043C24.1864 28.6253 24.2791 28.3103 24.4553 28.0673C24.6408 27.8243 24.9004 27.6623 25.2713 27.6623C25.6144 27.6623 25.8369 27.7973 25.976 27.9683C26.1151 28.1393 26.1707 28.3463 26.1707 28.4543L26.1615 28.5083L26.1986 28.5263L26.1893 28.4903L26.1707 28.5083L26.2078 28.5263L26.1986 28.4903H26.1615H24.4646L24.4368 28.5713L24.548 28.5983V28.7063H26.1522L26.3469 28.6343L26.3933 28.4543C26.3933 28.2923 26.3191 28.0493 26.1429 27.8333C25.9667 27.6173 25.6793 27.4463 25.2713 27.4463C24.8262 27.4463 24.4924 27.6533 24.2791 27.9413C24.0659 28.2293 23.9639 28.5803 23.9639 28.9043C23.9639 29.3273 24.0659 29.6692 24.2884 29.9212C24.5017 30.1732 24.8262 30.3082 25.2064 30.3082C25.5773 30.3082 25.8369 30.1822 26.0131 30.0472C26.0966 29.9752 26.1615 29.9122 26.1986 29.8492L26.2542 29.7682L26.2727 29.6872V29.6422L26.18 29.5612L26.1522 29.5342H26.1151L25.9667 29.6062C25.8833 29.6872 25.8462 29.7772 25.4938 29.7952C25.1137 29.7952 24.9282 29.6782 24.8077 29.5072C24.6871 29.3363 24.65 29.0933 24.65 28.8323C24.65 28.7333 24.65 28.6433 24.6593 28.6343L24.548 28.5983V28.7063V28.5983Z" fill="#60646C"/>
<path d="M27.964 27.667C28.161 27.667 28.5979 27.7082 28.5979 27.9635C28.5979 28.0706 28.5293 28.1118 28.4265 28.1118C28.1781 28.1118 28.1438 27.807 27.8269 27.807C27.5356 27.807 27.0131 28.1283 27.0131 28.9355C27.0131 29.5862 27.45 29.8333 27.9383 29.8333C28.3152 29.8333 28.4094 29.6933 28.4865 29.6933L28.5208 29.7427C28.5208 29.8415 28.1524 30.0886 27.7412 30.0886C26.9788 30.0886 26.6105 29.4956 26.6105 28.9437C26.6019 28.3177 27.0388 27.667 27.964 27.667Z" fill="#60646C"/>
<path d="M28.0218 27.5543V27.6623C28.1249 27.6623 28.2938 27.6713 28.4157 27.7163L28.5564 27.7883L28.6033 27.8783L28.5939 27.9233L28.5283 27.9413C28.4439 27.9413 28.397 27.8963 28.3032 27.8063C28.2187 27.7163 28.078 27.6083 27.8623 27.6083C27.4683 27.6083 26.8586 28.0133 26.8586 28.9403C26.8586 29.3183 26.99 29.5972 27.2057 29.7772C27.4214 29.9482 27.6935 30.0202 27.9842 30.0202C28.2 30.0202 28.3501 29.9752 28.4532 29.9392L28.5658 29.8852L28.5939 29.8762L28.5846 29.8402V29.8762H28.5939L28.5846 29.8402V29.8762V29.7682L28.4908 29.8312L28.5283 29.8852L28.6127 29.8222H28.5001H28.5377L28.5001 29.8042V29.8222H28.5377L28.5001 29.8042L28.4908 29.8222C28.4157 29.9122 28.0874 30.0922 27.7497 30.0832C26.99 30.0832 26.6241 29.4982 26.6148 28.9403C26.6241 28.3103 27.0369 27.6623 27.9936 27.6533V27.5543V27.4463C27.459 27.4463 27.0556 27.6353 26.7836 27.9233C26.521 28.2113 26.3896 28.5803 26.3896 28.9493C26.3896 29.2733 26.5022 29.6062 26.7273 29.8672C26.9524 30.1282 27.2995 30.3082 27.7404 30.3082C27.9936 30.3082 28.2187 30.2362 28.397 30.1462C28.4814 30.1012 28.5564 30.0562 28.6033 30.0112C28.6596 29.9572 28.6971 29.9212 28.7065 29.8312V29.7952L28.6502 29.7142L28.6127 29.6692H28.5939C28.4814 29.6782 28.4532 29.7232 28.3688 29.7502C28.2938 29.7862 28.1812 29.8132 27.9936 29.8132C27.7404 29.8132 27.5152 29.7502 27.3558 29.6152C27.1963 29.4802 27.0838 29.2733 27.0838 28.9403C27.0838 28.1033 27.6184 27.8153 27.8623 27.8153C27.9936 27.8153 28.0593 27.8693 28.1437 27.9503C28.2281 28.0223 28.3313 28.1483 28.5189 28.1483L28.7253 28.0853C28.7909 28.0313 28.8191 27.9593 28.8191 27.8783C28.8191 27.7793 28.7722 27.6893 28.7065 27.6353C28.5095 27.4733 28.1906 27.4553 28.0124 27.4553V27.5543H28.0218Z" fill="#60646C"/>
<path d="M29.8597 27.925L29.8863 28.0123C29.9572 28.0123 30.2053 27.6108 30.7813 27.6108C31.5434 27.6108 31.5611 28.2567 31.5611 28.4487V29.5921C31.5611 29.8452 31.6054 29.8976 31.7472 29.9413C31.8358 29.9674 31.9067 29.9674 31.9156 30.0198L31.7649 30.0896C31.5965 30.0896 31.4459 30.0635 31.2775 30.0635C31.1446 30.0635 30.9851 30.0896 30.8433 30.0896L30.7458 30.0285C30.7458 29.9762 30.7901 29.9762 30.9231 29.9413C31.056 29.9063 31.1092 29.758 31.1092 29.5572V28.3178C31.1092 28.0647 30.8788 27.8814 30.542 27.8814C30.1344 27.8814 29.8686 28.1432 29.8686 28.3876V29.6969C29.8686 29.8714 29.9394 29.9151 30.1787 29.9413C30.3116 29.95 30.3559 29.9587 30.3559 30.0198L30.2407 30.0896C30.1078 30.0896 29.8863 30.0635 29.709 30.0635C29.523 30.0635 29.328 30.0896 29.1419 30.0896L29.0444 30.0198L29.1508 29.9413C29.39 29.9151 29.4432 29.7929 29.4432 29.627V26.6245C29.4432 26.511 29.133 26.4848 29.133 26.4063L29.1862 26.3277L29.7711 26.127C29.8774 26.127 29.8774 26.1968 29.8774 26.3452V27.925H29.8597Z" fill="#60646C"/>
<path d="M29.8173 27.836L29.722 27.8623L29.748 27.9412L29.774 28.0113H29.8519L29.9472 27.9762C30.0685 27.8798 30.2763 27.6168 30.7267 27.6168C31.0732 27.6168 31.2117 27.7571 31.2983 27.9061C31.3849 28.0639 31.3849 28.2568 31.3849 28.3532V29.5017C31.3849 29.6332 31.3936 29.7209 31.4369 29.8085C31.4802 29.8962 31.5582 29.9313 31.6361 29.9576L31.7574 29.9927L31.7747 29.9576L31.7487 29.9839L31.7574 29.9927L31.7747 29.9576L31.7487 29.9839L31.7834 29.9488L31.7314 29.9576L31.74 29.9839L31.7747 29.9488L31.7227 29.9576L31.8267 29.94L31.7834 29.8436L31.6361 29.9137L31.6794 30.0102V29.905C31.5322 29.905 31.3763 29.8787 31.2031 29.8787C31.0645 29.8787 30.8999 29.905 30.7787 29.905V30.0102L30.8306 29.9225L30.744 29.8611L30.6921 29.9488H30.796H30.7354L30.7787 29.9927L30.796 29.9488H30.7354L30.7787 29.9927L30.7527 29.9664L30.77 30.0014L30.7787 29.9927L30.7527 29.9664L30.77 30.0014C30.7787 29.9927 30.8306 29.9839 30.8999 29.9664C30.9952 29.94 31.0731 29.8611 31.1078 29.7822C31.1424 29.6946 31.1598 29.5981 31.1598 29.4842V28.2392C31.1598 28.0814 31.0905 27.9324 30.9692 27.8447C30.848 27.7483 30.6921 27.6957 30.5102 27.6957C30.0685 27.6957 29.7567 27.985 29.748 28.3094V29.6244C29.748 29.7209 29.774 29.8261 29.8519 29.8874C29.9299 29.94 30.0252 29.9576 30.1464 29.9751L30.2504 29.9839L30.2677 29.94L30.233 29.9664L30.2504 29.9839L30.2677 29.94L30.233 29.9664L30.2763 29.94L30.233 29.9488L30.2417 29.9664L30.285 29.94L30.2417 29.9488H30.2504H30.2417H30.2504H30.2417H30.3456L30.2937 29.8611L30.1724 29.9313L30.2244 30.019V29.905C30.1031 29.905 29.8866 29.8787 29.7047 29.8787C29.5142 29.8787 29.3236 29.905 29.1504 29.905V30.0102L29.211 29.9225L29.1071 29.8524L29.0465 29.94L29.1071 30.019L29.211 29.94L29.1504 29.8611L29.1591 29.9664C29.289 29.9488 29.3929 29.905 29.4622 29.8173C29.5228 29.7384 29.5402 29.6332 29.5402 29.5455V26.5297C29.5402 26.4508 29.4882 26.3982 29.4535 26.3719L29.2717 26.2842L29.2197 26.2579L29.1764 26.3017H29.237L29.2197 26.2579L29.1764 26.3017H29.237H29.1331L29.2197 26.3543L29.2457 26.3017L29.7827 26.1176L29.748 26.0212V26.1264H29.7653V26.1001L29.748 26.1176L29.7653 26.1264V26.1001L29.748 26.1176L29.7653 26.1088L29.7394 26.1176L29.748 26.1264L29.7653 26.1176L29.7394 26.1264L29.748 26.2579V27.8798V27.8886L29.8173 27.836H29.9212V26.2316C29.9212 26.1527 29.9299 26.1001 29.9039 26.0299C29.8866 25.951 29.7827 25.8984 29.7134 25.9072H29.6961L29.1071 26.1088L29.0725 26.1176L29.0032 26.2316L28.9858 26.2579V26.2842L29.0292 26.3806L29.2284 26.4858L29.289 26.5209H29.2976L29.3063 26.5121L29.289 26.5209L29.2976 26.5121L29.2803 26.5209L29.315 26.5034H29.2803V26.5209L29.315 26.5034H29.2803V29.5192L29.2457 29.6683C29.2284 29.6946 29.1851 29.7209 29.0898 29.7384H29.0638L28.9339 29.8348L28.8213 29.9225L29.0378 30.0716L29.0638 30.0891H29.0984C29.289 30.0891 29.4795 30.0628 29.6527 30.0628C29.8173 30.0628 30.0338 30.0891 30.1724 30.0891H30.1984L30.337 30.0102L30.3889 29.9751V29.9137L30.285 29.7559L30.1204 29.7296C30.0078 29.7209 29.9472 29.7033 29.9299 29.6858C29.9212 29.6683 29.9039 29.6683 29.9039 29.5894V28.2743C29.9039 28.1866 29.9472 28.0902 30.0425 28.0025C30.1378 27.9236 30.285 27.8623 30.4582 27.8623C30.744 27.871 30.9086 28.0201 30.9086 28.2042V29.4491C30.9086 29.5455 30.8999 29.6157 30.8739 29.6595L30.8047 29.7296L30.6574 29.7735L30.5881 29.8261L30.5535 29.9225V29.9751L30.6921 30.0716L30.718 30.0891H30.7527C30.8999 30.0891 31.0645 30.0628 31.1771 30.0628C31.3243 30.0628 31.4802 30.0891 31.6534 30.0891H31.6794L31.844 30.0102L31.9133 29.9751L31.9046 29.8962C31.8959 29.8173 31.818 29.7647 31.7834 29.7647L31.6708 29.7384L31.5928 29.6858C31.5755 29.6683 31.5668 29.5981 31.5668 29.4754V28.3269C31.5668 28.2305 31.5668 28.0025 31.4542 27.7834C31.3503 27.5729 31.1078 27.3801 30.7007 27.3801C30.3976 27.3801 30.1724 27.494 30.0165 27.5992C29.9386 27.6518 29.8866 27.7044 29.8433 27.7395L29.8 27.7746H29.7913L29.826 27.836V27.7658L29.7913 27.7746L29.826 27.836V27.7658V27.871L29.9212 27.836L29.8953 27.7571L29.8173 27.836H29.9212H29.8173Z" fill="#60646C"/>
<path d="M32.4738 28.3508C32.4738 27.9926 32.193 28.1179 32.193 27.9926C32.193 27.9299 32.2926 27.9209 32.4466 27.7866C32.5915 27.6523 32.7908 27.4463 32.8542 27.4463L32.9176 27.5269V27.8582C33.1802 27.6702 33.3886 27.5269 33.7327 27.5269C34.5932 27.5269 34.6022 28.1627 34.6022 28.4493V29.6403C34.6022 29.7836 34.6113 29.8911 34.7834 29.9179C34.8739 29.9358 35.0098 29.9358 35.0098 30.0075C35.0098 30.0702 34.9645 30.0791 34.8739 30.0791C34.6928 30.0791 34.4935 30.0523 34.3667 30.0523C34.1765 30.0523 34.0407 30.0791 33.8958 30.0791L33.769 30.0164L33.8595 29.9269C34.0407 29.8911 34.1765 29.8821 34.1765 29.5508V28.4941C34.1765 28.2344 34.1403 27.8135 33.6331 27.8135C33.2346 27.8135 32.9357 28.0463 32.9266 28.109C32.9176 28.2702 32.9176 28.4135 32.9176 28.5657V29.5508C32.9176 29.7746 32.9266 29.8911 33.2074 29.9269C33.2889 29.9448 33.3976 29.9448 33.3976 30.0164L33.2527 30.0881C33.1893 30.0881 32.9448 30.0612 32.7908 30.0612C32.6006 30.0612 32.4738 30.0881 32.347 30.0881L32.1387 30.0164L32.2383 29.9269C32.4104 29.9 32.4828 29.7657 32.4828 29.4612V28.3508H32.4738Z" fill="#60646C"/>
<path d="M32.4968 28.388H32.6094C32.6188 28.2047 32.4968 28.0797 32.3936 28.0547L32.2998 28.0297L32.2716 28.063H32.3185L32.2998 28.0297L32.2716 28.063H32.3185H32.2716L32.3092 28.0963L32.3185 28.063H32.2716L32.3092 28.0963C32.3092 28.088 32.4124 28.0463 32.5437 27.9463L32.7877 27.7463L32.8816 27.6713L32.9097 27.6546L32.8909 27.6046V27.663H32.9097L32.8909 27.613V27.6713V27.5713L32.8065 27.6296L32.8534 27.6796V27.9546V28.1463L33.0317 28.0297C33.3038 27.8546 33.4821 27.7463 33.8106 27.7463C34.2328 27.7463 34.4017 27.8796 34.4956 28.0213C34.5894 28.1713 34.5988 28.3713 34.5988 28.5047V29.6131C34.5988 29.6797 34.5988 29.7547 34.6363 29.8297C34.6739 29.9047 34.7677 29.9631 34.8803 29.9714L35.0211 29.9881L35.0398 29.9964H35.0492L35.0774 29.9547H35.0211L35.0492 29.9964L35.0774 29.9547H35.0211H35.0586L35.0304 29.9381L35.0211 29.9547H35.0586L35.0304 29.9381L35.0867 29.9631L35.0586 29.9131L35.0398 29.9297L35.0961 29.9547L35.068 29.9047L35.0867 29.9297L35.0774 29.9047H35.068L35.0867 29.9297L35.0774 29.9047H35.0117C34.8334 29.9047 34.6363 29.8797 34.4862 29.8797C34.2797 29.8797 34.1296 29.9047 33.9982 29.9047V30.0047L34.0451 29.9131L33.9044 29.8547L33.8575 29.9464L33.9325 30.0131L34.0264 29.9297L33.9419 29.8547L33.9701 29.9547C34.0545 29.9381 34.1578 29.9297 34.2516 29.8631C34.3454 29.7881 34.383 29.6714 34.383 29.5047V28.5213C34.383 28.3963 34.3736 28.2297 34.2891 28.0713C34.2047 27.913 34.0076 27.788 33.7073 27.788C33.4821 27.788 33.2851 27.8463 33.1349 27.913L32.9566 28.0213C32.9097 28.063 32.8816 28.0797 32.8628 28.1547C32.8534 28.3047 32.8534 28.4463 32.8534 28.588V29.5047C32.8534 29.6047 32.8534 29.7047 32.9097 29.7964C32.9754 29.8881 33.088 29.9381 33.2475 29.9631L33.3695 29.9797H33.3789L33.3883 29.9547L33.3695 29.9714L33.3789 29.9797L33.3883 29.9547L33.3695 29.9714L33.4164 29.9464H33.3601L33.3695 29.9714L33.4164 29.9464H33.3601H33.4727L33.4258 29.8631L33.2757 29.9297L33.3226 30.0214V29.8964C33.2757 29.8964 33.0129 29.8714 32.844 29.8714C32.6376 29.8714 32.4968 29.8964 32.3842 29.8964V29.9964L32.4218 29.9047L32.2059 29.8381L32.1684 29.9297L32.2435 30.0047L32.3467 29.9297L32.2716 29.8464L32.2904 29.9464C32.403 29.9297 32.5062 29.8631 32.5625 29.7714C32.6188 29.6797 32.6282 29.5631 32.6376 29.4131V28.388H32.4968H32.3842V29.4131C32.3842 29.5464 32.3655 29.6381 32.3373 29.6797L32.2153 29.7547L32.1872 29.7631L32.0652 29.8547L31.915 29.9631L32.3092 30.0881H32.3279H32.3467C32.4968 30.0881 32.6282 30.0631 32.8065 30.0631C32.9566 30.0631 33.21 30.0881 33.2851 30.0881H33.3132L33.4821 30.0131L33.5478 29.9881V29.9297L33.5009 29.8131C33.4071 29.7464 33.3226 29.7631 33.2663 29.7464C33.1349 29.7297 33.0974 29.6964 33.088 29.6797C33.0692 29.6547 33.0599 29.5964 33.0692 29.4881V28.5713C33.0692 28.4297 33.0692 28.2963 33.0786 28.1547H33.0129L33.0692 28.1797V28.163H33.0036L33.0599 28.188C33.0692 28.1713 33.1537 28.113 33.2663 28.063C33.3789 28.013 33.529 27.9796 33.6886 27.9796C33.9232 27.988 34.0076 28.0547 34.0639 28.1547C34.1202 28.2547 34.1296 28.4047 34.1296 28.5213V29.5047C34.1296 29.6547 34.0921 29.6964 34.0733 29.7131C34.0545 29.7381 33.9888 29.7464 33.895 29.7631L33.8575 29.7714L33.7449 29.8714L33.6323 29.9631L33.9044 30.0798L33.9325 30.0881H33.9607C34.1202 30.0881 34.261 30.0631 34.4487 30.0631C34.5706 30.0631 34.7771 30.0881 34.9741 30.0881L35.1243 30.0714L35.2275 29.9297L35.1524 29.8131C35.0586 29.7631 34.9554 29.7631 34.8897 29.7547L34.8146 29.7214L34.7958 29.5881V28.4797C34.7958 28.3463 34.7958 28.113 34.6739 27.9046C34.5425 27.688 34.261 27.5213 33.7918 27.5213C33.3977 27.5213 33.1537 27.6713 32.8816 27.8463L32.9473 27.9296H33.0599V27.6213V27.588L32.9754 27.488L32.9473 27.4463H32.8909L32.7502 27.4963C32.647 27.563 32.4968 27.6963 32.3842 27.788L32.2059 27.9046L32.1309 27.9546L32.0839 28.063L32.1966 28.2047L32.3279 28.2547C32.3467 28.2713 32.3655 28.288 32.3748 28.3963H32.4968V28.388Z" fill="#60646C"/>
<path d="M37.187 28.8572C37.187 28.4026 36.9074 27.8075 36.4442 27.8075C35.981 27.8075 35.6927 28.2621 35.6927 28.915C35.6927 29.3531 35.9723 29.9564 36.4355 29.9564C36.8986 29.9564 37.187 29.4936 37.187 28.8572ZM37.6589 28.8654C37.6589 29.4605 37.3006 30.0886 36.4355 30.0886C35.579 30.0886 35.2295 29.5184 35.2295 28.8902C35.2295 28.2951 35.5878 27.667 36.4529 27.667C37.1433 27.667 37.6589 28.2373 37.6589 28.8654Z" fill="#60646C"/>
<path d="M37.285 28.8457H37.3899C37.3899 28.5748 37.32 28.2769 37.18 28.0331C37.0401 27.7984 36.8301 27.5998 36.5415 27.5998C36.2704 27.5998 36.0429 27.7532 35.903 27.988C35.763 28.2227 35.6843 28.5477 35.6843 28.9179C35.6843 29.1797 35.763 29.4776 35.8942 29.7124C36.0342 29.9561 36.2441 30.1548 36.5328 30.1548C36.8039 30.1548 37.0226 30.0013 37.1713 29.7665C37.3112 29.5318 37.3899 29.2068 37.3899 28.8457H37.285H37.18C37.18 29.1797 37.11 29.4596 36.9963 29.6492C36.8826 29.8388 36.7339 29.9381 36.5328 29.9381C36.3491 29.9381 36.1916 29.8117 36.0779 29.604C35.9555 29.4054 35.8942 29.1346 35.8942 28.9089C35.8942 28.5658 35.9642 28.2859 36.0779 28.0963C36.1916 27.9067 36.3403 27.8074 36.5415 27.8074C36.7252 27.8074 36.8826 27.9338 36.9963 28.1415C37.11 28.3491 37.18 28.62 37.18 28.8457H37.285ZM37.7573 28.8547H37.6523C37.6523 29.1616 37.5649 29.4776 37.3899 29.7033C37.2063 29.929 36.9351 30.0825 36.5328 30.0916C36.1304 30.0916 35.8593 29.9471 35.6843 29.7304C35.5094 29.5137 35.4307 29.2068 35.4307 28.8908C35.4307 28.5838 35.5181 28.2679 35.6931 28.0421C35.8768 27.8164 36.1479 27.663 36.5503 27.663C37.18 27.663 37.6611 28.2408 37.6611 28.8637H37.7573H37.8623C37.8623 28.1324 37.3025 27.4463 36.5503 27.4463C36.0954 27.4463 35.7456 27.6359 35.5356 27.9158C35.317 28.1866 35.2295 28.5477 35.2295 28.8908C35.2295 29.2519 35.317 29.604 35.5356 29.8658C35.7543 30.1367 36.0954 30.3082 36.5415 30.3082C36.9963 30.3082 37.3462 30.1186 37.5649 29.8478C37.7835 29.5679 37.8798 29.2158 37.8798 28.8637H37.7573V28.8547Z" fill="#60646C"/>
<path d="M38.9467 29.7003C38.9467 29.856 39.0648 29.882 39.3265 29.9426L39.4193 30.0118L39.3433 30.0896C39.1661 30.0896 38.9804 30.0637 38.7947 30.0637C38.5922 30.0637 38.3812 30.0896 38.1786 30.0896L38.0942 30.0204L38.2208 29.9426C38.4403 29.882 38.5416 29.8647 38.5416 29.4926V26.6201C38.5416 26.4903 38.2546 26.4471 38.2546 26.3952L38.3052 26.326L38.7863 26.1529L38.9045 26.127L38.9635 26.2481C38.9635 26.3952 38.9551 26.5336 38.9551 26.6893V29.7003H38.9467Z" fill="#60646C"/>
<path d="M38.9698 29.5944H38.8611C38.852 29.6986 38.9245 29.8027 39.0151 29.8374C39.1057 29.8808 39.2053 29.9069 39.3412 29.9416L39.3684 29.8461L39.305 29.9329L39.4047 29.9936L39.4681 29.9069L39.3865 29.8374L39.305 29.9242L39.3865 29.9936V29.8895C39.2053 29.8895 39.006 29.8635 38.7976 29.8635C38.5711 29.8635 38.3446 29.8895 38.1363 29.8895V29.9936L38.1997 29.9155L38.1091 29.8461L38.0457 29.9329L38.1 30.0197L38.2359 29.9416L38.1816 29.8548L38.2088 29.9502C38.3175 29.9155 38.4262 29.8982 38.5168 29.8114C38.6074 29.7159 38.6255 29.5944 38.6255 29.4035V26.505C38.6255 26.4269 38.5802 26.3749 38.544 26.3402L38.3537 26.236L38.2994 26.21H38.2903L38.2631 26.2534L38.2994 26.2273L38.2903 26.2187L38.2631 26.2621L38.2994 26.236L38.2269 26.2881H38.3175L38.2994 26.236L38.2269 26.2881H38.3175H38.2088L38.2994 26.3488L38.3265 26.3054L38.8067 26.1406L38.8429 26.1319L38.8611 26.1839L38.9607 26.1406H38.8792C38.8792 26.2794 38.8701 26.4269 38.8701 26.5831V29.5944H38.9698H39.0785V26.5831C39.0785 26.4356 39.0876 26.2881 39.0876 26.1406V26.1232L39.0151 25.9844L38.9788 25.9062L38.7614 25.9496H38.7523L38.2269 26.1232L38.1906 26.1319L38.1182 26.2273L38.1 26.2534V26.2881L38.1544 26.3835L38.3447 26.4703L38.399 26.505L38.4081 26.5137H38.4171H38.4262H38.4352H38.4262V29.4035C38.4262 29.5771 38.3899 29.6465 38.3718 29.6725C38.3446 29.6986 38.2812 29.7246 38.1635 29.7506H38.1453L38.0004 29.8374L37.8735 29.9155L38.091 30.0717L38.1182 30.0891H38.1544C38.3809 30.0891 38.5983 30.0631 38.8158 30.0631C38.997 30.0631 39.1963 30.0891 39.4047 30.0891H39.45L39.5587 29.9763L39.6402 29.8895L39.45 29.7593L39.4318 29.7506H39.4137C39.2778 29.7159 39.1691 29.6899 39.1329 29.6725L39.0966 29.6031H38.9698V29.5944Z" fill="#60646C"/>
<path d="M41.8254 28.8572C41.8254 28.4026 41.5468 27.8075 41.0853 27.8075C40.6238 27.8075 40.3364 28.2621 40.3364 28.915C40.3364 29.3531 40.6151 29.9564 41.0766 29.9564C41.5468 29.9481 41.8254 29.4936 41.8254 28.8572ZM42.2956 28.8654C42.2956 29.4605 41.9386 30.0886 41.0766 30.0886C40.2232 30.0886 39.8662 29.5184 39.8662 28.8902C39.8662 28.2951 40.2232 27.667 41.094 27.667C41.7732 27.667 42.2956 28.2373 42.2956 28.8654Z" fill="#60646C"/>
<path d="M41.7156 28.8457H41.8205C41.8205 28.5748 41.7418 28.2769 41.6019 28.0331C41.4619 27.7984 41.252 27.5998 40.9633 27.5998C40.6922 27.5998 40.4735 27.7532 40.3248 27.988C40.1849 28.2227 40.1062 28.5477 40.1062 28.9179C40.1062 29.1797 40.1761 29.4776 40.3161 29.7124C40.456 29.9561 40.6659 30.1548 40.9546 30.1548C41.2257 30.1548 41.4444 30.0013 41.5931 29.7665C41.7331 29.5318 41.8118 29.2068 41.8118 28.8457H41.7156H41.6106C41.6106 29.1797 41.5406 29.4596 41.4269 29.6492C41.3132 29.8388 41.1645 29.9381 40.9633 29.9381C40.7797 29.9381 40.6222 29.8117 40.5085 29.604C40.3948 29.4054 40.3248 29.1346 40.3248 28.9089C40.3248 28.5658 40.3948 28.2859 40.5085 28.0963C40.6222 27.9067 40.7709 27.8074 40.9721 27.8074C41.1558 27.8074 41.3132 27.9338 41.4269 28.1415C41.5406 28.3491 41.6106 28.62 41.6106 28.8457H41.7156ZM42.1879 28.8547H42.0829C42.0829 29.1616 41.9955 29.4776 41.8205 29.7033C41.6368 29.929 41.3657 30.0825 40.9633 30.0916C40.561 30.0916 40.2898 29.9471 40.1149 29.7304C39.94 29.5137 39.8525 29.2068 39.8525 28.8908C39.8525 28.5838 39.94 28.2679 40.1149 28.0421C40.2986 27.8164 40.561 27.663 40.9721 27.663C41.5931 27.663 42.0742 28.2408 42.0742 28.8637H42.1879H42.2928C42.2928 28.1324 41.7331 27.4463 40.9808 27.4463C40.5173 27.4463 40.1761 27.6359 39.9575 27.9158C39.7388 28.1866 39.6426 28.5477 39.6426 28.8908C39.6426 29.2519 39.73 29.604 39.9487 29.8658C40.1674 30.1367 40.4998 30.3082 40.9546 30.3082C41.4094 30.3082 41.7593 30.1186 41.9692 29.8478C42.1879 29.5679 42.2841 29.2158 42.2841 28.8637H42.1879V28.8547Z" fill="#60646C"/>
<path d="M43.9823 27.753C43.5379 27.753 43.4667 28.1402 43.4667 28.4413C43.4667 28.7166 43.5023 29.2328 43.9734 29.2328C44.409 29.2328 44.5156 28.9145 44.5156 28.5273C44.5156 28.2176 44.4534 27.753 43.9823 27.753ZM43.6267 31.2117C44.7201 31.2117 44.9334 30.7385 44.9334 30.5578C44.9334 30.1878 44.489 30.1448 43.8045 30.1448C43.5645 30.1448 43.449 30.1534 43.4045 30.1792C43.209 30.2911 42.9245 30.6008 42.9245 30.7385C42.9245 31.0482 43.2445 31.2117 43.6267 31.2117ZM44.9867 28.1746C44.9512 28.1746 44.9156 28.2176 44.9156 28.4585C44.9156 28.5532 44.9156 29.2845 43.9556 29.3447C43.8223 29.3533 43.3245 29.3447 43.3245 29.5942C43.3245 29.7318 43.4045 29.7749 44.0267 29.7749C44.6934 29.7749 45.209 29.8609 45.209 30.4459C45.209 31.2203 43.9201 31.4095 43.5379 31.4095C42.7467 31.4095 42.5156 31.0654 42.5156 30.8245C42.5156 30.4201 42.969 30.2481 43.3245 30.0846C43.2179 30.0244 42.8356 29.7577 42.8356 29.62C42.8356 29.4307 43.3956 29.3189 43.5112 29.3017C43.2001 29.0866 43.0134 28.8801 43.0134 28.5015C43.0134 28.0111 43.4045 27.667 43.9467 27.667C44.169 27.667 44.329 27.7272 44.489 27.8046C44.649 27.8821 44.8267 27.9423 45.0756 27.9423H45.3423L45.3867 28.0972C45.3867 28.1918 45.369 28.2004 45.2712 28.2004H44.9867V28.1746Z" fill="#60646C"/>
<path d="M43.8648 27.6645V27.5554C43.6056 27.5554 43.4269 27.6827 43.3465 27.8555C43.2571 28.0192 43.2392 28.2192 43.2392 28.3829C43.2392 28.5375 43.2482 28.7557 43.3197 28.9557C43.3912 29.1558 43.5699 29.3377 43.8559 29.3286C44.1061 29.3286 44.2848 29.2285 44.3831 29.0558C44.4814 28.8921 44.5082 28.683 44.5082 28.4738C44.5082 28.301 44.4903 28.0828 44.4099 27.9009C44.3295 27.71 44.1418 27.5554 43.8737 27.5554V27.6645V27.7736C44.0703 27.7736 44.1597 27.8646 44.2222 27.9919C44.2848 28.1283 44.3027 28.3192 44.3027 28.4738C44.3027 28.6648 44.2759 28.8375 44.2133 28.9467C44.1418 29.0558 44.0614 29.1194 43.8648 29.1194C43.6682 29.1194 43.5967 29.0285 43.5252 28.8739C43.4627 28.7284 43.4537 28.5284 43.4537 28.3829C43.4537 28.2283 43.4716 28.0646 43.5341 27.9555C43.5967 27.8464 43.6771 27.7736 43.8737 27.7645V27.6645H43.8648ZM43.5073 31.32V31.4291C44.0703 31.4291 44.4188 31.3018 44.6423 31.1381C44.8567 30.9653 44.9282 30.7653 44.9282 30.6289C44.9372 30.3834 44.7584 30.2197 44.544 30.1651C44.3205 30.0924 44.0346 30.0833 43.6861 30.0833C43.4358 30.0833 43.3375 30.0833 43.2392 30.1288C43.1231 30.2015 42.998 30.3106 42.8997 30.4379C42.8014 30.5652 42.712 30.6743 42.7031 30.8107C42.7031 31.0199 42.8014 31.1836 42.9622 31.2836C43.1141 31.3836 43.3107 31.4291 43.5163 31.4291V31.32V31.2108C43.3375 31.2108 43.1767 31.1654 43.0695 31.1017C42.9622 31.029 42.9086 30.9471 42.9086 30.8107C42.8997 30.8017 42.9622 30.6834 43.0516 30.5743C43.1409 30.4652 43.2571 30.3561 43.3375 30.3106L43.2839 30.2197L43.3375 30.3106C43.3644 30.3015 43.4805 30.2924 43.6861 30.2924C44.0256 30.2924 44.3116 30.3106 44.4814 30.3652C44.6601 30.4288 44.7137 30.4834 44.7227 30.6289C44.7227 30.7471 44.5886 31.2108 43.5163 31.2199V31.32H43.5073ZM44.8746 28.1101V28.001L44.7763 28.0373C44.7048 28.1283 44.7048 28.201 44.7048 28.4011C44.7048 28.4465 44.7048 28.6375 44.5976 28.8284C44.4903 29.0103 44.2937 29.1922 43.838 29.2285C43.7754 29.2285 43.6146 29.2285 43.4537 29.2649C43.3733 29.2831 43.3018 29.3104 43.2303 29.3649C43.1588 29.4104 43.1052 29.5013 43.1052 29.6014L43.1499 29.7468C43.2124 29.8287 43.2929 29.8469 43.409 29.8651C43.5252 29.8832 43.6861 29.8923 43.9273 29.8923C44.258 29.8923 44.544 29.9196 44.7227 30.0105C44.9014 30.1015 44.9997 30.2197 44.9997 30.4925C44.9997 30.838 44.7316 31.0654 44.3742 31.2108C44.0256 31.3563 43.6056 31.4018 43.4269 31.4018C42.6584 31.3927 42.5065 31.0654 42.5065 30.8926C42.5065 30.7198 42.5958 30.6016 42.7388 30.4925C42.8818 30.3834 43.0784 30.2924 43.2661 30.2106L43.4448 30.1288L43.275 30.0287C43.2214 30.0015 43.1052 29.9105 43.0069 29.8287L42.8729 29.7014L42.8371 29.6468V29.6286V29.6195C42.855 29.5832 42.989 29.5104 43.1141 29.4741C43.2482 29.4286 43.3822 29.4013 43.418 29.3922L43.6682 29.3468L43.4627 29.2013C43.1588 28.9739 43.0069 28.8012 43.0069 28.4374C43.0069 27.9828 43.3375 27.6645 43.838 27.6554C44.0435 27.6554 44.1776 27.71 44.3384 27.7918C44.5082 27.8737 44.7048 27.9464 44.9729 27.9464H45.1606L45.1784 28.0282L45.2767 28.001H45.1695V28.0373L45.2142 28.0464L45.1784 28.0282L45.1695 28.0464L45.2142 28.0555L45.1784 28.0282L45.2321 28.0646L45.2052 28.0101L45.1784 28.0282L45.2321 28.0646L45.2052 28.0101L45.2231 28.0464L45.2142 28.0101H45.2052L45.2231 28.0464L45.2142 28.0101H45.1695H44.8835V28.1101V28.2192H45.1695L45.3304 28.1737L45.384 28.001V27.9828L45.3304 27.81L45.3125 27.7373H44.9729C44.7406 27.7373 44.5797 27.6736 44.4278 27.6009C44.258 27.519 44.0793 27.4463 43.838 27.4463C43.5341 27.4463 43.275 27.5463 43.0873 27.7282C42.8997 27.9009 42.7924 28.1556 42.7924 28.4465C42.7835 28.8921 43.0248 29.1558 43.3375 29.3831L43.4001 29.2922L43.3822 29.1831C43.3197 29.1922 43.1499 29.2285 42.989 29.2922C42.9086 29.3195 42.8282 29.3649 42.7567 29.4104C42.6941 29.4559 42.6226 29.5286 42.6226 29.6286C42.6226 29.7105 42.6673 29.765 42.712 29.8287C42.8371 29.9924 43.0695 30.156 43.1678 30.2106L43.2214 30.1197L43.1767 30.0196C42.998 30.1106 42.7924 30.1924 42.6137 30.3288C42.4439 30.4561 42.292 30.6471 42.292 30.9017C42.292 31.0563 42.3635 31.2472 42.5511 31.3927C42.7299 31.5382 43.0158 31.6291 43.4269 31.6291C43.6324 31.6291 44.0614 31.5837 44.4546 31.42C44.8389 31.2654 45.2142 30.9835 45.2142 30.5016C45.2231 30.1651 45.0533 29.9287 44.812 29.8196C44.5708 29.7105 44.2669 29.6832 43.9273 29.6832C43.6146 29.6832 43.4358 29.665 43.3644 29.6468L43.3286 29.6377V29.6105L43.3644 29.5468C43.4537 29.465 43.7576 29.4559 43.8648 29.4559C44.3742 29.4195 44.6601 29.1922 44.7942 28.9467C44.9282 28.7102 44.9282 28.4647 44.9282 28.4193C44.9282 28.301 44.9372 28.2283 44.9461 28.2101V28.201L44.9014 28.1737L44.9282 28.2192L44.9461 28.201L44.9014 28.1737L44.9282 28.2192L44.8925 28.1646V28.2374L44.9282 28.2283L44.8925 28.1737V28.2465V28.1101H44.8746Z" fill="#60646C"/>
<path d="M46.9316 29.468L46.986 29.547L47.0586 29.468L47.4852 28.5367C47.5578 28.3786 47.6395 28.1765 47.6395 28.0272C47.6395 27.8163 47.2492 27.8778 47.2492 27.7461C47.2492 27.7021 47.2946 27.6758 47.3672 27.6758C47.3945 27.6758 47.4489 27.6933 47.7303 27.6933C47.9935 27.6933 48.057 27.6758 48.1115 27.6758C48.2023 27.6758 48.2567 27.7021 48.2567 27.7461C48.2567 27.8515 48.0207 27.8076 47.9209 28.036L46.6139 30.9966C46.4868 31.269 46.3961 31.4095 46.1147 31.4095C45.8606 31.4095 45.7789 31.269 45.7789 31.1548C45.7789 30.9966 45.8878 30.9263 46.0421 30.9263C46.151 30.9263 46.2327 30.9791 46.3053 30.9791C46.4324 30.9791 46.7137 30.2323 46.7137 30.162C46.7137 30.0654 46.6684 29.9863 46.6321 29.8897L45.9332 28.0096C45.8787 27.8691 45.6064 27.8603 45.6064 27.7548C45.6064 27.7021 45.6428 27.667 45.7426 27.667C45.8787 27.667 46.033 27.6846 46.1873 27.6846C46.3416 27.6846 46.4959 27.667 46.6956 27.667C46.7954 27.667 46.8227 27.6933 46.8227 27.7548C46.8227 27.8427 46.4052 27.8076 46.4052 27.9833L46.4415 28.1238L46.9316 29.468Z" fill="#60646C"/>
<path d="M46.919 29.5698L46.8354 29.6309L46.8856 29.7094L46.9608 29.8229L47.103 29.6396L47.1113 29.6309L47.5126 28.6882C47.5795 28.5224 47.6631 28.3216 47.6631 28.1383C47.6715 28.051 47.6213 27.9812 47.5712 27.9376C47.4876 27.8852 47.4039 27.8677 47.3454 27.8503L47.2869 27.8328L47.2785 27.8503L47.2869 27.8416V27.8328L47.2785 27.8503L47.2869 27.8416L47.2535 27.8677H47.2953L47.2869 27.8416L47.2535 27.8677H47.2953H47.2535L47.2785 27.9027L47.2953 27.8677H47.2535L47.2785 27.9027V27.8939V27.9027V27.8939V27.9027H47.312C47.312 27.9027 47.3956 27.9114 47.6464 27.9114C47.8889 27.9114 47.9641 27.9027 47.9975 27.9027L48.0561 27.9114L48.0644 27.8852L48.0477 27.9027L48.0561 27.9114L48.0644 27.8852L48.0477 27.9027L48.0895 27.8677H48.0393L48.0477 27.9027L48.0895 27.8677H48.0393H48.0811L48.0477 27.8416L48.0393 27.8677H48.0811L48.0477 27.8416L48.0644 27.8503L48.0561 27.8328L48.0477 27.8416L48.0644 27.8503L48.0561 27.8328C48.0393 27.8503 47.8303 27.8939 47.7384 28.1121L46.5345 31.0536C46.4843 31.1845 46.4341 31.2805 46.384 31.3329C46.3338 31.3766 46.2836 31.4115 46.175 31.4115C46.0746 31.4115 46.0245 31.3853 45.9994 31.3591L45.9576 31.2631L45.991 31.1671L46.0997 31.1409C46.175 31.1322 46.2251 31.1845 46.3422 31.1933L46.4592 31.1234C46.5428 31.0274 46.6181 30.8441 46.6933 30.6696C46.7267 30.5823 46.7518 30.495 46.7769 30.4252L46.8187 30.2681C46.8187 30.1371 46.7686 30.0498 46.7435 29.9713L46.0997 28.1034C46.0495 27.9812 45.9492 27.9463 45.8823 27.9027L45.8071 27.859H45.7987L45.7904 27.8677L45.7987 27.859L45.7904 27.8677L45.7987 27.859L45.7653 27.8765H45.8071L45.7987 27.859L45.7653 27.8765H45.8071H45.7737L45.7904 27.9027L45.8071 27.8765H45.7737L45.7904 27.9027H45.7987H45.8405C45.9659 27.9027 46.0997 27.9114 46.2502 27.9114C46.4007 27.9114 46.5428 27.9027 46.7184 27.9027H46.7602L46.7853 27.8677L46.7435 27.8852L46.7602 27.9114L46.7853 27.8765L46.7435 27.8939L46.7602 27.8852H46.7435V27.8939L46.7602 27.8852H46.7435V27.8939H46.8104L46.7685 27.8416L46.7435 27.8939H46.8104L46.7685 27.8416C46.7518 27.8503 46.6599 27.8677 46.5763 27.8939L46.4509 27.9638L46.3672 28.1296V28.1471L46.4091 28.2954V28.3042L46.8522 29.6571L46.8605 29.6658L46.919 29.5698L47.011 29.5349L46.5763 28.1994L46.5428 28.0685L46.4509 28.0947H46.5512L46.593 28.0685L46.7602 28.0249L46.8522 27.9899L46.9358 27.859L46.8772 27.7106L46.7184 27.667C46.5261 27.667 46.384 27.6845 46.2502 27.6845C46.1164 27.6845 45.9827 27.667 45.8405 27.667L45.6817 27.7106L45.6064 27.859C45.6064 27.9376 45.6566 27.9812 45.69 28.0074L45.8489 28.0947L45.9158 28.1471L46.5595 30.0149L46.6515 29.98L46.5595 30.0149C46.593 30.1109 46.6264 30.1895 46.6264 30.2506C46.6181 30.303 46.5512 30.5037 46.4759 30.687C46.4425 30.7743 46.4007 30.8529 46.3672 30.914L46.3254 30.9751V30.9838L46.3589 31.0362V30.9838L46.3254 30.9925L46.3589 31.0449V30.9925C46.3422 31.0012 46.2586 30.9401 46.1164 30.9401C46.0328 30.9401 45.9492 30.9576 45.8823 31.0187C45.8155 31.0798 45.7737 31.1671 45.782 31.2718C45.782 31.3504 45.8071 31.4464 45.874 31.5162C45.9492 31.586 46.0495 31.6297 46.1833 31.6297C46.3254 31.6297 46.4509 31.586 46.5345 31.4988C46.6181 31.4115 46.6682 31.298 46.7267 31.1583L47.9307 28.2169C47.9641 28.1296 48.0143 28.1034 48.0728 28.0772L48.1731 28.0336L48.2567 27.8939L48.1647 27.7543L48.0226 27.7281C47.9557 27.7281 47.9139 27.7455 47.6715 27.7455C47.4123 27.7455 47.3789 27.7368 47.3371 27.7281L47.2033 27.763L47.128 27.9027C47.128 27.9987 47.2033 28.0423 47.2451 28.0685L47.4457 28.1296L47.4959 28.182C47.4959 28.2954 47.429 28.4962 47.3621 28.6533L46.9776 29.5611L46.919 29.6309L46.9943 29.692L47.0779 29.6309L47.0194 29.5523L46.919 29.5698L47.011 29.5349L46.919 29.5698Z" fill="#60646C"/>
<path d="M52.8936 26.9924L52.8211 27.0561L52.7487 27.0197C52.5494 26.5369 52.7396 26.3638 51.6165 26.3638C51.2633 26.3638 51.1908 26.4185 51.1908 26.6189V27.712C51.1908 27.9216 51.2271 27.9489 51.6528 27.9489C51.7796 27.9489 51.8882 27.9216 52.015 27.9124C52.4679 27.8578 52.2868 27.3203 52.5132 27.3203C52.5494 27.3203 52.5856 27.3294 52.5856 27.4296C52.5856 27.6118 52.5675 27.7849 52.5675 27.9671C52.5675 28.1402 52.5856 28.5228 52.5856 28.6321L52.5222 28.7323C52.4407 28.7323 52.4226 28.6594 52.3502 28.377C52.3049 28.1948 52.2596 28.1129 51.5894 28.1129C51.2633 28.1129 51.1818 28.1311 51.1818 28.2859V29.5248C51.1818 29.7981 51.2542 29.8346 51.6528 29.8892C51.7796 29.9075 51.9154 29.8983 51.9154 29.9985C51.9245 30.0623 51.8882 30.0896 51.7524 30.0896C51.6528 30.0896 51.5169 30.0623 50.9553 30.0623C50.6836 30.0623 50.421 30.0896 50.2217 30.0896C50.113 30.0896 50.0225 30.0805 50.0225 29.9985C50.0225 29.9348 50.0496 29.9257 50.4119 29.8801C50.5659 29.8619 50.6202 29.7799 50.6202 29.3609V26.6371C50.6202 26.4002 50.5931 26.382 50.43 26.3365C50.1945 26.2727 50.0587 26.3274 50.0587 26.218C50.0587 26.1452 50.1311 26.1361 50.3666 26.1361C50.5025 26.1361 50.6746 26.1361 50.8557 26.1452C51.0369 26.1452 51.2271 26.1543 51.3901 26.1543C51.852 26.1543 52.5132 26.127 52.7306 26.127L52.8664 26.1907V26.9924H52.8936Z" fill="#60646C"/>
<path d="M52.7677 27.0315L52.7005 26.9539L52.6921 26.9626H52.6838L52.6334 27.0487L52.7257 27.0056C52.6334 26.7989 52.6418 26.6352 52.4907 26.4888C52.3396 26.3509 52.1046 26.3251 51.5842 26.3165C51.4164 26.3165 51.3073 26.3251 51.2149 26.3854C51.1142 26.4457 51.089 26.5663 51.0974 26.6697V27.7034L51.1058 27.8499C51.131 27.9274 51.2065 27.9963 51.2905 28.0049C51.3744 28.0222 51.4751 28.0308 51.6262 28.0308C51.7521 28.0308 51.8528 28.0049 51.9703 27.9963H51.9787C52.2389 27.9705 52.3396 27.7637 52.3732 27.6259L52.4152 27.4536L52.4236 27.4364L52.4152 27.4277L52.4236 27.4364L52.4152 27.4277L52.4236 27.4364V27.4191L52.4152 27.4364H52.4236V27.4191L52.4152 27.4364L52.432 27.3933L52.39 27.4105L52.4236 27.4364L52.4404 27.3933L52.3984 27.4105L52.4068 27.4019H52.3984L52.4068 27.3933H52.3984V27.4277C52.3984 27.6 52.39 27.7637 52.39 27.936C52.39 28.0997 52.3984 28.4615 52.3984 28.5649H52.4991L52.4152 28.5132L52.3564 28.6079L52.4404 28.6596V28.5563L52.432 28.5821L52.4487 28.5649L52.4404 28.5563L52.432 28.5821L52.4487 28.5649C52.4404 28.5649 52.4068 28.4701 52.3732 28.2978C52.3564 28.2117 52.3061 28.0911 52.1802 28.0394C52.0543 27.9877 51.8864 27.9705 51.5758 27.9705C51.4248 27.9705 51.3241 27.9705 51.2401 28.0049L51.131 28.0997L51.1058 28.2375V29.4091C51.1058 29.5383 51.1226 29.6589 51.2233 29.7364C51.3157 29.8054 51.4332 29.8226 51.6178 29.8571L51.7773 29.8743L51.7941 29.8829L51.8025 29.8657L51.7857 29.8743L51.7941 29.8829L51.8025 29.8657L51.7857 29.8743L51.8025 29.8657H51.7773L51.7857 29.8743L51.8025 29.8657H51.7773V29.8743H51.8025L51.7773 29.8571V29.8743H51.8025L51.7773 29.8571L51.8109 29.8743L51.7857 29.8398L51.7773 29.8571L51.8109 29.8743L51.7857 29.8398L51.7941 29.8484V29.8398L51.8025 29.8484V29.8398L51.7353 29.8484C51.6514 29.8484 51.5171 29.8226 50.9967 29.8226C50.7365 29.8226 50.4931 29.8484 50.3169 29.8484L50.2161 29.8398H50.2078L50.191 29.8657H50.2161L50.2078 29.8398L50.191 29.8657H50.2161L50.1742 29.8915L50.2078 29.9432L50.2329 29.9087L50.1742 29.8915L50.2078 29.9432L50.1994 29.9346L50.2078 29.9432L50.1994 29.9346L50.2078 29.9432C50.2161 29.9346 50.3169 29.9174 50.5099 29.8915C50.5938 29.8829 50.703 29.8312 50.7365 29.7278C50.7785 29.6331 50.7869 29.5039 50.7869 29.2971V26.7214C50.7869 26.6094 50.7869 26.5318 50.7365 26.4543C50.6862 26.3768 50.6106 26.3595 50.5351 26.3337C50.4176 26.2992 50.3169 26.2992 50.2665 26.2906L50.2413 26.282L50.2161 26.3251L50.2581 26.2992L50.2413 26.282L50.2161 26.3251L50.2581 26.2992L50.2245 26.3165L50.2581 26.3079V26.2992L50.2245 26.3165L50.2581 26.3079H50.2161L50.2497 26.3337L50.2581 26.3079H50.2161L50.2497 26.3337L50.2161 26.3079L50.2413 26.3423L50.2497 26.3337L50.2161 26.3079L50.2413 26.3423H50.2497C50.2749 26.3337 50.342 26.3337 50.4512 26.3337C50.5771 26.3337 50.7365 26.3337 50.9044 26.3423C51.0639 26.3423 51.2485 26.3509 51.3996 26.3509C51.8276 26.3509 52.4403 26.3251 52.6418 26.3251V26.2217L52.5998 26.3165L52.667 26.3509V27.0315H52.7677L52.7005 26.9539L52.7677 27.0315H52.8684V26.282V26.2217L52.6838 26.1356L52.667 26.127H52.6418C52.432 26.127 51.8193 26.1528 51.3996 26.1528C51.2485 26.1528 51.0723 26.1442 50.9044 26.1442V26.2476V26.1442C50.7365 26.1356 50.5771 26.1356 50.4428 26.1356C50.3337 26.1356 50.2581 26.1356 50.191 26.1528L50.0986 26.2045L50.0567 26.3165L50.1238 26.4543L50.2917 26.4974L50.4763 26.5318C50.5519 26.5491 50.5687 26.5663 50.5687 26.5663C50.5687 26.5663 50.5854 26.618 50.5854 26.7214V29.2971C50.5854 29.4866 50.5687 29.5986 50.5519 29.6417L50.4763 29.6934C50.3085 29.7106 50.2161 29.7278 50.149 29.7451L50.0567 29.8054L50.0231 29.9087C50.0147 29.9949 50.0902 30.0638 50.149 30.0724L50.3169 30.0896C50.5099 30.0896 50.7449 30.0638 50.9967 30.0638C51.5171 30.0638 51.6178 30.0896 51.7353 30.0896L51.8948 30.0552L51.9787 29.9087V29.8829L51.878 29.8915H51.9787L51.92 29.7623C51.8193 29.6761 51.7269 29.702 51.643 29.6848C51.4583 29.6589 51.3576 29.6331 51.3324 29.6072C51.3073 29.59 51.2905 29.5642 51.2905 29.4349V28.2634L51.2989 28.2203H51.2905H51.2989H51.2905H51.2989L51.3576 28.2031C51.408 28.1944 51.4751 28.1944 51.5758 28.1944C51.878 28.1944 52.0375 28.2117 52.1046 28.2461C52.1634 28.2806 52.155 28.2806 52.1886 28.3667C52.2221 28.496 52.2389 28.5821 52.2725 28.651L52.3396 28.7458L52.4487 28.7802H52.5075L52.5914 28.6338L52.6082 28.6079V28.5821C52.6082 28.4701 52.5998 28.1083 52.5998 27.9532C52.5998 27.7896 52.6082 27.6173 52.6082 27.445L52.5662 27.2985L52.4487 27.2468C52.348 27.2468 52.2809 27.333 52.2557 27.3933C52.2221 27.4881 52.2053 27.5914 52.1718 27.669C52.1382 27.7465 52.1046 27.7896 51.9787 27.8068L51.9871 27.9102L51.9787 27.8068C51.8444 27.8154 51.7437 27.8412 51.643 27.8412C51.4416 27.8412 51.3408 27.8326 51.3241 27.8154V27.8068L51.3157 27.7206V26.6869C51.3157 26.5921 51.3241 26.5921 51.3408 26.5749C51.3576 26.5577 51.45 26.5405 51.6094 26.5405C52.1214 26.5405 52.3228 26.5921 52.39 26.6611C52.4655 26.7127 52.4739 26.8592 52.5746 27.109L52.583 27.1435L52.6754 27.1952L52.7425 27.2296L52.86 27.1176L52.8936 27.0918V27.0487H52.7677V27.0315Z" fill="#60646C"/>
<path d="M54.5467 28.9933C54.5467 28.7965 54.5002 28.7794 54.4536 28.7794C54.4257 28.7794 53.6252 28.9505 53.6252 29.4725C53.6252 29.6266 53.7462 29.7977 53.9789 29.7977C54.3885 29.7977 54.5374 29.4725 54.5374 29.2586V28.9933H54.5467ZM54.9749 29.5324C54.9749 29.618 55.0028 29.7292 55.189 29.7292C55.3751 29.7292 55.3751 29.6094 55.4682 29.6094L55.5427 29.6608C55.5427 29.7207 55.3658 30.0287 54.9935 30.0287C54.705 30.0287 54.556 29.8319 54.4909 29.7464C54.2303 29.9261 54.0906 30.0886 53.6531 30.0886C53.3925 30.0886 53.1412 29.9517 53.1412 29.6437C53.1412 29.0276 53.9976 28.8051 54.0441 28.788C54.2582 28.711 54.3978 28.6682 54.5281 28.6339L54.556 28.4542C54.556 28.0948 54.5467 27.8552 54.1372 27.8552C53.4484 27.8552 53.6997 28.5569 53.2622 28.5569C53.1319 28.5569 53.1133 28.4799 53.1133 28.4115C53.1133 28.2917 53.5508 27.667 54.3419 27.667C54.9749 27.667 54.9749 28.0521 54.9749 28.1975V29.5324Z" fill="#60646C"/>
<path d="M54.5027 28.9186H54.605C54.605 28.8147 54.5965 28.7454 54.5624 28.6848L54.4175 28.5982L54.3578 28.6068C54.2726 28.6328 54.0765 28.6848 53.906 28.806C53.727 28.9273 53.5565 29.1178 53.5565 29.4036C53.5565 29.5075 53.5906 29.6115 53.6674 29.6894C53.7356 29.776 53.8549 29.8366 53.9828 29.8366C54.2044 29.8366 54.3663 29.7414 54.4601 29.6028C54.5624 29.4729 54.5965 29.3257 54.5965 29.1871V28.91H54.5027H54.409V29.1871C54.409 29.2737 54.3749 29.3863 54.3152 29.4729C54.247 29.5595 54.1532 29.6201 53.9913 29.6201C53.8378 29.6201 53.7696 29.4989 53.7696 29.3863C53.7696 29.1698 53.9146 29.0225 54.085 28.9186C54.1703 28.8666 54.2555 28.832 54.3323 28.8147L54.4175 28.7887L54.4345 28.78H54.4431L54.4345 28.7108V28.78H54.4431L54.4345 28.7108V28.78V28.7627L54.4175 28.7974L54.4345 28.806V28.7627L54.4175 28.7974L54.4345 28.7627L54.4004 28.7887L54.4175 28.7974L54.4345 28.7627L54.4004 28.7887C54.409 28.7974 54.4175 28.8407 54.4175 28.9186H54.5027ZM54.8949 29.4642H54.7926L54.8437 29.6548C54.8949 29.7241 54.9801 29.7587 55.0824 29.7587C55.1847 29.7587 55.2699 29.7154 55.3125 29.6808L55.3466 29.6461V29.5422L55.2784 29.6201L55.3466 29.6808L55.4148 29.6028H55.3125H55.3552L55.3211 29.5941V29.6028H55.3637L55.3296 29.5941L55.2188 29.75C55.1506 29.8193 55.0483 29.8713 54.9204 29.8713C54.7158 29.8713 54.605 29.7241 54.5368 29.6288L54.4686 29.5508L54.3919 29.6115C54.1447 29.802 54.0595 29.9319 53.6844 29.9319C53.4798 29.9233 53.3264 29.8366 53.3179 29.5768C53.3179 29.317 53.4798 29.1265 53.6674 28.9966C53.8549 28.8666 54.051 28.8147 54.0765 28.7974C54.2811 28.7194 54.4004 28.6761 54.5113 28.6415L54.5795 28.6241L54.6221 28.373V28.3643V28.3557C54.6221 28.1738 54.6221 28.0092 54.5624 27.8707C54.4942 27.7234 54.3408 27.6368 54.1362 27.6455C53.9657 27.6455 53.8293 27.6975 53.7356 27.7841C53.5992 27.9053 53.5565 28.0785 53.5054 28.1998L53.4287 28.321L53.3349 28.3557L53.3093 28.347L53.3008 28.3037H53.2752H53.3008H53.2752H53.3008C53.3008 28.2777 53.4031 28.0872 53.5736 27.94C53.7526 27.7927 53.9998 27.6541 54.3237 27.6541C54.588 27.6541 54.6903 27.7408 54.7414 27.8187C54.7926 27.9053 54.8011 28.0179 54.8011 28.0872V29.4383H54.8949H54.9971V28.0872C54.9971 28.0092 54.9971 27.8533 54.9119 27.7061C54.8181 27.5589 54.6306 27.4463 54.3237 27.4463C53.9316 27.4463 53.6247 27.6195 53.4287 27.8014C53.3264 27.888 53.2497 27.9919 53.1985 28.0699C53.1474 28.1565 53.1133 28.2171 53.1133 28.295L53.1559 28.4509C53.19 28.5116 53.2752 28.5462 53.352 28.5375C53.4798 28.5375 53.5906 28.4683 53.6418 28.3816C53.727 28.2517 53.7526 28.1045 53.8208 28.0006C53.889 27.8966 53.9487 27.8274 54.1618 27.8274C54.3323 27.836 54.3749 27.8707 54.409 27.9313C54.4431 28.0006 54.4516 28.1478 54.4516 28.3297H54.5539L54.4516 28.3124L54.426 28.4942L54.5198 28.5116L54.4942 28.4163C54.3578 28.4509 54.2385 28.5029 54.0339 28.5722C54.0169 28.5808 53.7952 28.6415 53.5821 28.7887C53.369 28.9273 53.1389 29.1784 53.1389 29.5335C53.1389 29.7154 53.2071 29.8626 53.3179 29.9579C53.4287 30.0532 53.5651 30.0878 53.7015 30.0878C54.1362 30.0965 54.3067 29.8973 54.5368 29.7241L54.4686 29.6461L54.3919 29.7154C54.4516 29.7933 54.6136 30.0358 54.9375 30.0358C55.1421 30.0358 55.2955 29.9406 55.3893 29.8453L55.5001 29.6981L55.5427 29.5682V29.5162L55.4404 29.4296L55.4148 29.4036H55.3466C55.2529 29.4036 55.2017 29.4729 55.1762 29.4902L55.0824 29.5249L55.0057 29.4989L54.9886 29.4296H54.8949V29.4642Z" fill="#60646C"/>
<path d="M55.7656 29.5762C55.7656 29.4605 55.7739 29.3944 55.8317 29.3944L55.9227 29.5431C55.9392 29.5845 56.0962 29.9399 56.4351 29.9399C56.6665 29.9399 56.9062 29.8242 56.9062 29.5431C56.9062 29.0225 55.7987 29.0307 55.7987 28.3447C55.7987 28.0141 55.997 27.667 56.526 27.667C57.1459 27.667 57.1541 27.7579 57.1541 28.0224C57.1541 28.2538 57.1459 28.2951 57.1045 28.2951C56.931 28.2951 56.9888 27.8323 56.526 27.8323C56.3028 27.8323 56.1458 27.9645 56.1458 28.1877C56.1458 28.6257 57.3112 28.7993 57.3112 29.4026C57.3112 29.6919 57.1211 30.0886 56.4929 30.0886C56.3194 30.0886 55.7739 30.0638 55.7739 29.8572V29.5762H55.7656Z" fill="#60646C"/>
<path d="M55.6459 29.6084H55.7468L55.7552 29.4918L55.7216 29.4739V29.5187L55.7552 29.4918L55.7216 29.4739V29.5187V29.4111L55.6375 29.4649L55.73 29.6264L55.8141 29.5726L55.7216 29.6084C55.73 29.6443 55.7805 29.752 55.8814 29.8686C55.974 29.9853 56.1254 30.1019 56.3357 30.1019C56.4703 30.1019 56.6049 30.066 56.7227 29.9853C56.8321 29.8955 56.9162 29.752 56.9162 29.5726C56.9162 29.3842 56.8237 29.2496 56.7059 29.1509C56.5292 28.9984 56.2852 28.8997 56.1002 28.7741C55.9151 28.6395 55.7889 28.5049 55.7889 28.2806C55.7889 28.1192 55.831 27.9666 55.9319 27.85C56.0329 27.7334 56.1843 27.6526 56.4283 27.6526C56.7395 27.6526 56.891 27.6885 56.9246 27.7244L56.9583 27.7782L56.9667 27.9397C56.9667 28.0653 56.9667 28.1371 56.9583 28.155V28.164L57.0087 28.1909L56.9751 28.1371L56.9499 28.164L57.0003 28.1909L56.9667 28.1371L57.0003 28.1909V28.1281L56.9667 28.1371L57.0003 28.1909V28.1281V28.1371L57.0087 28.1281H57.0003V28.1371L57.0087 28.1281C56.9919 28.1281 56.9499 28.0025 56.8741 27.8769C56.7984 27.7513 56.647 27.6257 56.4114 27.6257C56.2768 27.6257 56.1591 27.6706 56.0665 27.7513C55.9824 27.841 55.9235 27.9666 55.9235 28.1192C55.9235 28.2896 56.0244 28.4152 56.1506 28.5229C56.3273 28.6754 56.5797 28.801 56.7816 28.9535C56.9835 29.106 57.1181 29.2586 57.1181 29.447C57.1181 29.5815 57.076 29.743 56.9667 29.8686C56.8573 29.9942 56.6806 30.0839 56.3778 30.0929C56.2937 30.0929 56.117 30.0839 55.9656 30.057C55.8898 30.0391 55.8225 30.0211 55.7889 29.9942L55.7468 29.9494V29.6354H55.6459H55.5449V29.9494C55.5449 30.057 55.6122 30.1378 55.6879 30.1737C55.8983 30.2993 56.2432 30.2993 56.3778 30.3082C56.7227 30.3082 56.9583 30.1916 57.1097 30.0211C57.2611 29.8507 57.3116 29.6354 57.3116 29.4559C57.3116 29.2586 57.2191 29.0971 57.1013 28.9625C56.9162 28.7741 56.6638 28.6305 56.4535 28.496C56.3525 28.4332 56.26 28.3614 56.2095 28.2986L56.1254 28.1281C56.1338 27.9397 56.2264 27.859 56.4114 27.85C56.6133 27.859 56.6638 27.9397 56.7311 28.0474L56.8152 28.2178C56.8489 28.2717 56.9078 28.3434 57.0003 28.3434L57.1013 28.2986L57.1518 28.155C57.1602 28.1102 57.1602 28.0384 57.1602 27.9487L57.1433 27.7424C57.1265 27.6437 57.0508 27.536 56.9246 27.5001C56.8152 27.4642 56.6554 27.4463 56.4114 27.4463C56.1254 27.4463 55.9067 27.5539 55.7637 27.7154C55.629 27.8769 55.5702 28.0922 55.5702 28.2896C55.5702 28.5049 55.6543 28.6754 55.7721 28.801C55.9487 28.9894 56.1927 29.0971 56.3862 29.2137C56.4787 29.2675 56.5629 29.3303 56.6133 29.3842C56.6638 29.447 56.6891 29.5008 56.6891 29.5815C56.6891 29.6982 56.647 29.7699 56.5797 29.8238C56.5124 29.8776 56.4114 29.9045 56.3105 29.9045C56.1759 29.9045 56.0749 29.8238 56.0076 29.743C55.9319 29.6533 55.8898 29.5546 55.8898 29.5456L55.8814 29.5367L55.7805 29.3662L55.7468 29.3124H55.7132C55.6375 29.3034 55.5617 29.3842 55.5617 29.438L55.5449 29.6174H55.6459V29.6084Z" fill="#60646C"/>
<path d="M58.7517 27.9443C58.5696 27.9443 58.5514 27.9974 58.5514 28.1924C58.5514 28.5291 58.5332 29.0518 58.5332 29.4062C58.5332 29.6632 58.6333 29.8138 58.9794 29.8138C59.2526 29.8138 59.2526 29.7429 59.371 29.7429L59.4438 29.805C59.4438 29.867 59.2526 30.0885 58.7882 30.0885C58.3055 30.0885 58.0778 29.9113 58.0778 29.4417C58.0778 29.0075 58.0869 28.5734 58.0869 28.086C58.0869 27.9974 58.0596 27.9797 57.9503 27.9797H57.8046L57.75 27.9265C57.75 27.8291 58.0596 27.7759 58.2235 27.5987C58.4694 27.3329 58.4148 27.2266 58.515 27.2266L58.5969 27.3417V27.5721C58.5969 27.6341 58.6151 27.6519 58.6971 27.6519H59.3983C59.462 27.6519 59.5167 27.6696 59.5167 27.7936C59.5167 27.8734 59.5076 27.9265 59.4074 27.9265H58.7517V27.9443Z" fill="#60646C"/>
<path d="M58.6284 27.9987V27.898C58.5368 27.898 58.436 27.9064 58.3719 27.9903C58.317 28.0658 58.3261 28.1414 58.317 28.2337C58.317 28.5526 58.2987 29.0478 58.2987 29.3835C58.2987 29.5178 58.3261 29.6437 58.4269 29.736C58.5276 29.8283 58.6742 29.8703 58.8574 29.8703C59.0039 29.8703 59.0863 29.8535 59.1413 29.8367L59.2512 29.8115V29.7108L59.1779 29.7864L59.2512 29.8451L59.3245 29.7696H59.2237H59.2604L59.2329 29.7528V29.7696H59.2695L59.242 29.7528C59.2329 29.7864 59.068 29.9374 58.6833 29.9374C58.4452 29.9374 58.2987 29.8955 58.2162 29.8199C58.1246 29.7528 58.0788 29.6269 58.0788 29.4171C58.0788 29.0058 58.0972 28.5946 58.0972 28.133L58.0239 27.9735L57.8499 27.9316H57.7491L57.7308 27.9148L57.6484 27.9819H57.7583H57.7125L57.7491 28.0071L57.7583 27.9819H57.7125L57.7491 28.0071L57.7583 27.9987C57.8224 27.9483 58.0514 27.8896 58.1979 27.7385C58.3261 27.6042 58.3811 27.5119 58.4177 27.4448L58.436 27.4112L58.4452 27.4028L58.4086 27.3776L58.4269 27.4112L58.4452 27.3944L58.4086 27.3692L58.4269 27.4028L58.3994 27.3944V27.428H58.4177L58.3994 27.3944V27.428V27.3273L58.3078 27.3776L58.3719 27.47V27.663L58.4269 27.7973L58.5826 27.8392H59.2878H59.3061L59.3153 27.8141L59.297 27.8308L59.3153 27.8392L59.3245 27.8141L59.3061 27.8308V27.8392L59.3153 27.8812V27.9232V27.9316L59.3428 27.9483L59.3245 27.9232L59.3061 27.9399L59.3336 27.9567L59.3153 27.9316V27.898H59.297H58.6467V27.9987V28.0994H59.297L59.4802 28.0155L59.5168 27.8728L59.4435 27.6882L59.2878 27.6378H58.5826H58.5551L58.546 27.663L58.5643 27.6378L58.5551 27.6294L58.546 27.6546L58.5643 27.6294L58.5368 27.6714L58.5917 27.6546L58.5643 27.6294L58.5368 27.6714L58.5917 27.6546H58.5826H58.5917H58.5826H58.5917V27.6462V27.428V27.4028L58.5002 27.2685L58.4635 27.2266H58.3994L58.2712 27.2769L58.1887 27.4028C58.1613 27.4532 58.1155 27.5119 58.033 27.6042C57.9689 27.6714 57.8682 27.7217 57.7674 27.7637L57.63 27.8308C57.5843 27.856 57.5293 27.898 57.5293 27.9735V28.0155L57.6117 28.091L57.6484 28.1162H57.8407H57.8957H57.9048L57.914 28.091L57.8957 28.1078H57.9048L57.914 28.0826L57.8957 28.0994L57.914 28.0658L57.8682 28.0742L57.8865 28.091L57.9048 28.0574L57.859 28.0658L57.8682 28.091C57.8682 28.5526 57.8499 28.9639 57.8499 29.3751C57.8499 29.6101 57.914 29.7948 58.0605 29.9206C58.2071 30.0465 58.4177 30.0885 58.6742 30.0885C58.9306 30.0885 59.1138 30.0298 59.242 29.9626L59.3886 29.8535L59.4527 29.7192V29.6773L59.3428 29.5849L59.3061 29.5598H59.2604C59.1779 29.5598 59.123 29.5849 59.0772 29.5933C59.0314 29.6101 58.9856 29.6185 58.8574 29.6185C58.7017 29.6185 58.6192 29.5849 58.5826 29.5514C58.5459 29.5094 58.5185 29.4423 58.5185 29.3332C58.5185 29.0058 58.5368 28.5107 58.5368 28.1833V28.0826L58.546 28.0574L58.6284 28.0491V27.9987Z" fill="#60646C"/>
<path d="M60.6974 27.1205L60.6803 27.197C60.6803 27.2736 62.4279 27.3246 62.4279 28.6257C62.4279 29.8842 60.9887 30.3094 60.5689 30.3094C60.4661 30.3094 60.4404 30.2754 60.4404 30.2413L60.5004 30.1648C60.5518 30.1563 60.6717 30.1393 60.8259 30.0883C61.4599 29.8927 62.0167 29.459 62.0167 28.7362C62.0167 28.328 61.9054 28.0559 61.3914 27.8093C60.8688 27.5712 60.4404 27.5117 60.4404 27.4266C60.4404 27.3416 60.6717 26.6868 60.6974 26.5933C60.7231 26.5082 60.7488 26.4997 60.963 26.4742L61.9653 26.3722C62.0424 26.3637 62.0681 26.3467 62.1024 26.3467C62.1795 26.3467 62.2138 26.3552 62.2138 26.4402C62.2138 26.5168 62.2138 26.6953 62.0767 26.7123L60.8345 26.8909C60.7574 26.8994 60.7488 26.9419 60.7403 26.9759L60.6974 27.1205Z" fill="#60646C"/>
<path d="M60.5748 27.0382L60.4709 27.0202L60.4622 27.1014V27.1104V27.1194L60.5055 27.2097L60.6527 27.2638C60.8519 27.3089 61.2502 27.3811 61.5966 27.5886C61.943 27.7961 62.2288 28.0939 62.2288 28.6352C62.2288 29.2578 61.891 29.6728 61.4927 29.9435C61.0944 30.2051 60.6354 30.3224 60.4449 30.3134H60.4016H60.3929L60.3756 30.3495L60.4016 30.3314L60.3843 30.3224L60.3669 30.3585L60.3929 30.3405L60.3583 30.3675H60.4102L60.4016 30.3405L60.3669 30.3675H60.4189H60.315L60.3929 30.4307L60.4535 30.3495L60.3756 30.2863L60.3929 30.3946C60.4449 30.3856 60.5748 30.3585 60.7306 30.3044C61.3974 30.0969 62.0036 29.5916 62.0036 28.7706C62.0036 28.545 61.9776 28.3375 61.8737 28.157C61.7698 27.9766 61.5879 27.8232 61.3195 27.6878C61.0511 27.5615 60.7999 27.4713 60.6267 27.4172C60.5401 27.3901 60.4709 27.363 60.4276 27.345L60.3929 27.3269L60.3756 27.354L60.4016 27.336L60.3929 27.3269L60.3756 27.354L60.4016 27.336L60.341 27.3721H60.4102L60.4016 27.336L60.341 27.3721H60.4102H60.4016H60.4189H60.4016H60.4189C60.4276 27.336 60.4795 27.1285 60.5401 26.948C60.6008 26.7585 60.6614 26.5691 60.6787 26.5149L60.6873 26.4969L60.67 26.4879L60.6787 26.4969L60.6873 26.4879L60.67 26.4788L60.6787 26.4879C60.6787 26.4879 60.7393 26.4698 60.8605 26.4608L61.8737 26.3525H61.8824C61.969 26.3435 61.9863 26.3345 62.0123 26.3345H62.0469L62.0642 26.2894L62.0209 26.3164L62.0469 26.3435L62.0642 26.2984L62.0209 26.3254L62.0382 26.3164H62.0209V26.3254L62.0382 26.3164H62.0209V26.3345L62.0123 26.4698L61.969 26.5239L60.7133 26.7044L60.5748 26.7766L60.5315 26.8758L60.6354 26.9029L60.5401 26.8668L60.4882 27.0112V27.0202V27.0292L60.5748 27.0382L60.67 27.0743L60.722 26.93L60.7306 26.9029L60.7047 26.8848L60.722 26.9119L60.7306 26.9029L60.7047 26.8848L60.722 26.9119L60.7393 26.9029L61.9863 26.7224C62.1075 26.7044 62.1768 26.6051 62.1941 26.5239C62.2201 26.4427 62.2201 26.3706 62.2201 26.3254L62.1508 26.163L62.0036 26.127C61.943 26.127 61.9257 26.136 61.8477 26.145L61.8651 26.2533L61.8564 26.145L60.8432 26.2533C60.7393 26.2623 60.67 26.2713 60.6094 26.2984L60.4882 26.4518L60.5834 26.4788L60.4882 26.4427C60.4709 26.4879 60.4016 26.6954 60.341 26.8939C60.3063 26.9931 60.2803 27.0924 60.2544 27.1736C60.237 27.2548 60.2197 27.3089 60.2197 27.363L60.2803 27.4803C60.3669 27.5435 60.4795 27.5706 60.644 27.6247C60.8086 27.6788 61.0251 27.751 61.2416 27.8593C61.4927 27.9766 61.6312 28.1029 61.7092 28.2382C61.7871 28.3736 61.8131 28.536 61.8131 28.7435C61.8131 29.4472 61.3022 29.8803 60.6787 30.0788C60.5228 30.133 60.4189 30.151 60.3583 30.16L60.3236 30.169L60.237 30.2863L60.2197 30.3134V30.3495L60.2977 30.4939L60.4535 30.5299C60.696 30.5299 61.1723 30.4126 61.6053 30.1149C62.0382 29.8262 62.4366 29.339 62.4279 28.6262C62.4279 27.8773 61.943 27.4803 61.484 27.2818C61.2502 27.1826 61.0251 27.1194 60.8519 27.0833C60.7739 27.0563 60.696 27.0473 60.6527 27.0382L60.6094 27.0292L60.5921 27.0653L60.6181 27.0292L60.6094 27.0202L60.5921 27.0563L60.6181 27.0202L60.5748 27.1104H60.6614L60.6267 27.0292L60.5748 27.1104H60.6614H60.5575L60.6614 27.1285L60.67 27.0472L60.5748 27.0382L60.67 27.0743L60.5748 27.0382Z" fill="#60646C"/>
<path d="M65.47 28.2179C65.47 27.4014 65.2202 26.4658 64.6401 26.4658C64.0512 26.4658 63.8013 27.4014 63.8013 28.2179C63.8013 29.0345 64.0423 29.9701 64.6401 29.9701C65.2202 29.9616 65.47 29.026 65.47 28.2179ZM63.3105 28.2179C63.3105 26.9761 63.9887 26.3467 64.6401 26.3467C65.4076 26.3467 65.9608 27.1292 65.9608 28.2179C65.9608 29.4088 65.2826 30.0892 64.6401 30.0892C63.8727 30.0807 63.3105 29.4088 63.3105 28.2179Z" fill="#60646C"/>
<path d="M65.3736 28.2229H65.4809C65.4809 27.7802 65.4183 27.3104 65.2752 26.931C65.141 26.5606 64.8995 26.2625 64.5418 26.2625C64.175 26.2625 63.9425 26.5696 63.7994 26.931C63.6563 27.3104 63.5937 27.7802 63.5937 28.2229C63.5937 28.6656 63.6563 29.1444 63.7994 29.5148C63.9335 29.8852 64.175 30.1833 64.5418 30.1833C64.8995 30.1833 65.141 29.8852 65.2752 29.5148C65.4183 29.1444 65.4809 28.6656 65.4809 28.2229H65.3736H65.2662C65.2662 28.6475 65.2036 29.0992 65.0784 29.4335C64.9442 29.7768 64.7654 29.9755 64.5418 29.9755C64.3092 29.9755 64.1303 29.7858 63.9961 29.4425C63.8709 29.1082 63.8083 28.6475 63.8083 28.2319C63.8083 27.8073 63.8709 27.3556 63.9961 27.0213C64.1303 26.678 64.3092 26.4793 64.5418 26.4793C64.7654 26.4793 64.9532 26.669 65.0784 27.0213C65.2036 27.3556 65.2662 27.8163 65.2662 28.2319H65.3736V28.2229ZM63.209 28.2229H63.3164C63.3164 26.94 63.9693 26.3438 64.5418 26.3438C64.8816 26.3438 65.1857 26.5245 65.4093 26.8587C65.633 27.193 65.7671 27.6628 65.7671 28.2229C65.7671 28.8372 65.6061 29.307 65.3646 29.6232C65.1321 29.9394 64.828 30.102 64.5418 30.102C64.1929 30.102 63.8888 29.9394 63.6742 29.6322C63.4505 29.316 63.3164 28.8372 63.3164 28.2229H63.209H63.1017C63.1017 28.8734 63.2448 29.3883 63.4953 29.7497C63.7457 30.111 64.1214 30.3098 64.5328 30.3098C65.2662 30.3008 65.9639 29.5148 65.9639 28.2229C65.9639 27.6266 65.8208 27.1117 65.5703 26.7322C65.3199 26.3528 64.9532 26.127 64.5328 26.127C64.175 26.127 63.8083 26.3167 63.54 26.669C63.2717 27.0213 63.0928 27.5453 63.0928 28.2229H63.209Z" fill="#60646C"/>
<path d="M33.9321 35.4198L35.0803 34.3945C35.1574 34.3321 35.2153 34.2697 35.2732 34.2162C35.3311 34.1627 35.3697 34.1092 35.4083 34.0557C35.4469 34.0023 35.4662 33.9488 35.4855 33.8953C35.5048 33.8418 35.5048 33.7794 35.5048 33.708C35.5048 33.6367 35.4951 33.5654 35.4662 33.5119C35.4372 33.4495 35.3986 33.4049 35.3504 33.3603C35.3022 33.3157 35.2443 33.289 35.1767 33.2622C35.1092 33.2444 35.032 33.2266 34.9645 33.2266C34.8101 33.2266 34.6847 33.2712 34.5786 33.3514C34.4821 33.4316 34.4145 33.5386 34.3856 33.6724L33.9997 33.6456C34.019 33.5297 34.0576 33.4316 34.1154 33.3425C34.1733 33.2533 34.2409 33.182 34.3277 33.1285C34.4145 33.0661 34.511 33.0215 34.6171 32.9948C34.7233 32.968 34.8391 32.9502 34.9645 32.9502C35.0899 32.9502 35.2057 32.968 35.3215 33.0037C35.4276 33.0394 35.5241 33.0839 35.6109 33.1463C35.6977 33.2088 35.7653 33.289 35.8135 33.3871C35.8618 33.4851 35.8907 33.5921 35.8907 33.7169C35.8907 33.8239 35.8714 33.9309 35.8425 34.0201C35.8039 34.1092 35.7653 34.1895 35.7074 34.2697C35.6495 34.35 35.5916 34.4124 35.5241 34.4837C35.4565 34.555 35.3793 34.6174 35.3022 34.6798L34.3663 35.4912V35.5001H35.9196V35.8121H33.9321V35.4198Z" fill="#60646C"/>
<path d="M36.1426 34.3768C36.1426 34.2271 36.1509 34.0597 36.1758 33.8924C36.2006 33.7251 36.2504 33.5666 36.3168 33.4257C36.3831 33.2848 36.4743 33.1703 36.5822 33.0823C36.6983 32.9942 36.8476 32.9502 37.0218 32.9502C37.2042 32.9502 37.3452 32.9942 37.4614 33.0823C37.5775 33.1703 37.6687 33.2848 37.7351 33.4257C37.8014 33.5666 37.8512 33.7163 37.8678 33.8924C37.8927 34.0597 37.9093 34.2271 37.9093 34.3768C37.9093 34.5353 37.901 34.6938 37.8678 34.8699C37.8429 35.0372 37.8014 35.1957 37.7351 35.3366C37.6687 35.4775 37.5775 35.592 37.4614 35.68C37.3452 35.7681 37.2042 35.8121 37.0218 35.8121C36.8393 35.8121 36.6983 35.7681 36.5822 35.68C36.4661 35.592 36.3748 35.4775 36.3168 35.3366C36.2504 35.1957 36.2089 35.046 36.1758 34.8699C36.1592 34.7026 36.1426 34.5353 36.1426 34.3768ZM36.4578 34.3768C36.4578 34.4472 36.4578 34.5177 36.4661 34.6057C36.4743 34.6938 36.4826 34.773 36.4909 34.8611C36.5075 34.9492 36.5241 35.0284 36.549 35.1165C36.5739 35.1957 36.6154 35.2662 36.6568 35.3366C36.6983 35.3983 36.7481 35.4511 36.8144 35.4863C36.8808 35.5215 36.9471 35.548 37.0384 35.548C37.1213 35.548 37.1959 35.5303 37.2623 35.4863C37.3204 35.4511 37.3701 35.3983 37.4199 35.3366C37.4614 35.275 37.4945 35.2045 37.5194 35.1165C37.5443 35.0372 37.5692 34.9492 37.5775 34.8611C37.5941 34.773 37.6024 34.6938 37.6024 34.6057C37.6107 34.5265 37.6107 34.4472 37.6107 34.3768C37.6107 34.3063 37.6107 34.2359 37.6024 34.1478C37.5941 34.0597 37.5858 33.9805 37.5775 33.8924C37.5609 33.8132 37.5443 33.7251 37.5194 33.6459C37.4945 33.5666 37.4614 33.4962 37.4199 33.4257C37.3701 33.3641 37.3204 33.3112 37.2623 33.276C37.1959 33.2408 37.1213 33.2232 37.0384 33.2232C36.9554 33.2232 36.8808 33.2408 36.8144 33.276C36.7481 33.32 36.6983 33.3641 36.6568 33.4257C36.6154 33.4874 36.5822 33.5578 36.549 33.6459C36.5241 33.7251 36.5075 33.8132 36.4909 33.8924C36.4743 33.9805 36.4661 34.0597 36.4661 34.1478C36.4578 34.2359 36.4578 34.3063 36.4578 34.3768Z" fill="#60646C"/>
<path d="M39.6726 35.8117H39.3139V33.5725H39.3045L38.776 33.9667L38.5684 33.7402L39.3611 33.1699H39.6726V35.8117Z" fill="#60646C"/>
<path d="M40.5557 35.4198L41.5762 34.3945C41.6448 34.3321 41.6963 34.2697 41.7477 34.2162C41.7992 34.1627 41.8335 34.1092 41.8678 34.0557C41.9021 34.0023 41.9193 33.9488 41.9364 33.8953C41.9536 33.8418 41.9536 33.7794 41.9536 33.708C41.9536 33.6367 41.945 33.5654 41.9193 33.5119C41.8935 33.4495 41.8592 33.4049 41.8164 33.3603C41.7735 33.3157 41.722 33.289 41.662 33.2622C41.6019 33.2444 41.5333 33.2266 41.4733 33.2266C41.3361 33.2266 41.216 33.2712 41.1303 33.3514C41.0445 33.4316 40.9845 33.5386 40.9587 33.6724L40.6157 33.6456C40.6328 33.5297 40.6672 33.4316 40.7186 33.3425C40.7701 33.2533 40.8301 33.182 40.9073 33.1285C40.9845 33.0661 41.0702 33.0215 41.1646 32.9948C41.2589 32.968 41.3618 32.9502 41.4733 32.9502C41.5848 32.9502 41.6963 32.968 41.7906 33.0037C41.8935 33.0394 41.9793 33.0839 42.0565 33.1463C42.1337 33.2088 42.1937 33.289 42.2366 33.3871C42.2795 33.4851 42.3052 33.5921 42.3052 33.7169C42.3052 33.8239 42.288 33.9309 42.2623 34.0201C42.228 34.1092 42.1937 34.1895 42.1422 34.2697C42.0908 34.35 42.0393 34.4124 41.9793 34.4837C41.9193 34.555 41.8507 34.6174 41.782 34.6798L40.9502 35.4912V35.5001H42.3223V35.8121H40.5814V35.4198H40.5557Z" fill="#60646C"/>
<path d="M43.6523 33.1699H44.0251L44.6641 35.3588L45.3564 33.1699H45.7291L46.4036 35.3588H46.4125L47.0604 33.1699H47.4065L46.59 35.8117H46.2261L45.5339 33.5725L44.8416 35.8117H44.4777L43.6523 33.1699Z" fill="#60646C"/>
<path d="M47.6265 33.388C47.6265 33.3293 47.653 33.2789 47.6884 33.237C47.7326 33.1951 47.7857 33.1699 47.8477 33.1699C47.9096 33.1699 47.9627 33.1951 48.007 33.237C48.0512 33.2789 48.0689 33.3293 48.0689 33.388C48.0689 33.4467 48.0512 33.497 48.007 33.5389C47.9627 33.5809 47.9096 33.5976 47.8477 33.5976C47.7769 33.5976 47.7326 33.5725 47.6884 33.5389C47.6442 33.5054 47.6265 33.4467 47.6265 33.388ZM47.6973 34.0673H48.007V35.8117H47.6973V34.0673Z" fill="#60646C"/>
<path d="M48.5232 34.5148C48.5232 34.4321 48.5232 34.3577 48.5136 34.2915C48.5136 34.2254 48.5039 34.1592 48.5039 34.1014H48.8225C48.8225 34.151 48.8225 34.1923 48.8225 34.2419C48.8225 34.2915 48.8321 34.3329 48.8321 34.3825H48.8418C48.8611 34.3412 48.8997 34.2998 48.9383 34.2585C48.977 34.2171 49.0252 34.1841 49.0831 34.151C49.1411 34.1262 49.199 34.0931 49.2762 34.0766C49.3535 34.06 49.421 34.0518 49.5079 34.0518C49.6431 34.0518 49.7589 34.0683 49.8458 34.1014C49.9423 34.1344 50.0196 34.1841 50.0872 34.2419C50.1451 34.3081 50.1934 34.3742 50.2223 34.4652C50.2513 34.5479 50.2706 34.6471 50.2706 34.7463V35.813H49.9327V34.7794C49.9327 34.6306 49.8941 34.5231 49.8168 34.4321C49.7396 34.3494 49.6238 34.3081 49.4693 34.3081C49.3631 34.3081 49.2666 34.3246 49.1893 34.3577C49.1121 34.3908 49.0445 34.4321 48.9963 34.49C48.948 34.5479 48.9094 34.614 48.8804 34.6967C48.8515 34.7794 48.8418 34.8621 48.8418 34.9613V35.8047H48.5136V34.5148H48.5232Z" fill="#60646C"/>
<path d="M50.7342 34.5148C50.7342 34.4321 50.7245 34.3577 50.7245 34.2915C50.7148 34.2254 50.7148 34.1592 50.7148 34.1014H51.0334C51.0334 34.151 51.0334 34.1923 51.0431 34.2419C51.0431 34.2915 51.0431 34.3329 51.0431 34.3825H51.0527C51.072 34.3412 51.1107 34.2998 51.1493 34.2585C51.1879 34.2171 51.2362 34.1841 51.2941 34.151C51.352 34.1262 51.4196 34.0931 51.4872 34.0766C51.5644 34.06 51.632 34.0518 51.7189 34.0518C51.8444 34.0518 51.9602 34.0683 52.0567 34.1014C52.1533 34.1344 52.2305 34.1841 52.2981 34.2419C52.3657 34.3081 52.4043 34.3742 52.4333 34.4652C52.4622 34.5479 52.4815 34.6471 52.4815 34.7463V35.813H52.1436V34.7794C52.1436 34.6306 52.105 34.5231 52.0374 34.4321C51.9602 34.3494 51.8444 34.3081 51.6899 34.3081C51.5837 34.3081 51.4872 34.3246 51.4099 34.3577C51.3327 34.3908 51.2651 34.4321 51.2169 34.49C51.1686 34.5479 51.13 34.614 51.101 34.6967C51.072 34.7794 51.0624 34.8621 51.0624 34.9613V35.8047H50.7245V34.5148H50.7342Z" fill="#60646C"/>
<path d="M54.6292 35.4591C54.5172 35.5878 54.4051 35.6762 54.2759 35.7325C54.1466 35.7808 54.0001 35.813 53.8364 35.813C53.6985 35.813 53.5692 35.7888 53.4572 35.7406C53.3451 35.6923 53.2503 35.636 53.1728 35.5556C53.0952 35.4752 53.0349 35.3787 52.9918 35.2741C52.9487 35.1696 52.9229 35.049 52.9229 34.9283C52.9229 34.7997 52.9487 34.679 52.9918 34.5745C53.0349 34.4699 53.1038 34.3734 53.1814 34.293C53.2676 34.2126 53.3624 34.1563 53.4744 34.1161C53.5864 34.0678 53.7071 34.0518 53.845 34.0518C53.9742 34.0518 54.0863 34.0678 54.1897 34.1081C54.2931 34.1483 54.3879 34.2046 54.4568 34.2769C54.5344 34.3493 54.5947 34.4458 54.6292 34.5504C54.6723 34.6549 54.6895 34.7836 54.6895 34.9203V35.0088H53.2417C53.2503 35.0811 53.2676 35.1455 53.302 35.2178C53.3279 35.2822 53.3796 35.3385 53.4227 35.3867C53.4744 35.435 53.5347 35.4752 53.6037 35.4993C53.6726 35.5315 53.7416 35.5395 53.8277 35.5395C53.957 35.5395 54.069 35.5154 54.1552 35.4752C54.2414 35.435 54.3276 35.3706 54.3965 35.2822L54.6292 35.4591ZM54.3707 34.7755C54.362 34.6308 54.319 34.5182 54.2242 34.4297C54.1294 34.3413 54.0001 34.3011 53.8364 34.3011C53.6726 34.3011 53.5347 34.3413 53.4313 34.4297C53.3279 34.5182 53.2676 34.6308 53.2503 34.7755H54.3707Z" fill="#60646C"/>
<path d="M55.152 34.5126C55.152 34.4303 55.152 34.3563 55.1427 34.2904C55.1427 34.2246 55.1333 34.1587 55.1333 34.1011H55.4421C55.4421 34.1505 55.4421 34.1917 55.4515 34.241C55.4515 34.2904 55.4515 34.3316 55.4515 34.381H55.4608C55.4795 34.3398 55.517 34.2987 55.5544 34.2575C55.5918 34.2164 55.6386 34.1834 55.6948 34.1505C55.7509 34.1258 55.8164 34.0929 55.8819 34.0764C55.9568 34.06 56.0223 34.0518 56.1065 34.0518C56.1252 34.0518 56.1533 34.0518 56.172 34.06C56.1907 34.06 56.2094 34.0682 56.2375 34.0764L56.2188 34.3645C56.1627 34.348 56.1065 34.3398 56.0504 34.3398C55.8445 34.3398 55.7041 34.3974 55.6105 34.5126C55.517 34.6278 55.4795 34.776 55.4795 34.9735V35.813H55.152V34.5126Z" fill="#60646C"/>
<path d="M20.7627 36.2051V35.9873H21.1859V33.6209H20.7709V33.4032H22.0404V33.6209H21.6255V35.9873H22.0486V36.2051H20.7627Z" fill="#60646C"/>
<path d="M23.853 36.2051V35.9873H24.157V34.7877C24.157 34.6371 24.1145 34.5275 24.0296 34.459C23.9474 34.3878 23.8365 34.3522 23.6968 34.3522C23.5955 34.3522 23.501 34.3755 23.4134 34.4221C23.3257 34.4686 23.2545 34.5426 23.1997 34.6439C23.1449 34.7425 23.1176 34.8726 23.1176 35.0342H23.0148C23.0148 34.8124 23.045 34.6288 23.1052 34.4837C23.1682 34.3385 23.2614 34.2317 23.3846 34.1632C23.5106 34.092 23.6653 34.0564 23.8488 34.0564C24.0625 34.0564 24.2364 34.1126 24.3706 34.2249C24.5076 34.3372 24.576 34.5207 24.576 34.7754V35.9873H24.8842V36.2051H23.853ZM22.3288 36.2051V35.9873H22.6903V34.307H22.3616V34.0893H23.0683V34.8411L23.1176 34.8329V35.9873H23.4216V36.2051H22.3288Z" fill="#60646C"/>
<path d="M26.2209 36.2503C26.0292 36.2503 25.8594 36.2078 25.7115 36.1229C25.5636 36.0353 25.4472 35.9093 25.3623 35.745C25.2774 35.5779 25.2349 35.3779 25.2349 35.1451C25.2349 34.9123 25.2774 34.7138 25.3623 34.5494C25.4472 34.3851 25.5636 34.2605 25.7115 34.1756C25.8594 34.0879 26.0292 34.0441 26.2209 34.0441C26.4264 34.0441 26.5948 34.0879 26.7263 34.1756C26.8605 34.2632 26.9591 34.3892 27.0221 34.5535C27.0878 34.7179 27.1207 34.9137 27.1207 35.141L27.1453 35.1492C27.1453 35.3738 27.1111 35.5697 27.0426 35.7367C26.9741 35.9011 26.8714 36.0284 26.7345 36.1188C26.5975 36.2065 26.4264 36.2503 26.2209 36.2503ZM26.3606 35.9668C26.4948 35.9668 26.6126 35.9353 26.7139 35.8723C26.8153 35.8093 26.8947 35.7162 26.9522 35.5929C27.0098 35.4697 27.0385 35.3204 27.0385 35.1451C27.0385 34.9698 27.0098 34.8219 26.9522 34.7014C26.8947 34.5782 26.8153 34.4851 26.7139 34.4221C26.6126 34.3563 26.4948 34.3235 26.3606 34.3235C26.2264 34.3235 26.1087 34.3563 26.0073 34.4221C25.906 34.4851 25.8265 34.5782 25.769 34.7014C25.7142 34.8219 25.6869 34.9698 25.6869 35.1451C25.6869 35.3204 25.7142 35.4697 25.769 35.5929C25.8265 35.7162 25.906 35.8093 26.0073 35.8723C26.1087 35.9353 26.2264 35.9668 26.3606 35.9668ZM27.0508 36.2051V35.6464L27.1001 35.1451L27.0139 34.722V33.4648H26.6934V33.2471H27.4411V35.9873H27.7616V36.2051H27.0508Z" fill="#60646C"/>
<path d="M28.066 36.2051V35.9873H28.4276V34.307H28.0989V34.0893H28.8507V35.9873H29.1712V36.2051H28.066ZM28.6165 33.8058C28.5316 33.8058 28.4618 33.7812 28.407 33.7319C28.355 33.6826 28.329 33.6182 28.329 33.5388C28.329 33.4593 28.355 33.3963 28.407 33.3498C28.4618 33.3032 28.5316 33.2799 28.6165 33.2799C28.7014 33.2799 28.7699 33.3032 28.822 33.3498C28.874 33.3936 28.9 33.4566 28.9 33.5388C28.9 33.6182 28.874 33.6826 28.822 33.7319C28.7699 33.7812 28.7014 33.8058 28.6165 33.8058Z" fill="#60646C"/>
<path d="M29.9755 34.8C29.9015 34.8 29.8344 34.7795 29.7742 34.7384C29.7166 34.6946 29.6879 34.6261 29.6879 34.533C29.6879 34.4262 29.7303 34.3372 29.8152 34.2659C29.9029 34.1947 30.0166 34.1413 30.1562 34.1057C30.2959 34.0674 30.4438 34.0482 30.5999 34.0482C30.8519 34.0482 31.0478 34.0989 31.1874 34.2002C31.3271 34.3016 31.3956 34.4549 31.3929 34.6603L30.9944 34.5987C30.9944 34.4919 30.9533 34.4097 30.8711 34.3522C30.7917 34.2947 30.6725 34.2659 30.5137 34.2659C30.4178 34.2659 30.3261 34.2769 30.2384 34.2988C30.1508 34.3207 30.0782 34.3563 30.0207 34.4056C29.9659 34.4522 29.9358 34.5152 29.9303 34.5946L29.9262 34.3974C30.0138 34.4002 30.0837 34.418 30.1357 34.4508C30.1877 34.4837 30.2124 34.5344 30.2097 34.6028C30.2069 34.6631 30.185 34.711 30.1439 34.7466C30.1028 34.7822 30.0467 34.8 29.9755 34.8ZM31.5818 36.2462C31.4066 36.2462 31.2723 36.1982 31.1792 36.1024C31.0861 36.0038 31.0395 35.8655 31.0395 35.6874V35.556H30.9944V34.952H30.9697L30.9944 34.7672V34.5987L31.3929 34.6603V35.7203C31.3929 35.7943 31.4107 35.8559 31.4463 35.9052C31.4846 35.9517 31.5408 35.975 31.6147 35.975C31.6859 35.975 31.7393 35.9517 31.7749 35.9052C31.8133 35.8559 31.8325 35.7943 31.8325 35.7203V35.1205H32.1118V35.6915C32.1118 35.8668 32.0666 36.0038 31.9762 36.1024C31.8859 36.1982 31.7544 36.2462 31.5818 36.2462ZM30.2466 36.2462C30.0385 36.2462 29.8673 36.1969 29.7331 36.0983C29.6016 35.9969 29.5359 35.8573 29.5359 35.6792C29.5359 35.5505 29.5633 35.4464 29.618 35.367C29.6756 35.2848 29.7536 35.2205 29.8522 35.1739C29.9508 35.1246 30.0645 35.0876 30.1932 35.063L30.5424 34.989C30.6273 34.9726 30.704 34.9493 30.7725 34.9192C30.841 34.889 30.8944 34.848 30.9327 34.7959C30.9738 34.7439 30.9944 34.6782 30.9944 34.5987L31.0067 34.952H30.9944C30.967 35.0123 30.919 35.0616 30.8506 35.0999C30.7848 35.1383 30.7013 35.1684 30.5999 35.1903L30.4192 35.2273C30.337 35.2465 30.2617 35.2711 30.1932 35.3013C30.1247 35.3286 30.07 35.3656 30.0289 35.4122C29.9878 35.4587 29.9673 35.5217 29.9673 35.6012C29.9673 35.7107 30.007 35.7943 30.0864 35.8518C30.1658 35.9093 30.2726 35.938 30.4069 35.938C30.5109 35.938 30.6068 35.9161 30.6944 35.8723C30.7848 35.8285 30.8574 35.7573 30.9122 35.6587C30.967 35.5573 30.9944 35.4245 30.9944 35.2602L31.1135 35.2684C31.1135 35.5039 31.0751 35.6943 30.9985 35.8394C30.9218 35.9819 30.8177 36.0859 30.6862 36.1517C30.5548 36.2147 30.4082 36.2462 30.2466 36.2462Z" fill="#60646C"/>
</svg>
