<svg width="88" height="50" viewBox="0 0 88 50" fill="none" xmlns="http://www.w3.org/2000/svg">
<g opacity="0.9">
<g opacity="0.5">
<rect x="0.799805" y="0.799805" width="85.556" height="47.6331" rx="1.83211" fill="#CDCED6"/>
<rect x="0.400018" y="0.400018" width="86.3555" height="48.4326" rx="2.2319" stroke="white" stroke-opacity="0.3" stroke-width="0.799573"/>
</g>
</g>
<path d="M64.527 27.2556H63.788V28.5387H62.9272V27.2556H60.4341V26.5734L62.9191 22.716H63.788V26.5247H64.527V27.2556ZM62.9272 24.9493C62.9272 24.8193 62.9272 24.6948 62.9272 24.5757C62.9326 24.4566 62.938 24.3429 62.9434 24.2346C62.9488 24.1209 62.9516 24.0181 62.9516 23.926C62.957 23.8286 62.9624 23.742 62.9678 23.6662H62.9353C62.892 23.7744 62.8406 23.8854 62.781 23.9991C62.7269 24.1128 62.6727 24.213 62.6186 24.2996L61.2543 26.5247H62.9272V24.9493Z" fill="#80838D"/>
<path d="M65.1609 28.0596C65.1609 27.8484 65.2124 27.6995 65.3152 27.6129C65.4235 27.5263 65.5562 27.483 65.7132 27.483C65.8648 27.483 65.9947 27.5263 66.103 27.6129C66.2167 27.6995 66.2735 27.8484 66.2735 28.0596C66.2735 28.2707 66.2167 28.4223 66.103 28.5143C65.9947 28.6064 65.8648 28.6524 65.7132 28.6524C65.5562 28.6524 65.4235 28.6064 65.3152 28.5143C65.2124 28.4223 65.1609 28.2707 65.1609 28.0596Z" fill="#80838D"/>
<path d="M68.9598 22.6592C69.2846 22.6592 69.5716 22.7133 69.8206 22.8216C70.0751 22.9245 70.2727 23.0788 70.4134 23.2845C70.5596 23.4902 70.6327 23.7474 70.6327 24.056C70.6327 24.2888 70.5867 24.4918 70.4946 24.665C70.408 24.8383 70.2862 24.9926 70.1292 25.1279C69.9776 25.2579 69.8098 25.3716 69.6257 25.469C69.8369 25.5827 70.0318 25.7126 70.2104 25.8588C70.3891 25.9996 70.5325 26.1647 70.6408 26.3542C70.7545 26.5437 70.8114 26.7711 70.8114 27.0363C70.8114 27.3612 70.7356 27.6427 70.584 27.8809C70.4378 28.1137 70.2267 28.2951 69.9505 28.425C69.6744 28.5549 69.3469 28.6199 68.9679 28.6199C68.5619 28.6199 68.2181 28.5576 67.9366 28.4331C67.6605 28.3086 67.452 28.1327 67.3113 27.9053C67.1705 27.6725 67.1001 27.3909 67.1001 27.0607C67.1001 26.7954 67.1488 26.5653 67.2463 26.3704C67.3492 26.1755 67.4818 26.0077 67.6442 25.8669C67.812 25.7262 67.9961 25.6071 68.1964 25.5096C68.0232 25.4013 67.8662 25.2795 67.7254 25.1442C67.5847 25.0034 67.4737 24.8437 67.3925 24.665C67.3167 24.4864 67.2788 24.2806 67.2788 24.0479C67.2788 23.7447 67.3519 23.4929 67.498 23.2926C67.6442 23.0869 67.8445 22.9299 68.099 22.8216C68.3534 22.7133 68.6404 22.6592 68.9598 22.6592ZM67.9447 27.0445C67.9447 27.3097 68.0286 27.529 68.1964 27.7022C68.3643 27.8701 68.616 27.954 68.9517 27.954C69.1791 27.954 69.3658 27.9161 69.512 27.8403C69.6582 27.7591 69.7692 27.6508 69.845 27.5155C69.9262 27.3747 69.9668 27.215 69.9668 27.0363C69.9668 26.8577 69.9235 26.7007 69.8369 26.5653C69.7502 26.43 69.6311 26.3109 69.4795 26.208C69.3334 26.0997 69.1655 26.0023 68.976 25.9157L68.8705 25.8669C68.6756 25.959 68.5077 26.0618 68.367 26.1755C68.2316 26.2892 68.1261 26.4164 68.0503 26.5572C67.9799 26.698 67.9447 26.8604 67.9447 27.0445ZM68.9436 23.3332C68.7053 23.3332 68.5077 23.3982 68.3507 23.5281C68.1991 23.658 68.1233 23.8475 68.1233 24.0966C68.1233 24.2752 68.1612 24.4268 68.237 24.5513C68.3183 24.6759 68.4211 24.7841 68.5456 24.8762C68.6756 24.9628 68.8163 25.0467 68.9679 25.1279C69.1195 25.0521 69.2549 24.9709 69.374 24.8843C69.4985 24.7923 69.5959 24.684 69.6663 24.5595C69.7421 24.4295 69.78 24.2752 69.78 24.0966C69.78 23.8475 69.7015 23.658 69.5445 23.5281C69.3929 23.3982 69.1926 23.3332 68.9436 23.3332Z" fill="#80838D"/>
<path d="M13.8758 7.39453C14.2379 7.39453 14.5369 7.44296 14.7727 7.5398C15.0085 7.63665 15.1832 7.78193 15.2969 7.97563C15.4148 8.16511 15.4738 8.40513 15.4738 8.69568C15.4738 8.92727 15.4338 9.12308 15.3538 9.28309C15.278 9.43889 15.1769 9.56732 15.0506 9.66838C14.9285 9.76523 14.7958 9.84313 14.6527 9.90208L15.8464 11.9043H15.0506L14.0463 10.0789H13.3578V11.9043H12.6567V7.39453H13.8758ZM13.8442 7.97563H13.3578V9.51047H13.8568C14.0632 9.51047 14.2316 9.481 14.3621 9.42204C14.4969 9.36309 14.5958 9.27467 14.659 9.15676C14.7264 9.03886 14.76 8.89359 14.76 8.72094C14.76 8.53988 14.7264 8.39671 14.659 8.29144C14.5958 8.18196 14.4948 8.10195 14.3558 8.05142C14.2211 8.00089 14.0505 7.97563 13.8442 7.97563Z" fill="#80838D"/>
<path d="M17.663 8.43671C18.0631 8.43671 18.3642 8.53145 18.5663 8.72094C18.7726 8.90622 18.8758 9.19887 18.8758 9.5989V11.9043H18.3894L18.2568 11.4306H18.2315C18.1347 11.5527 18.0378 11.6538 17.941 11.7338C17.8483 11.8138 17.7388 11.8727 17.6125 11.9106C17.4904 11.9485 17.3388 11.9675 17.1578 11.9675C16.9683 11.9675 16.7977 11.9317 16.6461 11.8601C16.4945 11.7843 16.3745 11.6706 16.2861 11.519C16.1977 11.3632 16.1535 11.1695 16.1535 10.9379C16.1535 10.5927 16.2756 10.3295 16.5198 10.1484C16.7682 9.96735 17.1451 9.86839 17.6504 9.85155L18.1936 9.8326V9.64311C18.1936 9.39046 18.141 9.21361 18.0357 9.11255C17.9346 9.01149 17.7915 8.96096 17.6062 8.96096C17.4504 8.96096 17.2967 8.98622 17.1451 9.03675C16.9935 9.08728 16.8461 9.14834 16.703 9.21992L16.4945 8.73357C16.6503 8.64936 16.8272 8.57988 17.0251 8.52514C17.2272 8.46619 17.4399 8.43671 17.663 8.43671ZM17.7831 10.2811C17.4378 10.2979 17.1978 10.3632 17.063 10.4769C16.9283 10.5863 16.8609 10.7421 16.8609 10.9443C16.8609 11.1211 16.9072 11.2495 16.9998 11.3295C17.0967 11.4096 17.2209 11.4496 17.3725 11.4496C17.6041 11.4496 17.7978 11.3759 17.9536 11.2285C18.1136 11.0811 18.1936 10.86 18.1936 10.5653V10.2684L17.7831 10.2811Z" fill="#80838D"/>
<path d="M21.0228 11.4243C21.1112 11.4243 21.1975 11.4159 21.2818 11.399C21.366 11.3822 21.4397 11.3632 21.5028 11.3422V11.8475C21.4312 11.8812 21.3365 11.9085 21.2186 11.9296C21.1049 11.9549 20.9849 11.9675 20.8586 11.9675C20.6817 11.9675 20.5196 11.9359 20.3722 11.8727C20.2248 11.8096 20.1069 11.7001 20.0185 11.5443C19.9301 11.3885 19.8859 11.1716 19.8859 10.8937V9.01149H19.4501V8.70831L19.9175 8.45566L20.1512 7.73561H20.5743V8.49987H21.4776V9.01149H20.5743V10.8811C20.5743 11.0664 20.6165 11.2032 20.7007 11.2917C20.7849 11.3801 20.8923 11.4243 21.0228 11.4243Z" fill="#80838D"/>
<path d="M23.4242 8.43671C23.7063 8.43671 23.9505 8.49987 24.1568 8.6262C24.3632 8.74831 24.5211 8.92517 24.6306 9.15676C24.7442 9.38836 24.8011 9.66206 24.8011 9.97787V10.3442H22.6599C22.6683 10.6937 22.7525 10.9611 22.9125 11.1464C23.0725 11.3317 23.2978 11.4243 23.5884 11.4243C23.7947 11.4243 23.9779 11.4053 24.1379 11.3674C24.3021 11.3253 24.4684 11.2643 24.6369 11.1843V11.7401C24.4769 11.8159 24.3126 11.8727 24.1442 11.9106C23.98 11.9485 23.78 11.9675 23.5442 11.9675C23.2368 11.9675 22.9631 11.9022 22.723 11.7717C22.483 11.6412 22.2957 11.4475 22.1609 11.1906C22.0262 10.9295 21.9588 10.6095 21.9588 10.2305C21.9588 9.84734 22.0198 9.5231 22.142 9.25782C22.2641 8.99254 22.4346 8.79042 22.6536 8.65146C22.8767 8.5083 23.1336 8.43671 23.4242 8.43671ZM23.4242 8.95464C23.2094 8.95464 23.0368 9.03254 22.9062 9.18834C22.7757 9.34414 22.6999 9.56521 22.6788 9.85155H24.1253C24.1253 9.67469 24.1 9.51889 24.0495 9.38415C23.9989 9.2494 23.921 9.14413 23.8158 9.06834C23.7147 8.99254 23.5842 8.95464 23.4242 8.95464Z" fill="#80838D"/>
<path d="M29.9685 10.1989C29.9685 10.4811 29.9327 10.7316 29.8611 10.9506C29.7895 11.1695 29.6863 11.3548 29.5516 11.5064C29.4211 11.658 29.261 11.7738 29.0716 11.8538C28.8821 11.9296 28.6694 11.9675 28.4336 11.9675C28.2189 11.9675 28.0189 11.9296 27.8336 11.8538C27.6483 11.7738 27.4883 11.658 27.3535 11.5064C27.2188 11.3548 27.1135 11.1695 27.0377 10.9506C26.9661 10.7316 26.9304 10.479 26.9304 10.1926C26.9304 9.81786 26.9914 9.49994 27.1135 9.23887C27.2356 8.9778 27.4104 8.77989 27.6378 8.64515C27.8694 8.50619 28.1431 8.43671 28.4589 8.43671C28.7536 8.43671 29.0147 8.50619 29.2421 8.64515C29.4695 8.77989 29.6463 8.9778 29.7727 9.23887C29.9032 9.49994 29.9685 9.81997 29.9685 10.1989ZM27.6378 10.1989C27.6378 10.4516 27.6651 10.6706 27.7199 10.8558C27.7788 11.0369 27.8673 11.1759 27.9852 11.2727C28.1073 11.3696 28.261 11.418 28.4463 11.418C28.6357 11.418 28.7894 11.3696 28.9073 11.2727C29.0295 11.1759 29.1179 11.0369 29.1726 10.8558C29.2316 10.6706 29.261 10.4516 29.261 10.1989C29.261 9.93787 29.2316 9.71891 29.1726 9.54205C29.1137 9.3652 29.0252 9.23045 28.9073 9.13781C28.7894 9.04096 28.6336 8.99254 28.4399 8.99254C28.1578 8.99254 27.9536 9.09781 27.8273 9.30835C27.7009 9.51889 27.6378 9.81576 27.6378 10.1989Z" fill="#80838D"/>
<path d="M32.4139 8.43671C32.7845 8.43671 33.0687 8.53567 33.2666 8.73357C33.4688 8.93148 33.5698 9.2494 33.5698 9.68733V11.9043H32.8877V9.78207C32.8877 9.51679 32.835 9.31888 32.7298 9.18834C32.6287 9.0536 32.4708 8.98622 32.256 8.98622C31.9402 8.98622 31.7234 9.08939 31.6055 9.29572C31.4876 9.50205 31.4286 9.79891 31.4286 10.1863V11.9043H30.7465V8.49987H31.2833L31.3781 8.95464H31.416C31.4876 8.83674 31.5739 8.73989 31.6749 8.6641C31.776 8.5883 31.8897 8.53145 32.016 8.49356C32.1423 8.45566 32.275 8.43671 32.4139 8.43671Z" fill="#80838D"/>
<path d="M24.71 15.6602H26.7558V28.2696H24.71V15.6602Z" fill="#60646C"/>
<path d="M33.8708 24.2743C33.8708 26.228 32.2698 26.4056 31.7361 26.4056C30.4908 26.4056 30.3129 25.2511 30.3129 24.6295V19.7451H28.2671V24.5407C28.2671 25.6952 28.6229 26.7609 29.3345 27.3825C29.9571 28.0041 30.7576 28.2706 31.7361 28.2706C32.4477 28.2706 33.3371 28.093 33.8708 27.5601V28.2706H35.9166V19.7451H33.8708V24.2743Z" fill="#60646C"/>
<path d="M39.9119 16.6377H37.8661V19.7457H36.354V21.6992H37.8661V28.2704H39.9119V21.6992H41.424V19.7457H39.9119V16.6377Z" fill="#60646C"/>
<path d="M47.8346 25.696C47.3899 26.0513 46.7672 26.3177 46.1446 26.3177C44.7214 26.3177 43.743 25.252 43.743 23.8311C43.743 22.4102 44.7214 21.4333 46.1446 21.4333C46.7672 21.4333 47.3899 21.6109 47.8346 22.0549L48.1015 22.3214L49.5246 20.9893L49.1688 20.7228C48.3683 20.0124 47.3009 19.5684 46.1446 19.5684C43.654 19.5684 41.7861 21.4333 41.7861 23.9199C41.7861 26.4065 43.654 28.2714 46.1446 28.2714C47.3009 28.2714 48.3683 27.8274 49.1688 27.1169L49.5246 26.8505L48.1015 25.4296L47.8346 25.696Z" fill="#60646C"/>
<path d="M56.7293 20.4553C56.1067 19.8337 55.484 19.5673 54.5056 19.5673C53.794 19.5673 53.0824 19.7449 52.5487 20.2777V15.6602H50.5029V28.2696H52.5487V23.5633C52.5487 21.6097 53.883 21.4321 54.4166 21.4321C55.6619 21.4321 55.573 22.5865 55.573 23.2081V28.1808H57.6188V23.2969C57.6188 22.1425 57.3519 21.0769 56.7293 20.4553Z" fill="#60646C"/>
<path d="M46.0574 25.3408C46.8434 25.3408 47.4806 24.7047 47.4806 23.9199C47.4806 23.1352 46.8434 22.499 46.0574 22.499C45.2715 22.499 44.6343 23.1352 44.6343 23.9199C44.6343 24.7047 45.2715 25.3408 46.0574 25.3408Z" fill="#EF4335"/>
<path d="M21.8619 25.1622C21.1504 25.8726 20.083 26.3166 18.9267 26.3166C16.7029 26.3166 15.1019 24.5406 15.1019 22.143C15.1019 19.7455 16.7029 17.9695 19.0156 17.9695C20.083 17.9695 21.1504 18.4135 21.9509 19.2127L22.2177 19.4791L23.552 18.1471L23.2851 17.8807C22.1288 16.7263 20.6167 16.1047 19.0156 16.1047C15.6356 16.0159 13.145 18.6799 13.145 22.143C13.145 25.6062 15.6356 28.2702 18.9267 28.2702C20.5277 28.2702 22.1288 27.6486 23.1962 26.4942L23.463 26.2278L22.1288 24.8958L21.8619 25.1622Z" fill="#60646C"/>
<path d="M28.0593 33.3853L27.2385 35.053C27.1967 35.1379 27.135 35.2113 27.0587 35.2669C26.9823 35.3225 26.8937 35.3587 26.8003 35.3723L24.9656 35.6398C24.8796 35.6523 24.7988 35.6887 24.7324 35.7449C24.6659 35.801 24.6165 35.8747 24.5897 35.9576C24.5628 36.0405 24.5596 36.1292 24.5805 36.2138C24.6014 36.2984 24.6454 36.3755 24.7077 36.4362L26.0358 37.7345C26.1032 37.8005 26.1537 37.8819 26.1828 37.9718C26.212 38.0616 26.2189 38.1572 26.2031 38.2504L25.8896 40.0837C25.875 40.1695 25.8847 40.2577 25.9175 40.3383C25.9503 40.4189 26.0049 40.4887 26.0752 40.5398C26.1454 40.5909 26.2286 40.6213 26.3151 40.6275C26.4017 40.6337 26.4883 40.6155 26.5651 40.575L28.2063 39.7095C28.2898 39.6655 28.3827 39.6425 28.4771 39.6425C28.5714 39.6425 28.6643 39.6655 28.7478 39.7095L30.389 40.575C30.4658 40.6155 30.5524 40.6337 30.639 40.6275C30.7255 40.6213 30.8087 40.5909 30.8789 40.5398C30.9492 40.4887 31.0038 40.4189 31.0366 40.3383C31.0694 40.2577 31.0791 40.1695 31.0645 40.0837L30.751 38.2504C30.7352 38.1572 30.7421 38.0616 30.7712 37.9718C30.8004 37.8819 30.8508 37.8005 30.9183 37.7345L32.2464 36.4362C32.3087 36.3755 32.3527 36.2984 32.3736 36.2138C32.3945 36.1292 32.3913 36.0405 32.3644 35.9576C32.3376 35.8747 32.2882 35.801 32.2217 35.7449C32.1553 35.6887 32.0745 35.6523 31.9885 35.6398L30.1531 35.3723C30.0597 35.3587 29.971 35.3225 29.8947 35.2669C29.8183 35.2113 29.7566 35.1379 29.7149 35.053L28.8941 33.3853C28.8556 33.3072 28.7962 33.2414 28.7224 33.1954C28.6487 33.1494 28.5635 33.125 28.4767 33.125C28.3898 33.125 28.3047 33.1494 28.2309 33.1954C28.1572 33.2414 28.0977 33.3072 28.0593 33.3853Z" fill="#F59E0B"/>
<path d="M39.4609 33.3845L38.6401 35.0522C38.5983 35.1371 38.5366 35.2105 38.4603 35.2662C38.384 35.3218 38.2953 35.358 38.2019 35.3716L36.3665 35.6391C36.2805 35.6516 36.1997 35.688 36.1333 35.7441C36.0668 35.8003 36.0174 35.874 35.9905 35.9568C35.9637 36.0397 35.9605 36.1285 35.9814 36.2131C36.0022 36.2977 36.0463 36.3747 36.1086 36.4355L37.4367 37.7338C37.5041 37.7997 37.5546 37.8812 37.5837 37.971C37.6129 38.0609 37.6198 38.1565 37.604 38.2496L37.2904 40.0829C37.2759 40.1687 37.2855 40.2569 37.3183 40.3375C37.3511 40.4181 37.4058 40.4879 37.476 40.539C37.5463 40.5901 37.6294 40.6205 37.716 40.6267C37.8026 40.6329 37.8892 40.6148 37.966 40.5742L39.6071 39.7088C39.6907 39.6648 39.7836 39.6418 39.8779 39.6418C39.9723 39.6418 40.0652 39.6648 40.1487 39.7088L41.7899 40.5742C41.8667 40.6148 41.9533 40.6329 42.0398 40.6267C42.1264 40.6205 42.2096 40.5901 42.2798 40.539C42.3501 40.4879 42.4047 40.4181 42.4375 40.3375C42.4703 40.2569 42.48 40.1687 42.4654 40.0829L42.1519 38.2496C42.136 38.1565 42.143 38.0609 42.1721 37.971C42.2013 37.8811 42.2517 37.7997 42.3192 37.7338L43.6473 36.4355C43.7095 36.3747 43.7536 36.2977 43.7745 36.2131C43.7953 36.1285 43.7922 36.0397 43.7653 35.9568C43.7385 35.874 43.689 35.8003 43.6226 35.7441C43.5561 35.688 43.4753 35.6516 43.3894 35.6391L41.554 35.3716C41.4606 35.358 41.3719 35.3218 41.2956 35.2662C41.2192 35.2105 41.1575 35.1371 41.1158 35.0522L40.295 33.3845C40.2565 33.3066 40.197 33.241 40.1233 33.1952C40.0496 33.1493 39.9646 33.125 39.8779 33.125C39.7912 33.125 39.7062 33.1493 39.6325 33.1952C39.5588 33.241 39.4994 33.3066 39.4609 33.3845Z" fill="#F59E0B"/>
<path d="M50.8825 33.3833L50.0617 35.051C50.02 35.1359 49.9583 35.2093 49.8819 35.265C49.8056 35.3206 49.7169 35.3568 49.6235 35.3704L47.7884 35.6379C47.7024 35.6504 47.6216 35.6868 47.5551 35.7429C47.4887 35.7991 47.4393 35.8728 47.4124 35.9556C47.3856 36.0385 47.3824 36.1273 47.4033 36.2119C47.4241 36.2965 47.4682 36.3735 47.5305 36.4343L48.8585 37.7326C48.926 37.7985 48.9764 37.88 49.0056 37.9698C49.0347 38.0597 49.0417 38.1553 49.0258 38.2484L48.7123 40.0817C48.6978 40.1675 48.7074 40.2557 48.7402 40.3363C48.773 40.4169 48.8276 40.4867 48.8979 40.5378C48.9682 40.5889 49.0513 40.6193 49.1379 40.6255C49.2245 40.6317 49.3111 40.6136 49.3879 40.573L51.029 39.7076C51.1125 39.6636 51.2055 39.6406 51.2998 39.6406C51.3942 39.6406 51.4871 39.6636 51.5706 39.7076L53.2117 40.573C53.2885 40.6136 53.3751 40.6317 53.4617 40.6255C53.5483 40.6193 53.6314 40.5889 53.7017 40.5378C53.772 40.4867 53.8266 40.4169 53.8594 40.3363C53.8922 40.2557 53.9019 40.1675 53.8873 40.0817L53.5738 38.2484C53.5579 38.1553 53.5648 38.0597 53.594 37.9698C53.6231 37.8799 53.6736 37.7985 53.7411 37.7326L55.0692 36.4343C55.1314 36.3735 55.1755 36.2965 55.1963 36.2119C55.2172 36.1273 55.214 36.0385 55.1872 35.9556C55.1604 35.8728 55.1109 35.7991 55.0445 35.7429C54.978 35.6868 54.8972 35.6504 54.8112 35.6379L52.9758 35.3704C52.8825 35.3568 52.7938 35.3206 52.7174 35.265C52.6411 35.2093 52.5794 35.1359 52.5376 35.051L51.7173 33.3833C51.6789 33.3052 51.6194 33.2394 51.5457 33.1934C51.4719 33.1474 51.3868 33.123 51.2999 33.123C51.2131 33.123 51.1279 33.1474 51.0542 33.1934C50.9804 33.2394 50.921 33.3052 50.8825 33.3833Z" fill="#F59E0B"/>
<path d="M63.1194 33.3851L63.9402 35.0528C63.982 35.1377 64.0437 35.2111 64.12 35.2667C64.1964 35.3223 64.2851 35.3585 64.3784 35.3721L66.2136 35.6396C66.2996 35.6521 66.3804 35.6885 66.4468 35.7447C66.5133 35.8008 66.5627 35.8745 66.5895 35.9574C66.6164 36.0403 66.6196 36.129 66.5987 36.2136C66.5778 36.2982 66.5338 36.3753 66.4715 36.436L65.1434 37.7343C65.076 37.8003 65.0255 37.8817 64.9964 37.9716C64.9672 38.0614 64.9603 38.157 64.9761 38.2502L65.2896 40.0835C65.3042 40.1693 65.2945 40.2575 65.2617 40.3381C65.2289 40.4187 65.1743 40.4885 65.104 40.5396C65.0338 40.5907 64.9506 40.6211 64.8641 40.6273C64.7775 40.6335 64.6909 40.6153 64.6141 40.5748L62.9729 39.7093C62.8894 39.6653 62.7965 39.6423 62.7022 39.6423C62.6078 39.6423 62.5149 39.6653 62.4314 39.7093L60.7902 40.5748C60.7134 40.6153 60.6268 40.6335 60.5402 40.6273C60.4537 40.6211 60.3705 40.5907 60.3003 40.5396C60.23 40.4885 60.1754 40.4187 60.1426 40.3381C60.1098 40.2575 60.1001 40.1693 60.1147 40.0835L60.4282 38.2502C60.444 38.157 60.4371 38.0614 60.408 37.9716C60.3788 37.8817 60.3284 37.8003 60.2609 37.7343L58.9328 36.436C58.8705 36.3753 58.8265 36.2982 58.8056 36.2136C58.7847 36.129 58.7879 36.0403 58.8148 35.9574C58.8416 35.8745 58.891 35.8008 58.9575 35.7447C59.0239 35.6885 59.1047 35.6521 59.1907 35.6396L61.0261 35.3721C61.1195 35.3585 61.2082 35.3223 61.2845 35.2667C61.3609 35.2111 61.4226 35.1377 61.4643 35.0528L62.2829 33.3851C62.3212 33.3065 62.3807 33.2403 62.4546 33.1939C62.5285 33.1476 62.614 33.123 62.7012 33.123C62.7884 33.123 62.8738 33.1476 62.9477 33.1939C63.0217 33.2403 63.0812 33.3065 63.1194 33.3851Z" fill="#F59E0B"/>
<path d="M64.6141 40.5761L63.4964 39.9865V34.1514L63.94 35.0529C63.9817 35.1378 64.0434 35.2112 64.1198 35.2668C64.1961 35.3225 64.2848 35.3586 64.3782 35.3722L66.2136 35.6398C66.2996 35.6522 66.3804 35.6886 66.4468 35.7448C66.5133 35.8009 66.5627 35.8746 66.5895 35.9575C66.6164 36.0404 66.6196 36.1291 66.5987 36.2137C66.5778 36.2983 66.5338 36.3754 66.4715 36.4362L65.1434 37.7344C65.076 37.8004 65.0255 37.8818 64.9964 37.9717C64.9672 38.0615 64.9603 38.1571 64.9761 38.2503L65.2896 40.0836C65.3045 40.1695 65.295 40.2578 65.2623 40.3386C65.2296 40.4194 65.175 40.4894 65.1047 40.5407C65.0344 40.592 64.9512 40.6225 64.8644 40.6287C64.7777 40.635 64.691 40.6167 64.6141 40.5761Z" fill="#FDE3AC"/>
<path d="M16.6455 33.3836L15.8247 35.0515C15.7829 35.1364 15.7212 35.2098 15.6449 35.2655C15.5685 35.3211 15.4798 35.3573 15.3865 35.3709L13.5511 35.6384C13.4651 35.6509 13.3843 35.6873 13.3178 35.7434C13.2514 35.7996 13.2019 35.8733 13.1751 35.9561C13.1483 36.039 13.1451 36.1278 13.166 36.2124C13.1868 36.297 13.2309 36.374 13.2932 36.4348L14.6212 37.733C14.6887 37.799 14.7391 37.8804 14.7683 37.9703C14.7974 38.0602 14.8044 38.1558 14.7885 38.2489L14.475 40.0822C14.4605 40.168 14.4701 40.2562 14.5029 40.3368C14.5357 40.4174 14.5903 40.4872 14.6606 40.5383C14.7309 40.5894 14.814 40.6198 14.9006 40.626C14.9872 40.6322 15.0738 40.614 15.1506 40.5735L16.7917 39.7081C16.8752 39.6641 16.9682 39.641 17.0625 39.641C17.1568 39.641 17.2498 39.6641 17.3333 39.7081L18.9744 40.5735C19.0512 40.614 19.1378 40.6322 19.2244 40.626C19.311 40.6198 19.3941 40.5894 19.4644 40.5383C19.5347 40.4872 19.5893 40.4174 19.6221 40.3368C19.6549 40.2562 19.6645 40.168 19.65 40.0822L19.3365 38.2489C19.3206 38.1558 19.3275 38.0602 19.3567 37.9703C19.3858 37.8804 19.4363 37.799 19.5038 37.733L20.8318 36.4348C20.8941 36.374 20.9382 36.297 20.959 36.2124C20.9799 36.1278 20.9767 36.039 20.9499 35.9561C20.923 35.8733 20.8736 35.7996 20.8072 35.7434C20.7407 35.6873 20.6599 35.6509 20.5739 35.6384L18.7395 35.3706C18.6461 35.357 18.5575 35.3208 18.4811 35.2652C18.4048 35.2096 18.3431 35.1362 18.3013 35.0513L17.4805 33.3836C17.4421 33.3054 17.3826 33.2395 17.3089 33.1935C17.2351 33.1475 17.1499 33.123 17.063 33.123C16.9761 33.123 16.8909 33.1475 16.8171 33.1935C16.7433 33.2395 16.6839 33.3054 16.6455 33.3836Z" fill="#E2E2E2"/>
<path d="M17.4722 33.3826L18.293 35.0503C18.3348 35.1352 18.3965 35.2086 18.4728 35.2642C18.5491 35.3198 18.6378 35.356 18.7312 35.3696L20.5666 35.6372C20.6526 35.6496 20.7334 35.686 20.7998 35.7422C20.8663 35.7983 20.9157 35.872 20.9426 35.9549C20.9694 36.0378 20.9726 36.1265 20.9517 36.2111C20.9309 36.2957 20.8868 36.3728 20.8245 36.4335L19.4964 37.7318C19.429 37.7978 19.3785 37.8792 19.3494 37.9691C19.3203 38.0589 19.3133 38.1545 19.3291 38.2477L19.6427 40.081C19.6572 40.1668 19.6476 40.255 19.6148 40.3356C19.582 40.4162 19.5273 40.486 19.4571 40.5371C19.3868 40.5882 19.3037 40.6186 19.2171 40.6248C19.1305 40.631 19.0439 40.6128 18.9671 40.5723L17.326 39.7068C17.2425 39.6628 17.1495 39.6398 17.0552 39.6398C16.9608 39.6398 16.8679 39.6628 16.7844 39.7068L15.1432 40.5723C15.0664 40.6128 14.9798 40.631 14.8933 40.6248C14.8067 40.6186 14.7236 40.5882 14.6533 40.5371C14.583 40.486 14.5284 40.4162 14.4956 40.3356C14.4628 40.255 14.4531 40.1668 14.4677 40.081L14.7812 38.2477C14.7971 38.1545 14.7901 38.0589 14.761 37.9691C14.7318 37.8792 14.6814 37.7978 14.6139 37.7318L13.2858 36.4335C13.2236 36.3728 13.1795 36.2957 13.1586 36.2111C13.1378 36.1265 13.1409 36.0378 13.1678 35.9549C13.1946 35.872 13.2441 35.7983 13.3105 35.7422C13.377 35.686 13.4578 35.6496 13.5438 35.6372L15.3791 35.3696C15.4725 35.356 15.5612 35.3198 15.6375 35.2642C15.7139 35.2086 15.7756 35.1352 15.8173 35.0503L16.6382 33.3826C16.6767 33.3046 16.7361 33.2391 16.8098 33.1932C16.8835 33.1473 16.9685 33.123 17.0552 33.123C17.1419 33.123 17.2269 33.1473 17.3006 33.1932C17.3743 33.2391 17.4337 33.3046 17.4722 33.3826Z" fill="#F59E0B"/>
</svg>
