<svg width="88" height="50" viewBox="0 0 88 50" fill="none" xmlns="http://www.w3.org/2000/svg">
<g opacity="0.5">
<path d="M0.799805 2.63191C0.799805 1.62007 1.62007 0.799805 2.63191 0.799805H84.5237C85.5355 0.799805 86.3558 1.62007 86.3558 2.63191V46.6008C86.3558 47.6126 85.5355 48.4329 84.5237 48.4329H2.63191C1.62007 48.4329 0.799805 47.6126 0.799805 46.6008V2.63191Z" fill="#CDCED6"/>
<path d="M84.5234 0.400391C85.7561 0.400391 86.7558 1.39923 86.7559 2.63184V46.6006C86.7559 47.8332 85.7561 48.833 84.5234 48.833H2.63184C1.39923 48.833 0.400391 47.8332 0.400391 46.6006V2.63184C0.400432 1.39925 1.39926 0.400433 2.63184 0.400391H84.5234Z" stroke="white" stroke-opacity="0.3" stroke-width="0.799573"/>
</g>
<path d="M33.9514 20.3135C34.1974 20.4705 34.5786 20.6044 35.0494 20.694C35.5202 20.8279 36.0132 20.8501 36.5294 20.8501C37.0224 20.8501 37.4711 20.7836 37.8744 20.6709C38.2777 20.537 38.6366 20.3588 38.9502 20.1343C39.2415 19.9109 39.4885 19.6431 39.6458 19.2847C39.8021 18.9495 39.8918 18.5921 39.8918 18.1673C39.8918 17.6751 39.7355 17.2281 39.4442 16.8255C39.1528 16.445 38.6588 16.1319 37.9641 15.9084L36.6192 15.4614C36.1261 15.3054 35.745 15.1262 35.5424 14.9249C35.3639 14.7457 35.251 14.5222 35.251 14.2313C35.251 13.8518 35.4083 13.5387 35.6997 13.3817C36.0132 13.2035 36.4175 13.0918 36.9781 13.0918C37.6727 13.0918 38.2555 13.2256 38.8382 13.4713C38.9955 13.5387 39.1296 13.6061 39.2193 13.6061C39.3766 13.6061 39.4442 13.5166 39.4442 13.2931V12.9126C39.4442 12.7787 39.421 12.6669 39.3544 12.5995C39.2869 12.5099 39.1972 12.4203 39.063 12.3539C38.9733 12.2864 38.8161 12.219 38.6588 12.1969C38.5025 12.1304 38.323 12.1073 38.1214 12.0408C37.9419 12.0177 37.7171 11.9512 37.4933 11.9512C37.2694 11.8838 37.0446 11.8838 36.843 11.8838C36.3943 11.8838 36.0364 11.9512 35.6553 12.0408C35.2742 12.1747 34.9375 12.3307 34.6461 12.5321C34.3547 12.7556 34.1531 13.0022 33.9514 13.3152C33.772 13.6283 33.7044 13.9635 33.7044 14.3883C33.7044 14.8806 33.8617 15.3497 34.1753 15.7745C34.4888 16.2215 34.9828 16.5345 35.7219 16.7359L37.1122 17.1828C37.583 17.3399 37.8966 17.4959 38.076 17.6751C38.2555 17.8543 38.323 18.0777 38.323 18.3234C38.323 18.7039 38.1658 19.0169 37.83 19.2404C37.4933 19.4639 37.0446 19.5535 36.4175 19.5535C36.0364 19.5535 35.6553 19.5313 35.2964 19.4196C34.9153 19.3522 34.5785 19.2404 34.2206 19.0834C34.1309 19.0613 34.0411 19.0169 33.9736 18.9948C33.9061 18.9717 33.8385 18.9717 33.7941 18.9717C33.6369 18.9717 33.5703 19.0613 33.5703 19.2847V19.7548C33.5703 19.8444 33.5925 19.933 33.6369 20.0457C33.7044 20.1575 33.7941 20.2239 33.9514 20.3135Z" fill="#1C2024"/>
<path d="M17.7191 15.6843C17.3824 15.6168 17.0237 15.6168 16.7098 15.6168C15.7458 15.6168 14.9611 15.8634 14.3559 16.3778C13.7505 16.8691 13.4814 17.5405 13.4814 18.3449C13.4814 19.128 13.7057 19.731 14.1765 20.2011C14.6472 20.6702 15.2751 20.8937 16.0821 20.8937C17.2031 20.8937 18.1446 20.4468 18.9068 19.575C18.9966 19.7985 19.0863 19.9776 19.1982 20.1337C19.3101 20.2907 19.423 20.4468 19.5349 20.5807C19.6247 20.6702 19.7144 20.7155 19.8263 20.7155C19.8929 20.7155 19.9826 20.6934 20.0723 20.6259L20.6783 20.2233C20.8124 20.1337 20.8577 20.0441 20.8577 19.9324C20.8577 19.8659 20.8346 19.7985 20.7902 19.7089C20.6561 19.4632 20.5432 19.2398 20.4766 19.0163C20.4091 18.7928 20.3869 18.524 20.3869 18.1667V15.036C20.3869 14.0072 20.1399 13.225 19.6015 12.6884C19.0641 12.1519 18.2566 11.9053 17.0909 11.9053C16.5529 11.9053 16.0596 11.9727 15.5889 12.0844C15.1405 12.2183 14.737 12.3301 14.4006 12.5314C14.2661 12.5988 14.1765 12.6653 14.154 12.7106C14.0868 12.778 14.0868 12.8898 14.0868 13.0458V13.5159C14.0868 13.6941 14.154 13.828 14.2661 13.828C14.2885 13.828 14.3559 13.828 14.4231 13.8058C14.4904 13.7837 14.6025 13.7394 14.7594 13.6719C15.0957 13.538 15.4543 13.4263 15.7907 13.3589C16.1269 13.2693 16.4856 13.225 16.822 13.225C17.5841 13.225 18.0771 13.381 18.3916 13.6719C18.7052 13.9629 18.8393 14.4773 18.8393 15.2151V15.9077C18.436 15.8182 18.1003 15.7517 17.7191 15.6843ZM18.8171 17.3835C18.8171 17.6966 18.7949 17.9875 18.7274 18.1888C18.6598 18.4123 18.5711 18.6358 18.4138 18.7928C18.1668 19.0827 17.8533 19.2841 17.4945 19.3958C17.1582 19.5307 16.7995 19.575 16.4856 19.575C16.0373 19.575 15.7009 19.4411 15.4768 19.2398C15.2526 19.0163 15.1405 18.6801 15.1405 18.2331C15.1405 17.764 15.2974 17.3835 15.6113 17.1379C15.9252 16.8922 16.396 16.7574 17.0237 16.7574C17.3152 16.7574 17.6294 16.7795 17.943 16.8248C18.2565 16.8469 18.5479 16.9144 18.8171 16.9808V17.3835Z" fill="#1C2024"/>
<path d="M23.6718 20.1573C23.7384 20.3355 23.8059 20.4704 23.8513 20.5368C23.9178 20.6043 24.0307 20.6264 24.2324 20.6264H25.039C25.2184 20.6264 25.3525 20.6043 25.4201 20.5368C25.4876 20.4704 25.5552 20.3586 25.5995 20.1573L27.0796 13.9855L28.5818 20.1573C28.604 20.3355 28.6706 20.4704 28.7603 20.5368C28.8278 20.6043 28.9851 20.6264 29.1414 20.6264H29.949C30.1062 20.6264 30.2403 20.6043 30.3301 20.5368C30.3976 20.4704 30.4873 20.3586 30.5095 20.1573L32.8405 12.7785C32.8637 12.6889 32.9081 12.5993 32.9081 12.555C32.9081 12.4876 32.9303 12.4654 32.9303 12.398C32.9303 12.2419 32.8637 12.1745 32.7064 12.1745H31.8323C31.6528 12.1745 31.5187 12.1967 31.4512 12.2641C31.3837 12.3315 31.3161 12.4433 31.2717 12.6436L29.6122 19.0611L28.0656 12.6215C28.0434 12.4433 27.9759 12.3084 27.8862 12.2419C27.8186 12.1745 27.6623 12.1523 27.5051 12.1523H26.7207C26.5412 12.1523 26.4071 12.1745 26.3396 12.2419C26.272 12.3084 26.2045 12.4201 26.1601 12.6215L24.6579 18.9493L23.0659 12.6215C22.9993 12.4433 22.9318 12.3084 22.8865 12.2419C22.8199 12.1745 22.708 12.1523 22.5054 12.1523H21.5646C21.4074 12.1523 21.3398 12.2188 21.3398 12.3758C21.3398 12.4433 21.362 12.555 21.4296 12.7563L23.6718 20.1573Z" fill="#1C2024"/>
<path d="M37.8801 24.7861C34.3595 26.284 30.504 26.9997 27.0287 26.9997C21.8496 26.9997 16.8281 25.5904 12.7703 23.2207C12.4341 22.9973 12.1426 23.3768 12.4564 23.6677C16.2228 27.044 21.1771 29.0785 26.7152 29.0785C30.6381 29.0785 35.2114 27.8494 38.3953 25.5009C38.844 25.1435 38.4175 24.5848 37.8801 24.7861Z" fill="#FF9900"/>
<path d="M35.905 23.4872C35.6136 23.6663 35.6811 23.9572 35.9725 23.9341C36.9807 23.8002 39.2674 23.5324 39.6494 24.069C40.0527 24.5603 39.2008 26.7074 38.8419 27.6688C38.7078 27.9597 38.976 28.0714 39.2452 27.847C40.9491 26.4387 41.3755 23.465 41.0388 23.0623C40.6799 22.5701 37.6986 22.2349 35.905 23.4872Z" fill="#FF9900"/>
<path d="M48.5833 18.6583C48.5168 18.6583 48.4492 18.6361 48.4492 18.5244V13.3592C48.4492 13.2918 48.4714 13.2253 48.5833 13.2253H48.7406C48.8303 13.2253 48.8747 13.2475 48.8747 13.3592L48.8979 13.6723C49.1217 13.4931 49.3687 13.3592 49.5925 13.2696C49.8164 13.1801 50.0412 13.1357 50.2872 13.1357C50.7812 13.1357 51.1623 13.3149 51.4537 13.6723C51.7451 14.0075 51.9014 14.5219 51.9014 15.1037C51.9014 15.7299 51.7451 16.2212 51.4537 16.6017C51.1391 16.9812 50.758 17.1604 50.2206 17.1604C49.7498 17.1604 49.3455 16.9812 48.9422 16.6238V18.5022C48.9422 18.5687 48.9201 18.6361 48.8081 18.6361H48.5833V18.6583ZM50.1531 16.7808C50.5564 16.7808 50.87 16.646 51.0948 16.3782C51.3186 16.0873 51.4083 15.6846 51.4083 15.1481C51.4083 14.075 51.005 13.5606 50.1753 13.5606C49.772 13.5606 49.3234 13.7176 48.9201 14.0528V16.2664C49.1439 16.4446 49.3234 16.5795 49.525 16.6681C49.7267 16.7134 49.9515 16.7808 50.1531 16.7808Z" fill="#1C2024"/>
<path d="M53.7441 17.1604C53.4084 17.1604 53.116 17.0708 52.8922 16.8473C52.6683 16.6681 52.5786 16.3782 52.5786 16.043C52.5786 15.6625 52.7127 15.3937 52.9597 15.1702C53.2058 14.9467 53.5647 14.8571 53.9911 14.8571C54.3269 14.8571 54.6858 14.9246 55.0891 15.0363V14.4102C55.0891 14.0971 55.0225 13.8736 54.8652 13.7619C54.708 13.628 54.4841 13.5827 54.1474 13.5827C53.8116 13.5827 53.4305 13.6501 53.0494 13.7619C53.0272 13.7619 52.9597 13.784 52.9144 13.784C52.8478 13.784 52.8478 13.7619 52.8478 13.6945V13.5384C52.8478 13.5162 52.8478 13.471 52.87 13.4488C52.8922 13.4267 52.8922 13.4267 52.9375 13.3814C53.3408 13.2253 53.7441 13.1357 54.215 13.1357C54.6636 13.1357 54.9994 13.2253 55.2242 13.4267C55.448 13.6049 55.5377 13.8958 55.5377 14.2763V16.959C55.5377 17.0265 55.5155 17.0939 55.4036 17.0939H55.2463C55.1788 17.0939 55.1122 17.0708 55.1122 16.959L55.0891 16.646C54.6858 17.0043 54.2149 17.1604 53.7441 17.1604ZM53.8117 16.7808C53.9911 16.7808 54.2149 16.7577 54.4388 16.646C54.6636 16.5564 54.8874 16.4678 55.1344 16.3107V15.3716C54.7977 15.282 54.4841 15.2376 54.1252 15.2376C53.4084 15.2376 53.0494 15.5286 53.0494 16.043C53.0494 16.2664 53.116 16.4447 53.2289 16.5795C53.363 16.7134 53.5647 16.7808 53.8117 16.7808Z" fill="#1C2024"/>
<path d="M56.8563 17.0961C56.7887 17.0961 56.7222 17.073 56.7222 16.9613V13.3614C56.7222 13.295 56.7444 13.2275 56.8563 13.2275H57.0135C57.1033 13.2275 57.1476 13.2497 57.1476 13.3614L57.1698 13.8084C57.3493 13.5849 57.5509 13.4289 57.7304 13.3614C57.9099 13.2719 58.1347 13.2275 58.3585 13.2275C58.4482 13.2275 58.5158 13.2275 58.538 13.2275C58.6045 13.2275 58.6721 13.2497 58.6721 13.3614V13.5406C58.6721 13.5628 58.6721 13.5628 58.6499 13.6071C58.6499 13.6302 58.6277 13.6302 58.5823 13.6302C58.5602 13.6302 58.4926 13.6302 58.4482 13.6302C58.426 13.6302 58.3585 13.6302 58.291 13.6302C58.0671 13.6302 57.8423 13.6524 57.6638 13.7641C57.4844 13.8537 57.3271 13.9876 57.1255 14.1668V16.9613C57.1255 17.0287 57.1033 17.0961 56.9904 17.0961H56.8563Z" fill="#1C2024"/>
<path d="M60.6656 17.1386C60.351 17.1386 60.1272 17.049 59.9699 16.893C59.8136 16.736 59.7239 16.5125 59.7239 16.1994V13.6727H59.118C59.0514 13.6727 58.9839 13.6505 58.9839 13.5388V13.4714C58.9839 13.4492 58.9839 13.4049 59.0061 13.3818C59.0061 13.3596 59.0283 13.3596 59.0958 13.3596L59.7239 13.2932L59.7905 12.2865C59.7905 12.2644 59.8136 12.2191 59.8136 12.197C59.8358 12.1748 59.8358 12.1748 59.9034 12.1748H60.0375C60.105 12.1748 60.1716 12.197 60.1716 12.3087V13.3153H61.2705C61.3381 13.3153 61.4046 13.3375 61.4046 13.4492V13.6062C61.4046 13.6727 61.3824 13.7401 61.2705 13.7401H60.1716V16.2668C60.1716 16.4903 60.1947 16.6021 60.3067 16.7138C60.3964 16.8034 60.5527 16.8477 60.7553 16.8477C60.9116 16.8477 61.0467 16.8477 61.1364 16.8256C61.203 16.8256 61.2252 16.8034 61.2705 16.8034C61.2927 16.8034 61.3381 16.8034 61.3381 16.8034C61.4046 16.8034 61.4278 16.8256 61.4278 16.893V17.0269C61.4278 17.1165 61.4046 17.1608 61.3381 17.1829C61.1364 17.0943 60.9338 17.1386 60.6656 17.1386Z" fill="#1C2024"/>
<path d="M62.368 17.0926C62.3004 17.0926 62.2329 17.0695 62.2329 16.9578V13.3579C62.2329 13.2915 62.2561 13.224 62.368 13.224H62.5253C62.614 13.224 62.6594 13.2462 62.6594 13.3579L62.6816 13.671C62.9286 13.4918 63.1746 13.3579 63.466 13.2684C63.7583 13.1788 64.0043 13.1123 64.2513 13.1123C64.6324 13.1123 64.9016 13.2019 65.1033 13.4032C65.2827 13.5814 65.3946 13.8723 65.3946 14.275V16.9356C65.3946 17.003 65.3725 17.0695 65.2596 17.0695H65.0357C64.9682 17.0695 64.9016 17.0474 64.9016 16.9356V14.4985C64.9016 14.1632 64.8341 13.9398 64.7222 13.7828C64.5871 13.6267 64.3854 13.5593 64.1163 13.5593C63.6232 13.5593 63.108 13.7163 62.6372 14.0515V17.003C62.6372 17.0695 62.614 17.1369 62.5021 17.1369H62.3458V17.0926H62.368Z" fill="#1C2024"/>
<path d="M68.1996 17.1825C67.5946 17.1825 67.1238 17.0265 66.8546 16.6913C66.5401 16.356 66.3838 15.8416 66.3838 15.1481C66.3838 14.5219 66.5401 14.0297 66.8546 13.6723C67.1682 13.3371 67.6168 13.1357 68.132 13.1357C68.6029 13.1357 68.9396 13.2696 69.2088 13.5384C69.4548 13.784 69.5899 14.1645 69.5899 14.6558C69.5899 14.835 69.5899 14.992 69.5667 15.1259C69.5667 15.1924 69.5002 15.2598 69.4326 15.2598H66.8546C66.8546 15.7963 66.9887 16.199 67.1904 16.4447C67.4152 16.6913 67.7963 16.8251 68.2671 16.8251C68.6482 16.8251 68.984 16.7577 69.2985 16.646C69.3651 16.6238 69.4326 16.6238 69.4326 16.6238C69.4548 16.6238 69.4548 16.6238 69.5002 16.646C69.5002 16.6681 69.5224 16.6681 69.5224 16.7134V16.8473C69.5224 16.9369 69.5002 16.9812 69.4326 17.0043C69.0293 17.0939 68.6482 17.1825 68.1996 17.1825ZM69.1412 14.9024C69.1412 14.835 69.1412 14.7454 69.1412 14.6558C69.1412 14.2763 69.0515 14.0297 68.8942 13.8515C68.7148 13.6723 68.4466 13.5606 68.1098 13.5606C67.3023 13.5606 66.8768 14.0075 66.8324 14.9024H69.1412Z" fill="#1C2024"/>
<path d="M70.619 17.0961C70.5514 17.0961 70.4849 17.073 70.4849 16.9613V13.3614C70.4849 13.295 70.507 13.2275 70.619 13.2275H70.7762C70.866 13.2275 70.9103 13.2497 70.9103 13.3614L70.9325 13.8084C71.112 13.5849 71.3136 13.4289 71.4931 13.3614C71.6726 13.2719 71.8974 13.2275 72.1212 13.2275C72.2109 13.2275 72.2785 13.2275 72.3007 13.2275C72.3682 13.2275 72.4348 13.2497 72.4348 13.3614V13.5406C72.4348 13.5628 72.4348 13.5628 72.4126 13.6071C72.4126 13.6302 72.3904 13.6302 72.345 13.6302C72.3007 13.6302 72.2553 13.6302 72.2109 13.6302C72.1887 13.6302 72.1212 13.6302 72.0537 13.6302C71.8298 13.6302 71.606 13.6524 71.4265 13.7641C71.2471 13.8537 71.0898 13.9876 70.8882 14.1668V16.9613C70.8882 17.0287 70.866 17.0961 70.754 17.0961H70.619Z" fill="#1C2024"/>
<path d="M48.5833 25.5216C48.5168 25.5216 48.4492 25.4995 48.4492 25.3877V21.8101C48.4492 21.7436 48.4714 21.6762 48.5833 21.6762H48.7406C48.8303 21.6762 48.8747 21.6984 48.8747 21.8101L48.8979 22.1232C49.1439 21.944 49.3909 21.8101 49.6823 21.7205C49.9736 21.6309 50.2206 21.5645 50.4667 21.5645C50.8478 21.5645 51.117 21.654 51.3186 21.8554C51.4981 22.0336 51.61 22.3245 51.61 22.7271V25.3877C51.61 25.4552 51.5878 25.5216 51.4759 25.5216H51.2511C51.1845 25.5216 51.117 25.4995 51.117 25.3877V22.9063C51.117 22.5701 51.0494 22.3466 50.9375 22.1906C50.8034 22.0336 50.6018 21.9671 50.3326 21.9671C49.8395 21.9671 49.3233 22.1232 48.8525 22.4584V25.4099C48.8525 25.4773 48.8303 25.5448 48.7184 25.5448H48.5612V25.5216H48.5833Z" fill="#1C2024"/>
<path d="M54.4301 25.6347C53.8241 25.6347 53.3543 25.4786 53.0851 25.1434C52.7706 24.8082 52.6143 24.2938 52.6143 23.6002C52.6143 22.9741 52.7706 22.4828 53.0851 22.1244C53.3987 21.7892 53.8473 21.5879 54.3625 21.5879C54.8333 21.5879 55.1701 21.7218 55.4393 21.9905C55.6853 22.2362 55.8204 22.6167 55.8204 23.1089C55.8204 23.2871 55.8204 23.4442 55.7972 23.5781C55.7972 23.6455 55.7306 23.7119 55.6631 23.7119H53.0851C53.0851 24.2485 53.2192 24.6511 53.4208 24.8968C53.6457 25.1434 54.0268 25.2773 54.4976 25.2773C54.8787 25.2773 55.2145 25.2099 55.528 25.0981C55.5956 25.076 55.6631 25.076 55.6631 25.076C55.6853 25.076 55.6853 25.076 55.7306 25.0981C55.7306 25.1212 55.7528 25.1212 55.7528 25.1656V25.2995C55.7528 25.389 55.7306 25.4343 55.6631 25.4565C55.282 25.5461 54.8555 25.6347 54.4301 25.6347ZM55.3717 23.3324C55.3717 23.265 55.3717 23.1754 55.3717 23.0858C55.3717 22.7063 55.282 22.4597 55.1247 22.2815C54.9453 22.1023 54.6761 21.9905 54.3403 21.9905C53.5328 21.9905 53.1073 22.4375 53.0619 23.3324H55.3717Z" fill="#1C2024"/>
<path d="M57.9532 25.5902C57.6386 25.5902 57.4148 25.5006 57.2575 25.3445C57.1012 25.1875 57.0115 24.964 57.0115 24.651V22.0799H56.4056C56.339 22.0799 56.2715 22.0578 56.2715 21.946V21.8786C56.2715 21.8565 56.2715 21.8112 56.2937 21.789C56.2937 21.7669 56.3159 21.7669 56.3834 21.7669L57.0115 21.6994L57.0781 20.6938C57.0781 20.6716 57.1012 20.6263 57.1012 20.6042C57.1234 20.582 57.1234 20.582 57.19 20.582H57.3251C57.3926 20.582 57.4592 20.6042 57.4592 20.7159V21.7226H58.5581C58.6257 21.7226 58.6922 21.7447 58.6922 21.8565V22.0125C58.6922 22.0799 58.67 22.1474 58.5581 22.1474H57.4823V24.6741C57.4823 24.8976 57.5045 25.0093 57.6164 25.121C57.7284 25.2328 57.8635 25.2549 58.0651 25.2549C58.2214 25.2549 58.3565 25.255 58.4462 25.2328C58.5128 25.2328 58.5359 25.2106 58.5803 25.2106C58.6025 25.2106 58.6478 25.2106 58.6478 25.2106C58.7154 25.2106 58.7376 25.2328 58.7376 25.2993V25.4341C58.7376 25.5237 58.7154 25.568 58.6478 25.5902C58.424 25.5459 58.1992 25.5902 57.9532 25.5902Z" fill="#1C2024"/>
<path d="M60.4228 25.5239C60.3553 25.5239 60.2887 25.5017 60.2656 25.4352L59.0779 21.9019C59.0557 21.8345 59.0557 21.8123 59.0557 21.768C59.0557 21.7227 59.0779 21.7006 59.1454 21.7006H59.3914C59.459 21.7006 59.4812 21.7227 59.5265 21.7901L60.5569 25.0104L61.4764 21.7901C61.4986 21.7227 61.5439 21.7006 61.6337 21.7006H61.925C61.9926 21.7006 62.0592 21.7227 62.0823 21.7901L63.0008 25.0104L64.0776 21.7458C64.0998 21.6784 64.1441 21.6562 64.2117 21.6562H64.4355C64.5031 21.6562 64.5253 21.6784 64.5253 21.7227C64.5253 21.7458 64.5252 21.7901 64.5031 21.8576L63.2478 25.39C63.2256 25.4574 63.1803 25.4795 63.0906 25.4795H62.8445C62.777 25.4795 62.7095 25.4574 62.6873 25.39L61.7678 22.1706L60.8493 25.39C60.8261 25.4574 60.7817 25.4795 60.692 25.4795H60.4682V25.5239H60.4228Z" fill="#1C2024"/>
<path d="M66.7462 25.6334C66.1857 25.6334 65.738 25.4552 65.4235 25.0968C65.1099 24.7616 64.9526 24.2472 64.9526 23.5989C64.9526 22.9728 65.1099 22.4815 65.4235 22.101C65.738 21.7658 66.1857 21.5645 66.7462 21.5645C67.3068 21.5645 67.7554 21.7436 68.069 22.101C68.3835 22.4362 68.5399 22.9506 68.5399 23.5989C68.5399 24.2251 68.3835 24.7173 68.069 25.0968C67.7333 25.4552 67.3068 25.6334 66.7462 25.6334ZM66.7462 25.2317C67.6213 25.2317 68.069 24.6951 68.069 23.5989C68.069 22.5037 67.6213 21.9671 66.7462 21.9671C65.8721 21.9671 65.4235 22.5037 65.4235 23.5989C65.4235 24.6951 65.8499 25.2317 66.7462 25.2317Z" fill="#1C2024"/>
<path d="M69.6107 25.5232C69.5431 25.5232 69.4756 25.501 69.4756 25.3893V21.8116C69.4756 21.7452 69.4987 21.6777 69.6107 21.6777H69.767C69.8567 21.6777 69.902 21.6999 69.902 21.8116L69.9242 22.2586C70.1037 22.0351 70.3053 21.8791 70.4848 21.8116C70.6643 21.7221 70.8881 21.6777 71.1129 21.6777C71.2026 21.6777 71.2692 21.6777 71.2914 21.6777C71.3589 21.6777 71.4265 21.6999 71.4265 21.8116V21.9908C71.4265 22.013 71.4265 22.013 71.4043 22.0582C71.3811 22.0804 71.3811 22.0804 71.3367 22.0804C71.3145 22.0804 71.247 22.0804 71.2026 22.0804C71.1795 22.0804 71.1129 22.0804 71.0454 22.0804C70.8215 22.0804 70.5967 22.1026 70.4173 22.2143C70.2378 22.3039 70.0815 22.4378 69.8799 22.6169V25.4115C69.8799 25.4789 69.8567 25.5463 69.7448 25.5463H69.5885V25.5232H69.6107Z" fill="#1C2024"/>
<path d="M72.2362 25.5236C72.1696 25.5236 72.1021 25.5015 72.1021 25.3897V20.0011C72.1021 19.9337 72.1242 19.8672 72.2362 19.8672H72.461C72.5285 19.8672 72.5951 19.8894 72.5951 20.0011V23.3996L74.4109 21.7678C74.4784 21.7003 74.546 21.7003 74.5903 21.7003H74.8817C74.9493 21.7003 74.9714 21.7225 74.9714 21.7678C74.9714 21.8121 74.9493 21.8342 74.8817 21.9017L73.0215 23.5344L75.039 25.3897C75.0612 25.4119 75.1065 25.4572 75.1065 25.4793C75.1065 25.5467 75.0843 25.5468 75.0168 25.5468H74.7023C74.6357 25.5468 74.5681 25.5236 74.546 25.4793L72.5951 23.6683V25.4119C72.5951 25.4793 72.5729 25.5468 72.461 25.5468H72.2362V25.5236Z" fill="#1C2024"/>
<path d="M13.8469 35.2069C13.4209 35.0498 13.107 34.8495 12.9277 34.625C12.7483 34.4015 12.6587 34.1116 12.6587 33.7533C12.6587 33.3063 12.8156 32.9489 13.1519 32.6802C13.4882 32.4114 13.9366 32.2775 14.4971 32.2775C14.9678 32.2775 15.4163 32.3671 15.8646 32.5463V33.3506C15.3938 33.2167 14.9678 33.1271 14.5643 33.1271C14.0038 33.1271 13.7124 33.3063 13.7124 33.6637C13.7124 33.7985 13.7572 33.9103 13.8469 33.9989C13.9366 34.0885 14.1383 34.1781 14.4073 34.2677L14.9454 34.469C15.3938 34.625 15.7076 34.8264 15.887 35.0277C16.0663 35.2512 16.1785 35.5199 16.1785 35.8773C16.1785 36.3696 15.9991 36.7501 15.6404 37.04C15.2817 37.3309 14.8109 37.4648 14.1832 37.4648C13.9141 37.4648 13.6451 37.4427 13.376 37.3984C13.107 37.3531 12.8828 37.2866 12.6811 37.197V36.3696C12.9277 36.437 13.1743 36.5035 13.4434 36.5487C13.7124 36.593 13.959 36.6152 14.1832 36.6152C14.4746 36.6152 14.6764 36.5709 14.8333 36.4591C14.9903 36.3474 15.0575 36.2125 15.0575 36.0122C15.0575 35.8552 15.0127 35.7434 14.923 35.6538C14.8333 35.5642 14.6316 35.4747 14.3625 35.3629L13.8469 35.2069ZM17.7925 35.8108C17.8147 36.1239 17.9044 36.3474 18.0839 36.5035C18.2633 36.6374 18.5325 36.7048 18.8914 36.7048C19.205 36.7048 19.5861 36.6373 20.0126 36.5256V37.2192C19.8553 37.3088 19.6537 37.3752 19.4067 37.4205C19.1828 37.4648 18.9358 37.4879 18.6898 37.4879C18.0839 37.4879 17.6131 37.3309 17.2994 36.9957C16.9855 36.6605 16.8287 36.1904 16.8287 35.5421C16.8287 34.9381 16.9855 34.469 17.2994 34.1116C17.6131 33.7754 18.0617 33.5972 18.6223 33.5972C19.0931 33.5972 19.452 33.7311 19.7202 33.9989C19.9672 34.2677 20.1013 34.625 20.1013 35.1173C20.1013 35.229 20.1013 35.3408 20.0791 35.4747C20.057 35.6095 20.057 35.7213 20.0348 35.8108H17.7925ZM18.5547 34.3351C18.3087 34.3351 18.1292 34.4016 17.9942 34.5364C17.8601 34.6703 17.7925 34.8716 17.7703 35.1394H19.1828V35.0277C19.1828 34.5586 18.9812 34.3351 18.5547 34.3351ZM22.5009 37.3088C22.2992 37.3984 22.0744 37.4205 21.8506 37.4205C21.2003 37.4205 20.8867 37.0631 20.8867 36.3474V32.0762H21.9403V36.2578C21.9403 36.3917 21.9625 36.4813 22.0078 36.5487C22.0522 36.593 22.1197 36.6373 22.2317 36.6373C22.2992 36.6373 22.3889 36.6374 22.5009 36.6152V37.3088ZM24.0031 35.8108C24.0253 36.1239 24.115 36.3474 24.2945 36.5035C24.4739 36.6374 24.7421 36.7048 25.1011 36.7048C25.4156 36.7048 25.7967 36.6373 26.2222 36.5256V37.2192C26.0649 37.3088 25.8633 37.3752 25.6172 37.4205C25.3924 37.4648 25.1464 37.4879 24.8994 37.4879C24.2945 37.4879 23.8236 37.3309 23.5091 36.9957C23.1955 36.6605 23.0383 36.1904 23.0383 35.5421C23.0383 34.9381 23.1955 34.469 23.5091 34.1116C23.8236 33.7754 24.2713 33.5972 24.8319 33.5972C25.3027 33.5972 25.6616 33.7311 25.9308 33.9989C26.1778 34.2677 26.3119 34.625 26.3119 35.1173C26.3119 35.229 26.3119 35.3408 26.2897 35.4747C26.2675 35.6095 26.2675 35.7213 26.2444 35.8108H24.0031ZM24.7875 34.3351C24.5405 34.3351 24.361 34.4016 24.2269 34.5364C24.0928 34.6703 24.0253 34.8716 24.0031 35.1394H25.4156V35.0277C25.3924 34.5586 25.1908 34.3351 24.7875 34.3351ZM29.7418 37.2192C29.6077 37.2866 29.4505 37.3531 29.271 37.3984C29.0916 37.4427 28.8899 37.4648 28.7105 37.4648C28.1277 37.4648 27.6791 37.3088 27.3655 36.9735C27.0519 36.6373 26.8947 36.1682 26.8947 35.5642C26.8947 34.9612 27.0519 34.4911 27.3877 34.1559C27.7244 33.8207 28.173 33.6415 28.7336 33.6415C29.0916 33.6415 29.4061 33.709 29.6975 33.865V34.5586C29.4061 34.469 29.1591 34.4468 28.9121 34.4468C28.5763 34.4468 28.3293 34.5364 28.173 34.6925C28.0158 34.8716 27.9482 35.1394 27.9482 35.4978V35.6095C27.9482 35.9669 28.0158 36.2357 28.173 36.4139C28.3293 36.593 28.5763 36.6605 28.8899 36.6605C29.1147 36.6605 29.4061 36.6152 29.6975 36.5256V37.2192H29.7418ZM32.6566 37.2866C32.3874 37.3752 32.1182 37.4427 31.7825 37.4427C31.3782 37.4427 31.0646 37.3531 30.8852 37.1517C30.6835 36.9504 30.5938 36.6605 30.5938 36.2578V34.4911H30.0332V33.8428L30.616 33.7311L30.7732 32.7245H31.6252V33.709H32.6112V34.4911H31.6252V36.2125C31.6252 36.3696 31.6705 36.4813 31.7371 36.5487C31.8046 36.6152 31.9388 36.6373 32.1182 36.6373C32.2755 36.6373 32.4327 36.6152 32.6344 36.593V37.2866H32.6566Z" fill="#1C2024"/>
<path d="M35.2773 36.8936C35.2349 36.8936 35.2167 36.8761 35.2167 36.8355V34.3676H34.3325C34.2901 34.3676 34.272 34.3501 34.272 34.3093V34.2165C34.272 34.1759 34.2901 34.1584 34.3325 34.1584H36.3433C36.3855 34.1584 36.4037 34.1759 36.4037 34.2165V34.3093C36.4037 34.3501 36.3855 34.3676 36.3433 34.3676H35.459V36.8355C35.459 36.8761 35.4408 36.8936 35.3984 36.8936H35.2773ZM37.6756 36.9516C37.3485 36.9516 37.1061 36.8646 36.9367 36.6844C36.773 36.5046 36.6883 36.2431 36.6883 35.8946C36.6883 35.5637 36.773 35.3082 36.9367 35.1223C37.1061 34.9365 37.3362 34.8494 37.6331 34.8494C37.8815 34.8494 38.0751 34.9192 38.2083 35.0528C38.3417 35.1921 38.4082 35.3838 38.4082 35.6392C38.4082 35.7438 38.4022 35.8251 38.39 35.8774C38.384 35.9179 38.3597 35.9354 38.3175 35.9354H36.9245C36.9245 36.2141 36.9912 36.4173 37.1124 36.5451C37.2333 36.6787 37.4272 36.7425 37.6876 36.7425C37.8875 36.7425 38.0751 36.7077 38.2508 36.6439C38.287 36.6321 38.3112 36.6264 38.3235 36.6264C38.3355 36.6264 38.3417 36.6321 38.3537 36.6379C38.3597 36.6497 38.366 36.6554 38.366 36.6729V36.731C38.366 36.7715 38.3537 36.8005 38.3175 36.8123C38.1296 36.9051 37.9117 36.9516 37.6756 36.9516ZM38.1841 35.7553C38.1841 35.7205 38.1903 35.674 38.1903 35.6277C38.1903 35.4361 38.1418 35.2967 38.0449 35.1979C37.9479 35.0991 37.8088 35.0528 37.6208 35.0528C37.1848 35.0528 36.9547 35.2907 36.9305 35.761H38.1841V35.7553ZM39.795 36.9399C39.4801 36.9399 39.238 36.8528 39.0684 36.6787C38.9049 36.5046 38.82 36.2431 38.82 35.9064C38.82 35.5694 38.9049 35.314 39.0684 35.1341C39.238 34.954 39.4801 34.8669 39.795 34.8669C39.9464 34.8669 40.0918 34.8902 40.225 34.9425C40.2552 34.954 40.2735 34.983 40.2735 35.0238V35.0818C40.2735 35.1166 40.2552 35.1341 40.225 35.1341C40.219 35.1341 40.2068 35.1341 40.1948 35.1281C40.1825 35.1224 40.1645 35.1223 40.1343 35.1166C40.0251 35.0933 39.9162 35.0758 39.8072 35.0758C39.5469 35.0758 39.359 35.1399 39.244 35.2674C39.1288 35.3953 39.0684 35.5987 39.0684 35.8831V35.9297C39.0684 36.2026 39.1288 36.4057 39.244 36.5336C39.359 36.6612 39.5469 36.731 39.8012 36.731C39.9102 36.731 40.0251 36.7135 40.1586 36.6787C40.1888 36.6729 40.2068 36.6672 40.219 36.6612C40.231 36.6554 40.2433 36.6554 40.2493 36.6554C40.2795 36.6554 40.2977 36.6729 40.2977 36.7077V36.7657C40.2977 36.8065 40.2855 36.8355 40.2552 36.8471C40.1161 36.9051 39.9587 36.9399 39.795 36.9399ZM40.8549 36.8936C40.8125 36.8936 40.7942 36.8761 40.7942 36.8355V34.0306C40.7942 33.9901 40.8125 33.9725 40.8549 33.9725H40.9639C41.0064 33.9725 41.0244 33.9901 41.0244 34.0306V35.1341C41.1578 35.0468 41.297 34.9772 41.4484 34.925C41.5938 34.8727 41.739 34.8494 41.8784 34.8494C42.0781 34.8494 42.2295 34.9017 42.3387 35.0005C42.4476 35.0991 42.4961 35.2502 42.4961 35.4476V36.8355C42.4961 36.8761 42.4779 36.8936 42.4354 36.8936H42.3264C42.2842 36.8936 42.266 36.8761 42.266 36.8355V35.5464C42.266 35.3778 42.2295 35.2502 42.163 35.1746C42.0963 35.0991 41.9874 35.0586 41.8359 35.0586C41.5633 35.0586 41.297 35.1399 41.0366 35.3082V36.8355C41.0366 36.8761 41.0184 36.8936 40.9759 36.8936H40.8549ZM43.1925 36.8936C43.15 36.8936 43.132 36.8761 43.132 36.8355V34.9655C43.132 34.925 43.15 34.9074 43.1925 34.9074H43.2772C43.3197 34.9074 43.3439 34.925 43.3499 34.9655L43.3682 35.1341C43.5013 35.041 43.6468 34.9715 43.7919 34.9192C43.9374 34.8669 44.0828 34.8437 44.222 34.8437C44.4219 34.8437 44.5733 34.8959 44.6822 34.9945C44.7912 35.0933 44.8396 35.2444 44.8396 35.4418V36.8355C44.8396 36.8761 44.8217 36.8936 44.7792 36.8936H44.6702C44.6278 36.8936 44.6095 36.8761 44.6095 36.8355V35.5464C44.6095 35.3778 44.5733 35.2502 44.5066 35.1746C44.4401 35.0991 44.3309 35.0586 44.1797 35.0586C43.9071 35.0586 43.6408 35.1399 43.3801 35.3082V36.8355C43.3801 36.8761 43.3622 36.8936 43.3197 36.8936H43.1925ZM46.3174 36.9516C46.0145 36.9516 45.7784 36.8588 45.615 36.6729C45.4453 36.487 45.3666 36.2256 45.3666 35.8946C45.3666 35.5637 45.4513 35.3082 45.615 35.1223C45.7844 34.9365 46.0205 34.8437 46.3174 34.8437C46.6202 34.8437 46.8564 34.9365 47.0198 35.1223C47.1894 35.3082 47.2741 35.5637 47.2741 35.8946C47.2741 36.2256 47.1894 36.487 47.0198 36.6729C46.8564 36.8588 46.6202 36.9516 46.3174 36.9516ZM46.3174 36.7482C46.7896 36.7482 47.032 36.4638 47.032 35.9006C47.032 35.3372 46.7959 35.0586 46.3174 35.0586C45.8451 35.0586 45.6027 35.3372 45.6027 35.9006C45.6027 36.4638 45.8389 36.7482 46.3174 36.7482ZM48.1584 36.9051C48.0495 36.9051 47.9645 36.8761 47.9041 36.8123C47.8436 36.7485 47.8131 36.6672 47.8131 36.5508V34.0248C47.8131 33.9843 47.8314 33.9668 47.8738 33.9668H47.9828C48.0253 33.9668 48.0432 33.9843 48.0432 34.0248V36.5451C48.0432 36.6031 48.0555 36.6439 48.0797 36.6672C48.104 36.6902 48.1462 36.7019 48.2069 36.7019C48.2252 36.7019 48.2431 36.7019 48.2614 36.6962C48.2796 36.6962 48.2976 36.6902 48.3099 36.6902C48.3461 36.6902 48.3703 36.7077 48.3703 36.7482V36.8238C48.3703 36.8588 48.3523 36.8761 48.3159 36.8818C48.2674 36.8993 48.2189 36.9051 48.1584 36.9051ZM49.6847 36.9516C49.3818 36.9516 49.1454 36.8588 48.982 36.6729C48.8123 36.487 48.7336 36.2256 48.7336 35.8946C48.7336 35.5637 48.8186 35.3082 48.982 35.1223C49.1517 34.9365 49.3878 34.8437 49.6847 34.8437C49.9872 34.8437 50.2236 34.9365 50.387 35.1223C50.5567 35.3082 50.6414 35.5637 50.6414 35.8946C50.6414 36.2256 50.5567 36.487 50.387 36.6729C50.2236 36.8588 49.9872 36.9516 49.6847 36.9516ZM49.6847 36.7482C50.1569 36.7482 50.399 36.4638 50.399 35.9006C50.399 35.3372 50.1629 35.0586 49.6847 35.0586C49.2121 35.0586 48.97 35.3372 48.97 35.9006C48.976 36.4638 49.2121 36.7482 49.6847 36.7482ZM51.907 37.7529C51.7921 37.7529 51.6769 37.7414 51.5679 37.7182C51.459 37.6949 51.362 37.6659 51.2773 37.6253C51.2471 37.6136 51.2289 37.5846 51.2289 37.544V37.4857C51.2289 37.451 51.2409 37.4337 51.2773 37.4337C51.2833 37.4337 51.2953 37.4337 51.3016 37.4395C51.3136 37.4395 51.3318 37.4452 51.3561 37.4567C51.5497 37.5148 51.7313 37.5498 51.889 37.5498C52.1434 37.5498 52.331 37.4917 52.4522 37.3697C52.5732 37.2478 52.6339 37.0562 52.6339 36.7948V36.6031C52.5309 36.6844 52.4217 36.7482 52.2946 36.7948C52.1736 36.8413 52.0524 36.8646 51.9435 36.8646C51.6769 36.8646 51.471 36.7715 51.3076 36.5916C51.1502 36.4115 51.0714 36.1736 51.0714 35.8774C51.0714 35.5579 51.1502 35.3082 51.3076 35.1223C51.465 34.9365 51.6831 34.8437 51.9555 34.8437C52.2158 34.8437 52.44 34.9307 52.6399 35.1051L52.6581 34.9597C52.6641 34.9192 52.6884 34.9017 52.7306 34.9017H52.8155C52.8578 34.9017 52.876 34.9192 52.876 34.9597V36.7948C52.876 37.1025 52.7913 37.3406 52.6276 37.5033C52.4642 37.6659 52.2159 37.7529 51.907 37.7529ZM51.998 36.6612C52.2039 36.6612 52.4158 36.5799 52.6339 36.4115V35.314C52.5187 35.2269 52.4158 35.1571 52.3068 35.1166C52.2039 35.0758 52.0887 35.0528 51.9737 35.0528C51.7556 35.0528 51.5862 35.1224 51.4772 35.2559C51.368 35.3953 51.3136 35.5927 51.3136 35.8656C51.3136 36.1213 51.3743 36.3187 51.4892 36.458C51.6044 36.5974 51.7738 36.6612 51.998 36.6612ZM53.5847 37.7529C53.5179 37.7529 53.4575 37.7414 53.397 37.7239C53.3545 37.7124 53.3363 37.6891 53.3363 37.6426V37.5846C53.3363 37.5498 53.3545 37.5323 53.3848 37.5323C53.403 37.5323 53.415 37.5323 53.4272 37.538C53.4392 37.538 53.4575 37.544 53.4817 37.544C53.5059 37.544 53.5302 37.544 53.5664 37.544C53.6574 37.544 53.7301 37.5208 53.7846 37.4742C53.839 37.4277 53.8875 37.3464 53.936 37.2303L54.0751 36.8993L53.2636 34.9888C53.2516 34.9655 53.2456 34.9482 53.2456 34.9365C53.2456 34.9074 53.2636 34.8902 53.2938 34.8902H53.4272C53.4635 34.8902 53.4877 34.9074 53.5 34.9425L54.1901 36.6379L54.8867 34.9425C54.8987 34.9074 54.923 34.8902 54.9594 34.8902H55.0804C55.1106 34.8902 55.1289 34.9017 55.1289 34.9365C55.1289 34.9425 55.1229 34.9597 55.1106 34.9888L54.1419 37.3001C54.0751 37.4627 53.9964 37.5731 53.9117 37.6426C53.8268 37.7239 53.7178 37.7529 53.5847 37.7529Z" fill="#1C2024"/>
<path d="M57.1002 37.6743C57.0461 37.6743 57.0229 37.6509 57.0229 37.5956V34.0455C57.0229 33.9905 57.0461 33.9668 57.1002 33.9668H58.2745C58.6066 33.9668 58.8693 34.0692 59.0704 34.2659C59.2712 34.4629 59.364 34.7305 59.364 35.0689C59.364 35.3995 59.2636 35.6671 59.0704 35.8638C58.8693 36.0608 58.6066 36.1629 58.2745 36.1629H57.3242V37.5956C57.3242 37.6509 57.3011 37.6743 57.247 37.6743H57.1002ZM58.2668 35.8797C58.7845 35.8797 59.0471 35.6121 59.0471 35.0689C59.0471 34.5256 58.7845 34.2503 58.2668 34.2503H57.3242V35.8797H58.2668ZM60.654 37.7373C60.4146 37.7373 60.2215 37.6665 60.0745 37.5247C59.9355 37.383 59.8584 37.1941 59.8584 36.9581C59.8584 36.6983 59.9432 36.4935 60.1211 36.3439C60.2986 36.1944 60.5383 36.1157 60.8396 36.1157C61.0713 36.1157 61.3263 36.1551 61.589 36.2419V35.7932C61.589 35.5728 61.5348 35.4233 61.4344 35.3287C61.334 35.234 61.1641 35.1869 60.9323 35.1869C60.6926 35.1869 60.4376 35.234 60.1673 35.3209C60.1364 35.3287 60.1054 35.3365 60.0901 35.3365C60.0592 35.3365 60.0359 35.3131 60.0359 35.2656V35.1791C60.0359 35.1476 60.0436 35.132 60.0516 35.116C60.0592 35.1004 60.0825 35.0845 60.1054 35.0767C60.3837 34.9665 60.6773 34.9115 60.9862 34.9115C61.2954 34.9115 61.5195 34.9743 61.6738 35.1082C61.8284 35.2422 61.8979 35.4389 61.8979 35.7064V37.5956C61.8979 37.6509 61.8746 37.6743 61.8207 37.6743H61.7123C61.6585 37.6743 61.6352 37.6509 61.6275 37.5956L61.6043 37.3674C61.2954 37.6112 60.9785 37.7373 60.654 37.7373ZM60.6926 37.4538C60.8239 37.4538 60.9709 37.4304 61.1252 37.3752C61.2798 37.3202 61.4344 37.2416 61.5966 37.1391V36.4701C61.3649 36.407 61.1331 36.3755 60.9167 36.3755C60.4299 36.3755 60.1829 36.5644 60.1829 36.9503C60.1829 37.1154 60.2291 37.2416 60.3142 37.328C60.3914 37.4145 60.5227 37.4538 60.6926 37.4538ZM62.7786 37.6743C62.7244 37.6743 62.7015 37.6509 62.7015 37.5956V35.0611C62.7015 35.0058 62.7244 34.9824 62.7786 34.9824H62.879C62.9332 34.9824 62.9641 35.0058 62.9718 35.0611L62.9951 35.3758C63.1264 35.2262 63.2577 35.116 63.389 35.0611C63.5204 34.998 63.6594 34.9665 63.8216 34.9665C63.8758 34.9665 63.922 34.9665 63.9606 34.9743C64.0148 34.9743 64.0381 35.0058 64.0381 35.0611V35.1947C64.0381 35.2106 64.0301 35.2262 64.0224 35.234C64.0148 35.25 63.9992 35.25 63.9839 35.25C63.9529 35.25 63.9297 35.25 63.9067 35.25C63.8834 35.25 63.8449 35.25 63.7983 35.25C63.6361 35.25 63.4971 35.2815 63.3734 35.3442C63.2501 35.4073 63.1264 35.5019 63.018 35.6355V37.6034C63.018 37.6587 62.9951 37.6821 62.9409 37.6821H62.7786V37.6743ZM65.3204 37.7058C65.112 37.7058 64.9574 37.6509 64.849 37.5406C64.7409 37.4304 64.6871 37.265 64.6871 37.0523V35.2578H64.2698C64.2156 35.2578 64.1923 35.234 64.1923 35.1791V35.1242C64.1923 35.0926 64.2003 35.0767 64.208 35.0611C64.2156 35.0452 64.2389 35.0374 64.2698 35.0374L64.6947 34.998L64.7333 34.2896C64.7333 34.2581 64.7409 34.2425 64.7565 34.2266C64.7718 34.211 64.7875 34.211 64.8104 34.211H64.9032C64.9574 34.211 64.9806 34.2347 64.9806 34.2896V34.9902H65.7454C65.7995 34.9902 65.8225 35.014 65.8225 35.0689V35.1791C65.8225 35.234 65.7995 35.2578 65.7454 35.2578H64.9806V37.0367C64.9806 37.1863 65.0112 37.2887 65.0731 37.3436C65.1349 37.4067 65.2353 37.4382 65.3823 37.4382C65.4827 37.4382 65.5755 37.4304 65.6526 37.4145C65.6912 37.4067 65.7221 37.3989 65.7454 37.3989C65.7686 37.3911 65.7839 37.3911 65.7995 37.3911C65.8381 37.3911 65.8611 37.4145 65.8611 37.4538V37.5325C65.8611 37.5956 65.8458 37.6271 65.7995 37.6427C65.6602 37.6821 65.498 37.7058 65.3204 37.7058ZM66.4871 37.6743C66.4329 37.6743 66.4097 37.6509 66.4097 37.5956V35.0611C66.4097 35.0058 66.4329 34.9824 66.4871 34.9824H66.5952C66.6494 34.9824 66.6803 35.0058 66.6879 35.0611L66.7109 35.2893C66.8811 35.1635 67.0663 35.0689 67.2518 34.998C67.4374 34.9271 67.6226 34.8956 67.8004 34.8956C68.0555 34.8956 68.2486 34.9665 68.3876 35.1004C68.5266 35.234 68.5884 35.4389 68.5884 35.7064V37.5956C68.5884 37.6509 68.5651 37.6743 68.5113 37.6743H68.372C68.3181 37.6743 68.2948 37.6509 68.2948 37.5956V35.8482C68.2948 35.6199 68.2486 35.4467 68.1635 35.3442C68.0784 35.2422 67.9394 35.1869 67.7462 35.1869C67.3988 35.1869 67.0587 35.2971 66.7265 35.5253V37.5956C66.7265 37.6509 66.7032 37.6743 66.6494 37.6743H66.4871ZM70.5122 37.7529C70.0949 37.7529 69.786 37.6349 69.5696 37.3911C69.3611 37.1469 69.2527 36.7926 69.2527 36.3205C69.2527 35.8719 69.3611 35.5253 69.5696 35.2737C69.786 35.0218 70.0796 34.9038 70.458 34.9038C70.7748 34.9038 71.0219 34.998 71.1921 35.1791C71.362 35.368 71.4468 35.6277 71.4468 35.974C71.4468 36.1157 71.4391 36.2259 71.4238 36.2968C71.4162 36.3521 71.3853 36.3755 71.3311 36.3755H69.5543C69.5543 36.7532 69.6391 37.0289 69.7937 37.2019C69.9483 37.383 70.1953 37.4698 70.5275 37.4698C70.7825 37.4698 71.0219 37.4223 71.246 37.3358C71.2925 37.3202 71.3234 37.3121 71.3387 37.3121C71.3544 37.3121 71.362 37.3202 71.3773 37.328C71.3853 37.3436 71.3929 37.3514 71.3929 37.3752V37.4538C71.3929 37.5091 71.3773 37.5484 71.3311 37.564C71.0917 37.6902 70.8134 37.7529 70.5122 37.7529ZM71.1612 36.1317C71.1612 36.0842 71.1688 36.0214 71.1688 35.9584C71.1688 35.6986 71.107 35.5097 70.9833 35.3758C70.8596 35.2422 70.6821 35.1791 70.4427 35.1791C69.8864 35.1791 69.5929 35.5019 69.5619 36.1395H71.1612V36.1317ZM72.1962 37.6743C72.1423 37.6743 72.1191 37.6509 72.1191 37.5956V35.0611C72.1191 35.0058 72.1423 34.9824 72.1962 34.9824H72.2966C72.3508 34.9824 72.3817 35.0058 72.3894 35.0611L72.4126 35.3758C72.544 35.2262 72.6753 35.116 72.8066 35.0611C72.938 34.998 73.0769 34.9665 73.2392 34.9665C73.2934 34.9665 73.3396 34.9665 73.3785 34.9743C73.4324 34.9743 73.4556 35.0058 73.4556 35.0611V35.1947C73.4556 35.2106 73.448 35.2262 73.44 35.234C73.4324 35.25 73.4171 35.25 73.4015 35.25C73.3705 35.25 73.3476 35.25 73.3243 35.25C73.301 35.25 73.2625 35.25 73.2163 35.25C73.054 35.25 72.9147 35.2815 72.7913 35.3442C72.6677 35.4073 72.544 35.5019 72.4359 35.6355V37.6034C72.4359 37.6587 72.4126 37.6821 72.3585 37.6821H72.1962V37.6743Z" fill="#1C2024"/>
</svg>
