<svg width="350" height="83" viewBox="0 0 350 83" fill="none" xmlns="http://www.w3.org/2000/svg">
<path d="M162.023 82.5272C160.928 82.5272 159.863 82.3697 158.827 82.0546C157.807 81.7545 156.975 81.3194 156.329 80.7493L157.365 79.0839C157.92 79.564 158.602 79.9391 159.413 80.2092C160.223 80.4942 161.07 80.6368 161.956 80.6368C163.366 80.6368 164.401 80.3067 165.061 79.6466C165.721 78.9864 166.051 77.9812 166.051 76.6309V74.1104L166.277 71.7473L166.164 69.3618V66.0986H168.212V76.4059C168.212 78.5063 167.687 80.0516 166.637 81.0419C165.586 82.0321 164.049 82.5272 162.023 82.5272ZM161.753 77.5311C160.598 77.5311 159.563 77.291 158.647 76.8109C157.747 76.3158 157.027 75.6332 156.487 74.763C155.962 73.8928 155.699 72.8876 155.699 71.7473C155.699 70.5921 155.962 69.5869 156.487 68.7317C157.027 67.8615 157.747 67.1863 158.647 66.7062C159.563 66.2261 160.598 65.9861 161.753 65.9861C162.773 65.9861 163.703 66.1961 164.544 66.6162C165.384 67.0213 166.051 67.6514 166.547 68.5066C167.057 69.3618 167.312 70.4421 167.312 71.7473C167.312 73.0376 167.057 74.1104 166.547 74.9655C166.051 75.8207 165.384 76.4659 164.544 76.901C163.703 77.3211 162.773 77.5311 161.753 77.5311ZM162.001 75.6407C162.796 75.6407 163.501 75.4757 164.116 75.1456C164.731 74.8155 165.211 74.3579 165.556 73.7728C165.916 73.1877 166.096 72.5125 166.096 71.7473C166.096 70.9822 165.916 70.307 165.556 69.7219C165.211 69.1368 164.731 68.6867 164.116 68.3716C163.501 68.0415 162.796 67.8765 162.001 67.8765C161.205 67.8765 160.493 68.0415 159.863 68.3716C159.247 68.6867 158.76 69.1368 158.4 69.7219C158.055 70.307 157.882 70.9822 157.882 71.7473C157.882 72.5125 158.055 73.1877 158.4 73.7728C158.76 74.3579 159.247 74.8155 159.863 75.1456C160.493 75.4757 161.205 75.6407 162.001 75.6407Z" fill="white"/>
<path d="M147.852 65.9861C148.827 65.9861 149.683 66.1736 150.418 66.5487C151.168 66.9238 151.753 67.4939 152.173 68.2591C152.593 69.0242 152.803 69.992 152.803 71.1622V78.0262H150.643V71.4098C150.643 70.2545 150.358 69.3843 149.788 68.7992C149.233 68.2141 148.445 67.9215 147.425 67.9215C146.66 67.9215 145.992 68.0715 145.422 68.3716C144.852 68.6717 144.409 69.1143 144.094 69.6994C143.794 70.2845 143.644 71.0122 143.644 71.8824V78.0262H141.483V66.0986H143.554V69.3168L143.216 68.4616C143.606 67.6815 144.206 67.0738 145.017 66.6387C145.827 66.2036 146.772 65.9861 147.852 65.9861Z" fill="white"/>
<path d="M135.198 78.0262V66.0986H137.358V78.0262H135.198ZM136.278 63.8031C135.858 63.8031 135.506 63.6681 135.221 63.398C134.95 63.128 134.815 62.7979 134.815 62.4078C134.815 62.0027 134.95 61.6651 135.221 61.3951C135.506 61.125 135.858 60.99 136.278 60.99C136.698 60.99 137.043 61.125 137.313 61.3951C137.599 61.6501 137.741 61.9727 137.741 62.3628C137.741 62.7679 137.606 63.113 137.336 63.398C137.066 63.6681 136.713 63.8031 136.278 63.8031Z" fill="white"/>
<path d="M128.912 78.0263V61.3276H131.073V78.0263H128.912Z" fill="white"/>
<path d="M122.627 78.0263V61.3276H124.787V78.0263H122.627Z" fill="white"/>
<path d="M116.342 78.0262V66.0986H118.502V78.0262H116.342ZM117.422 63.8031C117.002 63.8031 116.649 63.6681 116.364 63.398C116.094 63.128 115.959 62.7979 115.959 62.4078C115.959 62.0027 116.094 61.6651 116.364 61.3951C116.649 61.125 117.002 60.99 117.422 60.99C117.842 60.99 118.187 61.125 118.457 61.3951C118.742 61.6501 118.885 61.9727 118.885 62.3628C118.885 62.7679 118.75 63.113 118.48 63.398C118.209 63.6681 117.857 63.8031 117.422 63.8031Z" fill="white"/>
<path d="M99.623 78.0261V62.2727H106.69C108.505 62.2727 109.9 62.6403 110.875 63.3754C111.851 64.0956 112.338 65.0858 112.338 66.3461C112.338 67.2013 112.143 67.9214 111.753 68.5066C111.378 69.0917 110.868 69.5418 110.223 69.8569C109.578 70.1719 108.88 70.3295 108.13 70.3295L108.535 69.6543C109.435 69.6543 110.23 69.8118 110.921 70.1269C111.611 70.442 112.158 70.9071 112.563 71.5222C112.968 72.1224 113.171 72.8725 113.171 73.7727C113.171 75.123 112.661 76.1732 111.641 76.9234C110.635 77.6586 109.135 78.0261 107.14 78.0261H99.623ZM101.874 76.2032H107.05C108.295 76.2032 109.248 75.9932 109.908 75.5731C110.568 75.153 110.898 74.4929 110.898 73.5927C110.898 72.6775 110.568 72.0098 109.908 71.5897C109.248 71.1696 108.295 70.9596 107.05 70.9596H101.671V69.1367H106.487C107.627 69.1367 108.512 68.9267 109.143 68.5066C109.773 68.0865 110.088 67.4563 110.088 66.6162C110.088 65.776 109.773 65.1458 109.143 64.7257C108.512 64.3056 107.627 64.0956 106.487 64.0956H101.874V76.2032Z" fill="white"/>
<path d="M85.411 78.1612C84.4208 78.1612 83.4756 78.0262 82.5754 77.7561C81.6902 77.4861 80.9925 77.156 80.4824 76.7659L81.3826 75.0556C81.8927 75.4006 82.5229 75.6932 83.273 75.9332C84.0232 76.1733 84.7884 76.2933 85.5685 76.2933C86.5737 76.2933 87.2939 76.1508 87.729 75.8657C88.1791 75.5807 88.4041 75.1831 88.4041 74.673C88.4041 74.2979 88.2691 74.0053 87.9991 73.7953C87.729 73.5852 87.3689 73.4277 86.9188 73.3227C86.4837 73.2177 85.9961 73.1276 85.456 73.0526C84.9159 72.9626 84.3758 72.8576 83.8357 72.7376C83.2955 72.6025 82.8004 72.4225 82.3503 72.1974C81.9002 71.9574 81.5401 71.6348 81.2701 71.2297C81 70.8096 80.865 70.2545 80.865 69.5644C80.865 68.8442 81.0675 68.2141 81.4726 67.674C81.8777 67.1338 82.4479 66.7212 83.183 66.4362C83.9332 66.1361 84.8184 65.9861 85.8386 65.9861C86.6188 65.9861 87.4064 66.0836 88.2016 66.2786C89.0118 66.4587 89.6719 66.7212 90.182 67.0663L89.2593 68.7767C88.7192 68.4166 88.1566 68.1691 87.5715 68.034C86.9863 67.899 86.4012 67.8315 85.8161 67.8315C84.8709 67.8315 84.1657 67.989 83.7006 68.3041C83.2355 68.6042 83.003 68.9942 83.003 69.4743C83.003 69.8794 83.138 70.1945 83.4081 70.4195C83.6931 70.6296 84.0532 70.7946 84.4883 70.9147C84.9384 71.0347 85.4335 71.1397 85.9736 71.2297C86.5137 71.3047 87.0539 71.4098 87.594 71.5448C88.1341 71.6648 88.6217 71.8374 89.0568 72.0624C89.5069 72.2875 89.867 72.6025 90.137 73.0076C90.4221 73.4127 90.5646 73.9528 90.5646 74.628C90.5646 75.3481 90.3546 75.9708 89.9345 76.4959C89.5144 77.021 88.9218 77.4336 88.1566 77.7336C87.3914 78.0187 86.4762 78.1612 85.411 78.1612Z" fill="white"/>
<path d="M74.1366 78.1612C73.1464 78.1612 72.2012 78.0262 71.301 77.7561C70.4158 77.4861 69.7181 77.156 69.208 76.7659L70.1082 75.0556C70.6183 75.4006 71.2485 75.6932 71.9986 75.9332C72.7488 76.1733 73.5139 76.2933 74.2941 76.2933C75.2993 76.2933 76.0195 76.1508 76.4546 75.8657C76.9047 75.5807 77.1297 75.1831 77.1297 74.673C77.1297 74.2979 76.9947 74.0053 76.7246 73.7953C76.4546 73.5852 76.0945 73.4277 75.6444 73.3227C75.2093 73.2177 74.7217 73.1276 74.1816 73.0526C73.6415 72.9626 73.1014 72.8576 72.5612 72.7376C72.0211 72.6025 71.526 72.4225 71.0759 72.1974C70.6258 71.9574 70.2657 71.6348 69.9957 71.2297C69.7256 70.8096 69.5906 70.2545 69.5906 69.5644C69.5906 68.8442 69.7931 68.2141 70.1982 67.674C70.6033 67.1338 71.1734 66.7212 71.9086 66.4362C72.6588 66.1361 73.5439 65.9861 74.5642 65.9861C75.3443 65.9861 76.132 66.0836 76.9272 66.2786C77.7374 66.4587 78.3975 66.7212 78.9076 67.0663L77.9849 68.7767C77.4448 68.4166 76.8822 68.1691 76.2971 68.034C75.7119 67.899 75.1268 67.8315 74.5417 67.8315C73.5965 67.8315 72.8913 67.989 72.4262 68.3041C71.9611 68.6042 71.7286 68.9942 71.7286 69.4743C71.7286 69.8794 71.8636 70.1945 72.1336 70.4195C72.4187 70.6296 72.7788 70.7946 73.2139 70.9147C73.664 71.0347 74.1591 71.1397 74.6992 71.2297C75.2393 71.3047 75.7794 71.4098 76.3196 71.5448C76.8597 71.6648 77.3473 71.8374 77.7824 72.0624C78.2325 72.2875 78.5925 72.6025 78.8626 73.0076C79.1477 73.4127 79.2902 73.9528 79.2902 74.628C79.2902 75.3481 79.0802 75.9708 78.6601 76.4959C78.24 77.021 77.6473 77.4336 76.8822 77.7336C76.117 78.0187 75.2018 78.1612 74.1366 78.1612Z" fill="white"/>
<path d="M62.2469 78.1612C60.9716 78.1612 59.8464 77.8987 58.8712 77.3736C57.911 76.8484 57.1608 76.1283 56.6207 75.2131C56.0956 74.2979 55.833 73.2477 55.833 72.0624C55.833 70.8771 56.0881 69.8269 56.5982 68.9117C57.1233 67.9965 57.8359 67.2839 58.7361 66.7738C59.6513 66.2486 60.6791 65.9861 61.8193 65.9861C62.9746 65.9861 63.9948 66.2411 64.88 66.7512C65.7652 67.2614 66.4553 67.9815 66.9504 68.9117C67.4605 69.8269 67.7156 70.8997 67.7156 72.1299C67.7156 72.2199 67.7081 72.325 67.6931 72.445C67.6931 72.565 67.6856 72.6775 67.6706 72.7826H57.5209V71.2297H66.5453L65.6676 71.7698C65.6827 71.0047 65.5251 70.322 65.195 69.7219C64.865 69.1218 64.4074 68.6567 63.8222 68.3266C63.2521 67.9815 62.5845 67.809 61.8193 67.809C61.0691 67.809 60.4015 67.9815 59.8164 68.3266C59.2312 68.6567 58.7736 69.1293 58.4436 69.7444C58.1135 70.3445 57.9485 71.0347 57.9485 71.8149V72.1749C57.9485 72.9701 58.1285 73.6828 58.4886 74.3129C58.8637 74.928 59.3813 75.4081 60.0414 75.7532C60.7016 76.0983 61.4592 76.2708 62.3144 76.2708C63.0196 76.2708 63.6572 76.1508 64.2273 75.9107C64.8125 75.6707 65.3226 75.3106 65.7577 74.8305L66.9504 76.2258C66.4103 76.856 65.7352 77.3361 64.925 77.6661C64.1298 77.9962 63.2371 78.1612 62.2469 78.1612Z" fill="white"/>
<path d="M50.6504 78.0263V61.3276H52.8109V78.0263H50.6504Z" fill="white"/>
<path d="M41.7009 65.9861C42.6761 65.9861 43.5313 66.1736 44.2665 66.5487C45.0166 66.9238 45.6018 67.4939 46.0219 68.2591C46.442 69.0242 46.652 69.992 46.652 71.1622V78.0262H44.4915V71.4098C44.4915 70.2545 44.2065 69.3843 43.6363 68.7992C43.0812 68.2141 42.2935 67.9215 41.2733 67.9215C40.5082 67.9215 39.8405 68.0715 39.2704 68.3716C38.7003 68.6717 38.2577 69.1143 37.9426 69.6994C37.6425 70.2845 37.4925 71.0122 37.4925 71.8824V78.0262H35.332V66.0986H37.4025V69.3168L37.0649 68.4616C37.455 67.6815 38.0551 67.0738 38.8653 66.6387C39.6755 66.2036 40.6207 65.9861 41.7009 65.9861Z" fill="white"/>
<path d="M29.0466 78.0262V66.0986H31.2071V78.0262H29.0466ZM30.1269 63.8031C29.7068 63.8031 29.3542 63.6681 29.0692 63.398C28.7991 63.128 28.6641 62.7979 28.6641 62.4078C28.6641 62.0027 28.7991 61.6651 29.0692 61.3951C29.3542 61.125 29.7068 60.99 30.1269 60.99C30.547 60.99 30.892 61.125 31.1621 61.3951C31.4472 61.6501 31.5897 61.9727 31.5897 62.3628C31.5897 62.7679 31.4547 63.113 31.1846 63.398C30.9146 63.6681 30.562 63.8031 30.1269 63.8031Z" fill="white"/>
<path d="M23.0006 78.0262V75.5057L22.8881 75.0331V70.7346C22.8881 69.8194 22.6181 69.1143 22.0779 68.6192C21.5528 68.109 20.7577 67.854 19.6924 67.854C18.9873 67.854 18.2971 67.974 17.622 68.2141C16.9468 68.4391 16.3767 68.7467 15.9116 69.1368L15.0114 67.5164C15.6265 67.0213 16.3617 66.6462 17.2169 66.3912C18.0871 66.1211 18.9948 65.9861 19.94 65.9861C21.5753 65.9861 22.8356 66.3837 23.7208 67.1788C24.606 67.974 25.0486 69.1893 25.0486 70.8246V78.0262H23.0006ZM19.0848 78.1612C18.1996 78.1612 17.4194 78.0112 16.7443 77.7111C16.0841 77.4111 15.574 76.9985 15.2139 76.4734C14.8539 75.9332 14.6738 75.3256 14.6738 74.6505C14.6738 74.0053 14.8239 73.4202 15.1239 72.8951C15.439 72.37 15.9416 71.9499 16.6318 71.6348C17.3369 71.3197 18.2821 71.1622 19.4674 71.1622H23.2482V72.715H19.5574C18.4772 72.715 17.7495 72.8951 17.3744 73.2552C16.9993 73.6152 16.8118 74.0503 16.8118 74.5604C16.8118 75.1456 17.0443 75.6182 17.5094 75.9783C17.9745 76.3233 18.6197 76.4959 19.4449 76.4959C20.255 76.4959 20.9602 76.3158 21.5603 75.9558C22.1755 75.5957 22.6181 75.0706 22.8881 74.3804L23.3157 75.8657C23.0306 76.5709 22.528 77.1335 21.8079 77.5536C21.0877 77.9587 20.18 78.1612 19.0848 78.1612Z" fill="white"/>
<path d="M0 78.0261V62.2727H6.14384C7.52414 62.2727 8.7019 62.4903 9.67711 62.9253C10.6523 63.3604 11.4025 63.9906 11.9276 64.8158C12.4527 65.6409 12.7153 66.6237 12.7153 67.7639C12.7153 68.9041 12.4527 69.8869 11.9276 70.712C11.4025 71.5222 10.6523 72.1524 9.67711 72.6025C8.7019 73.0376 7.52414 73.2551 6.14384 73.2551H1.23777L2.25049 72.1974V78.0261H0ZM2.25049 72.4224L1.23777 71.2972H6.07632C7.51664 71.2972 8.60437 70.9896 9.33954 70.3745C10.0897 69.7593 10.4648 68.8891 10.4648 67.7639C10.4648 66.6387 10.0897 65.7685 9.33954 65.1533C8.60437 64.5382 7.51664 64.2306 6.07632 64.2306H1.23777L2.25049 63.1054V72.4224Z" fill="white"/>
<path d="M336.447 27.776V15.0422H337.939L343.651 24.6653H342.851L348.49 15.0422H349.981L350 27.776H348.253L348.235 17.7891H348.653L343.633 26.2298H342.796L337.739 17.7891H338.194V27.776H336.447Z" fill="white"/>
<path d="M328.299 27.7762V16.6251H323.934V15.0425H334.466V16.6251H330.1V27.7762H328.299Z" fill="white"/>
<path d="M0.15918 2.75975V0H11.4722V11.778L0.15918 2.75975Z" fill="white"/>
<path d="M0.15918 25.5565V51.3325H11.4722V11.7796L0.15918 25.5565Z" fill="white"/>
<path d="M21.6455 17.3777C22.5883 16.8888 23.8287 16.3999 25.3669 15.9111C26.9051 15.3733 28.5921 14.9089 30.428 14.5178C32.2639 14.1266 34.0998 13.8089 35.9356 13.5644C37.8211 13.32 39.5578 13.1978 41.1456 13.1978C44.5197 13.1978 47.3975 13.6378 49.7792 14.5178C52.1609 15.3489 53.972 16.7177 55.2124 18.6244C56.5025 20.531 57.1476 23.1221 57.1476 26.3976V51.3305H46.0578V28.5975C46.0578 27.6686 45.909 26.8131 45.6113 26.0309C45.3632 25.2487 44.9662 24.5887 44.4204 24.0509C43.8746 23.4643 43.1303 23.0243 42.1876 22.731C41.2448 22.3887 40.1036 22.2176 38.7639 22.2176C37.6227 22.2176 36.4814 22.3643 35.3402 22.6576C34.199 22.9021 33.3307 23.1709 32.7353 23.4643V51.3305H21.6455V17.3777Z" fill="white"/>
<path d="M77.9792 51.3305L62.2749 14.2244H74.3323L85.7197 42.8239L83.0403 42.8973L93.1625 14.2244H104.848L89.1434 51.3305H77.9792Z" fill="white"/>
<path d="M126.271 52.4305C119.92 52.4305 115.132 50.7683 111.907 47.4439C108.731 44.0706 107.143 39.1329 107.143 32.6308C107.143 25.6398 108.756 20.6288 111.981 17.5977C115.256 14.5178 120.019 12.9778 126.271 12.9778C130.489 12.9778 134.012 13.6867 136.84 15.1044C139.718 16.4733 141.876 18.5999 143.315 21.4843C144.804 24.3687 145.548 28.0842 145.548 32.6308C145.548 39.1329 143.886 44.0706 140.561 47.4439C137.237 50.7683 132.474 52.4305 126.271 52.4305ZM126.271 43.7039C128.107 43.7039 129.62 43.2884 130.811 42.4573C132.052 41.5773 132.97 40.3307 133.565 38.7174C134.21 37.0552 134.533 35.0263 134.533 32.6308C134.533 29.8931 134.21 27.742 133.565 26.1776C132.97 24.5643 132.052 23.4154 130.811 22.731C129.571 21.9976 128.057 21.631 126.271 21.631C124.386 21.631 122.848 21.9976 121.657 22.731C120.466 23.4643 119.573 24.6376 118.977 26.2509C118.431 27.8153 118.159 29.9419 118.159 32.6308C118.159 36.3463 118.804 39.1329 120.094 40.9906C121.433 42.7995 123.493 43.7039 126.271 43.7039Z" fill="white"/>
<path d="M153.426 51.3305V14.7378H164.515L164.59 51.3305H153.426Z" fill="white"/>
<path d="M192.138 52.2838C189.459 52.2838 186.928 51.8927 184.546 51.1105C182.165 50.3283 180.056 49.155 178.22 47.5905C176.384 46.0261 174.945 44.0462 173.903 41.6506C172.861 39.2551 172.34 36.4685 172.34 33.2908C172.34 29.9175 172.836 26.9842 173.829 24.4909C174.821 21.9487 176.186 19.8466 177.922 18.1844C179.709 16.5222 181.793 15.2755 184.174 14.4444C186.556 13.6133 189.186 13.1978 192.064 13.1978C194.098 13.1978 196.182 13.4178 198.316 13.8578C200.499 14.2489 202.409 14.8111 204.047 15.5444V24.9309C202.31 24.1487 200.598 23.5132 198.911 23.0243C197.274 22.4865 195.587 22.2176 193.85 22.2176C190.724 22.2176 188.193 22.9998 186.258 24.5643C184.373 26.0798 183.43 28.5731 183.43 32.0441C183.43 35.7107 184.274 38.4729 185.961 40.3307C187.648 42.1884 190.451 43.1173 194.371 43.1173C196.207 43.1173 197.968 42.7995 199.655 42.164C201.392 41.5284 202.88 40.8684 204.121 40.184V49.4972C202.384 50.3772 200.573 51.0616 198.688 51.5505C196.802 52.0394 194.619 52.2838 192.138 52.2838Z" fill="white"/>
<path d="M228.902 52.4305C225.131 52.4305 221.782 51.6727 218.854 50.1572C215.976 48.5927 213.719 46.3928 212.081 43.5573C210.493 40.6729 209.7 37.2507 209.7 33.2908C209.7 26.8375 211.312 21.851 214.537 18.331C217.812 14.7622 222.476 12.9778 228.53 12.9778C232.698 12.9778 236.047 13.8578 238.578 15.6177C241.158 17.3777 243.043 19.9443 244.234 23.3176C245.425 26.6909 245.996 30.7975 245.946 35.6374H217.291L216.1 28.6709H236.791L235.154 32.1175C235.104 28.1575 234.534 25.3709 233.442 23.7576C232.35 22.1443 230.564 21.3376 228.083 21.3376C226.694 21.3376 225.429 21.6799 224.287 22.3643C223.196 23.0487 222.327 24.1976 221.682 25.8109C221.087 27.3753 220.789 29.5508 220.789 32.3375C220.789 35.8574 221.633 38.5707 223.32 40.4773C225.057 42.384 227.81 43.3373 231.581 43.3373C232.971 43.3373 234.335 43.1906 235.675 42.8973C237.064 42.5551 238.354 42.164 239.545 41.724C240.736 41.284 241.753 40.8929 242.597 40.5507V49.9372C240.81 50.6705 238.801 51.2571 236.568 51.6971C234.385 52.186 231.829 52.4305 228.902 52.4305Z" fill="white"/>
<path d="M253.651 51.3305V18.111C254.346 17.5244 255.586 16.8644 257.372 16.1311C259.159 15.3489 261.193 14.6644 263.475 14.0778C265.807 13.4422 268.14 13.1244 270.472 13.1244C272.804 13.1244 274.64 13.2956 275.979 13.6378C277.319 13.98 278.336 14.42 279.031 14.9577V22.9509C278.187 22.7554 277.12 22.6087 275.83 22.511C274.54 22.4132 273.201 22.3643 271.811 22.3643C270.422 22.3154 269.107 22.3154 267.867 22.3643C266.626 22.4132 265.584 22.511 264.741 22.6576V51.3305H253.651Z" fill="white"/>
<path d="M300 52.4305C297.717 52.4305 295.559 52.2105 293.524 51.7705C291.54 51.3794 289.778 50.7194 288.24 49.7905C286.752 48.8127 285.585 47.5172 284.742 45.9039C283.898 44.2417 283.477 42.1884 283.477 39.744C283.477 37.4463 283.948 35.4419 284.891 33.7308C285.883 32.0197 287.372 30.6997 289.356 29.7708C291.341 28.842 293.847 28.3775 296.874 28.3775C298.561 28.3775 300.198 28.5486 301.786 28.8908C303.374 29.2331 304.788 29.6975 306.028 30.2842C307.318 30.8708 308.336 31.5064 309.08 32.1908L309.526 37.4707C308.534 36.884 307.343 36.4196 305.954 36.0774C304.565 35.7352 303.076 35.5641 301.488 35.5641C299.057 35.5641 297.271 35.9307 296.129 36.6641C295.038 37.3485 294.492 38.4485 294.492 39.964C294.492 40.8929 294.765 41.724 295.311 42.4573C295.857 43.1906 296.576 43.7528 297.469 44.1439C298.412 44.535 299.379 44.7306 300.372 44.7306C302.902 44.7306 304.664 44.5595 305.656 44.2173C306.698 43.875 307.219 43.1906 307.219 42.164V28.5242C307.219 26.2753 306.475 24.662 304.986 23.6843C303.547 22.6576 301.488 22.1443 298.809 22.1443C296.626 22.1443 294.418 22.5354 292.185 23.3176C290.002 24.0509 288.215 24.9554 286.826 26.0309V16.3511C288.116 15.5688 290.101 14.8355 292.78 14.1511C295.509 13.4667 298.561 13.1244 301.935 13.1244C303.126 13.1244 304.441 13.2222 305.879 13.4178C307.318 13.6133 308.757 13.98 310.196 14.5178C311.635 15.0066 312.95 15.74 314.141 16.7177C315.381 17.6955 316.374 18.9421 317.118 20.4577C317.862 21.9732 318.234 23.8554 318.234 26.1042L318.16 43.6306C318.16 45.7328 317.441 47.4439 316.002 48.7638C314.563 50.0349 312.479 50.9638 309.75 51.5505C307.07 52.1371 303.82 52.4305 300 52.4305Z" fill="white"/>
</svg>
