<?xml version="1.0" encoding="UTF-8"?>
<svg xmlns="http://www.w3.org/2000/svg" width="45" height="45" viewBox="0 0 45 45" fill="none">
  <path d="M22.5 22.4121C24.6843 22.4121 26.4551 20.6414 26.4551 18.457C26.4551 16.2727 24.6843 14.502 22.5 14.502C20.3157 14.502 18.5449 16.2727 18.5449 18.457C18.5449 20.6414 20.3157 22.4121 22.5 22.4121Z" stroke="#1D5BC4" stroke-width="2.63672" stroke-miterlimit="10"></path>
  <path d="M34.0428 15.7049L31.9735 15.05C31.3726 14.8598 30.8409 14.4485 30.5009 13.8596C30.1609 13.2707 30.0706 12.6045 30.2063 11.9891L30.6031 9.79228C29.2793 8.55372 27.6716 7.61531 25.8881 7.08472L24.2862 8.54933C23.821 8.97463 23.1989 9.22951 22.5189 9.22951C21.839 9.22951 21.2169 8.97463 20.7517 8.54933L19.0477 7.10722C17.3132 7.63438 15.6966 8.5575 14.3453 9.83684L14.8127 11.9564C14.9484 12.5719 14.858 13.2381 14.5181 13.8269C14.1781 14.4158 13.6464 14.8271 13.0455 15.0173L10.9445 15.772C10.5338 17.5377 10.5249 19.3992 10.9573 21.2092L13.0266 21.8641C13.6275 22.0543 14.1592 22.4657 14.4992 23.0545C14.8391 23.6434 14.9295 24.3095 14.7938 24.925L14.397 27.1218C15.7208 28.3604 17.3285 29.2988 19.112 29.8294L20.7139 28.3648C21.1791 27.9395 21.8012 27.6846 22.4811 27.6846C23.1611 27.6846 23.7832 27.9395 24.2484 28.3648L25.9525 29.8069C27.687 29.2797 29.3036 28.3566 30.6549 27.0773L30.1875 24.9577C30.0518 24.3422 30.1421 23.676 30.4821 23.0872C30.8221 22.4984 31.3538 22.087 31.9547 21.8968L34.0556 21.1421C34.4662 19.3764 34.4751 17.5149 34.0428 15.7049Z" stroke="#1D5BC4" stroke-width="2.63672" stroke-miterlimit="10"></path>
  <path d="M39.6387 18.457C39.6387 8.99156 31.9655 1.31836 22.5 1.31836C13.0345 1.31836 5.36133 8.99156 5.36133 18.457C5.36133 26.4704 10.8612 33.1985 18.2918 35.0744L22.5 42.3633L26.7082 35.0744C34.1388 33.1985 39.6387 26.4704 39.6387 18.457Z" stroke="#1D5BC4" stroke-width="2.63672" stroke-miterlimit="10"></path>
</svg>
