<svg width="250" height="49" viewBox="0 0 250 49" fill="none" xmlns="http://www.w3.org/2000/svg">
<path d="M132.355 46.3131L129.489 37.7843H130.751L133.384 45.6552H132.747L135.479 37.7843H136.606L139.277 45.6552H138.664L141.335 37.7843H142.499L139.632 46.3131H138.346L135.847 39.0149H136.177L133.666 46.3131H132.355Z" fill="#E5E7EB"/>
<path d="M145.994 46.3862C145.34 46.3862 144.76 46.2441 144.254 45.9598C143.748 45.6755 143.347 45.2856 143.053 44.7901C142.759 44.2865 142.612 43.7179 142.612 43.0844C142.612 42.4427 142.759 41.8741 143.053 41.3786C143.347 40.8831 143.748 40.4973 144.254 40.2211C144.76 39.9368 145.34 39.7947 145.994 39.7947C146.639 39.7947 147.215 39.9368 147.721 40.2211C148.235 40.4973 148.636 40.8831 148.921 41.3786C149.215 41.866 149.362 42.4346 149.362 43.0844C149.362 43.7261 149.215 44.2946 148.921 44.7901C148.636 45.2856 148.235 45.6755 147.721 45.9598C147.215 46.2441 146.639 46.3862 145.994 46.3862ZM145.994 45.3628C146.41 45.3628 146.782 45.2694 147.108 45.0825C147.443 44.8957 147.705 44.6317 147.892 44.2906C148.08 43.9413 148.174 43.5392 148.174 43.0844C148.174 42.6214 148.08 42.2234 147.892 41.8903C147.705 41.5492 147.443 41.2852 147.108 41.0984C146.782 40.9116 146.41 40.8181 145.994 40.8181C145.577 40.8181 145.205 40.9116 144.879 41.0984C144.552 41.2852 144.291 41.5492 144.095 41.8903C143.899 42.2234 143.801 42.6214 143.801 43.0844C143.801 43.5392 143.899 43.9413 144.095 44.2906C144.291 44.6317 144.552 44.8957 144.879 45.0825C145.205 45.2694 145.577 45.3628 145.994 45.3628Z" fill="#E5E7EB"/>
<path d="M150.866 46.3131V39.8556H151.993V41.6101L151.883 41.1715C152.063 40.7247 152.365 40.3836 152.79 40.148C153.214 39.9125 153.737 39.7947 154.358 39.7947V40.9278C154.309 40.9197 154.26 40.9156 154.211 40.9156C154.17 40.9156 154.129 40.9156 154.088 40.9156C153.459 40.9156 152.961 41.1024 152.594 41.4761C152.226 41.8497 152.042 42.3899 152.042 43.0966V46.3131H150.866Z" fill="#E5E7EB"/>
<path d="M156.64 44.7536L156.665 43.2549L160.401 39.8556H161.822L158.956 42.6579L158.319 43.194L156.64 44.7536ZM155.685 46.3131V37.2726H156.861V46.3131H155.685ZM160.646 46.3131L158.098 43.1697L158.858 42.2315L162.092 46.3131H160.646Z" fill="#E5E7EB"/>
<path d="M166.45 46.3131V37.7843H167.675V46.3131H166.45Z" fill="#E5E7EB"/>
<path d="M173.415 39.7947C173.946 39.7947 174.411 39.8962 174.812 40.0993C175.22 40.3024 175.539 40.611 175.767 41.0253C175.996 41.4395 176.11 41.9634 176.11 42.597V46.3131H174.934V42.731C174.934 42.1056 174.779 41.6345 174.469 41.3177C174.166 41.0009 173.738 40.8425 173.182 40.8425C172.766 40.8425 172.402 40.9237 172.092 41.0862C171.782 41.2486 171.541 41.4883 171.369 41.805C171.206 42.1218 171.124 42.5158 171.124 42.9869V46.3131H169.948V39.8556H171.075V41.5979L170.892 41.1349C171.104 40.7126 171.431 40.3836 171.872 40.148C172.313 39.9125 172.827 39.7947 173.415 39.7947Z" fill="#E5E7EB"/>
<path d="M180.394 46.3862C179.74 46.3862 179.234 46.2116 178.875 45.8623C178.515 45.513 178.336 45.0135 178.336 44.3637V38.4423H179.512V44.315C179.512 44.6642 179.597 44.9323 179.769 45.1191C179.949 45.3059 180.202 45.3993 180.528 45.3993C180.896 45.3993 181.202 45.2978 181.447 45.0947L181.815 45.9354C181.635 46.0898 181.419 46.2035 181.165 46.2766C180.92 46.3497 180.663 46.3862 180.394 46.3862ZM177.233 40.8181V39.8556H181.374V40.8181H177.233Z" fill="#E5E7EB"/>
<path d="M185.79 46.3862C185.096 46.3862 184.483 46.2441 183.952 45.9598C183.43 45.6755 183.021 45.2856 182.727 44.7901C182.441 44.2946 182.298 43.7261 182.298 43.0844C182.298 42.4427 182.437 41.8741 182.715 41.3786C183.001 40.8831 183.389 40.4973 183.879 40.2211C184.377 39.9368 184.936 39.7947 185.557 39.7947C186.186 39.7947 186.741 39.9328 187.223 40.2089C187.705 40.4851 188.081 40.875 188.35 41.3786C188.628 41.8741 188.767 42.4549 188.767 43.1209C188.767 43.1697 188.763 43.2265 188.754 43.2915C188.754 43.3565 188.75 43.4174 188.742 43.4743H183.217V42.6336H188.13L187.652 42.926C187.66 42.5117 187.574 42.1421 187.395 41.8172C187.215 41.4923 186.966 41.2405 186.647 41.0618C186.337 40.875 185.974 40.7816 185.557 40.7816C185.149 40.7816 184.785 40.875 184.467 41.0618C184.148 41.2405 183.899 41.4964 183.719 41.8294C183.54 42.1543 183.45 42.528 183.45 42.9503V43.1453C183.45 43.5758 183.548 43.9616 183.744 44.3028C183.948 44.6358 184.23 44.8957 184.589 45.0825C184.949 45.2694 185.361 45.3628 185.827 45.3628C186.21 45.3628 186.558 45.2978 186.868 45.1678C187.186 45.0379 187.464 44.8429 187.701 44.583L188.35 45.3384C188.056 45.6796 187.689 45.9395 187.248 46.1182C186.815 46.2969 186.329 46.3862 185.79 46.3862Z" fill="#E5E7EB"/>
<path d="M190.277 46.3131V37.2726H191.453V46.3131H190.277Z" fill="#E5E7EB"/>
<path d="M193.576 46.3131V37.2726H194.752V46.3131H193.576Z" fill="#E5E7EB"/>
<path d="M196.875 46.3131V39.8556H198.051V46.3131H196.875ZM197.463 38.6128C197.235 38.6128 197.043 38.5397 196.887 38.3935C196.74 38.2473 196.667 38.0686 196.667 37.8574C196.667 37.6381 196.74 37.4554 196.887 37.3092C197.043 37.1629 197.235 37.0898 197.463 37.0898C197.692 37.0898 197.88 37.1629 198.027 37.3092C198.182 37.4472 198.259 37.6219 198.259 37.8331C198.259 38.0524 198.186 38.2392 198.039 38.3935C197.892 38.5397 197.7 38.6128 197.463 38.6128Z" fill="#E5E7EB"/>
<path d="M203.016 48.7499C202.42 48.7499 201.84 48.6646 201.277 48.4941C200.721 48.3316 200.268 48.0961 199.917 47.7874L200.48 46.8858C200.783 47.1457 201.154 47.3488 201.595 47.495C202.036 47.6493 202.498 47.7265 202.979 47.7265C203.747 47.7265 204.311 47.5478 204.67 47.1904C205.029 46.833 205.209 46.2888 205.209 45.5577V44.1931L205.332 42.9138L205.27 41.6223V39.8556H206.385V45.4359C206.385 46.5731 206.099 47.4097 205.528 47.9458C204.956 48.4819 204.119 48.7499 203.016 48.7499ZM202.869 46.0451C202.24 46.0451 201.677 45.9151 201.179 45.6552C200.689 45.3871 200.297 45.0176 200.003 44.5464C199.717 44.0753 199.574 43.5311 199.574 42.9138C199.574 42.2883 199.717 41.7441 200.003 41.2811C200.297 40.81 200.689 40.4445 201.179 40.1846C201.677 39.9247 202.24 39.7947 202.869 39.7947C203.425 39.7947 203.931 39.9084 204.388 40.1358C204.846 40.3552 205.209 40.6963 205.479 41.1593C205.756 41.6223 205.895 42.2071 205.895 42.9138C205.895 43.6123 205.756 44.1931 205.479 44.6561C205.209 45.1191 204.846 45.4684 204.388 45.7039C203.931 45.9314 203.425 46.0451 202.869 46.0451ZM203.004 45.0216C203.437 45.0216 203.821 44.9323 204.156 44.7536C204.49 44.5749 204.752 44.3271 204.94 44.0104C205.136 43.6936 205.234 43.328 205.234 42.9138C205.234 42.4995 205.136 42.134 204.94 41.8172C204.752 41.5004 204.49 41.2568 204.156 41.0862C203.821 40.9075 203.437 40.8181 203.004 40.8181C202.571 40.8181 202.183 40.9075 201.84 41.0862C201.505 41.2568 201.24 41.5004 201.044 41.8172C200.856 42.134 200.762 42.4995 200.762 42.9138C200.762 43.328 200.856 43.6936 201.044 44.0104C201.24 44.3271 201.505 44.5749 201.84 44.7536C202.183 44.9323 202.571 45.0216 203.004 45.0216Z" fill="#E5E7EB"/>
<path d="M211.401 46.3862C210.707 46.3862 210.094 46.2441 209.563 45.9598C209.041 45.6755 208.632 45.2856 208.338 44.7901C208.052 44.2946 207.909 43.7261 207.909 43.0844C207.909 42.4427 208.048 41.8741 208.326 41.3786C208.612 40.8831 209 40.4973 209.49 40.2211C209.988 39.9368 210.547 39.7947 211.168 39.7947C211.797 39.7947 212.352 39.9328 212.834 40.2089C213.316 40.4851 213.692 40.875 213.961 41.3786C214.239 41.8741 214.378 42.4549 214.378 43.1209C214.378 43.1697 214.374 43.2265 214.365 43.2915C214.365 43.3565 214.361 43.4174 214.353 43.4743H208.828V42.6336H213.741L213.263 42.926C213.271 42.5117 213.185 42.1421 213.006 41.8172C212.826 41.4923 212.577 41.2405 212.258 41.0618C211.948 40.875 211.585 40.7816 211.168 40.7816C210.76 40.7816 210.396 40.875 210.078 41.0618C209.759 41.2405 209.51 41.4964 209.33 41.8294C209.151 42.1543 209.061 42.528 209.061 42.9503V43.1453C209.061 43.5758 209.159 43.9616 209.355 44.3028C209.559 44.6358 209.841 44.8957 210.2 45.0825C210.56 45.2694 210.972 45.3628 211.438 45.3628C211.821 45.3628 212.168 45.2978 212.479 45.1678C212.797 45.0379 213.075 44.8429 213.312 44.583L213.961 45.3384C213.667 45.6796 213.3 45.9395 212.859 46.1182C212.426 46.2969 211.94 46.3862 211.401 46.3862Z" fill="#E5E7EB"/>
<path d="M219.355 39.7947C219.886 39.7947 220.351 39.8962 220.752 40.0993C221.16 40.3024 221.478 40.611 221.707 41.0253C221.936 41.4395 222.05 41.9634 222.05 42.597V46.3131H220.874V42.731C220.874 42.1056 220.719 41.6345 220.409 41.3177C220.106 41.0009 219.678 40.8425 219.122 40.8425C218.706 40.8425 218.342 40.9237 218.032 41.0862C217.722 41.2486 217.481 41.4883 217.309 41.805C217.146 42.1218 217.064 42.5158 217.064 42.9869V46.3131H215.888V39.8556H217.015V41.5979L216.831 41.1349C217.044 40.7126 217.37 40.3836 217.811 40.148C218.252 39.9125 218.767 39.7947 219.355 39.7947Z" fill="#E5E7EB"/>
<path d="M226.934 46.3862C226.272 46.3862 225.68 46.2441 225.158 45.9598C224.643 45.6755 224.239 45.2856 223.945 44.7901C223.651 44.2946 223.504 43.7261 223.504 43.0844C223.504 42.4427 223.651 41.8741 223.945 41.3786C224.239 40.8831 224.643 40.4973 225.158 40.2211C225.68 39.9368 226.272 39.7947 226.934 39.7947C227.522 39.7947 228.045 39.9125 228.502 40.148C228.967 40.3755 229.327 40.7166 229.58 41.1715L228.686 41.7441C228.473 41.4273 228.212 41.1958 227.902 41.0496C227.599 40.8953 227.273 40.8181 226.922 40.8181C226.497 40.8181 226.117 40.9116 225.782 41.0984C225.447 41.2852 225.182 41.5492 224.986 41.8903C224.79 42.2234 224.692 42.6214 224.692 43.0844C224.692 43.5474 224.79 43.9494 224.986 44.2906C225.182 44.6317 225.447 44.8957 225.782 45.0825C226.117 45.2694 226.497 45.3628 226.922 45.3628C227.273 45.3628 227.599 45.2897 227.902 45.1435C228.212 44.9891 228.473 44.7536 228.686 44.4368L229.58 44.9973C229.327 45.444 228.967 45.7892 228.502 46.0329C228.045 46.2685 227.522 46.3862 226.934 46.3862Z" fill="#E5E7EB"/>
<path d="M233.775 46.3862C233.081 46.3862 232.469 46.2441 231.938 45.9598C231.415 45.6755 231.007 45.2856 230.713 44.7901C230.427 44.2946 230.284 43.7261 230.284 43.0844C230.284 42.4427 230.423 41.8741 230.701 41.3786C230.986 40.8831 231.374 40.4973 231.864 40.2211C232.363 39.9368 232.922 39.7947 233.543 39.7947C234.172 39.7947 234.727 39.9328 235.209 40.2089C235.691 40.4851 236.066 40.875 236.336 41.3786C236.613 41.8741 236.752 42.4549 236.752 43.1209C236.752 43.1697 236.748 43.2265 236.74 43.2915C236.74 43.3565 236.736 43.4174 236.728 43.4743H231.203V42.6336H236.115L235.637 42.926C235.646 42.5117 235.56 42.1421 235.38 41.8172C235.201 41.4923 234.951 41.2405 234.633 41.0618C234.323 40.875 233.959 40.7816 233.543 40.7816C233.134 40.7816 232.771 40.875 232.452 41.0618C232.134 41.2405 231.885 41.4964 231.705 41.8294C231.525 42.1543 231.436 42.528 231.436 42.9503V43.1453C231.436 43.5758 231.534 43.9616 231.73 44.3028C231.934 44.6358 232.216 44.8957 232.575 45.0825C232.934 45.2694 233.347 45.3628 233.812 45.3628C234.196 45.3628 234.543 45.2978 234.853 45.1678C235.172 45.0379 235.45 44.8429 235.686 44.583L236.336 45.3384C236.042 45.6796 235.674 45.9395 235.233 46.1182C234.8 46.2969 234.314 46.3862 233.775 46.3862Z" fill="#E5E7EB"/>
<path d="M240.77 13.6089V8.89177H238.914V8.22229H243.393V8.89177H241.536V13.6089H240.77Z" fill="#9CA3AF"/>
<path d="M244.236 13.6089V8.22229H244.87L247.3 12.293H246.959L249.358 8.22229H249.992L250 13.6089H249.257L249.25 9.38426H249.428L247.292 12.9548H246.936L244.785 9.38426H244.979V13.6089H244.236Z" fill="#9CA3AF"/>
<path d="M46.0023 28.0373L39.1782 7.67592H44.7025L49.5769 24.6033L47.9927 24.7649L52.664 7.67592H56.6447L61.2347 24.2801H59.9755L64.7686 7.67592H70.1304L63.3063 28.0373H58.5944L54.1263 13.4935L55.0199 13.7358L50.7548 28.0373H46.0023Z" fill="white"/>
<path d="M80.4513 28.6433C77.0934 28.6433 74.575 27.7141 72.8961 25.8557C71.2171 23.9973 70.3776 21.3175 70.3776 17.8162C70.3776 14.0725 71.2306 11.3523 72.9367 9.65549C74.6698 7.95871 77.1611 7.11032 80.4107 7.11032C82.6854 7.11032 84.581 7.51432 86.0975 8.32231C87.6139 9.10337 88.7377 10.2884 89.4689 11.8775C90.2271 13.4665 90.6062 15.4461 90.6062 17.8162C90.6062 21.3175 89.7261 23.9973 87.966 25.8557C86.2329 27.7141 83.728 28.6433 80.4513 28.6433ZM80.4513 24.4417C81.6428 24.4417 82.6042 24.1724 83.3353 23.6337C84.0935 23.0951 84.6487 22.341 85.0007 21.3714C85.3528 20.3748 85.5288 19.1898 85.5288 17.8162C85.5288 16.281 85.3392 15.0286 84.9601 14.059C84.6081 13.0895 84.0529 12.3757 83.2947 11.9179C82.5635 11.46 81.6157 11.2311 80.4513 11.2311C79.2598 11.2311 78.2985 11.4735 77.5673 11.9583C76.8362 12.4431 76.2946 13.1703 75.9425 14.1398C75.6176 15.1094 75.4551 16.3349 75.4551 17.8162C75.4551 19.9708 75.8478 21.6138 76.6331 22.7449C77.4184 23.8761 78.6911 24.4417 80.4513 24.4417Z" fill="white"/>
<path d="M93.7739 28.0373V9.65549C94.1531 9.4131 94.8165 9.0899 95.7643 8.6859C96.7392 8.28191 97.863 7.93178 99.1357 7.63552C100.408 7.31232 101.695 7.15072 102.995 7.15072C103.969 7.15072 104.741 7.23152 105.31 7.39312C105.906 7.52778 106.366 7.70285 106.691 7.91831V11.7967C106.149 11.7159 105.527 11.6485 104.822 11.5947C104.145 11.5408 103.441 11.5273 102.71 11.5543C102.006 11.5543 101.316 11.5812 100.639 11.6351C99.9888 11.6889 99.4201 11.7563 98.9326 11.8371V28.0373H93.7739Z" fill="white"/>
<path d="M113.153 16.5234L121.074 7.67592H127.37L115.793 19.2302L113.153 16.5234ZM114.25 28.0373H109.132V0H114.29L114.25 28.0373ZM116.849 14.5438L128.142 28.0373H121.602L113.194 17.9778L116.849 14.5438Z" fill="white"/>
<path d="M136.729 28.6433C135.267 28.6433 134.021 28.4817 132.992 28.1585C131.963 27.8622 130.974 27.4986 130.027 27.0677V22.4622C130.65 22.8662 131.299 23.2567 131.976 23.6337C132.681 23.9839 133.425 24.2667 134.211 24.4821C135.023 24.6976 135.889 24.8053 136.81 24.8053C137.893 24.8053 138.692 24.6033 139.207 24.1993C139.748 23.7684 140.019 23.2567 140.019 22.6642C140.019 22.0986 139.816 21.6676 139.41 21.3714C139.004 21.0482 138.476 20.7788 137.826 20.5634C137.176 20.3479 136.485 20.1324 135.754 19.917C135.077 19.7554 134.387 19.5399 133.682 19.2706C133.005 19.0013 132.383 18.6377 131.814 18.1798C131.245 17.7219 130.785 17.1429 130.433 16.4426C130.108 15.7154 129.945 14.8401 129.945 13.8166C129.945 12.6047 130.189 11.5812 130.677 10.7463C131.164 9.91136 131.8 9.23803 132.586 8.7263C133.371 8.21458 134.238 7.85098 135.185 7.63552C136.133 7.39312 137.054 7.27192 137.948 7.27192C139.491 7.32579 140.737 7.51432 141.685 7.83751C142.632 8.13378 143.526 8.52431 144.365 9.0091L144.406 13.1703C143.458 12.6585 142.538 12.2007 141.644 11.7967C140.75 11.3657 139.735 11.1503 138.597 11.1503C137.541 11.1503 136.715 11.3388 136.12 11.7159C135.551 12.066 135.267 12.5643 135.267 13.2107C135.267 13.7762 135.443 14.2341 135.795 14.5842C136.147 14.9344 136.607 15.2037 137.176 15.3922C137.744 15.5808 138.367 15.7693 139.044 15.9578C139.721 16.1464 140.425 16.3618 141.156 16.6042C141.888 16.8197 142.565 17.1429 143.187 17.5738C143.81 18.0047 144.311 18.5838 144.69 19.311C145.097 20.0112 145.3 20.9539 145.3 22.139C145.273 23.7011 144.853 24.9669 144.04 25.9365C143.228 26.8792 142.158 27.566 140.832 27.9969C139.532 28.4278 138.164 28.6433 136.729 28.6433Z" fill="white"/>
<path d="M156.374 28.6837C154.262 28.6837 152.65 28.172 151.54 27.1485C150.43 26.0981 149.875 24.5899 149.875 22.6238V11.7159H146.706V7.67592H149.875V2.06038H155.196V7.67592H159.948V11.7159H155.196V21.8158C155.196 22.6507 155.358 23.2701 155.683 23.6741C156.008 24.0781 156.577 24.2801 157.389 24.2801C157.823 24.2801 158.27 24.2128 158.73 24.0781C159.217 23.9165 159.624 23.728 159.948 23.5125V27.9565C159.407 28.2258 158.811 28.4144 158.161 28.5221C157.538 28.6298 156.943 28.6837 156.374 28.6837Z" fill="white"/>
<path d="M170.934 28.6433C169.796 28.6433 168.713 28.5356 167.684 28.3201C166.655 28.1046 165.734 27.7545 164.922 27.2697C164.109 26.758 163.46 26.0712 162.972 25.2093C162.512 24.3205 162.282 23.2163 162.282 21.8966C162.282 20.523 162.566 19.3649 163.135 18.4222C163.703 17.4526 164.529 16.7254 165.612 16.2406C166.723 15.7289 168.077 15.473 169.674 15.473C170.649 15.473 171.556 15.5673 172.396 15.7558C173.235 15.9174 173.994 16.1464 174.671 16.4426C175.348 16.7389 175.903 17.0621 176.336 17.4122L176.702 20.2806C176.133 19.9035 175.402 19.6073 174.508 19.3918C173.642 19.1494 172.694 19.0282 171.665 19.0282C170.23 19.0282 169.16 19.2571 168.456 19.715C167.752 20.1728 167.4 20.8866 167.4 21.8562C167.4 22.5295 167.589 23.0951 167.968 23.5529C168.347 23.9839 168.835 24.3205 169.431 24.5629C170.026 24.7784 170.649 24.8861 171.299 24.8861C172.789 24.8861 173.858 24.7919 174.508 24.6033C175.185 24.3879 175.524 23.9435 175.524 23.2701V15.2306C175.524 13.9109 175.104 12.9548 174.264 12.3623C173.425 11.7428 172.247 11.4331 170.73 11.4331C169.566 11.4331 168.375 11.6351 167.156 12.0391C165.937 12.4161 164.949 12.9144 164.191 13.5339V8.8879C164.922 8.43004 166.019 8.02605 167.481 7.67592C168.943 7.32579 170.514 7.15072 172.193 7.15072C172.897 7.15072 173.642 7.21805 174.427 7.35272C175.212 7.48738 175.957 7.70285 176.661 7.99911C177.392 8.29538 178.056 8.71284 178.651 9.2515C179.247 9.76323 179.721 10.4231 180.073 11.2311C180.425 12.0121 180.601 12.9683 180.601 14.0994V23.7549C180.601 25.0208 180.195 26.0173 179.382 26.7445C178.57 27.4448 177.446 27.9296 176.011 28.1989C174.576 28.4952 172.883 28.6433 170.934 28.6433Z" fill="white"/>
<path d="M192.722 28.6837C190.61 28.6837 188.999 28.172 187.888 27.1485C186.778 26.0981 186.223 24.5899 186.223 22.6238V11.7159H183.055V7.67592H186.223V2.06038H191.544V7.67592H196.297V11.7159H191.544V21.8158C191.544 22.6507 191.707 23.2701 192.032 23.6741C192.357 24.0781 192.925 24.2801 193.738 24.2801C194.171 24.2801 194.618 24.2128 195.078 24.0781C195.566 23.9165 195.972 23.728 196.297 23.5125V27.9565C195.755 28.2258 195.159 28.4144 194.51 28.5221C193.887 28.6298 193.291 28.6837 192.722 28.6837Z" fill="white"/>
<path d="M208.988 28.6433C207.092 28.6433 205.44 28.347 204.032 27.7545C202.651 27.135 201.568 26.2193 200.783 25.0073C200.024 23.7953 199.645 22.2467 199.645 20.3614V7.67592H204.804V19.8362C204.804 21.3444 205.143 22.4622 205.82 23.1893C206.497 23.9165 207.553 24.2801 208.988 24.2801C210.477 24.2801 211.547 23.9165 212.197 23.1893C212.874 22.4622 213.212 21.3444 213.212 19.8362V7.67592H218.087V20.3614C218.087 23.1624 217.274 25.2497 215.65 26.6233C214.052 27.97 211.831 28.6433 208.988 28.6433Z" fill="white"/>
<path d="M228.353 28.6433C226.891 28.6433 225.645 28.4817 224.616 28.1585C223.587 27.8622 222.599 27.4986 221.651 27.0677V22.4622C222.274 22.8662 222.924 23.2567 223.601 23.6337C224.305 23.9839 225.05 24.2667 225.835 24.4821C226.647 24.6976 227.514 24.8053 228.435 24.8053C229.518 24.8053 230.317 24.6033 230.831 24.1993C231.373 23.7684 231.644 23.2567 231.644 22.6642C231.644 22.0986 231.44 21.6676 231.034 21.3714C230.628 21.0482 230.1 20.7788 229.45 20.5634C228.8 20.3479 228.11 20.1324 227.378 19.917C226.701 19.7554 226.011 19.5399 225.307 19.2706C224.63 19.0013 224.007 18.6377 223.438 18.1798C222.87 17.7219 222.409 17.1429 222.057 16.4426C221.732 15.7154 221.57 14.8401 221.57 13.8166C221.57 12.6047 221.814 11.5812 222.301 10.7463C222.788 9.91136 223.425 9.23803 224.21 8.7263C224.995 8.21458 225.862 7.85098 226.81 7.63552C227.758 7.39312 228.678 7.27192 229.572 7.27192C231.115 7.32579 232.361 7.51432 233.309 7.83751C234.257 8.13378 235.15 8.52431 235.99 9.0091L236.03 13.1703C235.083 12.6585 234.162 12.2007 233.268 11.7967C232.375 11.3657 231.359 11.1503 230.222 11.1503C229.166 11.1503 228.34 11.3388 227.744 11.7159C227.175 12.066 226.891 12.5643 226.891 13.2107C226.891 13.7762 227.067 14.2341 227.419 14.5842C227.771 14.9344 228.231 15.2037 228.8 15.3922C229.369 15.5808 229.992 15.7693 230.669 15.9578C231.346 16.1464 232.05 16.3618 232.781 16.6042C233.512 16.8197 234.189 17.1429 234.812 17.5738C235.435 18.0047 235.936 18.5838 236.315 19.311C236.721 20.0112 236.924 20.9539 236.924 22.139C236.897 23.7011 236.477 24.9669 235.665 25.9365C234.852 26.8792 233.783 27.566 232.456 27.9969C231.156 28.4278 229.789 28.6433 228.353 28.6433Z" fill="white"/>
<path fill-rule="evenodd" clip-rule="evenodd" d="M3.69492 15.4103C3.36693 18.133 4.00256 20.8844 5.49259 23.1916C6.98262 25.4988 9.23401 27.2178 11.8599 28.0533C14.4858 28.8887 17.3222 28.7884 19.8819 27.7696C22.4415 26.7508 24.5644 24.877 25.886 22.4704C27.2075 20.0637 27.6451 17.2744 27.1235 14.5817C26.6019 11.889 25.1538 9.46104 23.0279 7.71502C21.3705 6.3538 19.3819 5.47332 17.2795 5.15134L17.2795 7.32266C17.2795 8.31438 16.4712 9.11833 15.4742 9.11833C14.4771 9.11833 13.6689 8.31438 13.6689 7.32266L13.6689 3.47479C13.6689 2.35013 14.5916 1.4033 15.7662 1.42533C19.2585 1.49084 22.6291 2.73002 25.3269 4.94575C28.0998 7.22317 29.9886 10.3901 30.6689 13.9023C31.3492 17.4145 30.7785 21.0528 29.0548 24.1919C27.331 27.331 24.5619 29.775 21.2233 31.1039C17.8847 32.4327 14.185 32.5636 10.7599 31.4739C7.33482 30.3842 4.39823 28.142 2.45471 25.1326C0.511198 22.1232 -0.317885 18.5344 0.109921 14.983C0.537726 11.4316 2.19571 8.13926 4.79898 5.67171C5.52078 4.98755 6.66351 5.01493 7.35135 5.73287C8.03919 6.45081 8.01166 7.58744 7.28987 8.2716C5.29402 10.1634 4.0229 12.6875 3.69492 15.4103Z" fill="white"/>
<path fill-rule="evenodd" clip-rule="evenodd" d="M9.03951 10.157C9.74453 9.45579 10.8876 9.45579 11.5926 10.157L17.2665 15.8006C17.9715 16.5018 17.9715 17.6388 17.2665 18.3401C16.5615 19.0413 15.4184 19.0413 14.7134 18.3401L9.03951 12.6965C8.33449 11.9953 8.33449 10.8583 9.03951 10.157Z" fill="white"/>
</svg>
