<?xml version="1.0" encoding="UTF-8"?>
<svg xmlns="http://www.w3.org/2000/svg" width="45" height="62" viewBox="0 0 45 62" fill="none">
  <path d="M43.87 49.3486C44.6647 50.1463 44.6627 51.4381 43.864 52.2328C38.0657 58.0092 30.383 61.1903 22.2323 61.1903C14.0815 61.1903 6.39889 58.0092 0.600553 52.2328C-0.198187 51.4381 -0.200179 50.1463 0.594577 49.3486C1.38933 48.5499 2.68206 48.5479 3.47881 49.3426C8.50828 54.3522 15.1681 57.1109 22.2323 57.1109C29.2964 57.1109 35.9563 54.3522 40.9857 49.3426C41.7815 48.5479 43.0742 48.5499 43.87 49.3486ZM3.47881 11.8476C8.50828 6.83809 15.1681 4.07935 22.2323 4.07935C29.2964 4.07935 35.9563 6.83809 40.9857 11.8476C41.3831 12.244 41.904 12.4422 42.4249 12.4422C42.9477 12.4422 43.4716 12.242 43.87 11.8417C44.6647 11.0439 44.6627 9.7522 43.864 8.95744C38.0657 3.18102 30.383 0 22.2323 0C14.0815 0 6.39889 3.18102 0.600553 8.95744C-0.198187 9.7522 -0.200179 11.0439 0.594577 11.8417C1.38933 12.6414 2.68206 12.6414 3.47881 11.8476ZM36.6524 18.2147C37.1743 18.2147 37.6962 18.0155 38.0945 17.6171C38.8913 16.8204 38.8913 15.5296 38.0945 14.7329C33.8558 10.4932 28.2218 8.1587 22.2323 8.1587C16.2427 8.1587 10.6087 10.4932 6.37001 14.7329C5.57326 15.5296 5.57326 16.8204 6.37001 17.6171C7.16676 18.4138 8.45749 18.4138 9.25424 17.6171C12.7231 14.1483 17.3323 12.2381 22.2323 12.2381C27.1323 12.2381 31.7415 14.1483 35.2103 17.6171C35.6087 18.0155 36.1306 18.2147 36.6524 18.2147ZM22.2323 53.0316C28.2218 53.0316 33.8558 50.6971 38.0945 46.4574C38.8913 45.6606 38.8913 44.3699 38.0945 43.5732C37.2978 42.7764 36.0071 42.7764 35.2103 43.5732C31.7415 47.042 27.1323 48.9522 22.2323 48.9522C17.3323 48.9522 12.7231 47.042 9.25424 43.5732C8.45749 42.7764 7.16676 42.7764 6.37001 43.5732C5.57326 44.3699 5.57326 45.6606 6.37001 46.4574C10.6087 50.6971 16.2427 53.0316 22.2323 53.0316ZM32.3301 20.5103C29.65 17.8063 26.0636 16.3174 22.2323 16.3174C18.4009 16.3174 14.8145 17.8063 12.1345 20.5103C11.3417 21.311 11.3477 22.6018 12.1474 23.3955C12.9492 24.1873 14.2389 24.1843 15.0327 23.3826C16.9399 21.4574 19.4974 20.3968 22.2323 20.3968C24.9671 20.3968 27.5247 21.4574 29.4319 23.3826C29.8313 23.7849 30.3561 23.9861 30.881 23.9861C31.3999 23.9861 31.9187 23.7889 32.3171 23.3955C33.1168 22.6018 33.1228 21.311 32.3301 20.5103ZM12.1474 37.7948C11.3477 38.5885 11.3417 39.8792 12.1345 40.68C14.8145 43.3839 18.4009 44.8729 22.2323 44.8729C26.0636 44.8729 29.65 43.3839 32.3301 40.68C33.1228 39.8792 33.1168 38.5885 32.3171 37.7948C31.5164 37.004 30.2256 37.009 29.4319 37.8077C27.5247 39.7328 24.9671 40.7935 22.2323 40.7935C19.4974 40.7935 16.9399 39.7328 15.0327 37.8077C14.2389 37.009 12.9492 37.004 12.1474 37.7948ZM22.2323 36.7142C18.858 36.7142 16.1132 33.9694 16.1132 30.5951C16.1132 27.2209 18.858 24.4761 22.2323 24.4761C25.6065 24.4761 28.3513 27.2209 28.3513 30.5951C28.3513 33.9694 25.6065 36.7142 22.2323 36.7142ZM22.2323 32.6348C23.3567 32.6348 24.2719 31.7195 24.2719 30.5951C24.2719 29.4707 23.3567 28.5555 22.2323 28.5555C21.1079 28.5555 20.1926 29.4707 20.1926 30.5951C20.1926 31.7195 21.1079 32.6348 22.2323 32.6348ZM3.87519 26.5158V34.6745C3.87519 35.8009 4.78846 36.7142 5.91486 36.7142C7.04127 36.7142 7.95454 35.8009 7.95454 34.6745V26.5158C7.95454 25.3894 7.04127 24.4761 5.91486 24.4761C4.78846 24.4761 3.87519 25.3894 3.87519 26.5158ZM40.5894 34.6745V28.5555H42.629C43.7554 28.5555 44.6687 27.6422 44.6687 26.5158C44.6687 25.3894 43.7554 24.4761 42.629 24.4761H34.4703C33.3439 24.4761 32.4306 25.3894 32.4306 26.5158C32.4306 27.6422 33.3439 28.5555 34.4703 28.5555H36.51V34.6745C36.51 35.8009 37.4233 36.7142 38.5497 36.7142C39.6761 36.7142 40.5894 35.8009 40.5894 34.6745Z" fill="url(#paint0_linear_180_1889)"></path>
  <defs>
    <linearGradient id="paint0_linear_180_1889" x1="22.3343" y1="0" x2="22.3343" y2="61.1903" gradientUnits="userSpaceOnUse">
      <stop stop-color="#00BCD4"></stop>
      <stop offset="1" stop-color="#1976D2"></stop>
    </linearGradient>
  </defs>
</svg>
