<?xml version="1.0" encoding="UTF-8"?>
<svg xmlns="http://www.w3.org/2000/svg" width="45" height="45" viewBox="0 0 45 45" fill="none">
  <path d="M35.625 33.75C36.6605 33.75 37.5 32.9105 37.5 31.875C37.5 30.8395 36.6605 30 35.625 30C34.5895 30 33.75 30.8395 33.75 31.875C33.75 32.9105 34.5895 33.75 35.625 33.75Z" fill="#60646C"></path>
  <path d="M9.375 33.75C10.4105 33.75 11.25 32.9105 11.25 31.875C11.25 30.8395 10.4105 30 9.375 30C8.33947 30 7.5 30.8395 7.5 31.875C7.5 32.9105 8.33947 33.75 9.375 33.75Z" fill="#60646C"></path>
  <path fill-rule="evenodd" clip-rule="evenodd" d="M30 30.4688H15C14.2237 30.4688 13.5938 31.0987 13.5938 31.875C13.5938 32.6513 14.2237 33.2812 15 33.2812H30C30.7763 33.2812 31.4062 32.6513 31.4062 31.875C31.4062 31.0987 30.7763 30.4688 30 30.4688Z" fill="#60646C"></path>
  <path fill-rule="evenodd" clip-rule="evenodd" d="M37.4438 15.0563L39.2606 16.875L37.4438 18.6938C36.8944 19.2413 36.8944 20.1338 37.4438 20.6813C37.9913 21.2306 38.8838 21.2306 39.4313 20.6813L42.2438 17.8688C42.7931 17.3194 42.7931 16.4306 42.2438 15.8813L39.4313 13.0688C38.8838 12.5194 37.9913 12.5194 37.4438 13.0688C36.8944 13.6163 36.8944 14.5088 37.4438 15.0563Z" fill="#60646C"></path>
  <path fill-rule="evenodd" clip-rule="evenodd" d="M5.56877 13.0688L2.75627 15.8813C2.20689 16.4306 2.20689 17.3194 2.75627 17.8688L5.56877 20.6813C6.11627 21.2306 7.00877 21.2306 7.55627 20.6813C8.10565 20.1338 8.10565 19.2413 7.55627 18.6938L5.73939 16.875L7.55627 15.0563C8.10565 14.5088 8.10565 13.6163 7.55627 13.0688C7.00877 12.5194 6.11627 12.5194 5.56877 13.0688Z" fill="#60646C"></path>
  <path fill-rule="evenodd" clip-rule="evenodd" d="M2.34375 31.875C2.34375 35.7581 5.49187 38.9062 9.375 38.9062H35.625C39.5081 38.9062 42.6562 35.7581 42.6562 31.875C42.6562 27.9919 39.5081 24.8438 35.625 24.8438C28.545 24.8438 16.455 24.8438 9.375 24.8438C5.49187 24.8438 2.34375 27.9919 2.34375 31.875ZM5.15625 31.875C5.15625 29.5444 7.04437 27.6562 9.375 27.6562H35.625C37.9556 27.6562 39.8438 29.5444 39.8438 31.875C39.8438 34.2056 37.9556 36.0938 35.625 36.0938C28.545 36.0938 16.455 36.0938 9.375 36.0938C7.04437 36.0938 5.15625 34.2056 5.15625 31.875Z" fill="#60646C"></path>
  <path fill-rule="evenodd" clip-rule="evenodd" d="M30.5625 27.6562C31.5319 27.6562 32.4619 27.2719 33.1481 26.5856C33.8344 25.8994 34.2188 24.9694 34.2188 24V9.75C34.2188 8.78062 33.8344 7.85063 33.1481 7.16438C32.4619 6.47813 31.5319 6.09375 30.5625 6.09375C26.2519 6.09375 18.7481 6.09375 14.4375 6.09375C13.4681 6.09375 12.5381 6.47813 11.8519 7.16438C11.1656 7.85063 10.7812 8.78062 10.7812 9.75V24C10.7812 24.9694 11.1656 25.8994 11.8519 26.5856C12.5381 27.2719 13.4681 27.6562 14.4375 27.6562H30.5625ZM30.5625 24.8438H14.4375C14.2144 24.8438 13.9988 24.7556 13.8413 24.5963C13.6819 24.4387 13.5938 24.2231 13.5938 24V9.75C13.5938 9.52687 13.6819 9.31125 13.8413 9.15375C13.9988 8.99437 14.2144 8.90625 14.4375 8.90625H30.5625C30.7856 8.90625 31.0013 8.99437 31.1588 9.15375C31.3181 9.31125 31.4063 9.52687 31.4063 9.75V24C31.4063 24.2231 31.3181 24.4387 31.1588 24.5963C31.0013 24.7556 30.7856 24.8438 30.5625 24.8438Z" fill="#60646C"></path>
  <path fill-rule="evenodd" clip-rule="evenodd" d="M28.5938 7.5C28.5938 6.72375 27.9637 6.09375 27.1875 6.09375H17.8125C17.0362 6.09375 16.4062 6.72375 16.4062 7.5V12.9375C16.4062 13.635 16.7119 14.3156 17.3006 14.8106C17.7919 15.2231 18.4556 15.4688 19.1512 15.4688H25.8488C26.5444 15.4688 27.2081 15.2231 27.6994 14.8106C28.2881 14.3156 28.5938 13.635 28.5938 12.9375C28.5938 11.2969 28.5938 7.5 28.5938 7.5ZM19.2188 12.6563V8.90625H25.7812V12.6563H19.2188Z" fill="#60646C"></path>
</svg>
