<?xml version="1.0" encoding="UTF-8"?>
<svg xmlns="http://www.w3.org/2000/svg" width="45" height="45" viewBox="0 0 45 45" fill="none">
  <g clip-path="url(#clip0_837_7290)">
    <path d="M3.86719 33.75H21.0938V35.3602C20.3124 35.5981 19.6016 36.0247 19.0241 36.6022C18.4466 37.1798 18.02 37.8905 17.782 38.6719H8.78906V41.4844H17.782C18.0842 42.5011 18.7067 43.3931 19.5568 44.0273C20.407 44.6616 21.4393 45.0042 22.5 45.0042C23.5607 45.0042 24.593 44.6616 25.4432 44.0273C26.2933 43.3931 26.9158 42.5011 27.218 41.4844H36.2109V38.6719H27.218C26.98 37.8905 26.5534 37.1798 25.9759 36.6022C25.3984 36.0247 24.6876 35.5981 23.9062 35.3602V33.75H41.1328C41.5058 33.75 41.8635 33.6018 42.1272 33.3381C42.3909 33.0744 42.5391 32.7167 42.5391 32.3438V6.32813C42.5391 5.95517 42.3909 5.59748 42.1272 5.33376C41.8635 5.07003 41.5058 4.92188 41.1328 4.92188H19.5609L17.8172 0.850783C17.7085 0.597921 17.5279 0.382523 17.298 0.23129C17.068 0.0800575 16.7987 -0.000361689 16.5234 1.22289e-06H3.86719C3.49423 1.22289e-06 3.13654 0.148159 2.87282 0.411882C2.6091 0.675605 2.46094 1.03329 2.46094 1.40625V32.3438C2.46094 32.7167 2.6091 33.0744 2.87282 33.3381C3.13654 33.6018 3.49423 33.75 3.86719 33.75ZM24.6094 40.0781C24.6094 40.4953 24.4857 40.9031 24.2539 41.25C24.0221 41.5969 23.6927 41.8673 23.3072 42.0269C22.9218 42.1866 22.4977 42.2284 22.0885 42.147C21.6793 42.0656 21.3034 41.8647 21.0084 41.5697C20.7134 41.2747 20.5125 40.8988 20.4312 40.4896C20.3498 40.0805 20.3915 39.6563 20.5512 39.2709C20.7108 38.8855 20.9812 38.556 21.3281 38.3242C21.675 38.0925 22.0828 37.9688 22.5 37.9688C23.0594 37.9688 23.596 38.191 23.9916 38.5866C24.3871 38.9822 24.6094 39.5187 24.6094 40.0781ZM5.27344 2.8125H15.5953L17.3391 6.88359C17.4478 7.13646 17.6283 7.35185 17.8583 7.50309C18.0883 7.65432 18.3576 7.73474 18.6328 7.73438H39.7266V30.9375H5.27344V2.8125Z" fill="#60646C"></path>
    <path d="M32.0415 16.657C32.0895 16.4784 32.1018 16.292 32.0776 16.1086C32.0535 15.9253 31.9934 15.7484 31.9008 15.5883L30.143 12.5367C29.9563 12.2144 29.6493 11.9793 29.2894 11.883C28.9295 11.7868 28.5462 11.8373 28.2235 12.0234L27.0282 12.7266C26.6 12.4246 26.1431 12.1656 25.6641 11.9531V10.5469C25.6641 10.1739 25.516 9.81623 25.2522 9.55251C24.9885 9.28878 24.6308 9.14062 24.2579 9.14062H20.7422C20.3693 9.14062 20.0116 9.28878 19.7479 9.55251C19.4842 9.81623 19.336 10.1739 19.336 10.5469V11.9531C18.8565 12.17 18.3996 12.4338 17.9719 12.7406L16.7766 12.0375C16.4539 11.8514 16.0706 11.8009 15.7107 11.8971C15.3508 11.9933 15.0438 12.2284 14.8571 12.5508L13.0993 15.6023C12.9131 15.925 12.8626 16.3084 12.9589 16.6683C13.0551 17.0282 13.2902 17.3352 13.6126 17.5219L14.8079 18.225C14.7516 18.7485 14.7516 19.2765 14.8079 19.8L13.6126 20.5031C13.2902 20.6898 13.0551 20.9968 12.9589 21.3567C12.8626 21.7166 12.9131 22.1 13.0993 22.4227L14.8571 25.4742C15.0438 25.7966 15.3508 26.0317 15.7107 26.1279C16.0706 26.2241 16.4539 26.1736 16.7766 25.9875L17.9719 25.2844C18.4019 25.5717 18.8587 25.8166 19.336 26.0156V27.4219C19.336 27.7948 19.4842 28.1525 19.7479 28.4162C20.0116 28.68 20.3693 28.8281 20.7422 28.8281H24.2579C24.6308 28.8281 24.9885 28.68 25.2522 28.4162C25.516 28.1525 25.6641 27.7948 25.6641 27.4219V26.0156C26.1436 25.7987 26.6005 25.5349 27.0282 25.2281L28.2235 25.9313C28.5462 26.1174 28.9295 26.1679 29.2894 26.0717C29.6493 25.9754 29.9563 25.7403 30.143 25.418L31.9008 22.3664C32.087 22.0437 32.1375 21.6604 32.0412 21.3005C31.945 20.9406 31.7099 20.6336 31.3876 20.4469L30.1922 19.7437C30.2485 19.2203 30.2485 18.6922 30.1922 18.1687L31.3876 17.4656C31.7008 17.2895 31.9348 17.0002 32.0415 16.657ZM27.2813 17.8031C27.4687 18.5795 27.4687 19.3893 27.2813 20.1656C27.2084 20.4613 27.2334 20.7726 27.3526 21.0528C27.4718 21.333 27.6787 21.567 27.9422 21.7195L28.7649 22.1906L28.4133 22.8094L27.5837 22.3313C27.3187 22.179 27.0113 22.1173 26.7081 22.1554C26.4049 22.1934 26.1223 22.3292 25.9032 22.5422C25.3429 23.087 24.6571 23.4854 23.9063 23.7023C23.6104 23.7853 23.3499 23.9629 23.1645 24.208C22.9791 24.453 22.8791 24.7521 22.8797 25.0594V26.0156H22.1766V25.0594C22.174 24.7446 22.0659 24.4398 21.8696 24.1938C21.6733 23.9478 21.4001 23.7747 21.0938 23.7023C20.333 23.4896 19.6371 23.0909 19.0688 22.5422C18.8497 22.3292 18.5671 22.1934 18.2639 22.1554C17.9607 22.1173 17.6533 22.179 17.3883 22.3313L16.5587 22.8094L16.2071 22.1906L17.0297 21.7195C17.2933 21.567 17.5002 21.333 17.6194 21.0528C17.7386 20.7726 17.7636 20.4613 17.6907 20.1656C17.5033 19.3893 17.5033 18.5795 17.6907 17.8031C17.7636 17.5075 17.7386 17.1961 17.6194 16.9159C17.5002 16.6357 17.2933 16.4017 17.0297 16.2492L16.2071 15.7781L16.5587 15.1594L17.3883 15.6375C17.6533 15.7897 17.9607 15.8514 18.2639 15.8134C18.5671 15.7753 18.8497 15.6395 19.0688 15.4266C19.6371 14.8778 20.333 14.4791 21.0938 14.2664C21.3897 14.1834 21.6502 14.0058 21.8356 13.7608C22.021 13.5157 22.121 13.2167 22.1204 12.9094V11.9531H22.8235V12.9094C22.8261 13.2241 22.9342 13.5289 23.1305 13.7749C23.3268 14.021 23.6 14.194 23.9063 14.2664C24.6671 14.4791 25.363 14.8778 25.9313 15.4266C26.1505 15.6395 26.433 15.7753 26.7362 15.8134C27.0394 15.8514 27.3468 15.7897 27.6118 15.6375L28.4415 15.1594L28.793 15.7781L27.9704 16.2492C27.7017 16.3976 27.4889 16.6297 27.3645 16.9103C27.2401 17.1908 27.2109 17.5044 27.2813 17.8031Z" fill="#60646C"></path>
  </g>
  <defs>
    <clipPath id="clip0_837_7290">
      <rect width="45" height="45" fill="white"></rect>
    </clipPath>
  </defs>
</svg>
