<?xml version="1.0" encoding="UTF-8"?>
<svg xmlns="http://www.w3.org/2000/svg" width="45" height="45" viewBox="0 0 45 45" fill="none">
  <path d="M38.3806 28.5369L33.7499 33.1677L31.9316 31.3494C31.3817 30.7996 30.493 30.7996 29.9431 31.3494C29.3933 31.8992 29.3933 32.788 29.9431 33.3378L32.7556 36.1503C33.0299 36.4246 33.3899 36.5624 33.7499 36.5624C34.1099 36.5624 34.4699 36.4246 34.7441 36.1503L40.3691 30.5253C40.9189 29.9755 40.9189 29.0867 40.3691 28.5369C39.8192 27.9871 38.9305 27.9871 38.3806 28.5369Z" fill="#60646C"></path>
  <path d="M40.7812 32.3437C40.0036 32.3437 39.375 32.9723 39.375 33.7499C39.375 36.8521 36.8522 39.3749 33.75 39.3749C30.6478 39.3749 28.125 36.8521 28.125 33.7499C28.125 30.6478 30.6478 28.1249 33.75 28.1249C34.5277 28.1249 35.1562 27.4963 35.1562 26.7187C35.1562 25.941 34.5277 25.3124 33.75 25.3124C29.0967 25.3124 25.3125 29.0967 25.3125 33.7499C25.3125 34.8299 25.5234 35.8593 25.8947 36.8085L22.5 38.5059V19.2192L36.5625 13.3593V25.3124C36.5625 26.0901 37.1911 26.7187 37.9688 26.7187C38.7464 26.7187 39.375 26.0901 39.375 25.3124V11.2499C39.375 11.0784 39.3342 10.9153 39.2766 10.7606C39.2583 10.7113 39.2344 10.6692 39.2105 10.6228C39.1584 10.5187 39.0938 10.4245 39.0178 10.3359C38.9841 10.2979 38.9545 10.2585 38.9166 10.2234C38.8083 10.1221 38.6859 10.0363 38.5467 9.97447C38.5341 9.96885 38.5242 9.959 38.5116 9.95338C38.5116 9.95338 38.5102 9.95338 38.5102 9.95197L21.6352 2.92072C21.2892 2.77447 20.8997 2.77447 20.5523 2.92072L3.67734 9.95197C3.67734 9.95197 3.67594 9.95197 3.67594 9.95338C3.66328 9.959 3.65484 9.96885 3.64219 9.97447C3.50156 10.0378 3.37922 10.1235 3.27094 10.2234C3.23297 10.2585 3.20344 10.2979 3.16969 10.3359C3.09375 10.4245 3.02906 10.5187 2.97703 10.6228C2.95313 10.6692 2.92922 10.7113 2.91094 10.7606C2.85328 10.9153 2.8125 11.0784 2.8125 11.2499V32.3437C2.8125 32.8767 3.11344 33.3632 3.59016 33.6023L20.4652 42.0398C20.662 42.1382 20.8786 42.1874 21.0938 42.1874C21.3089 42.1874 21.5255 42.1382 21.7223 42.0398L27.3445 39.2287C28.8942 41.0357 31.1878 42.1874 33.75 42.1874C38.4033 42.1874 42.1875 38.4032 42.1875 33.7499C42.1875 32.9723 41.5589 32.3437 40.7812 32.3437ZM21.0938 5.74166L34.3125 11.2499L21.0938 16.7582L7.875 11.2499L21.0938 5.74166ZM5.625 13.3593L19.6875 19.2192V38.5059L5.625 31.4746V13.3593Z" fill="#60646C"></path>
</svg>
